<svg width="500" height="266" viewBox="0 0 500 266" fill="none" xmlns="http://www.w3.org/2000/svg">
<mask id="mask0" mask-type="alpha" maskUnits="userSpaceOnUse" x="0" y="0" width="500" height="266">
<path d="M500 266H0C0 157 150.523 118 250 118C349.477 118 382.477 44.5 500 0V266Z" fill="#3D3D3D"/>
</mask>
<g mask="url(#mask0)">
<rect x="7.04785" y="-13.5" width="10" height="10" transform="rotate(45 7.04785 -13.5)" fill="#FFD948"/>
<rect x="26.5127" y="-13.5" width="10" height="10" transform="rotate(45 26.5127 -13.5)" fill="#FFD948"/>
<rect x="45.5127" y="-13.5" width="10" height="10" transform="rotate(45 45.5127 -13.5)" fill="#FFD948"/>
<rect x="64.5127" y="-13.5" width="10" height="10" transform="rotate(45 64.5127 -13.5)" fill="#FFD948"/>
<rect x="83.5127" y="-13.5" width="10" height="10" transform="rotate(45 83.5127 -13.5)" fill="#FFD948"/>
<rect x="102.978" y="-13.5" width="10" height="10" transform="rotate(45 102.978 -13.5)" fill="#FFD948"/>
<rect x="121.978" y="-13.5" width="10" height="10" transform="rotate(45 121.978 -13.5)" fill="#FFD948"/>
<rect x="140.978" y="-13.5" width="10" height="10" transform="rotate(45 140.978 -13.5)" fill="#FFD948"/>
<rect x="160.513" y="-13.5" width="10" height="10" transform="rotate(45 160.513 -13.5)" fill="#FFD948"/>
<rect x="179.978" y="-13.5" width="10" height="10" transform="rotate(45 179.978 -13.5)" fill="#FFD948"/>
<rect x="198.978" y="-13.5" width="10" height="10" transform="rotate(45 198.978 -13.5)" fill="#FFD948"/>
<rect x="217.978" y="-13.5" width="10" height="10" transform="rotate(45 217.978 -13.5)" fill="#FFD948"/>
<rect x="237.513" y="-13.5" width="10" height="10" transform="rotate(45 237.513 -13.5)" fill="#FFD948"/>
<rect x="256.978" y="-13.5" width="10" height="10" transform="rotate(45 256.978 -13.5)" fill="#FFD948"/>
<rect x="275.978" y="-13.5" width="10" height="10" transform="rotate(45 275.978 -13.5)" fill="#FFD948"/>
<rect x="294.978" y="-13.5" width="10" height="10" transform="rotate(45 294.978 -13.5)" fill="#FFD948"/>
<rect x="313.978" y="-13.5" width="10" height="10" transform="rotate(45 313.978 -13.5)" fill="#FFD948"/>
<rect x="333.442" y="-13.5" width="10" height="10" transform="rotate(45 333.442 -13.5)" fill="#FFD948"/>
<rect x="352.442" y="-13.5" width="10" height="10" transform="rotate(45 352.442 -13.5)" fill="#FFD948"/>
<rect x="371.442" y="-13.5" width="10" height="10" transform="rotate(45 371.442 -13.5)" fill="#FFD948"/>
<rect x="390.978" y="-13.5" width="10" height="10" transform="rotate(45 390.978 -13.5)" fill="#FFD948"/>
<rect x="410.442" y="-13.5" width="10" height="10" transform="rotate(45 410.442 -13.5)" fill="#FFD948"/>
<rect x="429.442" y="-13.5" width="10" height="10" transform="rotate(45 429.442 -13.5)" fill="#FFD948"/>
<rect x="448.442" y="-13.5" width="10" height="10" transform="rotate(45 448.442 -13.5)" fill="#FFD948"/>
<rect x="468.048" y="-13.5" width="10" height="10" transform="rotate(45 468.048 -13.5)" fill="#FFD948"/>
<rect x="487.513" y="-13.5" width="10" height="10" transform="rotate(45 487.513 -13.5)" fill="#FFD948"/>
<rect x="506.513" y="-13.5" width="10" height="10" transform="rotate(45 506.513 -13.5)" fill="#FFD948"/>
<rect x="7.04785" y="5.5" width="10" height="10" transform="rotate(45 7.04785 5.5)" fill="#FFD948"/>
<rect x="26.5127" y="5.5" width="10" height="10" transform="rotate(45 26.5127 5.5)" fill="#FFD948"/>
<rect x="45.5127" y="5.5" width="10" height="10" transform="rotate(45 45.5127 5.5)" fill="#FFD948"/>
<rect x="64.5127" y="5.5" width="10" height="10" transform="rotate(45 64.5127 5.5)" fill="#FFD948"/>
<rect x="83.5127" y="5.5" width="10" height="10" transform="rotate(45 83.5127 5.5)" fill="#FFD948"/>
<rect x="102.978" y="5.5" width="10" height="10" transform="rotate(45 102.978 5.5)" fill="#FFD948"/>
<rect x="121.978" y="5.5" width="10" height="10" transform="rotate(45 121.978 5.5)" fill="#FFD948"/>
<rect x="140.978" y="5.5" width="10" height="10" transform="rotate(45 140.978 5.5)" fill="#FFD948"/>
<rect x="160.513" y="5.5" width="10" height="10" transform="rotate(45 160.513 5.5)" fill="#FFD948"/>
<rect x="179.978" y="5.5" width="10" height="10" transform="rotate(45 179.978 5.5)" fill="#FFD948"/>
<rect x="198.978" y="5.5" width="10" height="10" transform="rotate(45 198.978 5.5)" fill="#FFD948"/>
<rect x="217.978" y="5.5" width="10" height="10" transform="rotate(45 217.978 5.5)" fill="#FFD948"/>
<rect x="237.513" y="5.5" width="10" height="10" transform="rotate(45 237.513 5.5)" fill="#FFD948"/>
<rect x="256.978" y="5.5" width="10" height="10" transform="rotate(45 256.978 5.5)" fill="#FFD948"/>
<rect x="275.978" y="5.5" width="10" height="10" transform="rotate(45 275.978 5.5)" fill="#FFD948"/>
<rect x="294.978" y="5.5" width="10" height="10" transform="rotate(45 294.978 5.5)" fill="#FFD948"/>
<rect x="313.978" y="5.5" width="10" height="10" transform="rotate(45 313.978 5.5)" fill="#FFD948"/>
<rect x="333.442" y="5.5" width="10" height="10" transform="rotate(45 333.442 5.5)" fill="#FFD948"/>
<rect x="352.442" y="5.5" width="10" height="10" transform="rotate(45 352.442 5.5)" fill="#FFD948"/>
<rect x="371.442" y="5.5" width="10" height="10" transform="rotate(45 371.442 5.5)" fill="#FFD948"/>
<rect x="390.978" y="5.5" width="10" height="10" transform="rotate(45 390.978 5.5)" fill="#FFD948"/>
<rect x="410.442" y="5.5" width="10" height="10" transform="rotate(45 410.442 5.5)" fill="#FFD948"/>
<rect x="429.442" y="5.5" width="10" height="10" transform="rotate(45 429.442 5.5)" fill="#FFD948"/>
<rect x="448.442" y="5.5" width="10" height="10" transform="rotate(45 448.442 5.5)" fill="#FFD948"/>
<rect x="468.048" y="5.5" width="10" height="10" transform="rotate(45 468.048 5.5)" fill="#FFD948"/>
<rect x="487.513" y="5.5" width="10" height="10" transform="rotate(45 487.513 5.5)" fill="#FFD948"/>
<rect x="506.513" y="5.5" width="10" height="10" transform="rotate(45 506.513 5.5)" fill="#FFD948"/>
<rect x="7.04785" y="24.5" width="10" height="10" transform="rotate(45 7.04785 24.5)" fill="#FFD948"/>
<rect x="26.5127" y="24.5" width="10" height="10" transform="rotate(45 26.5127 24.5)" fill="#FFD948"/>
<rect x="45.5127" y="24.5" width="10" height="10" transform="rotate(45 45.5127 24.5)" fill="#FFD948"/>
<rect x="64.5127" y="24.5" width="10" height="10" transform="rotate(45 64.5127 24.5)" fill="#FFD948"/>
<rect x="83.5127" y="24.5" width="10" height="10" transform="rotate(45 83.5127 24.5)" fill="#FFD948"/>
<rect x="102.978" y="24.5" width="10" height="10" transform="rotate(45 102.978 24.5)" fill="#FFD948"/>
<rect x="121.978" y="24.5" width="10" height="10" transform="rotate(45 121.978 24.5)" fill="#FFD948"/>
<rect x="140.978" y="24.5" width="10" height="10" transform="rotate(45 140.978 24.5)" fill="#FFD948"/>
<rect x="160.513" y="24.5" width="10" height="10" transform="rotate(45 160.513 24.5)" fill="#FFD948"/>
<rect x="179.978" y="24.5" width="10" height="10" transform="rotate(45 179.978 24.5)" fill="#FFD948"/>
<rect x="198.978" y="24.5" width="10" height="10" transform="rotate(45 198.978 24.5)" fill="#FFD948"/>
<rect x="217.978" y="24.5" width="10" height="10" transform="rotate(45 217.978 24.5)" fill="#FFD948"/>
<rect x="237.513" y="24.5" width="10" height="10" transform="rotate(45 237.513 24.5)" fill="#FFD948"/>
<rect x="256.978" y="24.5" width="10" height="10" transform="rotate(45 256.978 24.5)" fill="#FFD948"/>
<rect x="275.978" y="24.5" width="10" height="10" transform="rotate(45 275.978 24.5)" fill="#FFD948"/>
<rect x="294.978" y="24.5" width="10" height="10" transform="rotate(45 294.978 24.5)" fill="#FFD948"/>
<rect x="313.978" y="24.5" width="10" height="10" transform="rotate(45 313.978 24.5)" fill="#FFD948"/>
<rect x="333.442" y="24.5" width="10" height="10" transform="rotate(45 333.442 24.5)" fill="#FFD948"/>
<rect x="352.442" y="24.5" width="10" height="10" transform="rotate(45 352.442 24.5)" fill="#FFD948"/>
<rect x="371.442" y="24.5" width="10" height="10" transform="rotate(45 371.442 24.5)" fill="#FFD948"/>
<rect x="390.978" y="24.5" width="10" height="10" transform="rotate(45 390.978 24.5)" fill="#FFD948"/>
<rect x="410.442" y="24.5" width="10" height="10" transform="rotate(45 410.442 24.5)" fill="#FFD948"/>
<rect x="429.442" y="24.5" width="10" height="10" transform="rotate(45 429.442 24.5)" fill="#FFD948"/>
<rect x="448.442" y="24.5" width="10" height="10" transform="rotate(45 448.442 24.5)" fill="#FFD948"/>
<rect x="468.048" y="24.5" width="10" height="10" transform="rotate(45 468.048 24.5)" fill="#FFD948"/>
<rect x="487.513" y="24.5" width="10" height="10" transform="rotate(45 487.513 24.5)" fill="#FFD948"/>
<rect x="506.513" y="24.5" width="10" height="10" transform="rotate(45 506.513 24.5)" fill="#FFD948"/>
<rect x="7.04785" y="43.5" width="10" height="10" transform="rotate(45 7.04785 43.5)" fill="#FFD948"/>
<rect x="26.5127" y="43.5" width="10" height="10" transform="rotate(45 26.5127 43.5)" fill="#FFD948"/>
<rect x="45.5127" y="43.5" width="10" height="10" transform="rotate(45 45.5127 43.5)" fill="#FFD948"/>
<rect x="64.5127" y="43.5" width="10" height="10" transform="rotate(45 64.5127 43.5)" fill="#FFD948"/>
<rect x="83.5127" y="43.5" width="10" height="10" transform="rotate(45 83.5127 43.5)" fill="#FFD948"/>
<rect x="102.978" y="43.5" width="10" height="10" transform="rotate(45 102.978 43.5)" fill="#FFD948"/>
<rect x="121.978" y="43.5" width="10" height="10" transform="rotate(45 121.978 43.5)" fill="#FFD948"/>
<rect x="140.978" y="43.5" width="10" height="10" transform="rotate(45 140.978 43.5)" fill="#FFD948"/>
<rect x="160.513" y="43.5" width="10" height="10" transform="rotate(45 160.513 43.5)" fill="#FFD948"/>
<rect x="179.978" y="43.5" width="10" height="10" transform="rotate(45 179.978 43.5)" fill="#FFD948"/>
<rect x="198.978" y="43.5" width="10" height="10" transform="rotate(45 198.978 43.5)" fill="#FFD948"/>
<rect x="217.978" y="43.5" width="10" height="10" transform="rotate(45 217.978 43.5)" fill="#FFD948"/>
<rect x="237.513" y="43.5" width="10" height="10" transform="rotate(45 237.513 43.5)" fill="#FFD948"/>
<rect x="256.978" y="43.5" width="10" height="10" transform="rotate(45 256.978 43.5)" fill="#FFD948"/>
<rect x="275.978" y="43.5" width="10" height="10" transform="rotate(45 275.978 43.5)" fill="#FFD948"/>
<rect x="294.978" y="43.5" width="10" height="10" transform="rotate(45 294.978 43.5)" fill="#FFD948"/>
<rect x="313.978" y="43.5" width="10" height="10" transform="rotate(45 313.978 43.5)" fill="#FFD948"/>
<rect x="333.442" y="43.5" width="10" height="10" transform="rotate(45 333.442 43.5)" fill="#FFD948"/>
<rect x="352.442" y="43.5" width="10" height="10" transform="rotate(45 352.442 43.5)" fill="#FFD948"/>
<rect x="371.442" y="43.5" width="10" height="10" transform="rotate(45 371.442 43.5)" fill="#FFD948"/>
<rect x="390.978" y="43.5" width="10" height="10" transform="rotate(45 390.978 43.5)" fill="#FFD948"/>
<rect x="410.442" y="43.5" width="10" height="10" transform="rotate(45 410.442 43.5)" fill="#FFD948"/>
<rect x="429.442" y="43.5" width="10" height="10" transform="rotate(45 429.442 43.5)" fill="#FFD948"/>
<rect x="448.442" y="43.5" width="10" height="10" transform="rotate(45 448.442 43.5)" fill="#FFD948"/>
<rect x="468.048" y="43.5" width="10" height="10" transform="rotate(45 468.048 43.5)" fill="#FFD948"/>
<rect x="487.513" y="43.5" width="10" height="10" transform="rotate(45 487.513 43.5)" fill="#FFD948"/>
<rect x="506.513" y="43.5" width="10" height="10" transform="rotate(45 506.513 43.5)" fill="#FFD948"/>
<rect x="7.04785" y="62.5" width="10" height="10" transform="rotate(45 7.04785 62.5)" fill="#FFD948"/>
<rect x="26.5127" y="62.5" width="10" height="10" transform="rotate(45 26.5127 62.5)" fill="#FFD948"/>
<rect x="45.5127" y="62.5" width="10" height="10" transform="rotate(45 45.5127 62.5)" fill="#FFD948"/>
<rect x="64.5127" y="62.5" width="10" height="10" transform="rotate(45 64.5127 62.5)" fill="#FFD948"/>
<rect x="83.5127" y="62.5" width="10" height="10" transform="rotate(45 83.5127 62.5)" fill="#FFD948"/>
<rect x="102.978" y="62.5" width="10" height="10" transform="rotate(45 102.978 62.5)" fill="#FFD948"/>
<rect x="121.978" y="62.5" width="10" height="10" transform="rotate(45 121.978 62.5)" fill="#FFD948"/>
<rect x="140.978" y="62.5" width="10" height="10" transform="rotate(45 140.978 62.5)" fill="#FFD948"/>
<rect x="160.513" y="62.5" width="10" height="10" transform="rotate(45 160.513 62.5)" fill="#FFD948"/>
<rect x="179.978" y="62.5" width="10" height="10" transform="rotate(45 179.978 62.5)" fill="#FFD948"/>
<rect x="198.978" y="62.5" width="10" height="10" transform="rotate(45 198.978 62.5)" fill="#FFD948"/>
<rect x="217.978" y="62.5" width="10" height="10" transform="rotate(45 217.978 62.5)" fill="#FFD948"/>
<rect x="237.513" y="62.5" width="10" height="10" transform="rotate(45 237.513 62.5)" fill="#FFD948"/>
<rect x="256.978" y="62.5" width="10" height="10" transform="rotate(45 256.978 62.5)" fill="#FFD948"/>
<rect x="275.978" y="62.5" width="10" height="10" transform="rotate(45 275.978 62.5)" fill="#FFD948"/>
<rect x="294.978" y="62.5" width="10" height="10" transform="rotate(45 294.978 62.5)" fill="#FFD948"/>
<rect x="313.978" y="62.5" width="10" height="10" transform="rotate(45 313.978 62.5)" fill="#FFD948"/>
<rect x="333.442" y="62.5" width="10" height="10" transform="rotate(45 333.442 62.5)" fill="#FFD948"/>
<rect x="352.442" y="62.5" width="10" height="10" transform="rotate(45 352.442 62.5)" fill="#FFD948"/>
<rect x="371.442" y="62.5" width="10" height="10" transform="rotate(45 371.442 62.5)" fill="#FFD948"/>
<rect x="390.978" y="62.5" width="10" height="10" transform="rotate(45 390.978 62.5)" fill="#FFD948"/>
<rect x="410.442" y="62.5" width="10" height="10" transform="rotate(45 410.442 62.5)" fill="#FFD948"/>
<rect x="429.442" y="62.5" width="10" height="10" transform="rotate(45 429.442 62.5)" fill="#FFD948"/>
<rect x="448.442" y="62.5" width="10" height="10" transform="rotate(45 448.442 62.5)" fill="#FFD948"/>
<rect x="468.048" y="62.5" width="10" height="10" transform="rotate(45 468.048 62.5)" fill="#FFD948"/>
<rect x="487.513" y="62.5" width="10" height="10" transform="rotate(45 487.513 62.5)" fill="#FFD948"/>
<rect x="506.513" y="62.5" width="10" height="10" transform="rotate(45 506.513 62.5)" fill="#FFD948"/>
<rect x="7.04785" y="81.5" width="10" height="10" transform="rotate(45 7.04785 81.5)" fill="#FFD948"/>
<rect x="26.5127" y="81.5" width="10" height="10" transform="rotate(45 26.5127 81.5)" fill="#FFD948"/>
<rect x="45.5127" y="81.5" width="10" height="10" transform="rotate(45 45.5127 81.5)" fill="#FFD948"/>
<rect x="64.5127" y="81.5" width="10" height="10" transform="rotate(45 64.5127 81.5)" fill="#FFD948"/>
<rect x="83.5127" y="81.5" width="10" height="10" transform="rotate(45 83.5127 81.5)" fill="#FFD948"/>
<rect x="102.978" y="81.5" width="10" height="10" transform="rotate(45 102.978 81.5)" fill="#FFD948"/>
<rect x="121.978" y="81.5" width="10" height="10" transform="rotate(45 121.978 81.5)" fill="#FFD948"/>
<rect x="140.978" y="81.5" width="10" height="10" transform="rotate(45 140.978 81.5)" fill="#FFD948"/>
<rect x="160.513" y="81.5" width="10" height="10" transform="rotate(45 160.513 81.5)" fill="#FFD948"/>
<rect x="179.978" y="81.5" width="10" height="10" transform="rotate(45 179.978 81.5)" fill="#FFD948"/>
<rect x="198.978" y="81.5" width="10" height="10" transform="rotate(45 198.978 81.5)" fill="#FFD948"/>
<rect x="217.978" y="81.5" width="10" height="10" transform="rotate(45 217.978 81.5)" fill="#FFD948"/>
<rect x="237.513" y="81.5" width="10" height="10" transform="rotate(45 237.513 81.5)" fill="#FFD948"/>
<rect x="256.978" y="81.5" width="10" height="10" transform="rotate(45 256.978 81.5)" fill="#FFD948"/>
<rect x="275.978" y="81.5" width="10" height="10" transform="rotate(45 275.978 81.5)" fill="#FFD948"/>
<rect x="294.978" y="81.5" width="10" height="10" transform="rotate(45 294.978 81.5)" fill="#FFD948"/>
<rect x="313.978" y="81.5" width="10" height="10" transform="rotate(45 313.978 81.5)" fill="#FFD948"/>
<rect x="333.442" y="81.5" width="10" height="10" transform="rotate(45 333.442 81.5)" fill="#FFD948"/>
<rect x="352.442" y="81.5" width="10" height="10" transform="rotate(45 352.442 81.5)" fill="#FFD948"/>
<rect x="371.442" y="81.5" width="10" height="10" transform="rotate(45 371.442 81.5)" fill="#FFD948"/>
<rect x="390.978" y="81.5" width="10" height="10" transform="rotate(45 390.978 81.5)" fill="#FFD948"/>
<rect x="410.442" y="81.5" width="10" height="10" transform="rotate(45 410.442 81.5)" fill="#FFD948"/>
<rect x="429.442" y="81.5" width="10" height="10" transform="rotate(45 429.442 81.5)" fill="#FFD948"/>
<rect x="448.442" y="81.5" width="10" height="10" transform="rotate(45 448.442 81.5)" fill="#FFD948"/>
<rect x="468.048" y="81.5" width="10" height="10" transform="rotate(45 468.048 81.5)" fill="#FFD948"/>
<rect x="487.513" y="81.5" width="10" height="10" transform="rotate(45 487.513 81.5)" fill="#FFD948"/>
<rect x="506.513" y="81.5" width="10" height="10" transform="rotate(45 506.513 81.5)" fill="#FFD948"/>
<rect x="7.04785" y="100.5" width="10" height="10" transform="rotate(45 7.04785 100.5)" fill="#FFD948"/>
<rect x="26.5127" y="100.5" width="10" height="10" transform="rotate(45 26.5127 100.5)" fill="#FFD948"/>
<rect x="45.5127" y="100.5" width="10" height="10" transform="rotate(45 45.5127 100.5)" fill="#FFD948"/>
<rect x="64.5127" y="100.5" width="10" height="10" transform="rotate(45 64.5127 100.5)" fill="#FFD948"/>
<rect x="83.5127" y="100.5" width="10" height="10" transform="rotate(45 83.5127 100.5)" fill="#FFD948"/>
<rect x="102.978" y="100.5" width="10" height="10" transform="rotate(45 102.978 100.5)" fill="#FFD948"/>
<rect x="121.978" y="100.5" width="10" height="10" transform="rotate(45 121.978 100.5)" fill="#FFD948"/>
<rect x="140.978" y="100.5" width="10" height="10" transform="rotate(45 140.978 100.5)" fill="#FFD948"/>
<rect x="160.513" y="100.5" width="10" height="10" transform="rotate(45 160.513 100.5)" fill="#FFD948"/>
<rect x="179.978" y="100.5" width="10" height="10" transform="rotate(45 179.978 100.5)" fill="#FFD948"/>
<rect x="198.978" y="100.5" width="10" height="10" transform="rotate(45 198.978 100.5)" fill="#FFD948"/>
<rect x="217.978" y="100.5" width="10" height="10" transform="rotate(45 217.978 100.5)" fill="#FFD948"/>
<rect x="237.513" y="100.5" width="10" height="10" transform="rotate(45 237.513 100.5)" fill="#FFD948"/>
<rect x="256.978" y="100.5" width="10" height="10" transform="rotate(45 256.978 100.5)" fill="#FFD948"/>
<rect x="275.978" y="100.5" width="10" height="10" transform="rotate(45 275.978 100.5)" fill="#FFD948"/>
<rect x="294.978" y="100.5" width="10" height="10" transform="rotate(45 294.978 100.5)" fill="#FFD948"/>
<rect x="313.978" y="100.5" width="10" height="10" transform="rotate(45 313.978 100.5)" fill="#FFD948"/>
<rect x="333.442" y="100.5" width="10" height="10" transform="rotate(45 333.442 100.5)" fill="#FFD948"/>
<rect x="352.442" y="100.5" width="10" height="10" transform="rotate(45 352.442 100.5)" fill="#FFD948"/>
<rect x="371.442" y="100.5" width="10" height="10" transform="rotate(45 371.442 100.5)" fill="#FFD948"/>
<rect x="390.978" y="100.5" width="10" height="10" transform="rotate(45 390.978 100.5)" fill="#FFD948"/>
<rect x="410.442" y="100.5" width="10" height="10" transform="rotate(45 410.442 100.5)" fill="#FFD948"/>
<rect x="429.442" y="100.5" width="10" height="10" transform="rotate(45 429.442 100.5)" fill="#FFD948"/>
<rect x="448.442" y="100.5" width="10" height="10" transform="rotate(45 448.442 100.5)" fill="#FFD948"/>
<rect x="468.048" y="100.5" width="10" height="10" transform="rotate(45 468.048 100.5)" fill="#FFD948"/>
<rect x="487.513" y="100.5" width="10" height="10" transform="rotate(45 487.513 100.5)" fill="#FFD948"/>
<rect x="506.513" y="100.5" width="10" height="10" transform="rotate(45 506.513 100.5)" fill="#FFD948"/>
<rect x="7.04785" y="119.5" width="10" height="10" transform="rotate(45 7.04785 119.5)" fill="#FFD948"/>
<rect x="26.5127" y="119.5" width="10" height="10" transform="rotate(45 26.5127 119.5)" fill="#FFD948"/>
<rect x="45.5127" y="119.5" width="10" height="10" transform="rotate(45 45.5127 119.5)" fill="#FFD948"/>
<rect x="64.5127" y="119.5" width="10" height="10" transform="rotate(45 64.5127 119.5)" fill="#FFD948"/>
<rect x="83.5127" y="119.5" width="10" height="10" transform="rotate(45 83.5127 119.5)" fill="#FFD948"/>
<rect x="102.978" y="119.5" width="10" height="10" transform="rotate(45 102.978 119.5)" fill="#FFD948"/>
<rect x="121.978" y="119.5" width="10" height="10" transform="rotate(45 121.978 119.5)" fill="#FFD948"/>
<rect x="140.978" y="119.5" width="10" height="10" transform="rotate(45 140.978 119.5)" fill="#FFD948"/>
<rect x="160.513" y="119.5" width="10" height="10" transform="rotate(45 160.513 119.5)" fill="#FFD948"/>
<rect x="179.978" y="119.5" width="10" height="10" transform="rotate(45 179.978 119.5)" fill="#FFD948"/>
<rect x="198.978" y="119.5" width="10" height="10" transform="rotate(45 198.978 119.5)" fill="#FFD948"/>
<rect x="217.978" y="119.5" width="10" height="10" transform="rotate(45 217.978 119.5)" fill="#FFD948"/>
<rect x="237.513" y="119.5" width="10" height="10" transform="rotate(45 237.513 119.5)" fill="#FFD948"/>
<rect x="256.978" y="119.5" width="10" height="10" transform="rotate(45 256.978 119.5)" fill="#FFD948"/>
<rect x="275.978" y="119.5" width="10" height="10" transform="rotate(45 275.978 119.5)" fill="#FFD948"/>
<rect x="294.978" y="119.5" width="10" height="10" transform="rotate(45 294.978 119.5)" fill="#FFD948"/>
<rect x="313.978" y="119.5" width="10" height="10" transform="rotate(45 313.978 119.5)" fill="#FFD948"/>
<rect x="333.442" y="119.5" width="10" height="10" transform="rotate(45 333.442 119.5)" fill="#FFD948"/>
<rect x="352.442" y="119.5" width="10" height="10" transform="rotate(45 352.442 119.5)" fill="#FFD948"/>
<rect x="371.442" y="119.5" width="10" height="10" transform="rotate(45 371.442 119.5)" fill="#FFD948"/>
<rect x="390.978" y="119.5" width="10" height="10" transform="rotate(45 390.978 119.5)" fill="#FFD948"/>
<rect x="410.442" y="119.5" width="10" height="10" transform="rotate(45 410.442 119.5)" fill="#FFD948"/>
<rect x="429.442" y="119.5" width="10" height="10" transform="rotate(45 429.442 119.5)" fill="#FFD948"/>
<rect x="448.442" y="119.5" width="10" height="10" transform="rotate(45 448.442 119.5)" fill="#FFD948"/>
<rect x="468.048" y="119.5" width="10" height="10" transform="rotate(45 468.048 119.5)" fill="#FFD948"/>
<rect x="487.513" y="119.5" width="10" height="10" transform="rotate(45 487.513 119.5)" fill="#FFD948"/>
<rect x="506.513" y="119.5" width="10" height="10" transform="rotate(45 506.513 119.5)" fill="#FFD948"/>
<rect x="7.04785" y="138.5" width="10" height="10" transform="rotate(45 7.04785 138.5)" fill="#FFD948"/>
<rect x="26.5127" y="138.5" width="10" height="10" transform="rotate(45 26.5127 138.5)" fill="#FFD948"/>
<rect x="45.5127" y="138.5" width="10" height="10" transform="rotate(45 45.5127 138.5)" fill="#FFD948"/>
<rect x="64.5127" y="138.5" width="10" height="10" transform="rotate(45 64.5127 138.5)" fill="#FFD948"/>
<rect x="83.5127" y="138.5" width="10" height="10" transform="rotate(45 83.5127 138.5)" fill="#FFD948"/>
<rect x="102.978" y="138.5" width="10" height="10" transform="rotate(45 102.978 138.5)" fill="#FFD948"/>
<rect x="121.978" y="138.5" width="10" height="10" transform="rotate(45 121.978 138.5)" fill="#FFD948"/>
<rect x="140.978" y="138.5" width="10" height="10" transform="rotate(45 140.978 138.5)" fill="#FFD948"/>
<rect x="160.513" y="138.5" width="10" height="10" transform="rotate(45 160.513 138.5)" fill="#FFD948"/>
<rect x="179.978" y="138.5" width="10" height="10" transform="rotate(45 179.978 138.5)" fill="#FFD948"/>
<rect x="198.978" y="138.5" width="10" height="10" transform="rotate(45 198.978 138.5)" fill="#FFD948"/>
<rect x="217.978" y="138.5" width="10" height="10" transform="rotate(45 217.978 138.5)" fill="#FFD948"/>
<rect x="237.513" y="138.5" width="10" height="10" transform="rotate(45 237.513 138.5)" fill="#FFD948"/>
<rect x="256.978" y="138.5" width="10" height="10" transform="rotate(45 256.978 138.5)" fill="#FFD948"/>
<rect x="275.978" y="138.5" width="10" height="10" transform="rotate(45 275.978 138.5)" fill="#FFD948"/>
<rect x="294.978" y="138.5" width="10" height="10" transform="rotate(45 294.978 138.5)" fill="#FFD948"/>
<rect x="313.978" y="138.5" width="10" height="10" transform="rotate(45 313.978 138.5)" fill="#FFD948"/>
<rect x="333.442" y="138.5" width="10" height="10" transform="rotate(45 333.442 138.5)" fill="#FFD948"/>
<rect x="352.442" y="138.5" width="10" height="10" transform="rotate(45 352.442 138.5)" fill="#FFD948"/>
<rect x="371.442" y="138.5" width="10" height="10" transform="rotate(45 371.442 138.5)" fill="#FFD948"/>
<rect x="390.978" y="138.5" width="10" height="10" transform="rotate(45 390.978 138.5)" fill="#FFD948"/>
<rect x="410.442" y="138.5" width="10" height="10" transform="rotate(45 410.442 138.5)" fill="#FFD948"/>
<rect x="429.442" y="138.5" width="10" height="10" transform="rotate(45 429.442 138.5)" fill="#FFD948"/>
<rect x="448.442" y="138.5" width="10" height="10" transform="rotate(45 448.442 138.5)" fill="#FFD948"/>
<rect x="468.048" y="138.5" width="10" height="10" transform="rotate(45 468.048 138.5)" fill="#FFD948"/>
<rect x="487.513" y="138.5" width="10" height="10" transform="rotate(45 487.513 138.5)" fill="#FFD948"/>
<rect x="506.513" y="138.5" width="10" height="10" transform="rotate(45 506.513 138.5)" fill="#FFD948"/>
<rect x="7.04785" y="157.5" width="10" height="10" transform="rotate(45 7.04785 157.5)" fill="#FFD948"/>
<rect x="26.5127" y="157.5" width="10" height="10" transform="rotate(45 26.5127 157.5)" fill="#FFD948"/>
<rect x="45.5127" y="157.5" width="10" height="10" transform="rotate(45 45.5127 157.5)" fill="#FFD948"/>
<rect x="64.5127" y="157.5" width="10" height="10" transform="rotate(45 64.5127 157.5)" fill="#FFD948"/>
<rect x="83.5127" y="157.5" width="10" height="10" transform="rotate(45 83.5127 157.5)" fill="#FFD948"/>
<rect x="102.978" y="157.5" width="10" height="10" transform="rotate(45 102.978 157.5)" fill="#FFD948"/>
<rect x="121.978" y="157.5" width="10" height="10" transform="rotate(45 121.978 157.5)" fill="#FFD948"/>
<rect x="140.978" y="157.5" width="10" height="10" transform="rotate(45 140.978 157.5)" fill="#FFD948"/>
<rect x="160.513" y="157.5" width="10" height="10" transform="rotate(45 160.513 157.5)" fill="#FFD948"/>
<rect x="179.978" y="157.5" width="10" height="10" transform="rotate(45 179.978 157.5)" fill="#FFD948"/>
<rect x="198.978" y="157.5" width="10" height="10" transform="rotate(45 198.978 157.5)" fill="#FFD948"/>
<rect x="217.978" y="157.5" width="10" height="10" transform="rotate(45 217.978 157.5)" fill="#FFD948"/>
<rect x="237.513" y="157.5" width="10" height="10" transform="rotate(45 237.513 157.5)" fill="#FFD948"/>
<rect x="256.978" y="157.5" width="10" height="10" transform="rotate(45 256.978 157.5)" fill="#FFD948"/>
<rect x="275.978" y="157.5" width="10" height="10" transform="rotate(45 275.978 157.5)" fill="#FFD948"/>
<rect x="294.978" y="157.5" width="10" height="10" transform="rotate(45 294.978 157.5)" fill="#FFD948"/>
<rect x="313.978" y="157.5" width="10" height="10" transform="rotate(45 313.978 157.5)" fill="#FFD948"/>
<rect x="333.442" y="157.5" width="10" height="10" transform="rotate(45 333.442 157.5)" fill="#FFD948"/>
<rect x="352.442" y="157.5" width="10" height="10" transform="rotate(45 352.442 157.5)" fill="#FFD948"/>
<rect x="371.442" y="157.5" width="10" height="10" transform="rotate(45 371.442 157.5)" fill="#FFD948"/>
<rect x="390.978" y="157.5" width="10" height="10" transform="rotate(45 390.978 157.5)" fill="#FFD948"/>
<rect x="410.442" y="157.5" width="10" height="10" transform="rotate(45 410.442 157.5)" fill="#FFD948"/>
<rect x="429.442" y="157.5" width="10" height="10" transform="rotate(45 429.442 157.5)" fill="#FFD948"/>
<rect x="448.442" y="157.5" width="10" height="10" transform="rotate(45 448.442 157.5)" fill="#FFD948"/>
<rect x="468.048" y="157.5" width="10" height="10" transform="rotate(45 468.048 157.5)" fill="#FFD948"/>
<rect x="487.513" y="157.5" width="10" height="10" transform="rotate(45 487.513 157.5)" fill="#FFD948"/>
<rect x="506.513" y="157.5" width="10" height="10" transform="rotate(45 506.513 157.5)" fill="#FFD948"/>
<rect x="7.04785" y="176.5" width="10" height="10" transform="rotate(45 7.04785 176.5)" fill="#FFD948"/>
<rect x="26.5127" y="176.5" width="10" height="10" transform="rotate(45 26.5127 176.5)" fill="#FFD948"/>
<rect x="45.5127" y="176.5" width="10" height="10" transform="rotate(45 45.5127 176.5)" fill="#FFD948"/>
<rect x="64.5127" y="176.5" width="10" height="10" transform="rotate(45 64.5127 176.5)" fill="#FFD948"/>
<rect x="83.5127" y="176.5" width="10" height="10" transform="rotate(45 83.5127 176.5)" fill="#FFD948"/>
<rect x="102.978" y="176.5" width="10" height="10" transform="rotate(45 102.978 176.5)" fill="#FFD948"/>
<rect x="121.978" y="176.5" width="10" height="10" transform="rotate(45 121.978 176.5)" fill="#FFD948"/>
<rect x="140.978" y="176.5" width="10" height="10" transform="rotate(45 140.978 176.5)" fill="#FFD948"/>
<rect x="160.513" y="176.5" width="10" height="10" transform="rotate(45 160.513 176.5)" fill="#FFD948"/>
<rect x="179.978" y="176.5" width="10" height="10" transform="rotate(45 179.978 176.5)" fill="#FFD948"/>
<rect x="198.978" y="176.5" width="10" height="10" transform="rotate(45 198.978 176.5)" fill="#FFD948"/>
<rect x="217.978" y="176.5" width="10" height="10" transform="rotate(45 217.978 176.5)" fill="#FFD948"/>
<rect x="237.513" y="176.5" width="10" height="10" transform="rotate(45 237.513 176.5)" fill="#FFD948"/>
<rect x="256.978" y="176.5" width="10" height="10" transform="rotate(45 256.978 176.5)" fill="#FFD948"/>
<rect x="275.978" y="176.5" width="10" height="10" transform="rotate(45 275.978 176.5)" fill="#FFD948"/>
<rect x="294.978" y="176.5" width="10" height="10" transform="rotate(45 294.978 176.5)" fill="#FFD948"/>
<rect x="313.978" y="176.5" width="10" height="10" transform="rotate(45 313.978 176.5)" fill="#FFD948"/>
<rect x="333.442" y="176.5" width="10" height="10" transform="rotate(45 333.442 176.5)" fill="#FFD948"/>
<rect x="352.442" y="176.5" width="10" height="10" transform="rotate(45 352.442 176.5)" fill="#FFD948"/>
<rect x="371.442" y="176.5" width="10" height="10" transform="rotate(45 371.442 176.5)" fill="#FFD948"/>
<rect x="390.978" y="176.5" width="10" height="10" transform="rotate(45 390.978 176.5)" fill="#FFD948"/>
<rect x="410.442" y="176.5" width="10" height="10" transform="rotate(45 410.442 176.5)" fill="#FFD948"/>
<rect x="429.442" y="176.5" width="10" height="10" transform="rotate(45 429.442 176.5)" fill="#FFD948"/>
<rect x="448.442" y="176.5" width="10" height="10" transform="rotate(45 448.442 176.5)" fill="#FFD948"/>
<rect x="468.048" y="176.5" width="10" height="10" transform="rotate(45 468.048 176.5)" fill="#FFD948"/>
<rect x="487.513" y="176.5" width="10" height="10" transform="rotate(45 487.513 176.5)" fill="#FFD948"/>
<rect x="506.513" y="176.5" width="10" height="10" transform="rotate(45 506.513 176.5)" fill="#FFD948"/>
<rect x="7.04785" y="195.5" width="10" height="10" transform="rotate(45 7.04785 195.5)" fill="#FFD948"/>
<rect x="26.5127" y="195.5" width="10" height="10" transform="rotate(45 26.5127 195.5)" fill="#FFD948"/>
<rect x="45.5127" y="195.5" width="10" height="10" transform="rotate(45 45.5127 195.5)" fill="#FFD948"/>
<rect x="64.5127" y="195.5" width="10" height="10" transform="rotate(45 64.5127 195.5)" fill="#FFD948"/>
<rect x="83.5127" y="195.5" width="10" height="10" transform="rotate(45 83.5127 195.5)" fill="#FFD948"/>
<rect x="102.978" y="195.5" width="10" height="10" transform="rotate(45 102.978 195.5)" fill="#FFD948"/>
<rect x="121.978" y="195.5" width="10" height="10" transform="rotate(45 121.978 195.5)" fill="#FFD948"/>
<rect x="140.978" y="195.5" width="10" height="10" transform="rotate(45 140.978 195.5)" fill="#FFD948"/>
<rect x="160.513" y="195.5" width="10" height="10" transform="rotate(45 160.513 195.5)" fill="#FFD948"/>
<rect x="179.978" y="195.5" width="10" height="10" transform="rotate(45 179.978 195.5)" fill="#FFD948"/>
<rect x="198.978" y="195.5" width="10" height="10" transform="rotate(45 198.978 195.5)" fill="#FFD948"/>
<rect x="217.978" y="195.5" width="10" height="10" transform="rotate(45 217.978 195.5)" fill="#FFD948"/>
<rect x="237.513" y="195.5" width="10" height="10" transform="rotate(45 237.513 195.5)" fill="#FFD948"/>
<rect x="256.978" y="195.5" width="10" height="10" transform="rotate(45 256.978 195.5)" fill="#FFD948"/>
<rect x="275.978" y="195.5" width="10" height="10" transform="rotate(45 275.978 195.5)" fill="#FFD948"/>
<rect x="294.978" y="195.5" width="10" height="10" transform="rotate(45 294.978 195.5)" fill="#FFD948"/>
<rect x="313.978" y="195.5" width="10" height="10" transform="rotate(45 313.978 195.5)" fill="#FFD948"/>
<rect x="333.442" y="195.5" width="10" height="10" transform="rotate(45 333.442 195.5)" fill="#FFD948"/>
<rect x="352.442" y="195.5" width="10" height="10" transform="rotate(45 352.442 195.5)" fill="#FFD948"/>
<rect x="371.442" y="195.5" width="10" height="10" transform="rotate(45 371.442 195.5)" fill="#FFD948"/>
<rect x="390.978" y="195.5" width="10" height="10" transform="rotate(45 390.978 195.5)" fill="#FFD948"/>
<rect x="410.442" y="195.5" width="10" height="10" transform="rotate(45 410.442 195.5)" fill="#FFD948"/>
<rect x="429.442" y="195.5" width="10" height="10" transform="rotate(45 429.442 195.5)" fill="#FFD948"/>
<rect x="448.442" y="195.5" width="10" height="10" transform="rotate(45 448.442 195.5)" fill="#FFD948"/>
<rect x="468.048" y="195.5" width="10" height="10" transform="rotate(45 468.048 195.5)" fill="#FFD948"/>
<rect x="487.513" y="195.5" width="10" height="10" transform="rotate(45 487.513 195.5)" fill="#FFD948"/>
<rect x="506.513" y="195.5" width="10" height="10" transform="rotate(45 506.513 195.5)" fill="#FFD948"/>
<rect x="7.04785" y="214.5" width="10" height="10" transform="rotate(45 7.04785 214.5)" fill="#FFD948"/>
<rect x="26.5127" y="214.5" width="10" height="10" transform="rotate(45 26.5127 214.5)" fill="#FFD948"/>
<rect x="45.5127" y="214.5" width="10" height="10" transform="rotate(45 45.5127 214.5)" fill="#FFD948"/>
<rect x="64.5127" y="214.5" width="10" height="10" transform="rotate(45 64.5127 214.5)" fill="#FFD948"/>
<rect x="83.5127" y="214.5" width="10" height="10" transform="rotate(45 83.5127 214.5)" fill="#FFD948"/>
<rect x="102.978" y="214.5" width="10" height="10" transform="rotate(45 102.978 214.5)" fill="#FFD948"/>
<rect x="121.978" y="214.5" width="10" height="10" transform="rotate(45 121.978 214.5)" fill="#FFD948"/>
<rect x="140.978" y="214.5" width="10" height="10" transform="rotate(45 140.978 214.5)" fill="#FFD948"/>
<rect x="160.513" y="214.5" width="10" height="10" transform="rotate(45 160.513 214.5)" fill="#FFD948"/>
<rect x="179.978" y="214.5" width="10" height="10" transform="rotate(45 179.978 214.5)" fill="#FFD948"/>
<rect x="198.978" y="214.5" width="10" height="10" transform="rotate(45 198.978 214.5)" fill="#FFD948"/>
<rect x="217.978" y="214.5" width="10" height="10" transform="rotate(45 217.978 214.5)" fill="#FFD948"/>
<rect x="237.513" y="214.5" width="10" height="10" transform="rotate(45 237.513 214.5)" fill="#FFD948"/>
<rect x="256.978" y="214.5" width="10" height="10" transform="rotate(45 256.978 214.5)" fill="#FFD948"/>
<rect x="275.978" y="214.5" width="10" height="10" transform="rotate(45 275.978 214.5)" fill="#FFD948"/>
<rect x="294.978" y="214.5" width="10" height="10" transform="rotate(45 294.978 214.5)" fill="#FFD948"/>
<rect x="313.978" y="214.5" width="10" height="10" transform="rotate(45 313.978 214.5)" fill="#FFD948"/>
<rect x="333.442" y="214.5" width="10" height="10" transform="rotate(45 333.442 214.5)" fill="#FFD948"/>
<rect x="352.442" y="214.5" width="10" height="10" transform="rotate(45 352.442 214.5)" fill="#FFD948"/>
<rect x="371.442" y="214.5" width="10" height="10" transform="rotate(45 371.442 214.5)" fill="#FFD948"/>
<rect x="390.978" y="214.5" width="10" height="10" transform="rotate(45 390.978 214.5)" fill="#FFD948"/>
<rect x="410.442" y="214.5" width="10" height="10" transform="rotate(45 410.442 214.5)" fill="#FFD948"/>
<rect x="429.442" y="214.5" width="10" height="10" transform="rotate(45 429.442 214.5)" fill="#FFD948"/>
<rect x="448.442" y="214.5" width="10" height="10" transform="rotate(45 448.442 214.5)" fill="#FFD948"/>
<rect x="468.048" y="214.5" width="10" height="10" transform="rotate(45 468.048 214.5)" fill="#FFD948"/>
<rect x="487.513" y="214.5" width="10" height="10" transform="rotate(45 487.513 214.5)" fill="#FFD948"/>
<rect x="506.513" y="214.5" width="10" height="10" transform="rotate(45 506.513 214.5)" fill="#FFD948"/>
<rect x="7.04785" y="233.5" width="10" height="10" transform="rotate(45 7.04785 233.5)" fill="#FFD948"/>
<rect x="26.5127" y="233.5" width="10" height="10" transform="rotate(45 26.5127 233.5)" fill="#FFD948"/>
<rect x="45.5127" y="233.5" width="10" height="10" transform="rotate(45 45.5127 233.5)" fill="#FFD948"/>
<rect x="64.5127" y="233.5" width="10" height="10" transform="rotate(45 64.5127 233.5)" fill="#FFD948"/>
<rect x="83.5127" y="233.5" width="10" height="10" transform="rotate(45 83.5127 233.5)" fill="#FFD948"/>
<rect x="102.978" y="233.5" width="10" height="10" transform="rotate(45 102.978 233.5)" fill="#FFD948"/>
<rect x="121.978" y="233.5" width="10" height="10" transform="rotate(45 121.978 233.5)" fill="#FFD948"/>
<rect x="140.978" y="233.5" width="10" height="10" transform="rotate(45 140.978 233.5)" fill="#FFD948"/>
<rect x="160.513" y="233.5" width="10" height="10" transform="rotate(45 160.513 233.5)" fill="#FFD948"/>
<rect x="179.978" y="233.5" width="10" height="10" transform="rotate(45 179.978 233.5)" fill="#FFD948"/>
<rect x="198.978" y="233.5" width="10" height="10" transform="rotate(45 198.978 233.5)" fill="#FFD948"/>
<rect x="217.978" y="233.5" width="10" height="10" transform="rotate(45 217.978 233.5)" fill="#FFD948"/>
<rect x="237.513" y="233.5" width="10" height="10" transform="rotate(45 237.513 233.5)" fill="#FFD948"/>
<rect x="256.978" y="233.5" width="10" height="10" transform="rotate(45 256.978 233.5)" fill="#FFD948"/>
<rect x="275.978" y="233.5" width="10" height="10" transform="rotate(45 275.978 233.5)" fill="#FFD948"/>
<rect x="294.978" y="233.5" width="10" height="10" transform="rotate(45 294.978 233.5)" fill="#FFD948"/>
<rect x="313.978" y="233.5" width="10" height="10" transform="rotate(45 313.978 233.5)" fill="#FFD948"/>
<rect x="333.442" y="233.5" width="10" height="10" transform="rotate(45 333.442 233.5)" fill="#FFD948"/>
<rect x="352.442" y="233.5" width="10" height="10" transform="rotate(45 352.442 233.5)" fill="#FFD948"/>
<rect x="371.442" y="233.5" width="10" height="10" transform="rotate(45 371.442 233.5)" fill="#FFD948"/>
<rect x="390.978" y="233.5" width="10" height="10" transform="rotate(45 390.978 233.5)" fill="#FFD948"/>
<rect x="410.442" y="233.5" width="10" height="10" transform="rotate(45 410.442 233.5)" fill="#FFD948"/>
<rect x="429.442" y="233.5" width="10" height="10" transform="rotate(45 429.442 233.5)" fill="#FFD948"/>
<rect x="448.442" y="233.5" width="10" height="10" transform="rotate(45 448.442 233.5)" fill="#FFD948"/>
<rect x="468.048" y="233.5" width="10" height="10" transform="rotate(45 468.048 233.5)" fill="#FFD948"/>
<rect x="487.513" y="233.5" width="10" height="10" transform="rotate(45 487.513 233.5)" fill="#FFD948"/>
<rect x="506.513" y="233.5" width="10" height="10" transform="rotate(45 506.513 233.5)" fill="#FFD948"/>
<rect x="7.04785" y="252.5" width="10" height="10" transform="rotate(45 7.04785 252.5)" fill="#FFD948"/>
<rect x="26.5127" y="252.5" width="10" height="10" transform="rotate(45 26.5127 252.5)" fill="#FFD948"/>
<rect x="45.5127" y="252.5" width="10" height="10" transform="rotate(45 45.5127 252.5)" fill="#FFD948"/>
<rect x="64.5127" y="252.5" width="10" height="10" transform="rotate(45 64.5127 252.5)" fill="#FFD948"/>
<rect x="83.5127" y="252.5" width="10" height="10" transform="rotate(45 83.5127 252.5)" fill="#FFD948"/>
<rect x="102.978" y="252.5" width="10" height="10" transform="rotate(45 102.978 252.5)" fill="#FFD948"/>
<rect x="121.978" y="252.5" width="10" height="10" transform="rotate(45 121.978 252.5)" fill="#FFD948"/>
<rect x="140.978" y="252.5" width="10" height="10" transform="rotate(45 140.978 252.5)" fill="#FFD948"/>
<rect x="160.513" y="252.5" width="10" height="10" transform="rotate(45 160.513 252.5)" fill="#FFD948"/>
<rect x="179.978" y="252.5" width="10" height="10" transform="rotate(45 179.978 252.5)" fill="#FFD948"/>
<rect x="198.978" y="252.5" width="10" height="10" transform="rotate(45 198.978 252.5)" fill="#FFD948"/>
<rect x="217.978" y="252.5" width="10" height="10" transform="rotate(45 217.978 252.5)" fill="#FFD948"/>
<rect x="237.513" y="252.5" width="10" height="10" transform="rotate(45 237.513 252.5)" fill="#FFD948"/>
<rect x="256.978" y="252.5" width="10" height="10" transform="rotate(45 256.978 252.5)" fill="#FFD948"/>
<rect x="275.978" y="252.5" width="10" height="10" transform="rotate(45 275.978 252.5)" fill="#FFD948"/>
<rect x="294.978" y="252.5" width="10" height="10" transform="rotate(45 294.978 252.5)" fill="#FFD948"/>
<rect x="313.978" y="252.5" width="10" height="10" transform="rotate(45 313.978 252.5)" fill="#FFD948"/>
<rect x="333.442" y="252.5" width="10" height="10" transform="rotate(45 333.442 252.5)" fill="#FFD948"/>
<rect x="352.442" y="252.5" width="10" height="10" transform="rotate(45 352.442 252.5)" fill="#FFD948"/>
<rect x="371.442" y="252.5" width="10" height="10" transform="rotate(45 371.442 252.5)" fill="#FFD948"/>
<rect x="390.978" y="252.5" width="10" height="10" transform="rotate(45 390.978 252.5)" fill="#FFD948"/>
<rect x="410.442" y="252.5" width="10" height="10" transform="rotate(45 410.442 252.5)" fill="#FFD948"/>
<rect x="429.442" y="252.5" width="10" height="10" transform="rotate(45 429.442 252.5)" fill="#FFD948"/>
<rect x="448.442" y="252.5" width="10" height="10" transform="rotate(45 448.442 252.5)" fill="#FFD948"/>
<rect x="468.048" y="252.5" width="10" height="10" transform="rotate(45 468.048 252.5)" fill="#FFD948"/>
<rect x="487.513" y="252.5" width="10" height="10" transform="rotate(45 487.513 252.5)" fill="#FFD948"/>
<rect x="506.513" y="252.5" width="10" height="10" transform="rotate(45 506.513 252.5)" fill="#FFD948"/>
</g>
</svg>
