<svg width="500" height="266" viewBox="0 0 500 266" fill="none" xmlns="http://www.w3.org/2000/svg">
<mask id="mask0" mask-type="alpha" maskUnits="userSpaceOnUse" x="0" y="0" width="500" height="266">
<path d="M0 0H500C383 43.5 348 119 241 119C134 119 0 162.5 0 266V0Z" fill="#C4C4C4"/>
</mask>
<g mask="url(#mask0)">
<rect x="7.07129" y="-14" width="10" height="10" transform="rotate(45 7.07129 -14)" fill="#FFD948"/>
<rect x="26.5361" y="-14" width="10" height="10" transform="rotate(45 26.5361 -14)" fill="#FFD948"/>
<rect x="45.5361" y="-14" width="10" height="10" transform="rotate(45 45.5361 -14)" fill="#FFD948"/>
<rect x="64.5361" y="-14" width="10" height="10" transform="rotate(45 64.5361 -14)" fill="#FFD948"/>
<rect x="83.5361" y="-14" width="10" height="10" transform="rotate(45 83.5361 -14)" fill="#FFD948"/>
<rect x="103.001" y="-14" width="10" height="10" transform="rotate(45 103.001 -14)" fill="#FFD948"/>
<rect x="122.001" y="-14" width="10" height="10" transform="rotate(45 122.001 -14)" fill="#FFD948"/>
<rect x="141.001" y="-14" width="10" height="10" transform="rotate(45 141.001 -14)" fill="#FFD948"/>
<rect x="160.536" y="-14" width="10" height="10" transform="rotate(45 160.536 -14)" fill="#FFD948"/>
<rect x="180.001" y="-14" width="10" height="10" transform="rotate(45 180.001 -14)" fill="#FFD948"/>
<rect x="199.001" y="-14" width="10" height="10" transform="rotate(45 199.001 -14)" fill="#FFD948"/>
<rect x="218.001" y="-14" width="10" height="10" transform="rotate(45 218.001 -14)" fill="#FFD948"/>
<rect x="237.536" y="-14" width="10" height="10" transform="rotate(45 237.536 -14)" fill="#FFD948"/>
<rect x="257.001" y="-14" width="10" height="10" transform="rotate(45 257.001 -14)" fill="#FFD948"/>
<rect x="276.001" y="-14" width="10" height="10" transform="rotate(45 276.001 -14)" fill="#FFD948"/>
<rect x="295.001" y="-14" width="10" height="10" transform="rotate(45 295.001 -14)" fill="#FFD948"/>
<rect x="314.001" y="-14" width="10" height="10" transform="rotate(45 314.001 -14)" fill="#FFD948"/>
<rect x="333.466" y="-14" width="10" height="10" transform="rotate(45 333.466 -14)" fill="#FFD948"/>
<rect x="352.466" y="-14" width="10" height="10" transform="rotate(45 352.466 -14)" fill="#FFD948"/>
<rect x="371.466" y="-14" width="10" height="10" transform="rotate(45 371.466 -14)" fill="#FFD948"/>
<rect x="391.001" y="-14" width="10" height="10" transform="rotate(45 391.001 -14)" fill="#FFD948"/>
<rect x="410.466" y="-14" width="10" height="10" transform="rotate(45 410.466 -14)" fill="#FFD948"/>
<rect x="429.466" y="-14" width="10" height="10" transform="rotate(45 429.466 -14)" fill="#FFD948"/>
<rect x="448.466" y="-14" width="10" height="10" transform="rotate(45 448.466 -14)" fill="#FFD948"/>
<rect x="468.071" y="-14" width="10" height="10" transform="rotate(45 468.071 -14)" fill="#FFD948"/>
<rect x="487.536" y="-14" width="10" height="10" transform="rotate(45 487.536 -14)" fill="#FFD948"/>
<rect x="506.536" y="-14" width="10" height="10" transform="rotate(45 506.536 -14)" fill="#FFD948"/>
<rect x="7.07129" y="5" width="10" height="10" transform="rotate(45 7.07129 5)" fill="#FFD948"/>
<rect x="26.5361" y="5" width="10" height="10" transform="rotate(45 26.5361 5)" fill="#FFD948"/>
<rect x="45.5361" y="5" width="10" height="10" transform="rotate(45 45.5361 5)" fill="#FFD948"/>
<rect x="64.5361" y="5" width="10" height="10" transform="rotate(45 64.5361 5)" fill="#FFD948"/>
<rect x="83.5361" y="5" width="10" height="10" transform="rotate(45 83.5361 5)" fill="#FFD948"/>
<rect x="103.001" y="5" width="10" height="10" transform="rotate(45 103.001 5)" fill="#FFD948"/>
<rect x="122.001" y="5" width="10" height="10" transform="rotate(45 122.001 5)" fill="#FFD948"/>
<rect x="141.001" y="5" width="10" height="10" transform="rotate(45 141.001 5)" fill="#FFD948"/>
<rect x="160.536" y="5" width="10" height="10" transform="rotate(45 160.536 5)" fill="#FFD948"/>
<rect x="180.001" y="5" width="10" height="10" transform="rotate(45 180.001 5)" fill="#FFD948"/>
<rect x="199.001" y="5" width="10" height="10" transform="rotate(45 199.001 5)" fill="#FFD948"/>
<rect x="218.001" y="5" width="10" height="10" transform="rotate(45 218.001 5)" fill="#FFD948"/>
<rect x="237.536" y="5" width="10" height="10" transform="rotate(45 237.536 5)" fill="#FFD948"/>
<rect x="257.001" y="5" width="10" height="10" transform="rotate(45 257.001 5)" fill="#FFD948"/>
<rect x="276.001" y="5" width="10" height="10" transform="rotate(45 276.001 5)" fill="#FFD948"/>
<rect x="295.001" y="5" width="10" height="10" transform="rotate(45 295.001 5)" fill="#FFD948"/>
<rect x="314.001" y="5" width="10" height="10" transform="rotate(45 314.001 5)" fill="#FFD948"/>
<rect x="333.466" y="5" width="10" height="10" transform="rotate(45 333.466 5)" fill="#FFD948"/>
<rect x="352.466" y="5" width="10" height="10" transform="rotate(45 352.466 5)" fill="#FFD948"/>
<rect x="371.466" y="5" width="10" height="10" transform="rotate(45 371.466 5)" fill="#FFD948"/>
<rect x="391.001" y="5" width="10" height="10" transform="rotate(45 391.001 5)" fill="#FFD948"/>
<rect x="410.466" y="5" width="10" height="10" transform="rotate(45 410.466 5)" fill="#FFD948"/>
<rect x="429.466" y="5" width="10" height="10" transform="rotate(45 429.466 5)" fill="#FFD948"/>
<rect x="448.466" y="5" width="10" height="10" transform="rotate(45 448.466 5)" fill="#FFD948"/>
<rect x="468.071" y="5" width="10" height="10" transform="rotate(45 468.071 5)" fill="#FFD948"/>
<rect x="487.536" y="5" width="10" height="10" transform="rotate(45 487.536 5)" fill="#FFD948"/>
<rect x="506.536" y="5" width="10" height="10" transform="rotate(45 506.536 5)" fill="#FFD948"/>
<rect x="7.07129" y="24" width="10" height="10" transform="rotate(45 7.07129 24)" fill="#FFD948"/>
<rect x="26.5361" y="24" width="10" height="10" transform="rotate(45 26.5361 24)" fill="#FFD948"/>
<rect x="45.5361" y="24" width="10" height="10" transform="rotate(45 45.5361 24)" fill="#FFD948"/>
<rect x="64.5361" y="24" width="10" height="10" transform="rotate(45 64.5361 24)" fill="#FFD948"/>
<rect x="83.5361" y="24" width="10" height="10" transform="rotate(45 83.5361 24)" fill="#FFD948"/>
<rect x="103.001" y="24" width="10" height="10" transform="rotate(45 103.001 24)" fill="#FFD948"/>
<rect x="122.001" y="24" width="10" height="10" transform="rotate(45 122.001 24)" fill="#FFD948"/>
<rect x="141.001" y="24" width="10" height="10" transform="rotate(45 141.001 24)" fill="#FFD948"/>
<rect x="160.536" y="24" width="10" height="10" transform="rotate(45 160.536 24)" fill="#FFD948"/>
<rect x="180.001" y="24" width="10" height="10" transform="rotate(45 180.001 24)" fill="#FFD948"/>
<rect x="199.001" y="24" width="10" height="10" transform="rotate(45 199.001 24)" fill="#FFD948"/>
<rect x="218.001" y="24" width="10" height="10" transform="rotate(45 218.001 24)" fill="#FFD948"/>
<rect x="237.536" y="24" width="10" height="10" transform="rotate(45 237.536 24)" fill="#FFD948"/>
<rect x="257.001" y="24" width="10" height="10" transform="rotate(45 257.001 24)" fill="#FFD948"/>
<rect x="276.001" y="24" width="10" height="10" transform="rotate(45 276.001 24)" fill="#FFD948"/>
<rect x="295.001" y="24" width="10" height="10" transform="rotate(45 295.001 24)" fill="#FFD948"/>
<rect x="314.001" y="24" width="10" height="10" transform="rotate(45 314.001 24)" fill="#FFD948"/>
<rect x="333.466" y="24" width="10" height="10" transform="rotate(45 333.466 24)" fill="#FFD948"/>
<rect x="352.466" y="24" width="10" height="10" transform="rotate(45 352.466 24)" fill="#FFD948"/>
<rect x="371.466" y="24" width="10" height="10" transform="rotate(45 371.466 24)" fill="#FFD948"/>
<rect x="391.001" y="24" width="10" height="10" transform="rotate(45 391.001 24)" fill="#FFD948"/>
<rect x="410.466" y="24" width="10" height="10" transform="rotate(45 410.466 24)" fill="#FFD948"/>
<rect x="429.466" y="24" width="10" height="10" transform="rotate(45 429.466 24)" fill="#FFD948"/>
<rect x="448.466" y="24" width="10" height="10" transform="rotate(45 448.466 24)" fill="#FFD948"/>
<rect x="468.071" y="24" width="10" height="10" transform="rotate(45 468.071 24)" fill="#FFD948"/>
<rect x="487.536" y="24" width="10" height="10" transform="rotate(45 487.536 24)" fill="#FFD948"/>
<rect x="506.536" y="24" width="10" height="10" transform="rotate(45 506.536 24)" fill="#FFD948"/>
<rect x="7.07129" y="43" width="10" height="10" transform="rotate(45 7.07129 43)" fill="#FFD948"/>
<rect x="26.5361" y="43" width="10" height="10" transform="rotate(45 26.5361 43)" fill="#FFD948"/>
<rect x="45.5361" y="43" width="10" height="10" transform="rotate(45 45.5361 43)" fill="#FFD948"/>
<rect x="64.5361" y="43" width="10" height="10" transform="rotate(45 64.5361 43)" fill="#FFD948"/>
<rect x="83.5361" y="43" width="10" height="10" transform="rotate(45 83.5361 43)" fill="#FFD948"/>
<rect x="103.001" y="43" width="10" height="10" transform="rotate(45 103.001 43)" fill="#FFD948"/>
<rect x="122.001" y="43" width="10" height="10" transform="rotate(45 122.001 43)" fill="#FFD948"/>
<rect x="141.001" y="43" width="10" height="10" transform="rotate(45 141.001 43)" fill="#FFD948"/>
<rect x="160.536" y="43" width="10" height="10" transform="rotate(45 160.536 43)" fill="#FFD948"/>
<rect x="180.001" y="43" width="10" height="10" transform="rotate(45 180.001 43)" fill="#FFD948"/>
<rect x="199.001" y="43" width="10" height="10" transform="rotate(45 199.001 43)" fill="#FFD948"/>
<rect x="218.001" y="43" width="10" height="10" transform="rotate(45 218.001 43)" fill="#FFD948"/>
<rect x="237.536" y="43" width="10" height="10" transform="rotate(45 237.536 43)" fill="#FFD948"/>
<rect x="257.001" y="43" width="10" height="10" transform="rotate(45 257.001 43)" fill="#FFD948"/>
<rect x="276.001" y="43" width="10" height="10" transform="rotate(45 276.001 43)" fill="#FFD948"/>
<rect x="295.001" y="43" width="10" height="10" transform="rotate(45 295.001 43)" fill="#FFD948"/>
<rect x="314.001" y="43" width="10" height="10" transform="rotate(45 314.001 43)" fill="#FFD948"/>
<rect x="333.466" y="43" width="10" height="10" transform="rotate(45 333.466 43)" fill="#FFD948"/>
<rect x="352.466" y="43" width="10" height="10" transform="rotate(45 352.466 43)" fill="#FFD948"/>
<rect x="371.466" y="43" width="10" height="10" transform="rotate(45 371.466 43)" fill="#FFD948"/>
<rect x="391.001" y="43" width="10" height="10" transform="rotate(45 391.001 43)" fill="#FFD948"/>
<rect x="410.466" y="43" width="10" height="10" transform="rotate(45 410.466 43)" fill="#FFD948"/>
<rect x="429.466" y="43" width="10" height="10" transform="rotate(45 429.466 43)" fill="#FFD948"/>
<rect x="448.466" y="43" width="10" height="10" transform="rotate(45 448.466 43)" fill="#FFD948"/>
<rect x="468.071" y="43" width="10" height="10" transform="rotate(45 468.071 43)" fill="#FFD948"/>
<rect x="487.536" y="43" width="10" height="10" transform="rotate(45 487.536 43)" fill="#FFD948"/>
<rect x="506.536" y="43" width="10" height="10" transform="rotate(45 506.536 43)" fill="#FFD948"/>
<rect x="7.07129" y="62" width="10" height="10" transform="rotate(45 7.07129 62)" fill="#FFD948"/>
<rect x="26.5361" y="62" width="10" height="10" transform="rotate(45 26.5361 62)" fill="#FFD948"/>
<rect x="45.5361" y="62" width="10" height="10" transform="rotate(45 45.5361 62)" fill="#FFD948"/>
<rect x="64.5361" y="62" width="10" height="10" transform="rotate(45 64.5361 62)" fill="#FFD948"/>
<rect x="83.5361" y="62" width="10" height="10" transform="rotate(45 83.5361 62)" fill="#FFD948"/>
<rect x="103.001" y="62" width="10" height="10" transform="rotate(45 103.001 62)" fill="#FFD948"/>
<rect x="122.001" y="62" width="10" height="10" transform="rotate(45 122.001 62)" fill="#FFD948"/>
<rect x="141.001" y="62" width="10" height="10" transform="rotate(45 141.001 62)" fill="#FFD948"/>
<rect x="160.536" y="62" width="10" height="10" transform="rotate(45 160.536 62)" fill="#FFD948"/>
<rect x="180.001" y="62" width="10" height="10" transform="rotate(45 180.001 62)" fill="#FFD948"/>
<rect x="199.001" y="62" width="10" height="10" transform="rotate(45 199.001 62)" fill="#FFD948"/>
<rect x="218.001" y="62" width="10" height="10" transform="rotate(45 218.001 62)" fill="#FFD948"/>
<rect x="237.536" y="62" width="10" height="10" transform="rotate(45 237.536 62)" fill="#FFD948"/>
<rect x="257.001" y="62" width="10" height="10" transform="rotate(45 257.001 62)" fill="#FFD948"/>
<rect x="276.001" y="62" width="10" height="10" transform="rotate(45 276.001 62)" fill="#FFD948"/>
<rect x="295.001" y="62" width="10" height="10" transform="rotate(45 295.001 62)" fill="#FFD948"/>
<rect x="314.001" y="62" width="10" height="10" transform="rotate(45 314.001 62)" fill="#FFD948"/>
<rect x="333.466" y="62" width="10" height="10" transform="rotate(45 333.466 62)" fill="#FFD948"/>
<rect x="352.466" y="62" width="10" height="10" transform="rotate(45 352.466 62)" fill="#FFD948"/>
<rect x="371.466" y="62" width="10" height="10" transform="rotate(45 371.466 62)" fill="#FFD948"/>
<rect x="391.001" y="62" width="10" height="10" transform="rotate(45 391.001 62)" fill="#FFD948"/>
<rect x="410.466" y="62" width="10" height="10" transform="rotate(45 410.466 62)" fill="#FFD948"/>
<rect x="429.466" y="62" width="10" height="10" transform="rotate(45 429.466 62)" fill="#FFD948"/>
<rect x="448.466" y="62" width="10" height="10" transform="rotate(45 448.466 62)" fill="#FFD948"/>
<rect x="468.071" y="62" width="10" height="10" transform="rotate(45 468.071 62)" fill="#FFD948"/>
<rect x="487.536" y="62" width="10" height="10" transform="rotate(45 487.536 62)" fill="#FFD948"/>
<rect x="506.536" y="62" width="10" height="10" transform="rotate(45 506.536 62)" fill="#FFD948"/>
<rect x="7.07129" y="81" width="10" height="10" transform="rotate(45 7.07129 81)" fill="#FFD948"/>
<rect x="26.5361" y="81" width="10" height="10" transform="rotate(45 26.5361 81)" fill="#FFD948"/>
<rect x="45.5361" y="81" width="10" height="10" transform="rotate(45 45.5361 81)" fill="#FFD948"/>
<rect x="64.5361" y="81" width="10" height="10" transform="rotate(45 64.5361 81)" fill="#FFD948"/>
<rect x="83.5361" y="81" width="10" height="10" transform="rotate(45 83.5361 81)" fill="#FFD948"/>
<rect x="103.001" y="81" width="10" height="10" transform="rotate(45 103.001 81)" fill="#FFD948"/>
<rect x="122.001" y="81" width="10" height="10" transform="rotate(45 122.001 81)" fill="#FFD948"/>
<rect x="141.001" y="81" width="10" height="10" transform="rotate(45 141.001 81)" fill="#FFD948"/>
<rect x="160.536" y="81" width="10" height="10" transform="rotate(45 160.536 81)" fill="#FFD948"/>
<rect x="180.001" y="81" width="10" height="10" transform="rotate(45 180.001 81)" fill="#FFD948"/>
<rect x="199.001" y="81" width="10" height="10" transform="rotate(45 199.001 81)" fill="#FFD948"/>
<rect x="218.001" y="81" width="10" height="10" transform="rotate(45 218.001 81)" fill="#FFD948"/>
<rect x="237.536" y="81" width="10" height="10" transform="rotate(45 237.536 81)" fill="#FFD948"/>
<rect x="257.001" y="81" width="10" height="10" transform="rotate(45 257.001 81)" fill="#FFD948"/>
<rect x="276.001" y="81" width="10" height="10" transform="rotate(45 276.001 81)" fill="#FFD948"/>
<rect x="295.001" y="81" width="10" height="10" transform="rotate(45 295.001 81)" fill="#FFD948"/>
<rect x="314.001" y="81" width="10" height="10" transform="rotate(45 314.001 81)" fill="#FFD948"/>
<rect x="333.466" y="81" width="10" height="10" transform="rotate(45 333.466 81)" fill="#FFD948"/>
<rect x="352.466" y="81" width="10" height="10" transform="rotate(45 352.466 81)" fill="#FFD948"/>
<rect x="371.466" y="81" width="10" height="10" transform="rotate(45 371.466 81)" fill="#FFD948"/>
<rect x="391.001" y="81" width="10" height="10" transform="rotate(45 391.001 81)" fill="#FFD948"/>
<rect x="410.466" y="81" width="10" height="10" transform="rotate(45 410.466 81)" fill="#FFD948"/>
<rect x="429.466" y="81" width="10" height="10" transform="rotate(45 429.466 81)" fill="#FFD948"/>
<rect x="448.466" y="81" width="10" height="10" transform="rotate(45 448.466 81)" fill="#FFD948"/>
<rect x="468.071" y="81" width="10" height="10" transform="rotate(45 468.071 81)" fill="#FFD948"/>
<rect x="487.536" y="81" width="10" height="10" transform="rotate(45 487.536 81)" fill="#FFD948"/>
<rect x="506.536" y="81" width="10" height="10" transform="rotate(45 506.536 81)" fill="#FFD948"/>
<rect x="7.07129" y="100" width="10" height="10" transform="rotate(45 7.07129 100)" fill="#FFD948"/>
<rect x="26.5361" y="100" width="10" height="10" transform="rotate(45 26.5361 100)" fill="#FFD948"/>
<rect x="45.5361" y="100" width="10" height="10" transform="rotate(45 45.5361 100)" fill="#FFD948"/>
<rect x="64.5361" y="100" width="10" height="10" transform="rotate(45 64.5361 100)" fill="#FFD948"/>
<rect x="83.5361" y="100" width="10" height="10" transform="rotate(45 83.5361 100)" fill="#FFD948"/>
<rect x="103.001" y="100" width="10" height="10" transform="rotate(45 103.001 100)" fill="#FFD948"/>
<rect x="122.001" y="100" width="10" height="10" transform="rotate(45 122.001 100)" fill="#FFD948"/>
<rect x="141.001" y="100" width="10" height="10" transform="rotate(45 141.001 100)" fill="#FFD948"/>
<rect x="160.536" y="100" width="10" height="10" transform="rotate(45 160.536 100)" fill="#FFD948"/>
<rect x="180.001" y="100" width="10" height="10" transform="rotate(45 180.001 100)" fill="#FFD948"/>
<rect x="199.001" y="100" width="10" height="10" transform="rotate(45 199.001 100)" fill="#FFD948"/>
<rect x="218.001" y="100" width="10" height="10" transform="rotate(45 218.001 100)" fill="#FFD948"/>
<rect x="237.536" y="100" width="10" height="10" transform="rotate(45 237.536 100)" fill="#FFD948"/>
<rect x="257.001" y="100" width="10" height="10" transform="rotate(45 257.001 100)" fill="#FFD948"/>
<rect x="276.001" y="100" width="10" height="10" transform="rotate(45 276.001 100)" fill="#FFD948"/>
<rect x="295.001" y="100" width="10" height="10" transform="rotate(45 295.001 100)" fill="#FFD948"/>
<rect x="314.001" y="100" width="10" height="10" transform="rotate(45 314.001 100)" fill="#FFD948"/>
<rect x="333.466" y="100" width="10" height="10" transform="rotate(45 333.466 100)" fill="#FFD948"/>
<rect x="352.466" y="100" width="10" height="10" transform="rotate(45 352.466 100)" fill="#FFD948"/>
<rect x="371.466" y="100" width="10" height="10" transform="rotate(45 371.466 100)" fill="#FFD948"/>
<rect x="391.001" y="100" width="10" height="10" transform="rotate(45 391.001 100)" fill="#FFD948"/>
<rect x="410.466" y="100" width="10" height="10" transform="rotate(45 410.466 100)" fill="#FFD948"/>
<rect x="429.466" y="100" width="10" height="10" transform="rotate(45 429.466 100)" fill="#FFD948"/>
<rect x="448.466" y="100" width="10" height="10" transform="rotate(45 448.466 100)" fill="#FFD948"/>
<rect x="468.071" y="100" width="10" height="10" transform="rotate(45 468.071 100)" fill="#FFD948"/>
<rect x="487.536" y="100" width="10" height="10" transform="rotate(45 487.536 100)" fill="#FFD948"/>
<rect x="506.536" y="100" width="10" height="10" transform="rotate(45 506.536 100)" fill="#FFD948"/>
<rect x="7.07129" y="119" width="10" height="10" transform="rotate(45 7.07129 119)" fill="#FFD948"/>
<rect x="26.5361" y="119" width="10" height="10" transform="rotate(45 26.5361 119)" fill="#FFD948"/>
<rect x="45.5361" y="119" width="10" height="10" transform="rotate(45 45.5361 119)" fill="#FFD948"/>
<rect x="64.5361" y="119" width="10" height="10" transform="rotate(45 64.5361 119)" fill="#FFD948"/>
<rect x="83.5361" y="119" width="10" height="10" transform="rotate(45 83.5361 119)" fill="#FFD948"/>
<rect x="103.001" y="119" width="10" height="10" transform="rotate(45 103.001 119)" fill="#FFD948"/>
<rect x="122.001" y="119" width="10" height="10" transform="rotate(45 122.001 119)" fill="#FFD948"/>
<rect x="141.001" y="119" width="10" height="10" transform="rotate(45 141.001 119)" fill="#FFD948"/>
<rect x="160.536" y="119" width="10" height="10" transform="rotate(45 160.536 119)" fill="#FFD948"/>
<rect x="180.001" y="119" width="10" height="10" transform="rotate(45 180.001 119)" fill="#FFD948"/>
<rect x="199.001" y="119" width="10" height="10" transform="rotate(45 199.001 119)" fill="#FFD948"/>
<rect x="218.001" y="119" width="10" height="10" transform="rotate(45 218.001 119)" fill="#FFD948"/>
<rect x="237.536" y="119" width="10" height="10" transform="rotate(45 237.536 119)" fill="#FFD948"/>
<rect x="257.001" y="119" width="10" height="10" transform="rotate(45 257.001 119)" fill="#FFD948"/>
<rect x="276.001" y="119" width="10" height="10" transform="rotate(45 276.001 119)" fill="#FFD948"/>
<rect x="295.001" y="119" width="10" height="10" transform="rotate(45 295.001 119)" fill="#FFD948"/>
<rect x="314.001" y="119" width="10" height="10" transform="rotate(45 314.001 119)" fill="#FFD948"/>
<rect x="333.466" y="119" width="10" height="10" transform="rotate(45 333.466 119)" fill="#FFD948"/>
<rect x="352.466" y="119" width="10" height="10" transform="rotate(45 352.466 119)" fill="#FFD948"/>
<rect x="371.466" y="119" width="10" height="10" transform="rotate(45 371.466 119)" fill="#FFD948"/>
<rect x="391.001" y="119" width="10" height="10" transform="rotate(45 391.001 119)" fill="#FFD948"/>
<rect x="410.466" y="119" width="10" height="10" transform="rotate(45 410.466 119)" fill="#FFD948"/>
<rect x="429.466" y="119" width="10" height="10" transform="rotate(45 429.466 119)" fill="#FFD948"/>
<rect x="448.466" y="119" width="10" height="10" transform="rotate(45 448.466 119)" fill="#FFD948"/>
<rect x="468.071" y="119" width="10" height="10" transform="rotate(45 468.071 119)" fill="#FFD948"/>
<rect x="487.536" y="119" width="10" height="10" transform="rotate(45 487.536 119)" fill="#FFD948"/>
<rect x="506.536" y="119" width="10" height="10" transform="rotate(45 506.536 119)" fill="#FFD948"/>
<rect x="7.07129" y="138" width="10" height="10" transform="rotate(45 7.07129 138)" fill="#FFD948"/>
<rect x="26.5361" y="138" width="10" height="10" transform="rotate(45 26.5361 138)" fill="#FFD948"/>
<rect x="45.5361" y="138" width="10" height="10" transform="rotate(45 45.5361 138)" fill="#FFD948"/>
<rect x="64.5361" y="138" width="10" height="10" transform="rotate(45 64.5361 138)" fill="#FFD948"/>
<rect x="83.5361" y="138" width="10" height="10" transform="rotate(45 83.5361 138)" fill="#FFD948"/>
<rect x="103.001" y="138" width="10" height="10" transform="rotate(45 103.001 138)" fill="#FFD948"/>
<rect x="122.001" y="138" width="10" height="10" transform="rotate(45 122.001 138)" fill="#FFD948"/>
<rect x="141.001" y="138" width="10" height="10" transform="rotate(45 141.001 138)" fill="#FFD948"/>
<rect x="160.536" y="138" width="10" height="10" transform="rotate(45 160.536 138)" fill="#FFD948"/>
<rect x="180.001" y="138" width="10" height="10" transform="rotate(45 180.001 138)" fill="#FFD948"/>
<rect x="199.001" y="138" width="10" height="10" transform="rotate(45 199.001 138)" fill="#FFD948"/>
<rect x="218.001" y="138" width="10" height="10" transform="rotate(45 218.001 138)" fill="#FFD948"/>
<rect x="237.536" y="138" width="10" height="10" transform="rotate(45 237.536 138)" fill="#FFD948"/>
<rect x="257.001" y="138" width="10" height="10" transform="rotate(45 257.001 138)" fill="#FFD948"/>
<rect x="276.001" y="138" width="10" height="10" transform="rotate(45 276.001 138)" fill="#FFD948"/>
<rect x="295.001" y="138" width="10" height="10" transform="rotate(45 295.001 138)" fill="#FFD948"/>
<rect x="314.001" y="138" width="10" height="10" transform="rotate(45 314.001 138)" fill="#FFD948"/>
<rect x="333.466" y="138" width="10" height="10" transform="rotate(45 333.466 138)" fill="#FFD948"/>
<rect x="352.466" y="138" width="10" height="10" transform="rotate(45 352.466 138)" fill="#FFD948"/>
<rect x="371.466" y="138" width="10" height="10" transform="rotate(45 371.466 138)" fill="#FFD948"/>
<rect x="391.001" y="138" width="10" height="10" transform="rotate(45 391.001 138)" fill="#FFD948"/>
<rect x="410.466" y="138" width="10" height="10" transform="rotate(45 410.466 138)" fill="#FFD948"/>
<rect x="429.466" y="138" width="10" height="10" transform="rotate(45 429.466 138)" fill="#FFD948"/>
<rect x="448.466" y="138" width="10" height="10" transform="rotate(45 448.466 138)" fill="#FFD948"/>
<rect x="468.071" y="138" width="10" height="10" transform="rotate(45 468.071 138)" fill="#FFD948"/>
<rect x="487.536" y="138" width="10" height="10" transform="rotate(45 487.536 138)" fill="#FFD948"/>
<rect x="506.536" y="138" width="10" height="10" transform="rotate(45 506.536 138)" fill="#FFD948"/>
<rect x="7.07129" y="157" width="10" height="10" transform="rotate(45 7.07129 157)" fill="#FFD948"/>
<rect x="26.5361" y="157" width="10" height="10" transform="rotate(45 26.5361 157)" fill="#FFD948"/>
<rect x="45.5361" y="157" width="10" height="10" transform="rotate(45 45.5361 157)" fill="#FFD948"/>
<rect x="64.5361" y="157" width="10" height="10" transform="rotate(45 64.5361 157)" fill="#FFD948"/>
<rect x="83.5361" y="157" width="10" height="10" transform="rotate(45 83.5361 157)" fill="#FFD948"/>
<rect x="103.001" y="157" width="10" height="10" transform="rotate(45 103.001 157)" fill="#FFD948"/>
<rect x="122.001" y="157" width="10" height="10" transform="rotate(45 122.001 157)" fill="#FFD948"/>
<rect x="141.001" y="157" width="10" height="10" transform="rotate(45 141.001 157)" fill="#FFD948"/>
<rect x="160.536" y="157" width="10" height="10" transform="rotate(45 160.536 157)" fill="#FFD948"/>
<rect x="180.001" y="157" width="10" height="10" transform="rotate(45 180.001 157)" fill="#FFD948"/>
<rect x="199.001" y="157" width="10" height="10" transform="rotate(45 199.001 157)" fill="#FFD948"/>
<rect x="218.001" y="157" width="10" height="10" transform="rotate(45 218.001 157)" fill="#FFD948"/>
<rect x="237.536" y="157" width="10" height="10" transform="rotate(45 237.536 157)" fill="#FFD948"/>
<rect x="257.001" y="157" width="10" height="10" transform="rotate(45 257.001 157)" fill="#FFD948"/>
<rect x="276.001" y="157" width="10" height="10" transform="rotate(45 276.001 157)" fill="#FFD948"/>
<rect x="295.001" y="157" width="10" height="10" transform="rotate(45 295.001 157)" fill="#FFD948"/>
<rect x="314.001" y="157" width="10" height="10" transform="rotate(45 314.001 157)" fill="#FFD948"/>
<rect x="333.466" y="157" width="10" height="10" transform="rotate(45 333.466 157)" fill="#FFD948"/>
<rect x="352.466" y="157" width="10" height="10" transform="rotate(45 352.466 157)" fill="#FFD948"/>
<rect x="371.466" y="157" width="10" height="10" transform="rotate(45 371.466 157)" fill="#FFD948"/>
<rect x="391.001" y="157" width="10" height="10" transform="rotate(45 391.001 157)" fill="#FFD948"/>
<rect x="410.466" y="157" width="10" height="10" transform="rotate(45 410.466 157)" fill="#FFD948"/>
<rect x="429.466" y="157" width="10" height="10" transform="rotate(45 429.466 157)" fill="#FFD948"/>
<rect x="448.466" y="157" width="10" height="10" transform="rotate(45 448.466 157)" fill="#FFD948"/>
<rect x="468.071" y="157" width="10" height="10" transform="rotate(45 468.071 157)" fill="#FFD948"/>
<rect x="487.536" y="157" width="10" height="10" transform="rotate(45 487.536 157)" fill="#FFD948"/>
<rect x="506.536" y="157" width="10" height="10" transform="rotate(45 506.536 157)" fill="#FFD948"/>
<rect x="7.07129" y="176" width="10" height="10" transform="rotate(45 7.07129 176)" fill="#FFD948"/>
<rect x="26.5361" y="176" width="10" height="10" transform="rotate(45 26.5361 176)" fill="#FFD948"/>
<rect x="45.5361" y="176" width="10" height="10" transform="rotate(45 45.5361 176)" fill="#FFD948"/>
<rect x="64.5361" y="176" width="10" height="10" transform="rotate(45 64.5361 176)" fill="#FFD948"/>
<rect x="83.5361" y="176" width="10" height="10" transform="rotate(45 83.5361 176)" fill="#FFD948"/>
<rect x="103.001" y="176" width="10" height="10" transform="rotate(45 103.001 176)" fill="#FFD948"/>
<rect x="122.001" y="176" width="10" height="10" transform="rotate(45 122.001 176)" fill="#FFD948"/>
<rect x="141.001" y="176" width="10" height="10" transform="rotate(45 141.001 176)" fill="#FFD948"/>
<rect x="160.536" y="176" width="10" height="10" transform="rotate(45 160.536 176)" fill="#FFD948"/>
<rect x="180.001" y="176" width="10" height="10" transform="rotate(45 180.001 176)" fill="#FFD948"/>
<rect x="199.001" y="176" width="10" height="10" transform="rotate(45 199.001 176)" fill="#FFD948"/>
<rect x="218.001" y="176" width="10" height="10" transform="rotate(45 218.001 176)" fill="#FFD948"/>
<rect x="237.536" y="176" width="10" height="10" transform="rotate(45 237.536 176)" fill="#FFD948"/>
<rect x="257.001" y="176" width="10" height="10" transform="rotate(45 257.001 176)" fill="#FFD948"/>
<rect x="276.001" y="176" width="10" height="10" transform="rotate(45 276.001 176)" fill="#FFD948"/>
<rect x="295.001" y="176" width="10" height="10" transform="rotate(45 295.001 176)" fill="#FFD948"/>
<rect x="314.001" y="176" width="10" height="10" transform="rotate(45 314.001 176)" fill="#FFD948"/>
<rect x="333.466" y="176" width="10" height="10" transform="rotate(45 333.466 176)" fill="#FFD948"/>
<rect x="352.466" y="176" width="10" height="10" transform="rotate(45 352.466 176)" fill="#FFD948"/>
<rect x="371.466" y="176" width="10" height="10" transform="rotate(45 371.466 176)" fill="#FFD948"/>
<rect x="391.001" y="176" width="10" height="10" transform="rotate(45 391.001 176)" fill="#FFD948"/>
<rect x="410.466" y="176" width="10" height="10" transform="rotate(45 410.466 176)" fill="#FFD948"/>
<rect x="429.466" y="176" width="10" height="10" transform="rotate(45 429.466 176)" fill="#FFD948"/>
<rect x="448.466" y="176" width="10" height="10" transform="rotate(45 448.466 176)" fill="#FFD948"/>
<rect x="468.071" y="176" width="10" height="10" transform="rotate(45 468.071 176)" fill="#FFD948"/>
<rect x="487.536" y="176" width="10" height="10" transform="rotate(45 487.536 176)" fill="#FFD948"/>
<rect x="506.536" y="176" width="10" height="10" transform="rotate(45 506.536 176)" fill="#FFD948"/>
<rect x="7.07129" y="195" width="10" height="10" transform="rotate(45 7.07129 195)" fill="#FFD948"/>
<rect x="26.5361" y="195" width="10" height="10" transform="rotate(45 26.5361 195)" fill="#FFD948"/>
<rect x="45.5361" y="195" width="10" height="10" transform="rotate(45 45.5361 195)" fill="#FFD948"/>
<rect x="64.5361" y="195" width="10" height="10" transform="rotate(45 64.5361 195)" fill="#FFD948"/>
<rect x="83.5361" y="195" width="10" height="10" transform="rotate(45 83.5361 195)" fill="#FFD948"/>
<rect x="103.001" y="195" width="10" height="10" transform="rotate(45 103.001 195)" fill="#FFD948"/>
<rect x="122.001" y="195" width="10" height="10" transform="rotate(45 122.001 195)" fill="#FFD948"/>
<rect x="141.001" y="195" width="10" height="10" transform="rotate(45 141.001 195)" fill="#FFD948"/>
<rect x="160.536" y="195" width="10" height="10" transform="rotate(45 160.536 195)" fill="#FFD948"/>
<rect x="180.001" y="195" width="10" height="10" transform="rotate(45 180.001 195)" fill="#FFD948"/>
<rect x="199.001" y="195" width="10" height="10" transform="rotate(45 199.001 195)" fill="#FFD948"/>
<rect x="218.001" y="195" width="10" height="10" transform="rotate(45 218.001 195)" fill="#FFD948"/>
<rect x="237.536" y="195" width="10" height="10" transform="rotate(45 237.536 195)" fill="#FFD948"/>
<rect x="257.001" y="195" width="10" height="10" transform="rotate(45 257.001 195)" fill="#FFD948"/>
<rect x="276.001" y="195" width="10" height="10" transform="rotate(45 276.001 195)" fill="#FFD948"/>
<rect x="295.001" y="195" width="10" height="10" transform="rotate(45 295.001 195)" fill="#FFD948"/>
<rect x="314.001" y="195" width="10" height="10" transform="rotate(45 314.001 195)" fill="#FFD948"/>
<rect x="333.466" y="195" width="10" height="10" transform="rotate(45 333.466 195)" fill="#FFD948"/>
<rect x="352.466" y="195" width="10" height="10" transform="rotate(45 352.466 195)" fill="#FFD948"/>
<rect x="371.466" y="195" width="10" height="10" transform="rotate(45 371.466 195)" fill="#FFD948"/>
<rect x="391.001" y="195" width="10" height="10" transform="rotate(45 391.001 195)" fill="#FFD948"/>
<rect x="410.466" y="195" width="10" height="10" transform="rotate(45 410.466 195)" fill="#FFD948"/>
<rect x="429.466" y="195" width="10" height="10" transform="rotate(45 429.466 195)" fill="#FFD948"/>
<rect x="448.466" y="195" width="10" height="10" transform="rotate(45 448.466 195)" fill="#FFD948"/>
<rect x="468.071" y="195" width="10" height="10" transform="rotate(45 468.071 195)" fill="#FFD948"/>
<rect x="487.536" y="195" width="10" height="10" transform="rotate(45 487.536 195)" fill="#FFD948"/>
<rect x="506.536" y="195" width="10" height="10" transform="rotate(45 506.536 195)" fill="#FFD948"/>
<rect x="7.07129" y="214" width="10" height="10" transform="rotate(45 7.07129 214)" fill="#FFD948"/>
<rect x="26.5361" y="214" width="10" height="10" transform="rotate(45 26.5361 214)" fill="#FFD948"/>
<rect x="45.5361" y="214" width="10" height="10" transform="rotate(45 45.5361 214)" fill="#FFD948"/>
<rect x="64.5361" y="214" width="10" height="10" transform="rotate(45 64.5361 214)" fill="#FFD948"/>
<rect x="83.5361" y="214" width="10" height="10" transform="rotate(45 83.5361 214)" fill="#FFD948"/>
<rect x="103.001" y="214" width="10" height="10" transform="rotate(45 103.001 214)" fill="#FFD948"/>
<rect x="122.001" y="214" width="10" height="10" transform="rotate(45 122.001 214)" fill="#FFD948"/>
<rect x="141.001" y="214" width="10" height="10" transform="rotate(45 141.001 214)" fill="#FFD948"/>
<rect x="160.536" y="214" width="10" height="10" transform="rotate(45 160.536 214)" fill="#FFD948"/>
<rect x="180.001" y="214" width="10" height="10" transform="rotate(45 180.001 214)" fill="#FFD948"/>
<rect x="199.001" y="214" width="10" height="10" transform="rotate(45 199.001 214)" fill="#FFD948"/>
<rect x="218.001" y="214" width="10" height="10" transform="rotate(45 218.001 214)" fill="#FFD948"/>
<rect x="237.536" y="214" width="10" height="10" transform="rotate(45 237.536 214)" fill="#FFD948"/>
<rect x="257.001" y="214" width="10" height="10" transform="rotate(45 257.001 214)" fill="#FFD948"/>
<rect x="276.001" y="214" width="10" height="10" transform="rotate(45 276.001 214)" fill="#FFD948"/>
<rect x="295.001" y="214" width="10" height="10" transform="rotate(45 295.001 214)" fill="#FFD948"/>
<rect x="314.001" y="214" width="10" height="10" transform="rotate(45 314.001 214)" fill="#FFD948"/>
<rect x="333.466" y="214" width="10" height="10" transform="rotate(45 333.466 214)" fill="#FFD948"/>
<rect x="352.466" y="214" width="10" height="10" transform="rotate(45 352.466 214)" fill="#FFD948"/>
<rect x="371.466" y="214" width="10" height="10" transform="rotate(45 371.466 214)" fill="#FFD948"/>
<rect x="391.001" y="214" width="10" height="10" transform="rotate(45 391.001 214)" fill="#FFD948"/>
<rect x="410.466" y="214" width="10" height="10" transform="rotate(45 410.466 214)" fill="#FFD948"/>
<rect x="429.466" y="214" width="10" height="10" transform="rotate(45 429.466 214)" fill="#FFD948"/>
<rect x="448.466" y="214" width="10" height="10" transform="rotate(45 448.466 214)" fill="#FFD948"/>
<rect x="468.071" y="214" width="10" height="10" transform="rotate(45 468.071 214)" fill="#FFD948"/>
<rect x="487.536" y="214" width="10" height="10" transform="rotate(45 487.536 214)" fill="#FFD948"/>
<rect x="506.536" y="214" width="10" height="10" transform="rotate(45 506.536 214)" fill="#FFD948"/>
<rect x="7.07129" y="233" width="10" height="10" transform="rotate(45 7.07129 233)" fill="#FFD948"/>
<rect x="26.5361" y="233" width="10" height="10" transform="rotate(45 26.5361 233)" fill="#FFD948"/>
<rect x="45.5361" y="233" width="10" height="10" transform="rotate(45 45.5361 233)" fill="#FFD948"/>
<rect x="64.5361" y="233" width="10" height="10" transform="rotate(45 64.5361 233)" fill="#FFD948"/>
<rect x="83.5361" y="233" width="10" height="10" transform="rotate(45 83.5361 233)" fill="#FFD948"/>
<rect x="103.001" y="233" width="10" height="10" transform="rotate(45 103.001 233)" fill="#FFD948"/>
<rect x="122.001" y="233" width="10" height="10" transform="rotate(45 122.001 233)" fill="#FFD948"/>
<rect x="141.001" y="233" width="10" height="10" transform="rotate(45 141.001 233)" fill="#FFD948"/>
<rect x="160.536" y="233" width="10" height="10" transform="rotate(45 160.536 233)" fill="#FFD948"/>
<rect x="180.001" y="233" width="10" height="10" transform="rotate(45 180.001 233)" fill="#FFD948"/>
<rect x="199.001" y="233" width="10" height="10" transform="rotate(45 199.001 233)" fill="#FFD948"/>
<rect x="218.001" y="233" width="10" height="10" transform="rotate(45 218.001 233)" fill="#FFD948"/>
<rect x="237.536" y="233" width="10" height="10" transform="rotate(45 237.536 233)" fill="#FFD948"/>
<rect x="257.001" y="233" width="10" height="10" transform="rotate(45 257.001 233)" fill="#FFD948"/>
<rect x="276.001" y="233" width="10" height="10" transform="rotate(45 276.001 233)" fill="#FFD948"/>
<rect x="295.001" y="233" width="10" height="10" transform="rotate(45 295.001 233)" fill="#FFD948"/>
<rect x="314.001" y="233" width="10" height="10" transform="rotate(45 314.001 233)" fill="#FFD948"/>
<rect x="333.466" y="233" width="10" height="10" transform="rotate(45 333.466 233)" fill="#FFD948"/>
<rect x="352.466" y="233" width="10" height="10" transform="rotate(45 352.466 233)" fill="#FFD948"/>
<rect x="371.466" y="233" width="10" height="10" transform="rotate(45 371.466 233)" fill="#FFD948"/>
<rect x="391.001" y="233" width="10" height="10" transform="rotate(45 391.001 233)" fill="#FFD948"/>
<rect x="410.466" y="233" width="10" height="10" transform="rotate(45 410.466 233)" fill="#FFD948"/>
<rect x="429.466" y="233" width="10" height="10" transform="rotate(45 429.466 233)" fill="#FFD948"/>
<rect x="448.466" y="233" width="10" height="10" transform="rotate(45 448.466 233)" fill="#FFD948"/>
<rect x="468.071" y="233" width="10" height="10" transform="rotate(45 468.071 233)" fill="#FFD948"/>
<rect x="487.536" y="233" width="10" height="10" transform="rotate(45 487.536 233)" fill="#FFD948"/>
<rect x="506.536" y="233" width="10" height="10" transform="rotate(45 506.536 233)" fill="#FFD948"/>
<rect x="7.07129" y="252" width="10" height="10" transform="rotate(45 7.07129 252)" fill="#FFD948"/>
<rect x="26.5361" y="252" width="10" height="10" transform="rotate(45 26.5361 252)" fill="#FFD948"/>
<rect x="45.5361" y="252" width="10" height="10" transform="rotate(45 45.5361 252)" fill="#FFD948"/>
<rect x="64.5361" y="252" width="10" height="10" transform="rotate(45 64.5361 252)" fill="#FFD948"/>
<rect x="83.5361" y="252" width="10" height="10" transform="rotate(45 83.5361 252)" fill="#FFD948"/>
<rect x="103.001" y="252" width="10" height="10" transform="rotate(45 103.001 252)" fill="#FFD948"/>
<rect x="122.001" y="252" width="10" height="10" transform="rotate(45 122.001 252)" fill="#FFD948"/>
<rect x="141.001" y="252" width="10" height="10" transform="rotate(45 141.001 252)" fill="#FFD948"/>
<rect x="160.536" y="252" width="10" height="10" transform="rotate(45 160.536 252)" fill="#FFD948"/>
<rect x="180.001" y="252" width="10" height="10" transform="rotate(45 180.001 252)" fill="#FFD948"/>
<rect x="199.001" y="252" width="10" height="10" transform="rotate(45 199.001 252)" fill="#FFD948"/>
<rect x="218.001" y="252" width="10" height="10" transform="rotate(45 218.001 252)" fill="#FFD948"/>
<rect x="237.536" y="252" width="10" height="10" transform="rotate(45 237.536 252)" fill="#FFD948"/>
<rect x="257.001" y="252" width="10" height="10" transform="rotate(45 257.001 252)" fill="#FFD948"/>
<rect x="276.001" y="252" width="10" height="10" transform="rotate(45 276.001 252)" fill="#FFD948"/>
<rect x="295.001" y="252" width="10" height="10" transform="rotate(45 295.001 252)" fill="#FFD948"/>
<rect x="314.001" y="252" width="10" height="10" transform="rotate(45 314.001 252)" fill="#FFD948"/>
<rect x="333.466" y="252" width="10" height="10" transform="rotate(45 333.466 252)" fill="#FFD948"/>
<rect x="352.466" y="252" width="10" height="10" transform="rotate(45 352.466 252)" fill="#FFD948"/>
<rect x="371.466" y="252" width="10" height="10" transform="rotate(45 371.466 252)" fill="#FFD948"/>
<rect x="391.001" y="252" width="10" height="10" transform="rotate(45 391.001 252)" fill="#FFD948"/>
<rect x="410.466" y="252" width="10" height="10" transform="rotate(45 410.466 252)" fill="#FFD948"/>
<rect x="429.466" y="252" width="10" height="10" transform="rotate(45 429.466 252)" fill="#FFD948"/>
<rect x="448.466" y="252" width="10" height="10" transform="rotate(45 448.466 252)" fill="#FFD948"/>
<rect x="468.071" y="252" width="10" height="10" transform="rotate(45 468.071 252)" fill="#FFD948"/>
<rect x="487.536" y="252" width="10" height="10" transform="rotate(45 487.536 252)" fill="#FFD948"/>
<rect x="506.536" y="252" width="10" height="10" transform="rotate(45 506.536 252)" fill="#FFD948"/>
</g>
</svg>
