<svg viewBox="-39 0 512 512" 
    xmlns="http://www.w3.org/2000/svg">
    <path d="m152.964844 347.558594-90.730469 25.203125c-36.78125 10.214843-62.234375 43.703125-62.234375 81.878906v46.738281c0 5.867188 4.757812 10.621094 10.621094 10.621094h412.152344c5.867187 0 10.621093-4.757812 10.621093-10.621094v-46.738281c0-38.175781-25.453125-71.664063-62.234375-81.878906l-90.730468-25.203125zm0 0" fill="#ddf5ff"/>
    <path d="m371.160156 372.761719-3.210937-.894531c20.0625 15.757812 32.515625 40.148437 32.515625 66.839843v73.292969h22.308594c5.867187 0 10.621093-4.757812 10.621093-10.621094v-46.738281c0-38.175781-25.453125-71.664063-62.234375-81.878906zm0 0" fill="#c1e9f4"/>
    <path d="m337.792969 452.609375v-89.117187l-57.363281-15.933594h-25.492188v126.640625c0 3.09375-1.347656 6.03125-3.691406 8.050781l-34.550782 29.75h135.96875v-29.835938c0-2.019531-.574218-4-1.660156-5.703124l-11.550781-18.148438c-1.085937-1.707031-1.660156-3.683594-1.660156-5.703125zm0 0" fill="#495959"/>
    <path d="m337.792969 452.609375v-89.117187l-21.246094-5.902344v94.234375c0 8.082031 2.304687 15.996093 6.644531 22.8125l1.585938 2.492187c4.335937 6.820313 6.640625 14.730469 6.640625 22.8125v12.058594h21.246093v-29.835938c0-2.019531-.574218-4-1.660156-5.703124l-11.550781-18.148438c-1.085937-1.707031-1.660156-3.683594-1.660156-5.703125zm0 0" fill="#3f4a4a"/>
    <path d="m95.601562 452.609375v-89.117187l57.363282-15.933594h25.492187v126.640625c0 3.09375 1.347657 6.03125 3.691407 8.050781l34.546874 29.75h-135.964843v-29.835938c0-2.019531.574219-4 1.660156-5.703124l11.550781-18.148438c1.082032-1.707031 1.660156-3.683594 1.660156-5.703125zm0 0" fill="#495959"/>
    <path d="m158.273438 347.558594v132.390625c0 6.1875 2.695312 12.066406 7.382812 16.101562l18.523438 15.949219h32.515624l-34.546874-29.75c-2.34375-2.019531-3.691407-4.957031-3.691407-8.050781v-126.640625zm0 0" fill="#3f4a4a"/>
    <path d="m254.9375 359.035156-38.242188.207032-38.238281-.207032v-87.957031h76.480469zm0 0" fill="#f9b3a7"/>
    <path d="m216.695312 84.980469h-99.847656v70.105469h-15.9375c-11.730468 0-21.242187 9.511718-21.242187 21.246093v14.871094c0 11.734375 9.511719 21.246094 21.242187 21.246094h17.171875c7.546875 47.671875 48.820313 84.121093 98.613281 84.121093 55.148438 0 99.851563-44.707031 99.851563-99.851562v-111.738281zm0 0" fill="#feccc1"/>
    <path d="m332.480469 155.085938h-15.933594v-70.105469h-29.742187v111.738281c0 50.09375-36.886719 91.566406-84.980469 98.746094 4.851562.726562 9.816406 1.105468 14.871093 1.105468 49.792969 0 91.070313-36.453124 98.613282-84.125h17.171875c11.734375 0 21.246093-9.511718 21.246093-21.242187v-14.871094c0-11.734375-9.511718-21.246093-21.246093-21.246093zm0 0" fill="#f9b3a7"/>
    <path d="m280.429688 31.867188h-2.121094c0-17.601563-14.269532-31.867188-31.867188-31.867188h-50.988281c-58.667969 0-106.226563 47.558594-106.226563 106.222656v52.375c3.355469-2.214844 7.367188-3.511718 11.6875-3.511718h15.933594v34.589843c0 2.105469 2.730469 2.929688 3.894532 1.175781l27.972656-42.136718h7.605468c38.585938 0 75.523438-15.667969 102.339844-43.414063l16.476563-17.042969c1.34375-1.390624 3.695312-.703124 4.082031 1.191407l9.691406 47.585937c.71875 3.523438 1.878906 6.9375 3.457032 10.164063l20.148437 41.261719c.988281 2.023437 4.03125 1.316406 4.03125-.933594v-32.4375h15.933594c4.320312 0 8.332031 1.296875 11.683593 3.507812v-62.996094c0-35.199218-28.53125-63.734374-63.734374-63.734374zm0 0" fill="#495959"/>
    <path d="m258.082031 2.203125c3.964844 5.3125 6.3125 11.902344 6.3125 19.039063v28.679687c0 18.136719-7.671875 35.46875-21.242187 47.507813-18.128906 16.085937-48.167969 34.289062-91.253906 34.289062h-1.503907c-7.125 0-13.777343 3.570312-17.710937 9.511719l-15.835938 23.910156v24.539063c0 2.101562 2.730469 2.925781 3.890625 1.171874l27.976563-42.136718h7.605468c38.585938 0 75.519532-15.667969 102.339844-43.410156l16.207032-16.769532c2.207031-2.28125 3.441406-5.332031 3.441406-8.503906v-48.164062c0-13.488282-8.386719-25.011719-20.226563-29.664063zm0 0" fill="#3f4a4a"/>
    <path d="m322.921875 155.085938h9.558594c4.320312 0 8.332031 1.296874 11.683593 3.511718v-62.996094c0-29.175781-19.609374-53.753906-46.367187-61.320312 15.265625 11.644531 25.125 30.015625 25.125 50.699219zm0 0" fill="#3f4a4a"/>
    <path d="m237.941406 387.046875 47.84375 15.945313c4.683594 1.5625 9.519532-1.925782 9.519532-6.859376 0-1.085937-.246094-2.160156-.71875-3.136718l-13.09375-27.195313 13.09375-27.191406c.472656-.980469.71875-2.050781.71875-3.136719 0-4.9375-4.835938-8.421875-9.519532-6.863281l-47.84375 15.949219zm0 0" fill="#da2f3c"/>
    <path d="m195.453125 387.046875-47.84375 15.945313c-4.683594 1.5625-9.519531-1.925782-9.519531-6.859376 0-1.085937.246094-2.160156.71875-3.136718l13.089844-27.195313-13.089844-27.191406c-.472656-.980469-.71875-2.050781-.71875-3.136719 0-4.9375 4.835937-8.421875 9.519531-6.863281l47.84375 15.949219zm0 0" fill="#da2f3c"/>
    <path d="m281.492188 365.800781 13.078124-27.160156c.300782-.625.535157-1.292969.640626-1.980469.851562-5.546875-4.375-9.734375-9.425782-8.050781l-6.964844 2.320313c1.246094 1.535156 1.898438 3.59375 1.492188 5.894531-.109375.621093-.324219 1.21875-.59375 1.785156l-8.65625 17.976563c-2.804688 5.824218-2.804688 12.605468 0 18.433593l8.65625 17.976563c.269531.566406.484375 1.164062.59375 1.78125.40625 2.300781-.246094 4.359375-1.492188 5.894531l6.683594 2.226563c3.785156 1.261718 8.058594-.585938 9.386719-4.347657.652344-1.855469.519531-3.847656-.300781-5.554687zm0 0" fill="#c62430"/>
    <path d="m180.582031 339.597656v52.40625l14.871094-4.957031v-42.492187zm0 0" fill="#c62430"/>
    <path d="m195.453125 344.554688h42.488281v42.492187h-42.488281zm0 0" fill="#da2f3c"/>
    <path d="m225.195312 344.554688v19.121093c0 5.867188-4.757812 10.621094-10.621093 10.621094h-19.121094v12.75h42.488281v-42.492187zm0 0" fill="#c62430"/>
    <g fill="#495959">
        <path d="m227.320312 418.523438c0 5.867187-4.757812 10.621093-10.625 10.621093-5.863281 0-10.621093-4.753906-10.621093-10.621093 0-5.867188 4.757812-10.621094 10.621093-10.621094 5.867188 0 10.625 4.753906 10.625 10.621094zm0 0"/>
        <path d="m227.320312 463.136719c0 5.867187-4.757812 10.621093-10.625 10.621093-5.863281 0-10.621093-4.753906-10.621093-10.621093 0-5.867188 4.757812-10.621094 10.621093-10.621094 5.867188 0 10.625 4.753906 10.625 10.621094zm0 0"/>
    </g>
</svg>