<svg viewBox="0 0 21 36" fill="none" 
    xmlns="http://www.w3.org/2000/svg">
    <path d="M19.9708 0.0074904L15.1707 0C9.77799 0 6.29297 3.47742 6.29297 8.85965V12.9445H1.46668C1.04963 12.9445 0.711914 13.2734 0.711914 13.679V19.5975C0.711914 20.0031 1.05002 20.3316 1.46668 20.3316H6.29297V35.2659C6.29297 35.6715 6.63069 36 7.04773 36H13.3447C13.7617 36 14.0994 35.6712 14.0994 35.2659V20.3316H19.7425C20.1595 20.3316 20.4972 20.0031 20.4972 19.5975L20.4996 13.679C20.4996 13.4842 20.4198 13.2977 20.2785 13.1599C20.1372 13.0221 19.9446 12.9445 19.7444 12.9445H14.0994V9.48173C14.0994 7.81736 14.5072 6.97244 16.7365 6.97244L19.9701 6.97132C20.3867 6.97132 20.7244 6.64249 20.7244 6.23726V0.74155C20.7244 0.336694 20.3871 0.00823944 19.9708 0.0074904Z" fill="white"/>
</svg>
