<svg viewBox="0 0 37 36" fill="none" 
    xmlns="http://www.w3.org/2000/svg">
    <path d="M26.8402 0H10.6995C5.2182 0 0.758789 4.45683 0.758789 9.9347V26.0653C0.758789 31.5434 5.2182 36 10.6995 36H26.8402C32.3219 36 36.7813 31.5432 36.7813 26.0653V9.9347C36.7816 4.45683 32.3219 0 26.8402 0ZM33.5855 26.0653C33.5855 29.7822 30.5596 32.8059 26.8404 32.8059H10.6995C6.98052 32.8061 3.95489 29.7822 3.95489 26.0653V9.9347C3.95489 6.21805 6.98052 3.19409 10.6995 3.19409H26.8402C30.5594 3.19409 33.5853 6.21805 33.5853 9.9347V26.0653H33.5855Z" fill="white"/>
    <path d="M18.7704 8.72412C13.6522 8.72412 9.48828 12.8854 9.48828 18.0004C9.48828 23.1152 13.6522 27.2763 18.7704 27.2763C23.8886 27.2763 28.0525 23.1152 28.0525 18.0004C28.0525 12.8854 23.8886 8.72412 18.7704 8.72412ZM18.7704 24.082C15.4147 24.082 12.6844 21.3538 12.6844 18.0002C12.6844 14.6464 15.4145 11.918 18.7704 11.918C22.1263 11.918 24.8564 14.6464 24.8564 18.0002C24.8564 21.3538 22.1261 24.082 18.7704 24.082Z" fill="white"/>
    <path d="M28.4415 6.01562C27.8257 6.01562 27.2208 6.26476 26.7859 6.70129C26.3489 7.13569 26.0977 7.74044 26.0977 8.35796C26.0977 8.97357 26.3491 9.5781 26.7859 10.0146C27.2206 10.449 27.8257 10.7003 28.4415 10.7003C29.0594 10.7003 29.6624 10.449 30.0992 10.0146C30.536 9.5781 30.7853 8.97336 30.7853 8.35796C30.7853 7.74044 30.536 7.13569 30.0992 6.70129C29.6645 6.26476 29.0594 6.01562 28.4415 6.01562Z" fill="white"/>
</svg>
