<svg viewBox="0 0 41 33" fill="none" 
    xmlns="http://www.w3.org/2000/svg">
    <path d="M40.8327 3.84425C39.3595 4.49661 37.7789 4.93903 36.1181 5.13654C37.8139 4.12171 39.1119 2.51203 39.7271 0.59987C38.1365 1.53968 36.3807 2.2221 34.5098 2.59203C33.0117 0.994838 30.8807 0 28.5172 0C23.9827 0 20.3061 3.67432 20.3061 8.20348C20.3061 8.84583 20.3786 9.47322 20.5187 10.0732C13.6957 9.73067 7.64557 6.4638 3.5963 1.49968C2.88847 2.70948 2.48579 4.11916 2.48579 5.62393C2.48579 8.47093 3.93644 10.983 6.13743 12.4526C4.79182 12.4077 3.52625 12.0377 2.4183 11.4228V11.5253C2.4183 15.4996 5.24956 18.8164 9.00368 19.5713C8.31586 19.7563 7.59057 19.8588 6.84023 19.8588C6.31003 19.8588 5.79729 19.8063 5.29455 19.7063C6.33998 22.9682 9.37136 25.3402 12.963 25.4053C10.1542 27.6049 6.61263 28.9121 2.76597 28.9121C2.1032 28.9121 1.45037 28.8721 0.807617 28.7997C4.44173 31.1318 8.75614 32.4915 13.3932 32.4915C28.4973 32.4915 36.7535 19.9888 36.7535 9.14583L36.7259 8.08354C38.3391 6.93367 39.7347 5.48896 40.8327 3.84425Z" fill="white"/>
</svg>
