<svg width="658" height="646" viewBox="0 0 658 646" fill="none" xmlns="http://www.w3.org/2000/svg">
<path d="M374.928 462.931C558.751 462.931 628.923 329.013 650.37 246.384C659.508 211.18 664.052 167.979 642.709 151.518C155.596 -189.398 175.51 151.518 175.51 151.518C146.405 180.591 67.6385 242.112 74.411 303.001C74.408 471.315 307.536 462.931 374.928 462.931Z" fill="#FFD948"/>
<path d="M492.337 518.115C492.337 518.115 511.704 483.731 540.862 473.824C553.12 469.746 563.728 461.794 571.094 451.16C574.552 446.085 577.537 440.702 580.012 435.079" stroke="#535461" stroke-width="2" stroke-miterlimit="10"/>
<path d="M598.359 428.72C595.036 431.958 579.557 435.296 579.557 435.296C579.557 435.296 583.351 419.89 586.674 416.66C588.27 415.107 590.416 414.252 592.64 414.285C594.864 414.318 596.984 415.235 598.533 416.834C600.083 418.433 600.935 420.584 600.902 422.813C600.87 425.042 599.955 427.167 598.359 428.72V428.72Z" fill="#6C63FF"/>
<path d="M589.604 456.597C585.059 457.504 570.283 451.88 570.283 451.88C570.283 451.88 581.829 441.036 586.365 440.107C588.547 439.672 590.812 440.124 592.661 441.363C594.511 442.602 595.793 444.527 596.227 446.714C596.66 448.901 596.209 451.17 594.973 453.024C593.737 454.878 591.816 456.163 589.634 456.597H589.604Z" fill="#6C63FF"/>
<path d="M557.724 486.76C553.343 485.211 543.396 472.895 543.396 472.895C543.396 472.895 558.853 469.363 563.211 470.881C564.274 471.224 565.258 471.776 566.106 472.505C566.953 473.235 567.646 474.126 568.145 475.127C568.644 476.129 568.938 477.22 569.01 478.337C569.083 479.454 568.932 480.574 568.566 481.632C568.201 482.689 567.628 483.663 566.882 484.496C566.136 485.329 565.231 486.004 564.222 486.482C563.212 486.96 562.117 487.23 561.001 487.278C559.885 487.326 558.771 487.15 557.724 486.76V486.76Z" fill="#6C63FF"/>
<path d="M528.474 504.141C523.906 503.367 512.021 492.902 512.021 492.902C512.021 492.902 526.634 486.798 531.202 487.558C532.296 487.728 533.346 488.114 534.291 488.693C535.236 489.273 536.057 490.034 536.707 490.934C537.356 491.833 537.822 492.852 538.076 493.933C538.33 495.014 538.368 496.134 538.188 497.229C538.008 498.325 537.613 499.374 537.026 500.315C536.439 501.257 535.672 502.073 534.769 502.715C533.865 503.358 532.844 503.815 531.764 504.06C530.683 504.305 529.565 504.332 528.474 504.141V504.141Z" fill="#6C63FF"/>
<path d="M557.346 439.843C557.346 444.49 565.723 457.945 565.723 457.945C565.723 457.945 574.116 444.49 574.116 439.851C574.116 437.622 573.232 435.484 571.66 433.908C570.087 432.332 567.955 431.446 565.731 431.446C563.507 431.446 561.374 432.332 559.802 433.908C558.229 435.484 557.346 437.622 557.346 439.851V439.843Z" fill="#6C63FF"/>
<path d="M523.396 460.602C524.787 465.032 536.797 475.365 536.797 475.365C536.797 475.365 540.785 460.005 539.401 455.575C538.736 453.447 537.255 451.672 535.284 450.639C533.313 449.606 531.014 449.401 528.891 450.067C526.769 450.734 524.998 452.218 523.967 454.194C522.937 456.169 522.731 458.474 523.396 460.602V460.602Z" fill="#6C63FF"/>
<path d="M493.165 485.311C493.783 489.912 503.883 502.135 503.883 502.135C503.883 502.135 510.406 487.674 509.788 483.072C509.492 480.863 508.332 478.862 506.564 477.51C504.796 476.157 502.564 475.564 500.359 475.861C498.155 476.158 496.159 477.32 494.809 479.093C493.46 480.865 492.868 483.102 493.165 485.311Z" fill="#6C63FF"/>
<path opacity="0.25" d="M598.359 428.72C595.036 431.958 579.557 435.296 579.557 435.296C579.557 435.296 583.351 419.89 586.674 416.66C588.27 415.107 590.416 414.252 592.64 414.285C594.864 414.318 596.984 415.235 598.533 416.834C600.083 418.433 600.935 420.584 600.902 422.813C600.87 425.042 599.955 427.167 598.359 428.72V428.72Z" fill="black"/>
<path opacity="0.25" d="M589.604 456.597C585.059 457.504 570.283 451.88 570.283 451.88C570.283 451.88 581.829 441.036 586.365 440.107C588.547 439.672 590.812 440.124 592.661 441.363C594.511 442.602 595.793 444.527 596.227 446.714C596.66 448.901 596.209 451.17 594.973 453.024C593.737 454.878 591.816 456.163 589.634 456.597H589.604Z" fill="black"/>
<path opacity="0.25" d="M557.724 486.76C553.343 485.211 543.396 472.895 543.396 472.895C543.396 472.895 558.853 469.363 563.211 470.881C564.274 471.224 565.258 471.776 566.106 472.505C566.953 473.235 567.646 474.126 568.145 475.127C568.644 476.129 568.938 477.22 569.01 478.337C569.083 479.454 568.932 480.574 568.566 481.632C568.201 482.689 567.628 483.663 566.882 484.496C566.136 485.329 565.231 486.004 564.222 486.482C563.212 486.96 562.117 487.23 561.001 487.278C559.885 487.326 558.771 487.15 557.724 486.76V486.76Z" fill="black"/>
<path opacity="0.25" d="M528.474 504.141C523.906 503.367 512.021 492.902 512.021 492.902C512.021 492.902 526.634 486.798 531.202 487.558C532.296 487.728 533.346 488.114 534.291 488.693C535.236 489.273 536.057 490.034 536.707 490.934C537.356 491.833 537.822 492.852 538.076 493.933C538.33 495.014 538.368 496.134 538.188 497.229C538.008 498.325 537.613 499.374 537.026 500.315C536.439 501.257 535.672 502.073 534.769 502.715C533.865 503.358 532.844 503.815 531.764 504.06C530.683 504.305 529.565 504.332 528.474 504.141V504.141Z" fill="black"/>
<path opacity="0.25" d="M557.346 439.843C557.346 444.49 565.723 457.945 565.723 457.945C565.723 457.945 574.116 444.49 574.116 439.851C574.116 437.622 573.232 435.484 571.66 433.908C570.087 432.332 567.955 431.446 565.731 431.446C563.507 431.446 561.374 432.332 559.802 433.908C558.229 435.484 557.346 437.622 557.346 439.851V439.843Z" fill="black"/>
<path opacity="0.25" d="M523.396 460.602C524.787 465.032 536.797 475.365 536.797 475.365C536.797 475.365 540.785 460.005 539.401 455.575C538.736 453.447 537.255 451.672 535.284 450.639C533.313 449.606 531.014 449.401 528.891 450.067C526.769 450.734 524.998 452.218 523.967 454.194C522.937 456.169 522.731 458.474 523.396 460.602V460.602Z" fill="black"/>
<path opacity="0.25" d="M493.165 485.311C493.783 489.912 503.883 502.135 503.883 502.135C503.883 502.135 510.406 487.674 509.788 483.072C509.492 480.863 508.332 478.862 506.564 477.51C504.796 476.157 502.564 475.564 500.359 475.861C498.155 476.158 496.159 477.32 494.809 479.093C493.46 480.865 492.868 483.102 493.165 485.311Z" fill="black"/>
<path d="M493.45 517.418C493.45 517.418 497.252 478.115 519.911 457.217C529.469 448.508 535.95 436.926 538.382 424.211C539.494 418.164 540.048 412.026 540.035 405.877" stroke="#535461" stroke-width="2" stroke-miterlimit="10"/>
<path d="M554.232 392.647C552.501 396.954 539.703 406.296 539.703 406.296C539.703 406.296 536.952 390.665 538.683 386.366C539.075 385.315 539.673 384.354 540.441 383.538C541.209 382.723 542.133 382.07 543.157 381.617C544.181 381.165 545.285 380.923 546.404 380.905C547.523 380.888 548.634 381.094 549.672 381.514C550.71 381.933 551.654 382.556 552.447 383.347C553.241 384.138 553.869 385.079 554.294 386.117C554.719 387.155 554.932 388.267 554.922 389.389C554.911 390.51 554.677 391.618 554.232 392.647V392.647Z" fill="#6C63FF"/>
<path d="M557.501 421.687C553.714 424.359 537.902 425.226 537.902 425.226C537.902 425.226 544.085 410.61 547.848 407.938C548.749 407.302 549.766 406.851 550.841 406.61C551.915 406.368 553.027 406.341 554.112 406.531C555.197 406.72 556.234 407.121 557.164 407.712C558.095 408.303 558.9 409.072 559.533 409.975C560.167 410.878 560.617 411.897 560.858 412.974C561.099 414.051 561.126 415.165 560.937 416.253C560.748 417.34 560.348 418.38 559.758 419.312C559.169 420.244 558.402 421.051 557.501 421.687Z" fill="#6C63FF"/>
<path d="M540.553 462.213C535.916 462.6 521.851 455.35 521.851 455.35C521.851 455.35 534.532 445.853 539.115 445.458C541.332 445.271 543.532 445.975 545.231 447.414C546.931 448.852 547.99 450.909 548.176 453.131C548.363 455.352 547.661 457.557 546.226 459.261C544.79 460.964 542.738 462.026 540.522 462.213H540.553Z" fill="#6C63FF"/>
<path d="M520.838 489.982C516.356 491.144 501.255 486.388 501.255 486.388C501.255 486.388 512.144 474.87 516.626 473.708C517.7 473.405 518.823 473.321 519.929 473.459C521.036 473.597 522.104 473.955 523.071 474.512C524.038 475.069 524.885 475.813 525.561 476.702C526.237 477.591 526.73 478.606 527.01 479.688C527.29 480.77 527.352 481.897 527.192 483.003C527.033 484.109 526.654 485.172 526.08 486.13C525.505 487.088 524.745 487.922 523.845 488.582C522.945 489.242 521.923 489.715 520.838 489.974V489.982Z" fill="#6C63FF"/>
<path d="M521.24 419.464C523.11 423.709 536.217 432.632 536.217 432.632C536.217 432.632 538.451 416.923 536.573 412.679C535.645 410.684 533.974 409.133 531.919 408.359C529.863 407.586 527.587 407.652 525.579 408.542C523.571 409.433 521.991 411.077 521.18 413.122C520.369 415.168 520.39 417.45 521.24 419.479V419.464Z" fill="#6C63FF"/>
<path d="M498.597 452.236C501.65 455.722 516.812 460.292 516.812 460.292C516.812 460.292 514.254 444.63 511.194 441.144C510.474 440.293 509.592 439.595 508.599 439.089C507.607 438.584 506.524 438.282 505.414 438.2C504.303 438.119 503.188 438.26 502.133 438.615C501.077 438.97 500.103 439.532 499.267 440.268C498.431 441.005 497.749 441.901 497.262 442.904C496.775 443.907 496.492 444.997 496.429 446.111C496.367 447.225 496.526 448.341 496.899 449.392C497.271 450.444 497.848 451.41 498.597 452.236V452.236Z" fill="#6C63FF"/>
<path d="M480.946 487.108C483.372 491.066 497.546 498.13 497.546 498.13C497.546 498.13 497.662 482.267 495.227 478.309C494.651 477.368 493.895 476.551 493.004 475.903C492.112 475.255 491.102 474.79 490.031 474.534C488.96 474.277 487.849 474.235 486.761 474.409C485.674 474.583 484.631 474.97 483.693 475.547C482.755 476.125 481.939 476.882 481.293 477.776C480.647 478.67 480.183 479.682 479.927 480.756C479.671 481.829 479.629 482.943 479.802 484.033C479.976 485.123 480.361 486.168 480.938 487.108H480.946Z" fill="#6C63FF"/>
<path opacity="0.1" d="M252.163 645.992C302.902 645.992 344.035 639.081 344.035 630.555C344.035 622.029 302.902 615.117 252.163 615.117C201.423 615.117 160.291 622.029 160.291 630.555C160.291 639.081 201.423 645.992 252.163 645.992Z" fill="#6C63FF"/>
<path opacity="0.1" d="M432.993 527.487C483.732 527.487 524.865 520.576 524.865 512.05C524.865 503.524 483.732 496.612 432.993 496.612C382.254 496.612 341.121 503.524 341.121 512.05C341.121 520.576 382.254 527.487 432.993 527.487Z" fill="#6C63FF"/>
<path d="M439.09 308.309L439.005 311.323L433.781 496.078H425.002L429.307 311.323L429.392 307.845L439.09 308.309Z" fill="#B77B7F"/>
<path d="M489.919 464.824L483.342 464.808L385.628 464.599L380.419 464.591L383.193 456.024H489.223L489.919 464.824Z" fill="#DDA2A6"/>
<path opacity="0.1" d="M439.09 308.309L439.005 311.323H429.307L429.392 307.845L439.09 308.309Z" fill="black"/>
<path d="M442.792 303.794H426.509V309.936H442.792V303.794Z" fill="#B77B7F"/>
<path opacity="0.1" d="M386.493 456.024L385.628 464.599L380.419 464.591L383.193 456.024H386.493Z" fill="black"/>
<path d="M400.519 303.678L400.249 306.342L378.571 520.625L368.641 520.152L391.485 306.342L391.74 303.91L400.519 303.678Z" fill="#DDA2A6"/>
<path opacity="0.1" d="M489.919 464.824L483.342 464.808L482.453 456.024H489.223L489.919 464.824Z" fill="black"/>
<path d="M500.313 520.152L490.375 520.625L468.705 306.342L468.435 303.678L477.206 303.91L477.461 306.342L500.313 520.152Z" fill="#DDA2A6"/>
<path d="M437.36 22.0213V72.8421H428.82V22.0213C428.796 21.4439 428.888 20.8676 429.092 20.327C429.295 19.7863 429.606 19.2925 430.005 18.8754C430.403 18.4582 430.882 18.1262 431.413 17.8994C431.943 17.6726 432.513 17.5557 433.09 17.5557C433.667 17.5557 434.237 17.6726 434.767 17.8994C435.298 18.1262 435.777 18.4582 436.175 18.8754C436.574 19.2925 436.885 19.7863 437.088 20.327C437.292 20.8676 437.384 21.4439 437.36 22.0213V22.0213Z" fill="#DDA2A6"/>
<path opacity="0.1" d="M437.36 68.2178H428.812V72.8421H437.36V68.2178Z" fill="black"/>
<path d="M440.713 71.6882V88.4658H425.512V71.6882C425.511 71.4142 425.564 71.1428 425.668 70.8896C425.772 70.6363 425.925 70.4062 426.118 70.2125C426.312 70.0188 426.541 69.8654 426.794 69.761C427.047 69.6567 427.317 69.6035 427.591 69.6045H438.65C439.198 69.6086 439.723 69.8299 440.11 70.2202C440.496 70.6106 440.713 71.1382 440.713 71.6882Z" fill="#DDA2A6"/>
<path opacity="0.1" d="M433.086 83.4931C434.87 83.4931 436.316 82.0435 436.316 80.2554C436.316 78.4672 434.87 77.0176 433.086 77.0176C431.302 77.0176 429.855 78.4672 429.855 80.2554C429.855 82.0435 431.302 83.4931 433.086 83.4931Z" fill="black"/>
<path d="M433.086 82.7959C434.87 82.7959 436.316 81.3463 436.316 79.5581C436.316 77.7699 434.87 76.3203 433.086 76.3203C431.302 76.3203 429.855 77.7699 429.855 79.5581C429.855 81.3463 431.302 82.7959 433.086 82.7959Z" fill="#B77B7F"/>
<path opacity="0.1" d="M440.713 86.3896H425.466V88.4733H440.713V86.3896Z" fill="black"/>
<path opacity="0.1" d="M446.95 89.1709H419.229V93.8029H446.95V89.1709Z" fill="black"/>
<path d="M446.95 87.7764H419.229V92.4084H446.95V87.7764Z" fill="#DDA2A6"/>
<path opacity="0.1" d="M377.011 297.442H493.435C494.767 297.442 496.045 297.973 496.987 298.917C497.929 299.861 498.458 301.142 498.458 302.477V303.577H371.987V302.477C371.987 301.142 372.517 299.861 373.459 298.917C374.401 297.973 375.678 297.442 377.011 297.442V297.442Z" fill="black"/>
<path opacity="0.1" d="M391.74 303.91L400.52 303.678L400.249 306.342H391.485L391.74 303.91Z" fill="black"/>
<path opacity="0.1" d="M442.792 303.794H426.509V306.342H442.792V303.794Z" fill="black"/>
<path opacity="0.1" d="M477.461 306.342H468.705L468.435 303.678L477.206 303.91L477.461 306.342Z" fill="black"/>
<path d="M377.011 298.813H493.435C494.767 298.813 496.045 299.344 496.987 300.288C497.929 301.232 498.458 302.513 498.458 303.848V304.948H371.987V303.848C371.987 302.513 372.517 301.232 373.459 300.288C374.401 299.344 375.678 298.813 377.011 298.813V298.813Z" fill="#DDA2A6"/>
<path d="M351.485 201.107C349.731 200.177 330.619 185.708 330.619 185.708L299.776 166.103C299.776 166.103 299.614 165.638 299.32 164.84C307.783 155.212 305.936 141.238 297.326 131.417C286.893 119.503 239.752 93.8568 225.548 115.793C223.562 118.892 223.492 122.408 222.974 125.816C221.761 133.771 217.851 141.479 211.714 147.97C206.985 152.981 200.779 157.598 198.059 163.268C198.059 163.198 198.005 163.128 197.982 163.051C197.325 164.266 196.848 165.571 196.567 166.924C195.215 173.841 199.852 180.471 202.317 187.203C203.144 189.482 203.745 191.838 204.11 194.236C204.172 193.756 204.226 193.283 204.28 192.803C204.881 196.217 205.086 199.69 204.89 203.151C187.773 206.645 187.765 235.994 187.765 235.994C187.765 235.994 185.655 247.659 186.011 251.865C186.366 256.071 186.358 265.165 186.358 267.357C186.358 269.549 184.249 283.221 184.04 284.863C184.042 284.886 184.042 284.909 184.04 284.933C183.731 286.73 180.524 295.39 188.275 297.326C188.816 297.465 189.388 297.582 189.983 297.69C190.315 304.7 190.918 319.379 190.385 322.647C190.385 322.647 193.206 342.368 195.547 347.38C197.028 350.319 198.76 353.123 200.725 355.761C200.555 356.962 200.151 358.117 199.535 359.162C198.337 360.889 198.955 362.306 200.957 362.918C200.887 363.515 200.81 364.189 200.725 364.948C199.867 372.554 198.584 387.674 200.764 395.335C203.754 405.838 203.932 409.339 203.932 409.339C203.932 409.339 203.932 412.484 205.169 414.235C206.405 415.985 208.685 432.267 208.685 434.893C208.685 437.519 214.667 461.144 212.905 466.744C211.143 472.345 212.557 480.222 212.557 480.222C212.557 480.222 211.498 494.049 210.238 497.023C208.979 499.997 208.476 547.952 210.408 560.377C212.34 572.801 213.577 583.126 213.577 583.126C213.577 583.126 212.348 594.505 213.399 596.077C214.45 597.65 216.39 607.108 214.983 607.627C213.577 608.146 212.874 612.003 212.874 612.003C213.617 613.136 214.42 614.23 215.277 615.28C214.735 615.09 214.206 614.865 213.693 614.606C214.249 615.38 215.084 616.48 216.112 617.704L215.146 630.291C215.105 630.782 215.237 631.272 215.52 631.675C215.802 632.079 216.217 632.37 216.691 632.499C219.777 633.339 223.033 633.325 226.111 632.458C229.19 631.59 231.976 629.902 234.172 627.572C242.967 618.649 245.958 619.873 247.542 614.451C247.712 613.87 247.859 613.297 247.982 612.754C249.118 607.921 243.979 604.327 239.891 606.387C240.455 602.561 240.896 598.215 240.471 595.76C239.59 590.686 239.767 577.387 239.767 577.387L238.539 513.677C238.539 513.677 240.818 501.074 243.461 496.179C246.104 491.283 245.78 474.126 245.78 474.126L248.771 417.767L251.584 390.292C251.584 390.292 254.397 380.842 257.913 391.346C257.913 391.346 255.981 412.515 256.862 417.597C257.743 422.678 258.972 447.349 258.091 452.771C257.21 458.193 253.346 487.953 255.772 495.474C258.199 502.995 260.904 512.112 260.363 515.094C259.822 518.076 258.044 582.646 258.044 582.646C258.044 582.646 262.797 595.04 259.281 599.098C255.765 603.157 259.103 619.238 259.103 619.238C259.103 619.238 259.528 619.54 260.255 619.958L260.154 621.298L259.049 635.775C259.01 636.267 259.142 636.757 259.425 637.161C259.707 637.566 260.12 637.859 260.595 637.991C263.681 638.832 266.936 638.818 270.015 637.951C273.094 637.083 275.88 635.394 278.076 633.064C286.87 624.133 289.861 625.365 291.445 619.935C291.615 619.354 291.762 618.788 291.894 618.238C293.13 612.964 286.87 609.137 282.682 612.584L282.473 612.762C282.254 612.949 282.025 613.122 281.785 613.281C281.674 613.363 281.558 613.438 281.437 613.506C282.318 609.509 283.601 602.661 282.983 599.455C282.102 594.73 283.856 580.384 283.856 580.384C283.856 580.384 288.957 563.227 289.135 556.372L290.541 501.771C290.541 501.771 290.371 479.54 291.074 474.118C291.778 468.696 297.404 421.787 303.03 407.783C307.35 397.062 309.282 369.704 308.138 355.831C308.076 355.149 308.014 354.491 307.937 353.879C314.838 348.774 315.526 340.285 315.526 340.285C315.526 340.285 309.189 328.155 303.092 323.019C296.994 317.884 295.68 309.053 295.897 305.297C296 303.007 295.248 300.762 293.787 298.999C293.787 298.999 290.974 289.898 289.096 288.968C288.942 288.89 288.804 288.785 288.686 288.658C287.411 287.287 288.393 283.368 288.393 283.368V283.244C288.617 282.338 289.938 276.466 289.544 274.964C289.073 273.337 289.776 265.63 289.776 265.63C289.776 265.63 294.235 252.33 293.532 241.827C292.829 231.323 302.682 232.26 302.682 232.26L333.108 231.943H336.57C337.791 230.904 338.906 229.747 339.901 228.488C345.697 227.799 357.42 225.607 358.734 219.193C360.519 210.68 353.247 202.044 351.485 201.107ZM210.524 298.209L210.733 292.872C211.452 293.492 211.931 293.887 211.931 293.887C212.319 295.283 212.337 296.757 211.985 298.163C211.796 298.823 211.461 299.432 211.005 299.944C210.549 300.456 209.983 300.859 209.35 301.122C209.202 301.186 209.06 301.261 208.925 301.346L208.631 298.333L210.524 298.209ZM320.882 204.484C319.591 203.903 315.248 204.019 313.015 204.019C310.781 204.019 307.157 202.152 307.157 202.152C306.384 200.642 302.11 199.743 298.308 199.232C295.418 192.09 291.353 185.127 290.804 177.683C290.804 177.412 290.804 177.141 290.765 176.87L291.206 177.644C291.206 177.644 308.919 188.969 310.912 192.361C312.458 194.949 319.9 200.727 323.347 203.314C322.872 203.935 322.207 204.381 321.454 204.584C321.257 204.606 321.059 204.571 320.882 204.484V204.484Z" fill="url(#paint0_linear)"/>
<path d="M291.63 618.285C291.499 618.827 291.36 619.393 291.19 619.966C289.644 625.388 286.684 624.133 278.052 632.987C275.901 635.298 273.16 636.975 270.127 637.838C267.094 638.701 263.883 638.716 260.841 637.882C260.367 637.757 259.951 637.467 259.669 637.065C259.386 636.662 259.254 636.173 259.296 635.682L260.385 621.322L260.903 614.412C260.903 614.412 274.69 618.285 281.707 613.367C281.943 613.205 282.17 613.032 282.387 612.848C282.441 612.799 282.493 612.747 282.542 612.693C283.447 611.941 284.565 611.492 285.738 611.41C286.911 611.327 288.08 611.613 289.082 612.23C290.084 612.847 290.868 613.762 291.325 614.848C291.782 615.934 291.889 617.136 291.63 618.285V618.285Z" fill="#67647E"/>
<path d="M248.353 612.863C248.221 613.405 248.082 613.971 247.912 614.544C246.367 619.966 243.407 618.711 234.774 627.565C232.623 629.876 229.883 631.554 226.85 632.416C223.816 633.279 220.605 633.294 217.564 632.46C217.089 632.335 216.674 632.045 216.391 631.643C216.109 631.24 215.977 630.751 216.018 630.261L217.108 615.9L217.626 608.99C217.626 608.99 231.413 612.863 238.43 607.945C238.665 607.783 238.892 607.61 239.11 607.426C239.164 607.377 239.216 607.325 239.264 607.271C240.17 606.519 241.288 606.071 242.461 605.988C243.633 605.905 244.803 606.192 245.805 606.808C246.807 607.425 247.591 608.34 248.048 609.426C248.505 610.512 248.612 611.714 248.353 612.863V612.863Z" fill="#67647E"/>
<path opacity="0.1" d="M234.11 615.016L234.666 622.483C226.753 630.407 217.332 618.61 214.573 614.737C221.83 618.486 234.11 615.016 234.11 615.016Z" fill="black"/>
<path opacity="0.1" d="M280.625 618.053L281.661 617.363C274.435 628.378 263.701 623.297 260.354 621.321L260.872 614.412C260.872 614.412 274.659 618.285 281.676 613.366C281.128 616.062 280.625 618.053 280.625 618.053Z" fill="black"/>
<path d="M302.635 409.51C297.086 423.398 291.545 469.928 290.85 475.35C290.154 480.772 290.332 502.786 290.332 502.786L288.941 556.922C288.763 563.7 283.74 580.717 283.74 580.717C283.74 580.717 282.009 594.954 282.874 599.641C283.74 604.327 280.626 616.682 280.626 616.682L281.661 615.984C272.998 629.152 259.311 619.284 259.311 619.284C259.311 619.284 256.019 603.312 259.489 599.315C262.959 595.318 258.276 582.995 258.276 582.995C258.276 582.995 260.007 518.921 260.525 515.969C261.043 513.018 258.446 503.987 256.019 496.519C253.593 489.052 257.41 459.533 258.276 454.149C259.141 448.766 257.928 424.281 257.063 419.246C256.197 414.212 258.098 393.197 258.098 393.197C254.636 382.779 251.862 392.159 251.862 392.159L249.087 419.417L246.143 475.334C246.143 475.334 246.49 492.375 243.894 497.217C241.297 502.058 239.041 514.575 239.041 514.575L240.254 577.789C240.254 577.789 240.084 590.957 240.949 596.015C241.815 601.074 239.041 614.079 239.041 614.079C229.342 636.984 213.762 612.15 213.762 612.15C213.762 612.15 214.457 608.332 215.841 607.813C217.224 607.294 215.323 597.913 214.295 596.349C213.267 594.784 214.465 583.498 214.465 583.498C214.465 583.498 213.252 573.258 211.374 560.927C209.496 548.595 209.991 501.02 211.204 498.069C212.417 495.117 213.453 481.399 213.453 481.399C213.453 481.399 212.069 473.584 213.801 468.022C215.532 462.461 209.643 439.029 209.643 436.419C209.643 433.809 207.394 417.666 206.181 415.931C204.967 414.196 204.967 411.067 204.967 411.067C204.967 411.067 204.797 407.597 201.876 397.178C199.728 389.572 200.995 374.576 201.837 367.024C202.139 364.227 202.402 362.446 202.402 362.446C202.402 362.446 301.762 346.296 305.727 349.944C306.654 350.804 307.272 353.755 307.635 357.961C308.818 371.718 306.87 398.906 302.635 409.51Z" fill="#444053"/>
<path opacity="0.1" d="M265.03 487.589C265.494 487.589 276.468 488.518 280.487 487.705C284.505 486.891 265.03 487.589 265.03 487.589Z" fill="black"/>
<path opacity="0.1" d="M265.842 494.072C265.842 494.072 280.997 496.737 281.769 495.35C282.542 493.964 265.842 494.072 265.842 494.072Z" fill="black"/>
<path opacity="0.1" d="M219.527 491.291C219.527 491.291 227.379 491.64 231.653 493.615C235.926 495.59 219.527 491.291 219.527 491.291Z" fill="black"/>
<path d="M190.995 296.583C190.995 296.583 192.263 320.773 191.575 325.057C191.575 325.057 194.341 344.623 196.652 349.596C198.963 354.569 203.932 360.827 203.932 360.827L210.748 312.803L209.125 296.351L190.995 296.583Z" fill="#EFB7B9"/>
<path d="M262.603 186.374C277.337 186.374 289.281 174.403 289.281 159.635C289.281 144.868 277.337 132.896 262.603 132.896C247.87 132.896 235.926 144.868 235.926 159.635C235.926 174.403 247.87 186.374 262.603 186.374Z" fill="#EFB7B9"/>
<path d="M248.747 172.129C248.747 172.129 240.432 188.457 232.116 196.095C223.801 203.732 282.009 212.415 283.392 212.415C284.776 212.415 272.998 177.691 275.077 173.5C277.156 169.31 248.747 172.129 248.747 172.129Z" fill="#EFB7B9"/>
<path opacity="0.1" d="M307.651 357.961C306.345 358.961 304.903 359.769 303.37 360.362C292.751 364.529 281.198 370.315 273.346 368.007C265.494 365.699 248.863 368.007 248.863 368.007C248.863 368.007 215.362 365.226 208.677 366.845C205.632 367.581 203.267 367.55 201.722 367.023C202.023 364.227 202.286 362.446 202.286 362.446C202.286 362.446 301.762 346.296 305.727 349.944C306.669 350.804 307.272 353.755 307.651 357.961Z" fill="black"/>
<path d="M314.923 342.531C314.923 342.531 314.004 354.111 303.37 358.278C292.736 362.446 281.198 368.232 273.346 365.924C265.494 363.615 248.863 365.924 248.863 365.924C248.863 365.924 215.362 363.143 208.677 364.762C201.992 366.381 198.507 364.305 200.586 361.292C202.665 358.278 202.441 348.325 202.441 344.158C202.441 339.99 200.122 323.089 202.201 320.076C204.28 317.063 206.127 305.49 210.285 303.631C210.909 303.368 211.466 302.967 211.916 302.459C212.365 301.951 212.695 301.348 212.881 300.695C213.225 299.302 213.206 297.843 212.827 296.458C212.827 296.458 212.124 295.878 211.158 295.018C208.708 292.826 204.566 288.759 205.895 287.427C207.742 285.568 205.895 273.531 205.895 273.531C205.895 273.531 201.505 264.274 203.128 260.804C204.751 257.334 189.032 239.038 189.032 239.038C189.032 239.038 189.032 207.559 207.974 206.165C207.974 206.165 221.374 206.629 222.99 200.611C224.605 194.592 235.231 191.114 235.231 191.114L259.489 196.443C259.489 196.443 280.966 201.091 284.899 198.295C288.833 195.498 291.855 201.997 291.855 201.997C291.855 201.997 305.248 202.694 306.631 205.475C308.014 208.256 302.249 235.336 302.249 235.336C302.249 235.336 292.543 234.414 293.238 244.832C293.934 255.25 289.498 268.449 289.498 268.449C289.498 268.449 288.802 276.087 289.266 277.706C289.699 279.201 288.354 285.026 288.138 285.924V286.04C288.138 286.04 287.172 289.913 288.423 291.292C288.54 291.417 288.675 291.521 288.825 291.602C290.68 292.524 293.462 301.555 293.462 301.555C294.905 303.308 295.645 305.536 295.541 307.806C295.317 311.516 296.7 320.308 302.705 325.405C308.71 330.502 314.923 342.531 314.923 342.531Z" fill="#A36468"/>
<path d="M211.9 288.915V289.898L211.482 300.743C211.482 300.743 197.27 301.897 189.535 299.968C181.799 298.039 185.052 289.434 185.361 287.652C185.364 287.629 185.364 287.606 185.361 287.582C185.585 285.956 187.68 272.416 187.68 270.216C187.68 268.016 187.68 258.985 187.332 254.817C186.984 250.65 189.032 239.039 189.032 239.039L190.531 237.195L206.807 243.446L211.9 288.915Z" fill="#A36468"/>
<path opacity="0.1" d="M211.861 289.921L211.443 300.765C211.443 300.765 197.231 301.92 189.495 299.991C181.76 298.062 185.013 289.456 185.322 287.675L211.861 289.921Z" fill="black"/>
<path opacity="0.1" d="M212.881 300.703C213.224 299.309 213.206 297.85 212.827 296.466C212.827 296.466 212.123 295.885 211.157 295.025C223.391 293.313 271.838 286.652 288.152 285.924V286.04C288.152 286.04 287.186 289.913 288.438 291.292L212.881 300.703Z" fill="black"/>
<path opacity="0.1" d="M289.977 309.054C289.977 309.054 292.983 326.095 281.777 332.09C281.77 332.121 288.13 323.67 289.977 309.054Z" fill="black"/>
<path opacity="0.1" d="M216.637 332.578C216.637 332.578 243.685 327.931 248.979 331.54C254.273 335.15 216.637 332.578 216.637 332.578Z" fill="black"/>
<path opacity="0.1" d="M280.625 227.117C280.625 227.117 276.468 244.251 279.582 248.186C282.697 252.121 280.625 227.117 280.625 227.117Z" fill="black"/>
<path opacity="0.1" d="M202.317 213.113C202.317 213.113 206.127 219.48 203.816 226.08C201.505 232.679 202.317 213.113 202.317 213.113Z" fill="black"/>
<path opacity="0.1" d="M194.441 268.914C194.441 268.914 199.295 271.803 197.679 276.319C196.064 280.835 194.441 268.914 194.441 268.914Z" fill="black"/>
<path opacity="0.1" d="M194.001 255.715C194.001 255.715 198.499 258.147 199.078 261.733C199.658 265.32 194.001 255.715 194.001 255.715Z" fill="black"/>
<path opacity="0.1" d="M260.757 394.165C260.757 394.165 289.057 397.062 294.714 390.347C294.714 390.385 269.188 395.443 260.757 394.165Z" fill="black"/>
<path opacity="0.1" d="M211.899 392.547C211.899 392.547 242.279 399.727 248.283 394.05C248.283 394.05 222.178 396.017 211.899 392.547Z" fill="black"/>
<path opacity="0.1" d="M262.951 403.554C262.951 403.554 275.656 403.554 281.545 403.902C287.434 404.251 262.951 403.554 262.951 403.554Z" fill="black"/>
<path opacity="0.1" d="M213.979 408.976C213.979 408.976 220.215 416.04 227.263 414.769C234.311 413.499 213.979 408.976 213.979 408.976Z" fill="black"/>
<path d="M226.227 119.783C224.272 122.827 224.202 126.351 223.692 129.729C222.502 137.622 218.646 145.267 212.61 151.711C207.069 157.614 199.472 162.966 198.035 170.178C196.675 177.025 201.289 183.617 203.707 190.317C210.083 207.892 201.18 226.328 198.584 244.469C197.865 249.48 198.731 255.886 204.89 257.551C206.814 258.078 209.017 258.008 210.748 258.845C213.066 259.96 213.777 262.276 214.202 264.36C215.752 271.813 216.288 279.443 215.794 287.04C215.516 291.3 215.207 296.203 219.226 299.131C221.049 300.471 223.507 301.153 225.879 301.796C232.209 303.508 240.393 304.894 244.659 300.874C246.452 299.193 247.124 296.823 249.357 295.491C252.704 293.5 257.449 294.848 261.661 295.057C270.308 295.491 278.253 290.409 281.661 284.282C285.069 278.155 284.752 271.114 283.516 264.507C282.279 257.9 280.069 251.339 279.914 244.631C279.86 242.307 280.069 239.945 281.398 237.884C283.972 233.895 289.961 232.083 294.057 228.946C301.731 223.059 301.708 213.415 298.918 205.344C296.128 197.273 291.12 189.535 290.502 181.192C290.226 179.176 290.626 177.124 291.638 175.36C292.735 173.663 294.652 172.393 296.275 170.991C307.473 161.51 306.151 145.941 296.893 135.282C286.646 123.47 240.215 98.0246 226.227 119.783Z" fill="#E3787D"/>
<g opacity="0.1">
<path opacity="0.1" d="M205.13 197.613C206.003 190.572 205.841 183.593 203.36 176.738C202.139 173.376 200.369 170.037 199.078 166.668C198.434 167.886 197.965 169.19 197.687 170.541C196.327 177.388 200.941 183.98 203.36 190.68C204.174 192.928 204.767 195.25 205.13 197.613Z" fill="black"/>
<path opacity="0.1" d="M215.446 273.461C215.939 265.864 215.406 258.235 213.862 250.781C213.429 248.697 212.718 246.389 210.4 245.274C208.669 244.437 206.466 244.499 204.542 243.98C203.36 243.696 202.258 243.145 201.32 242.369C200.383 241.593 199.634 240.613 199.132 239.503C198.777 241.269 198.468 243.027 198.213 244.793C197.494 249.805 198.36 256.211 204.519 257.876C206.443 258.395 208.646 258.325 210.377 259.162C212.695 260.277 213.406 262.593 213.839 264.677C214.548 268.134 215.043 271.631 215.323 275.15C215.377 274.576 215.408 274.019 215.446 273.461Z" fill="black"/>
<path opacity="0.1" d="M281.321 270.711C277.905 276.861 269.961 281.919 261.313 281.485C257.101 281.268 252.356 279.936 249.017 281.919C246.784 283.243 246.104 285.621 244.311 287.302C240.045 291.291 231.861 289.936 225.532 288.224C223.159 287.573 220.709 286.9 218.878 285.559C217.132 284.273 215.954 282.356 215.593 280.215C215.64 282.593 215.593 284.979 215.446 287.357C215.168 291.617 214.859 296.52 218.878 299.456C220.709 300.788 223.159 301.47 225.532 302.112C231.861 303.824 240.045 305.211 244.311 301.191C246.104 299.51 246.784 297.14 249.017 295.769C252.356 293.778 257.101 295.126 261.313 295.335C269.961 295.769 277.905 290.687 281.321 284.56C284.598 278.642 284.451 271.95 283.307 265.56C282.876 267.357 282.208 269.09 281.321 270.711Z" fill="black"/>
<path opacity="0.1" d="M295.959 157.451C294.305 158.845 292.388 160.123 291.322 161.819C290.309 163.584 289.91 165.635 290.186 167.652C290.41 170.187 290.945 172.684 291.778 175.088C293.065 173.712 294.474 172.457 295.989 171.339C303.563 164.933 305.402 155.739 302.945 147.156C301.648 151.188 299.223 154.761 295.959 157.451V157.451Z" fill="black"/>
<path opacity="0.1" d="M293.71 215.367C289.621 218.504 283.624 220.324 281.059 224.313C279.722 226.374 279.513 228.751 279.567 231.052C279.662 233.761 279.993 236.457 280.556 239.108C280.703 238.794 280.87 238.492 281.059 238.201C283.624 234.212 289.621 232.4 293.71 229.263C300.719 223.887 301.306 215.382 299.235 207.799C298.184 210.816 296.261 213.45 293.71 215.367V215.367Z" fill="black"/>
</g>
<path d="M542.578 92.4082H323.594V302.864H542.578V92.4082Z" fill="white"/>
<g clip-path="url(#clip0)">
<path d="M511.029 188.46C500.081 145.285 462.256 114.118 417.857 112.868C394.385 112.207 369.686 120.015 351.703 147.338C319.556 196.182 353.678 229.934 377.467 245.972C388.96 253.736 399.316 263.072 408.234 273.709C424.303 292.834 455.216 316.6 492.031 279.362C518.715 252.373 518.32 217.219 511.029 188.46Z" fill="#F2F2F2"/>
<path d="M423.245 162.335C423.245 162.335 425.484 167.354 420.875 168.278C416.267 169.202 426.274 173.825 426.274 173.825L434.042 172.504L437.992 169.467C437.992 169.467 430.092 164.712 431.145 161.015C432.199 157.317 423.245 162.335 423.245 162.335Z" fill="#FFB8B8"/>
<path opacity="0.1" d="M423.245 162.335C423.245 162.335 425.484 167.354 420.875 168.278C416.267 169.202 426.274 173.825 426.274 173.825L434.042 172.504L437.992 169.467C437.992 169.467 430.092 164.712 431.145 161.015C432.199 157.317 423.245 162.335 423.245 162.335Z" fill="black"/>
<path d="M348.251 140.677C343.687 140.677 340.909 140.417 340.849 140.411L340.9 139.886C341.034 139.899 354.546 141.164 371.248 138.04C386.644 135.159 407.98 127.85 422.19 109.39L422.323 109.217L422.517 109.316C422.7 109.409 441.096 118.751 462.686 125.523C475.357 129.498 486.631 131.823 496.196 132.434C508.118 133.195 517.389 131.281 523.756 126.745L524.06 127.175C517.592 131.783 508.203 133.729 496.159 132.96C486.552 132.346 475.235 130.013 462.522 126.025C442.085 119.613 424.506 110.905 422.473 109.884C416.168 118.019 407.979 124.686 398.13 129.701C390.2 133.738 381.183 136.719 371.329 138.561C363.716 139.965 355.992 140.674 348.251 140.677V140.677Z" fill="#2F2E41"/>
<path d="M354.602 140.515L362.862 139.834L359.546 150.963L354.602 140.515Z" fill="#6C63FF"/>
<path d="M371.999 138.433L374.799 146.478L377.984 137.111L371.999 138.433Z" fill="#6C63FF"/>
<path d="M396.923 129.676L404.779 135.4L403.244 126.858L396.923 129.676Z" fill="#6C63FF"/>
<path d="M436.486 115.741L437.388 126.96L442.407 118.775L436.486 115.741Z" fill="#6C63FF"/>
<path d="M492.538 132.655L498.399 144.896L503.388 132.655H492.538Z" fill="#6C63FF"/>
<path d="M457.393 124.35L457.374 136.455L464.455 126.62L457.393 124.35Z" fill="#6C63FF"/>
<path d="M522.067 298.408H351.656V298.936H522.067V298.408Z" fill="#2F2E41"/>
<path d="M427.196 162.65C433.696 162.65 438.966 157.364 438.966 150.844C438.966 144.324 433.696 139.039 427.196 139.039C420.695 139.039 415.426 144.324 415.426 150.844C415.426 157.364 420.695 162.65 427.196 162.65Z" fill="#FF6584"/>
<path d="M447.341 177.654L450.237 195.615L462.219 205.651C462.219 205.651 470.514 210.406 466.564 213.443C462.614 216.48 458.072 208.227 458.072 208.227C458.072 208.227 446.09 203.869 444.642 198.19C443.193 192.511 439.654 182.537 439.654 182.537L447.341 177.654Z" fill="#FFB8B8"/>
<path d="M405.866 233.252C405.866 233.252 407.578 249.628 407.183 250.816C406.788 252.005 407.973 270.758 407.973 270.758L415.478 269.041C415.478 269.041 416.597 259.202 415.675 249.562C415.675 249.562 418.44 240.449 415.807 235.167C413.174 229.884 405.866 233.252 405.866 233.252Z" fill="#FFB8B8"/>
<path d="M429.105 239.525C429.105 239.525 432.924 250.882 435.294 253.259C435.294 253.259 438.783 270.097 442.338 270.758C445.893 271.418 449.053 267.72 449.053 267.72C449.053 267.72 444.971 252.533 442.47 250.156L439.441 237.742L429.105 239.525Z" fill="#FFB8B8"/>
<path d="M416.399 267.456H407.182L408.236 278.417C408.236 278.417 408.894 288.454 407.841 290.039C406.787 291.623 405.866 299.02 409.552 298.756C413.239 298.492 414.951 296.642 414.951 295.849C414.951 295.057 415.346 285.945 416.267 284.36C417.189 282.775 417.189 279.21 415.609 278.681C414.029 278.153 416.399 267.456 416.399 267.456Z" fill="#2F2E41"/>
<path d="M440.362 269.701L445.629 279.078C445.629 279.078 444.707 281.851 445.892 283.964C447.077 286.077 447.341 290.039 447.341 291.623C447.341 293.208 449.184 299.284 453.266 298.755C457.347 298.227 455.636 293.208 455.636 293.208L452.476 280.53L449.052 266.268L440.362 269.701Z" fill="#2F2E41"/>
<path d="M410.87 182.276L409.421 191.521L399.81 212.65L408.895 214.895L415.083 183.333L410.87 182.276Z" fill="#FFB8B8"/>
<path d="M427.129 165.174C431.929 165.174 435.82 161.272 435.82 156.458C435.82 151.645 431.929 147.742 427.129 147.742C422.33 147.742 418.439 151.645 418.439 156.458C418.439 161.272 422.33 165.174 427.129 165.174Z" fill="#FFB8B8"/>
<path d="M441.811 170.92L436.898 168.752C436.898 168.752 429.566 172.372 420.876 168.278L414.029 169.599C414.029 169.599 414.029 181.088 412.844 182.013C411.659 182.937 410.21 186.767 411 189.012C411.79 191.257 413.107 197.464 410.737 198.652C408.367 199.841 400.467 203.539 398.229 207.765C395.99 211.991 382.955 208.953 382.429 214.368C381.902 219.782 390.855 225.989 387.827 231.668C384.799 237.347 383.35 238.535 392.172 239.195C400.994 239.856 409.815 233.121 417.189 238.403C424.562 243.686 433.779 245.534 437.334 242.497C440.889 239.46 445.366 232.989 451.291 233.121C457.216 233.253 461.956 232.328 461.166 228.498C460.376 224.669 464.457 226.65 460.376 221.631C456.294 216.613 444.444 214.368 442.732 209.482C441.021 204.595 433.252 202.614 433.252 202.614C433.252 202.614 431.936 200.765 434.042 199.577C436.149 198.388 441.811 170.92 441.811 170.92Z" fill="#2F2E41"/>
<path d="M415.872 170.787L414.029 169.599C414.029 169.599 405.207 174.617 405.997 177.258C406.787 179.899 407.446 179.107 407.182 181.352C406.919 183.597 405.734 183.729 407.709 184.257C409.684 184.786 410.211 183.465 410.211 185.314C410.211 187.163 413.502 186.635 413.502 186.635L415.872 170.787Z" fill="#2F2E41"/>
<path d="M440.231 171.579L441.811 170.919C441.811 170.919 449.052 176.333 448.262 181.352C447.472 186.37 444.049 181.22 443.522 182.54C442.996 183.861 441.284 183.861 441.152 185.974C441.021 188.087 442.732 188.483 441.021 188.879C439.309 189.276 435.886 179.899 435.886 179.899L440.231 171.579Z" fill="#2F2E41"/>
<path d="M435.294 145.63H418.967V155.006H435.294V145.63Z" fill="#FF6584"/>
<path d="M423.049 142.586C425.158 142.586 426.867 140.872 426.867 138.757C426.867 136.641 425.158 134.927 423.049 134.927C420.94 134.927 419.23 136.641 419.23 138.757C419.23 140.872 420.94 142.586 423.049 142.586Z" fill="#FF6584"/>
<path d="M432.526 142.85C434.635 142.85 436.345 141.135 436.345 139.02C436.345 136.905 434.635 135.19 432.526 135.19C430.418 135.19 428.708 136.905 428.708 139.02C428.708 141.135 430.418 142.85 432.526 142.85Z" fill="#FF6584"/>
<path d="M517.503 181.723C510.426 188.884 493.343 194.559 486.203 187.46C479.063 180.362 484.57 163.178 491.648 156.017C495.046 152.579 499.668 150.635 504.495 150.614C509.322 150.593 513.96 152.496 517.388 155.905C520.816 159.313 522.755 163.948 522.776 168.79C522.798 173.631 520.901 178.283 517.503 181.723V181.723Z" fill="#6C63FF"/>
<path d="M486.214 189.949C486.108 189.327 485.811 188.753 485.364 188.309C484.917 187.865 484.343 187.572 483.722 187.471L486.192 184.972L488.684 187.449L486.214 189.949Z" fill="#6C63FF"/>
<path d="M487.443 188.898C486.82 188.702 486.252 188.361 485.787 187.901C485.321 187.442 484.971 186.878 484.766 186.257L485.265 186.093C485.445 186.635 485.75 187.126 486.156 187.527C486.563 187.927 487.058 188.224 487.601 188.395L487.443 188.898Z" fill="#2F2E41"/>
<path d="M485.544 187.882L462.07 211.621L462.444 211.993L485.917 188.253L485.544 187.882Z" fill="#2F2E41"/>
<path opacity="0.4" d="M518.078 171.455C519.869 169.643 520.1 166.961 518.595 165.464C517.09 163.967 514.418 164.223 512.627 166.035C510.836 167.847 510.605 170.529 512.111 172.025C513.616 173.522 516.288 173.266 518.078 171.455Z" fill="white"/>
<path opacity="0.3" d="M366.121 182.351H364.543V187.362H366.121V182.351Z" fill="#6C63FF"/>
<path opacity="0.3" d="M454.481 149.116H452.903V154.128H454.481V149.116Z" fill="#6C63FF"/>
<path opacity="0.3" d="M391.63 168.107H390.052V173.119H391.63V168.107Z" fill="#6C63FF"/>
<path opacity="0.3" d="M465.263 170.745H463.686V175.757H465.263V170.745Z" fill="#6C63FF"/>
<path opacity="0.3" d="M385.168 183.459L383.934 184.444L387.045 188.365L388.28 187.38L385.168 183.459Z" fill="#6C63FF"/>
<path opacity="0.3" d="M461.17 185.568L459.936 186.554L463.047 190.475L464.282 189.489L461.17 185.568Z" fill="#6C63FF"/>
<path opacity="0.3" d="M379.098 199.436L377.731 198.645L375.233 202.985L376.6 203.776L379.098 199.436Z" fill="#6C63FF"/>
<path opacity="0.3" d="M459.307 160.926L457.94 160.135L455.442 164.475L456.809 165.266L459.307 160.926Z" fill="#6C63FF"/>
<path opacity="0.3" d="M371.997 150.639L370.631 149.848L368.133 154.188L369.499 154.979L371.997 150.639Z" fill="#6C63FF"/>
</g>
<path d="M335.712 231.866C335.712 231.866 355.697 230.828 357.428 222.377C359.159 213.926 352.018 205.336 350.272 204.43C348.525 203.523 329.684 189.147 329.684 189.147L299.312 169.705C299.312 169.705 284.76 127.877 281.538 143.888C278.315 159.899 290.897 181.161 290.897 181.161C290.897 181.161 308.331 192.393 310.294 195.747C312.257 199.101 324.274 207.9 324.274 207.9L335.712 231.866Z" fill="#EFB7B9"/>
<path d="M346.454 218.202C341.724 230.247 335.596 234.995 335.596 234.995H332.188L302.226 235.305L298.771 225.847L303.625 205.352L306.623 205.475C306.623 205.475 310.209 207.327 312.396 207.327C314.583 207.327 318.872 207.211 320.124 207.784C320.299 207.869 320.496 207.899 320.688 207.869C321.824 207.753 323.007 206.049 323.007 206.049C323.007 206.049 351.191 206.165 346.454 218.202Z" fill="#A36468"/>
<path opacity="0.1" d="M346.454 218.202C341.724 230.247 335.596 234.995 335.596 234.995H332.187C333.965 230.224 337.713 220.433 339.143 218.171C340.542 216.033 327.991 210.712 320.649 207.838C321.785 207.722 322.968 206.018 322.968 206.018C322.968 206.018 351.191 206.165 346.454 218.202Z" fill="black"/>
<circle cx="10" cy="69" r="10" fill="#FFD948"/>
<circle cx="71" cy="24" r="17" fill="#FFD948"/>
<circle cx="124" cy="96" r="25" fill="#FFD948"/>
<defs>
<linearGradient id="paint0_linear" x1="271.059" y1="638.579" x2="271.059" y2="107.211" gradientUnits="userSpaceOnUse">
<stop stop-color="#808080" stop-opacity="0.25"/>
<stop offset="0.54" stop-color="#808080" stop-opacity="0.12"/>
<stop offset="1" stop-color="#808080" stop-opacity="0.1"/>
</linearGradient>
<clipPath id="clip0">
<rect width="185.475" height="189.774" fill="white" transform="translate(338.586 109.217)"/>
</clipPath>
</defs>
</svg>
