<svg width="83" height="83" viewBox="0 0 83 83" fill="none" xmlns="http://www.w3.org/2000/svg">
<circle cx="41.5" cy="41.5" r="38.5" fill="white" stroke="#5E5E5E" stroke-width="6"/>
<mask id="path-2-inside-1" fill="white">
<path fill-rule="evenodd" clip-rule="evenodd" d="M60.6088 78.3486C73.9126 71.4354 83 57.5289 83 41.5C83 18.5802 64.4198 0 41.5 0C18.5802 0 0 18.5802 0 41.5C0 57.2434 8.76646 70.9393 21.6842 77.9725C22.2679 65.0801 30.755 54.8522 41.1391 54.8522C51.6241 54.8522 60.1749 65.2796 60.6088 78.3486Z"/>
</mask>
<path fill-rule="evenodd" clip-rule="evenodd" d="M60.6088 78.3486C73.9126 71.4354 83 57.5289 83 41.5C83 18.5802 64.4198 0 41.5 0C18.5802 0 0 18.5802 0 41.5C0 57.2434 8.76646 70.9393 21.6842 77.9725C22.2679 65.0801 30.755 54.8522 41.1391 54.8522C51.6241 54.8522 60.1749 65.2796 60.6088 78.3486Z" fill="white"/>
<path d="M60.6088 78.3486L54.6121 78.5476L54.928 88.0622L63.3754 83.6727L60.6088 78.3486ZM21.6842 77.9725L18.8151 83.242L27.244 87.8312L27.6781 78.2438L21.6842 77.9725ZM77 41.5C77 55.203 69.2376 67.103 57.8422 73.0245L63.3754 83.6727C78.5876 75.7679 89 59.8549 89 41.5H77ZM41.5 6C61.1061 6 77 21.8939 77 41.5H89C89 15.2665 67.7335 -6 41.5 -6V6ZM6 41.5C6 21.8939 21.8939 6 41.5 6V-6C15.2665 -6 -6 15.2665 -6 41.5H6ZM24.5533 72.7029C13.4878 66.6781 6 54.9591 6 41.5H-6C-6 59.5277 4.04517 75.2004 18.8151 83.242L24.5533 72.7029ZM27.6781 78.2438C28.1751 67.2656 35.1138 60.8522 41.1391 60.8522V48.8522C26.3961 48.8522 16.3607 62.8947 15.6903 77.7011L27.6781 78.2438ZM41.1391 60.8522C47.2198 60.8522 54.2421 67.4026 54.6121 78.5476L66.6055 78.1495C66.1078 63.1566 56.0284 48.8522 41.1391 48.8522V60.8522Z" fill="#5E5E5E" mask="url(#path-2-inside-1)"/>
<circle cx="41.1389" cy="38.9738" r="11.9348" fill="white" stroke="#5E5E5E" stroke-width="5"/>
</svg>
