<svg width="686" height="544" viewBox="0 0 686 544" fill="none" xmlns="http://www.w3.org/2000/svg">
<path d="M141.782 70.8911C141.782 110.043 110.043 172.53 70.8911 172.53C31.739 172.53 0 110.043 0 70.8911C0 52.0896 7.46885 34.0582 20.7635 20.7635C34.0582 7.46887 52.0896 0 70.8911 0C89.6926 0 107.724 7.46887 121.019 20.7635C134.313 34.0582 141.782 52.0896 141.782 70.8911Z" fill="#FF6584"/>
<path d="M74.8462 179C83.755 182.067 85.8878 194.216 82.8235 203.126C79.7592 212.036 73.2691 219.426 70.0036 228.264C68.5136 232.722 67.444 237.308 66.8088 241.965C64.9433 253.052 63.0727 264.334 64.5101 275.485C65.8736 286.063 70.1592 296.036 74.9403 305.569C84.1999 324.028 95.4631 341.412 108.526 357.406" stroke="#2F2E41" stroke-width="2"/>
<path d="M77.7243 179.363C73.1691 176.44 68.6138 176.44 64.0586 179.363V165.697H77.7243V179.363Z" fill="#FF6584"/>
<path d="M64.0938 172.241C66.2172 173.316 68.5655 173.871 70.9456 173.862C73.3257 173.852 75.6694 173.277 77.7839 172.185" stroke="#2F2E41" stroke-width="2"/>
<path opacity="0.4" d="M100.358 58.9336C108.613 58.9336 115.305 50.9033 115.305 40.9973C115.305 31.0914 108.613 23.061 100.358 23.061C92.1031 23.061 85.4111 31.0914 85.4111 40.9973C85.4111 50.9033 92.1031 58.9336 100.358 58.9336Z" fill="white"/>
<path d="M617.516 237.051C608.607 240.118 606.475 252.267 609.539 261.177C612.603 270.086 619.093 277.477 622.359 286.315C623.849 290.772 624.918 295.359 625.553 300.016C627.419 311.103 629.29 322.385 627.852 333.536C626.489 344.114 622.203 354.086 617.422 363.62C608.162 382.079 596.899 399.463 583.836 415.457" stroke="#2F2E41" stroke-width="2"/>
<path d="M685.782 132.891C685.782 172.043 654.043 234.53 614.891 234.53C575.739 234.53 544 172.043 544 132.891C544 114.09 551.469 96.0582 564.764 82.7635C578.058 69.4689 596.09 62 614.891 62C633.693 62 651.724 69.4689 665.019 82.7635C678.313 96.0582 685.782 114.09 685.782 132.891Z" fill="#255F85"/>
<path d="M621.724 241.363C617.169 238.44 612.614 238.44 608.059 241.363V227.697H621.724V241.363Z" fill="#6C63FF"/>
<path d="M608.094 234.241C610.217 235.316 612.566 235.871 614.946 235.862C617.326 235.852 619.669 235.277 621.784 234.185" stroke="#2F2E41" stroke-width="2"/>
<path opacity="0.4" d="M645.947 125.873C654.202 125.873 660.894 117.842 660.894 107.936C660.894 98.0304 654.202 90 645.947 90C637.692 90 631 98.0304 631 107.936C631 117.842 637.692 125.873 645.947 125.873Z" fill="white"/>
<g clip-path="url(#clip0)">
<path opacity="0.1" d="M592.869 445.378C587.852 457.447 577.355 468.348 566.088 478.672C556.183 487.749 545.588 496.52 534.304 504.986C531.176 507.336 527.999 509.657 524.772 511.948L522.53 513.53C520.542 514.937 518.52 516.331 516.465 517.711L516.218 517.879C514.224 519.236 512.212 520.58 510.183 521.911C503.546 526.273 496.529 530.604 488.772 534.191C486.129 535.416 483.403 536.557 480.579 537.579C479.052 538.134 477.493 538.654 475.902 539.139C473.294 539.932 470.616 540.624 467.819 541.192C467.352 541.289 466.881 541.382 466.409 541.47C463.546 542.008 460.648 542.4 457.719 542.668C446.985 543.651 435.898 542.933 425.146 541.25C419.772 540.408 414.482 539.324 409.364 538.09C408.734 537.941 408.109 537.786 407.479 537.65C390.049 533.288 373.686 527.366 356.133 523.202C350.084 521.765 343.918 520.546 337.634 519.544C334.568 519.057 331.485 518.616 328.384 518.223C321.085 517.315 313.694 516.707 306.272 516.398C296.265 515.958 285.931 516.147 276.408 517.896C275.14 518.129 273.887 518.39 272.651 518.681C271.083 519.048 269.544 519.467 268.035 519.937C263.966 521.252 260.006 522.883 256.191 524.814C255.437 525.184 254.693 525.559 253.949 525.938C251.614 527.128 249.31 528.344 246.971 529.525C242.762 531.729 238.381 533.588 233.872 535.085C231.402 535.866 228.89 536.507 226.349 537.006C219.623 538.355 212.465 538.888 205.277 538.923C201.81 538.923 198.339 538.848 194.908 538.668H194.802C193.631 538.606 192.454 538.535 191.278 538.447C185.922 538.082 180.584 537.518 175.325 536.746C157.305 534.103 140.215 529.106 126.468 521.483C107.796 511.137 95.9386 495.711 97.7181 480.298C98.9955 469.194 106.928 458.883 114.456 448.789C128.459 429.992 141.576 410.767 148.478 390.503C154.076 374.054 155.746 356.663 168.629 341.88C172.757 337.147 178.033 332.829 184.178 329.044C188.771 326.231 193.585 323.797 198.573 321.765C204.21 319.455 210.009 317.563 215.923 316.103C221.048 314.831 226.243 313.854 231.48 313.177C234.326 312.807 237.206 312.521 240.105 312.327C242.336 312.171 244.578 312.073 246.831 312.032H247.179C248.556 312.005 249.933 312.005 251.31 312.032C261.352 312.187 271.367 313.128 281.262 314.847C287.455 315.883 293.595 317.152 299.608 318.548C303.196 319.38 306.752 320.251 310.276 321.161C311.351 321.439 312.425 321.721 313.487 322.007C338.559 328.727 360.617 338.006 384.773 345.62C384.896 345.66 385.015 345.7 385.138 345.731C390.096 347.256 395.13 348.521 400.22 349.52C403.96 350.269 407.783 350.917 411.672 351.485C417.627 352.366 423.71 353.063 429.837 353.662L431.189 353.794C440.179 354.675 449.249 355.332 458.058 356.099C461.185 356.372 464.286 356.654 467.343 356.98C469.281 357.174 471.202 357.379 473.105 357.597C474.47 357.755 475.84 357.914 477.21 358.081C478.58 358.249 480.029 358.425 481.438 358.606C482.354 358.72 483.266 358.839 484.182 358.967C489.732 359.703 495.269 360.527 500.744 361.47C504.074 362.043 507.386 362.659 510.659 363.325C513.029 363.807 515.378 364.315 517.707 364.849C519.433 365.24 521.145 365.651 522.842 366.083C536.634 369.551 549.539 374.098 560.661 380.236C589.543 396.138 602.466 422.298 592.869 445.378Z" fill="#FFD948"/>
<path opacity="0.1" d="M205.673 268.832C210.935 268.832 215.2 264.565 215.2 259.302C215.2 254.038 210.935 249.771 205.673 249.771C200.411 249.771 196.146 254.038 196.146 259.302C196.146 264.565 200.411 268.832 205.673 268.832Z" fill="#FFD948"/>
<path opacity="0.1" d="M400.409 248.061C405.671 248.061 409.937 243.794 409.937 238.531C409.937 233.267 405.671 229 400.409 229C395.147 229 390.882 233.267 390.882 238.531C390.882 243.794 395.147 248.061 400.409 248.061Z" fill="#FFD948"/>
<path opacity="0.1" d="M515.878 269.405C521.14 269.405 525.405 265.138 525.405 259.874C525.405 254.611 521.14 250.344 515.878 250.344C510.616 250.344 506.351 254.611 506.351 259.874C506.351 265.138 510.616 269.405 515.878 269.405Z" fill="#FFD948"/>
<path opacity="0.1" d="M111.967 298.333C120.785 298.333 127.934 291.181 127.934 282.36C127.934 273.538 120.785 266.387 111.967 266.387C103.149 266.387 96 273.538 96 282.36C96 291.181 103.149 298.333 111.967 298.333Z" fill="#FFD948"/>
<path opacity="0.1" d="M127.274 377.205C136.092 377.205 143.241 370.053 143.241 361.232C143.241 352.41 136.092 345.259 127.274 345.259C118.455 345.259 111.307 352.41 111.307 361.232C111.307 370.053 118.455 377.205 127.274 377.205Z" fill="#FFD948"/>
<path opacity="0.1" d="M555.816 348.172C564.634 348.172 571.783 341.021 571.783 332.199C571.783 323.378 564.634 316.227 555.816 316.227C546.997 316.227 539.849 323.378 539.849 332.199C539.849 341.021 546.997 348.172 555.816 348.172Z" fill="#FFD948"/>
<path d="M252.081 334.464C252.16 335.805 252.081 337.151 251.847 338.474C250.966 342.567 247.24 345.378 243.632 347.511C240.025 349.643 236.061 351.662 233.916 355.261C231.33 359.61 232.154 365.458 235.189 369.52C238.223 373.583 243.033 376.002 247.984 377.011C257.014 378.875 266.902 376.257 273.672 370C280.443 363.743 283.839 353.966 282.178 344.885C278.504 345.4 275.232 342.157 274.042 338.641C272.853 335.125 273.1 331.313 272.637 327.625C272.604 327.002 272.416 326.396 272.091 325.863C271.576 325.149 270.664 324.858 269.814 324.625C265.568 323.457 258.423 320.901 254.023 321.88C250.059 322.787 252.015 331.133 252.081 334.464Z" fill="#BE6F72"/>
<path opacity="0.1" d="M252.081 334.464C252.16 335.805 252.081 337.151 251.847 338.474C250.966 342.567 247.24 345.378 243.632 347.511C240.025 349.643 236.061 351.662 233.916 355.261C231.33 359.61 232.154 365.458 235.189 369.52C238.223 373.583 243.033 376.002 247.984 377.011C257.014 378.875 266.902 376.257 273.672 370C280.443 363.743 283.839 353.966 282.178 344.885C278.504 345.4 275.232 342.157 274.042 338.641C272.853 335.125 273.1 331.313 272.637 327.625C272.604 327.002 272.416 326.396 272.091 325.863C271.576 325.149 270.664 324.858 269.814 324.625C265.568 323.457 258.423 320.901 254.023 321.88C250.059 322.787 252.015 331.133 252.081 334.464Z" fill="black"/>
<path d="M246.949 529.534C242.74 531.738 238.359 533.597 233.849 535.094C231.379 535.875 228.868 536.516 226.326 537.015C226.146 533.627 226.331 530.23 226.877 526.881C227.22 524.955 227.727 523.048 227.859 521.096C228.046 518.278 227.443 515.464 226.119 512.97C231.026 512.301 235.686 511.208 240.615 511.53L240.928 511.552C241.514 511.567 242.094 511.675 242.646 511.873C243.404 512.24 244.048 512.807 244.509 513.512C244.763 513.859 244.996 514.219 245.209 514.592C246.601 516.998 247.13 519.774 247.24 522.633C247.292 524.937 247.194 527.242 246.949 529.534Z" fill="#BE6F72"/>
<path d="M272.633 518.685C271.065 519.053 269.527 519.471 268.017 519.941C263.948 521.256 259.988 522.887 256.173 524.819C255.925 523.619 255.804 522.396 255.812 521.171C258.06 519.62 260.597 518.537 263.272 517.987C265.947 517.436 268.705 517.43 271.383 517.967C271.74 518.011 272.081 518.147 272.369 518.364C272.474 518.456 272.563 518.565 272.633 518.685Z" fill="#BE6F72"/>
<path d="M280.205 496.442C279.905 499.324 279.465 502.215 278.443 504.925C277.337 507.833 275.54 510.653 275.769 513.759C275.87 515.107 276.328 516.57 276.395 517.905C275.126 518.137 273.874 518.399 272.637 518.69C271.069 519.057 269.531 519.475 268.021 519.945C263.952 521.261 259.992 522.892 256.177 524.823C255.424 525.193 254.679 525.568 253.935 525.947C253.627 525.907 253.323 525.859 253.014 525.801C250.812 525.4 248.495 524.413 247.249 522.651C246.963 522.245 246.739 521.8 246.584 521.329C245.866 519.183 246.614 516.509 245.121 514.808L245.051 514.869L244.998 514.905C244.18 515.646 243.282 516.293 242.32 516.835C240.13 518.074 237.705 518.839 235.201 519.081C232.697 519.322 230.17 519.034 227.784 518.236C226.839 517.914 225.926 517.504 225.058 517.011C223.04 515.861 221.093 513.927 221.252 511.618C221.34 510.331 222.076 509.097 221.878 507.824C221.732 506.912 221.133 506.154 220.684 505.348C217.737 500.06 221.252 493.261 219.402 487.515C219.358 487.379 219.31 487.242 219.261 487.11C219.125 486.735 218.97 486.374 218.821 486.013C218.442 485.171 218.019 484.343 217.684 483.479C217.405 482.753 217.185 482.006 217.024 481.245C216.608 479.036 216.46 476.784 216.583 474.539C216.583 468.621 217.64 462.563 219.147 456.861C219.415 455.848 219.715 454.416 220.111 452.856C220.498 451.212 221.019 449.602 221.671 448.044C222.551 446.017 223.75 444.4 225.388 444.017C227.855 443.44 231.625 444.66 234.127 444.96L244.016 446.141L263.788 448.507C267.202 448.917 270.787 449.388 273.602 451.309C273.787 451.437 273.968 451.569 274.148 451.71C274.892 452.296 275.558 452.974 276.13 453.728C276.333 453.988 276.527 454.261 276.712 454.539C277.353 455.521 277.899 456.563 278.341 457.65C280.795 463.545 280.852 470.124 280.87 476.509C280.87 483.171 280.892 489.829 280.205 496.442Z" fill="#3F3D56"/>
<path opacity="0.1" d="M242.298 516.861C241.703 514.57 240.448 511.252 240.263 510.348C239.642 507.318 239.192 504.255 238.915 501.175C238.426 495.684 237.545 487.956 239.483 482.734C241.302 483.704 242.901 486.449 243.742 488.322C246.79 495.112 243.359 503.448 246.222 510.318C246.436 510.729 246.569 511.178 246.614 511.639C246.565 512.226 246.354 512.787 246.006 513.261L245.042 514.865L242.298 516.861Z" fill="black"/>
<path d="M305.735 307.238C308.977 301.95 313.417 296.751 313.139 290.569C313.038 288.366 312.315 286.211 311.765 284.052C310.187 277.803 310.083 271.273 311.461 264.977C316.908 264.102 322.483 265.351 327.036 268.467C328.476 269.463 329.842 270.701 330.476 272.336C331.062 273.843 330.965 275.522 330.859 277.134C330.617 280.84 330.287 284.792 328.005 287.709C327.296 288.621 326.424 289.393 325.732 290.313C324.723 291.635 324.133 293.248 323.556 294.821L316.068 315.2C312.289 325.471 308.193 336.213 299.868 343.321C299.665 343.493 293.701 335.019 293.208 334.169C291.212 330.684 292.085 329.212 294.498 326.295C299.26 320.527 301.845 313.57 305.735 307.238Z" fill="#BE6F72"/>
<path d="M219.922 480.937C219.897 482.458 219.769 483.976 219.539 485.48C219.46 486.035 219.367 486.586 219.257 487.137C217.755 494.98 214.016 502.44 211.399 510.08C207.95 520.166 206.435 528.917 205.233 538.932C201.766 538.932 198.295 538.857 194.864 538.677H194.758C193.586 538.615 192.41 538.544 191.234 538.456C192.296 529.115 190.353 519.316 192.252 509.965C193.018 506.203 194.326 502.55 195.115 498.804C195.358 497.702 195.542 496.587 195.666 495.464C195.776 494.398 195.833 493.292 196.313 492.332C196.357 492.239 196.407 492.149 196.463 492.063C196.885 491.398 197.408 490.803 198.013 490.3C203.38 485.592 209.944 482.461 216.98 481.254C217.98 481.118 218.953 481.003 219.922 480.937Z" fill="#FBBEBE"/>
<path opacity="0.1" d="M219.922 480.937C219.897 482.458 219.769 483.976 219.539 485.48C219.46 486.035 219.367 486.586 219.257 487.137C217.755 494.98 214.016 502.44 211.399 510.08C207.95 520.166 206.435 528.917 205.233 538.932C201.766 538.932 198.295 538.857 194.864 538.677H194.758C193.586 538.615 192.41 538.544 191.234 538.456C192.296 529.115 190.353 519.316 192.252 509.965C193.018 506.203 194.326 502.55 195.115 498.804C195.358 497.702 195.542 496.587 195.666 495.464C195.776 494.398 195.833 493.292 196.313 492.332C196.357 492.239 196.407 492.149 196.463 492.063C196.885 491.398 197.408 490.803 198.013 490.3C203.38 485.592 209.944 482.461 216.98 481.254C217.98 481.118 218.953 481.003 219.922 480.937Z" fill="black"/>
<path d="M197.591 501.016C197.519 503.465 197.318 505.908 196.987 508.335C195.811 518.254 195.591 528.604 194.785 538.672C193.613 538.611 192.437 538.54 191.261 538.452C185.905 538.086 180.566 537.522 175.307 536.751C175.712 534.483 176.121 532.216 176.532 529.948C177.034 527.168 177.536 524.361 177.391 521.541C177.254 518.875 176.541 516.28 175.972 513.667C174.761 508.071 174.083 502.034 172.087 496.756C171.047 493.795 169.386 491.091 167.216 488.824C175.47 485.581 183.403 485.396 192.27 485.74C192.899 485.705 193.525 485.858 194.067 486.181C194.487 486.545 194.799 487.017 194.97 487.547C196.302 490.753 197.138 494.143 197.45 497.602C197.556 498.737 197.603 499.876 197.591 501.016Z" fill="#FBBEBE"/>
<path d="M264.079 332.19C273.566 332.19 281.257 324.496 281.257 315.006C281.257 305.515 273.566 297.821 264.079 297.821C254.591 297.821 246.9 305.515 246.9 315.006C246.9 324.496 254.591 332.19 264.079 332.19Z" fill="#BE6F72"/>
<path d="M267.652 355.169C269.854 351.41 271.783 346.718 276.021 345.673C278.412 345.078 280.901 345.889 283.231 346.687C283.906 346.847 284.519 347.202 284.993 347.709C285.337 348.255 285.522 348.887 285.526 349.533C286.264 357.301 286.238 365.123 285.451 372.886C284.892 378.381 283.949 383.849 283.782 389.37C283.548 397.024 284.808 404.678 284.394 412.322C284.081 418.117 282.813 423.81 281.553 429.472L276.267 453.177C276.173 453.911 275.879 454.604 275.417 455.182C274.971 455.591 274.438 455.892 273.858 456.063C266.207 458.769 258.074 459.839 249.984 459.206C241.894 458.572 234.027 456.248 226.89 452.384C224.983 451.335 223.08 450.124 221.838 448.335C220.076 445.797 219.913 442.439 220.486 439.399C221.059 436.359 222.296 433.49 223.129 430.507C224.415 425.88 224.719 421.051 225.01 416.257C225.397 409.947 225.785 403.598 225.111 397.31C224.648 392.979 223.684 388.714 222.957 384.418C221.887 377.943 221.266 371.401 221.098 364.841C220.988 360.923 221.169 356.574 223.878 353.75C225.199 352.375 226.961 351.547 228.754 350.877C231.762 349.767 235.123 349.115 238.162 350.128C241.201 351.141 243.65 354.332 242.932 357.456C242.602 358.905 241.664 360.174 241.435 361.646C241.131 363.594 242.162 365.554 243.637 366.872C251.574 374.045 263.692 361.972 267.652 355.169Z" fill="#E3E8F4"/>
<path d="M268.281 337.61C270.692 336.722 273.311 336.568 275.809 337.169C277.399 337.548 279.117 338.218 280.584 337.509C281.117 337.253 281.557 336.835 282.094 336.597C283.548 335.958 285.433 336.742 286.719 335.812C287.53 335.226 287.794 334.16 288.067 333.191C289.39 328.563 292.1 324.454 295.833 321.417C295.37 324.797 295.035 328.643 297.269 331.225C298.286 332.397 299.713 333.133 301.158 333.706C303.233 334.53 305.51 335.076 307.699 334.627C309.888 334.178 311.936 332.521 312.284 330.313C312.209 333.631 309.051 335.949 308.166 339.152C307.831 340.351 307.862 341.624 307.629 342.849C307.034 345.978 304.801 348.489 302.849 351.009C296.617 359.116 292.636 368.726 291.309 378.866C291.219 380.069 290.967 381.255 290.56 382.391C290.129 383.262 289.64 384.104 289.098 384.911C285.869 390.366 286.865 397.249 287.962 403.479C289.675 413.239 291.384 422.801 294.159 432.314C294.635 433.94 295.172 435.636 296.383 436.821C296 440.668 292.12 442.422 288.631 444.083C285.187 445.726 282.009 447.878 279.205 450.468C278.201 451.393 277.21 452.433 276.844 453.75C276.5 454.988 276.747 456.35 276.307 457.553C275.866 458.756 274.104 459.619 273.329 458.606C272.36 454.98 274.016 451.186 273.941 447.432C273.888 444.898 273.06 442.435 272.941 439.901C272.827 437.033 273.673 434.217 274.571 431.494C277.073 423.911 280.095 416.398 280.962 408.463C281.83 400.527 280.209 391.86 274.58 386.198C267.898 379.447 264.189 370.296 257.027 364.096C255.891 363.113 254.605 361.893 254.794 360.404C254.925 359.748 255.214 359.134 255.635 358.615C258.093 355.143 261.361 352.309 264.004 348.987C266.647 345.665 268.761 341.84 268.281 337.61Z" fill="#3F3D56"/>
<path d="M244.764 344.717C244.324 345.158 244.02 345.766 243.509 346.145C242.912 346.513 242.232 346.724 241.531 346.757C238.939 347.151 236.325 347.385 233.704 347.458C231.502 347.458 229.216 347.264 227.097 347.867C224.141 348.705 221.781 351.04 220.301 353.728C218.821 356.416 218.12 359.456 217.552 362.483C216.299 369.152 215.629 375.918 215.548 382.703C219.179 379.807 222.414 376.447 225.172 372.71C227.286 369.841 229.202 366.669 232.22 364.752C233.607 363.871 235.166 363.289 236.563 362.43C239.474 360.637 241.492 357.737 243.43 354.939C244.857 352.864 248.984 348.81 249.31 346.325C249.587 343.95 246.306 342.791 244.764 344.717Z" fill="#3F3D56"/>
<path d="M260.11 303.241C260.654 303.568 261.175 303.931 261.669 304.329C264.66 306.418 268.664 306.03 272.28 305.554C273.39 305.413 274.531 305.255 275.482 304.673C277.011 303.73 277.729 301.791 277.579 299.998C277.429 298.205 276.526 296.552 275.425 295.151C273.966 293.297 272.146 291.758 270.076 290.628C268.005 289.498 265.726 288.8 263.378 288.577C262.162 288.418 260.926 288.549 259.771 288.96C258.348 289.546 257.278 290.754 255.965 291.56C252.093 293.939 246.129 292.882 243.632 296.68C241.804 299.483 243.108 303.29 242.244 306.51C241.601 308.916 239.747 311.106 240.104 313.561C240.302 314.882 241.13 316.037 241.791 317.218C243.308 319.932 244.01 323.028 243.813 326.132C245.508 327.33 247.874 325.466 248.345 323.448C248.816 321.43 248.275 319.28 248.675 317.244C249.384 313.671 252.538 311.049 253.961 307.771C254.983 305.422 256.648 301.457 260.11 303.241Z" fill="#3F3D56"/>
<path d="M218.459 342.356C218.327 343.158 218.243 344.043 218.688 344.722C219.569 346.044 221.587 345.568 223.172 345.766C225.643 346.07 227.467 348.41 227.947 350.869C228.427 353.327 227.854 355.83 227.229 358.245C225.814 363.717 224.128 369.112 222.172 374.429C216.913 373.808 211.376 371.785 208.584 367.295C206.047 363.211 206.307 358.007 204.695 353.477C203.563 350.287 201.532 347.511 199.523 344.788C202.752 345.193 205.06 341.501 205.25 338.249C205.439 334.997 204.417 331.697 205.113 328.52C205.276 327.767 218.001 330.142 219.239 331.001C222.816 333.481 219.023 338.91 218.459 342.356Z" fill="#FBBEBE"/>
<path opacity="0.1" d="M218.459 342.356C218.327 343.158 218.243 344.043 218.688 344.722C219.569 346.044 221.587 345.568 223.172 345.766C225.643 346.07 227.467 348.41 227.947 350.869C228.427 353.327 227.854 355.83 227.229 358.245C225.814 363.717 224.128 369.112 222.172 374.429C216.913 373.808 211.376 371.785 208.584 367.295C206.047 363.211 206.307 358.007 204.695 353.477C203.563 350.287 201.532 347.511 199.523 344.788C202.752 345.193 205.06 341.501 205.25 338.249C205.439 334.997 204.417 331.697 205.113 328.52C205.276 327.767 218.001 330.142 219.239 331.001C222.816 333.481 219.023 338.91 218.459 342.356Z" fill="black"/>
<path d="M215.628 337.037C225.115 337.037 232.806 329.344 232.806 319.853C232.806 310.362 225.115 302.668 215.628 302.668C206.14 302.668 198.449 310.362 198.449 319.853C198.449 329.344 206.14 337.037 215.628 337.037Z" fill="#FBBEBE"/>
<path d="M210.338 339.888C210.963 338.91 209.897 337.544 210.386 336.491C210.677 335.857 211.412 335.583 211.98 335.169C212.693 334.589 213.262 333.852 213.641 333.015C216.316 327.874 217.125 321.964 215.932 316.293C215.526 314.389 215.165 311.86 216.905 311.005C217.387 310.79 217.916 310.699 218.442 310.741C221.578 310.842 224.609 312.944 227.652 312.199C228.691 311.917 229.619 311.324 230.312 310.499C231.005 309.675 231.429 308.658 231.529 307.586C231.727 304.74 229.595 302.298 227.498 300.382C223.723 296.91 217.971 296.139 212.844 296.055L203.308 295.896C200.255 295.843 196.833 295.94 194.71 298.13C191.653 301.281 193.19 306.436 192.75 310.803C192.375 314.288 190.632 317.481 187.904 319.681C185.927 321.259 183.205 322.766 183.24 325.286C183.24 326.167 183.619 326.969 183.861 327.802C184.834 331.098 183.905 334.742 182.037 337.628C180.17 340.514 177.439 342.735 174.607 344.678C173.091 345.713 171.523 346.709 170.325 348.115C169.012 349.738 168.232 351.728 168.092 353.812C167.904 355.404 168.231 357.015 169.026 358.408C170.889 361.386 175.36 361.823 178.421 360.095C181.482 358.368 183.35 355.099 184.588 351.812C185.328 349.86 186.081 347.626 187.975 346.749C190.371 345.634 193.172 347.397 194.732 349.534C196.291 351.671 197.251 354.279 199.246 356.015C202.374 358.738 207.695 358.298 210.338 355.099C212.227 352.803 212.646 349.626 212.54 346.652C212.487 344.23 211.721 341.877 210.338 339.888Z" fill="#3F3D56"/>
<path d="M216.504 362.285C214.544 362.704 212.496 361.778 211.038 360.395C209.58 359.011 208.597 357.227 207.576 355.499C204.985 351.143 202.015 347.023 198.7 343.188C195.811 339.853 191.789 336.464 187.499 337.495C186.062 337.91 184.73 338.623 183.588 339.588C179.805 342.584 176.844 346.492 174.982 350.944C173.12 355.397 172.418 360.25 172.941 365.048C173.276 367.854 174.038 370.6 174.355 373.42C174.569 375.744 174.631 378.08 174.54 380.412C174.421 387.515 174.179 395.028 170.351 401.012C164.418 410.265 161.242 421.316 156.886 431.415C154.534 436.874 153.125 442.686 151.742 448.467C150.922 451.898 150.104 455.328 149.288 458.756L143.958 481.184C143.408 483.497 142.857 485.92 143.439 488.234C144.32 491.688 147.566 494.103 150.988 495.085C154.411 496.068 158.036 495.9 161.59 495.931C168.391 495.997 175.245 496.843 181.627 499.205C183.451 499.879 185.27 500.686 187.213 500.844C189.155 501.003 191.089 500.496 192.908 499.791C197.872 497.87 202.127 494.504 206.699 491.785C209.555 490.063 212.563 488.608 215.685 487.436C217.253 486.85 218.935 486.295 220.014 485.013C220.829 484.048 221.195 482.787 221.464 481.554C222.952 474.609 221.953 467.414 221.464 460.329C220.975 453.243 216.742 445.757 220.243 439.58C220.948 438.333 221.79 437.134 222.151 435.751C222.626 433.944 222.226 432.001 222.626 430.177C222.922 428.828 223.631 427.617 224.115 426.326C224.961 424.052 225.075 421.576 225.067 419.148C225.047 413.817 224.486 408.502 223.393 403.285C222.005 396.676 226.595 390.141 229.225 383.898C230.167 381.664 231.502 379.553 231.894 377.161C232.246 375.001 231.793 372.803 231.453 370.639C230.947 367.286 230.741 363.895 230.837 360.505C230.92 357.465 231.242 354.367 230.515 351.41C229.788 348.454 227.714 345.585 224.732 344.977C224.397 344.879 224.046 344.856 223.701 344.91C223.357 344.965 223.029 345.094 222.741 345.29C222.397 345.628 222.154 346.055 222.041 346.524C221.072 349.494 221.261 352.693 220.719 355.777C220.177 358.861 219.543 361.633 216.504 362.285Z" fill="#F86D70"/>
<path d="M174.937 381.21C175.117 379.989 174.549 378.368 173.316 378.412C172.179 378.456 171.673 379.879 171.677 381.021C171.682 382.162 171.836 383.47 171.03 384.272C170.316 384.982 169.136 384.96 168.308 385.537C168.015 385.745 167.778 386.021 167.614 386.341C167.451 386.661 167.367 387.015 167.369 387.374C167.369 387.987 167.647 388.573 167.665 389.185C167.682 389.798 167.273 390.507 166.665 390.468C166.352 390.992 166.222 391.604 166.295 392.21C166.367 392.816 166.638 393.381 167.065 393.816C167.383 394.125 167.797 394.389 167.902 394.821C167.936 395.124 167.912 395.43 167.832 395.724C167.647 396.936 168.484 398.293 169.704 398.425C169.021 398.914 169.158 400.06 169.783 400.628C170.409 401.197 171.307 401.307 172.149 401.307C174.058 401.296 175.946 400.905 177.703 400.157C178.304 399.958 178.836 399.591 179.236 399.099C179.421 398.846 179.51 398.534 179.486 398.221C179.463 397.908 179.329 397.613 179.108 397.39C179.962 397.531 180.989 397.61 181.548 396.949C182.328 396.024 181.491 394.654 180.667 393.759C181.009 393.708 181.328 393.558 181.585 393.327C181.842 393.097 182.026 392.795 182.113 392.461C182.2 392.127 182.187 391.774 182.076 391.447C181.965 391.12 181.76 390.833 181.486 390.622C181.205 390.415 180.821 390.234 180.782 389.886C180.742 389.538 181.037 389.313 181.161 389.005C181.442 388.313 180.799 387.608 180.178 387.189C178.707 386.211 176.54 386.229 175.232 385.242C173.924 384.255 174.747 382.532 174.937 381.21Z" fill="#BE6F72"/>
<path d="M265.806 314.349C264.739 314.457 263.666 314.482 262.595 314.424C262.413 314.404 262.23 314.457 262.085 314.571C261.941 314.684 261.847 314.85 261.824 315.032L259.776 330.401C259.619 331.517 259.162 332.569 258.455 333.446C257.872 334.144 257.438 334.954 257.181 335.827C256.925 336.699 256.85 337.615 256.962 338.518V364.625C256.962 364.625 256.829 368.106 259.503 368.106C262.703 368.508 265.941 368.508 269.141 368.106C269.141 368.106 271.281 367.7 271.281 364.488V338.782C271.444 337.885 271.411 336.964 271.183 336.081C270.955 335.199 270.537 334.376 269.96 333.671C269.276 332.791 268.834 331.747 268.678 330.644L266.551 314.953C266.526 314.777 266.436 314.616 266.298 314.504C266.159 314.392 265.984 314.337 265.806 314.349Z" fill="#3F3D56"/>
<path opacity="0.1" d="M265.806 314.349C264.739 314.457 263.666 314.482 262.595 314.424C262.413 314.404 262.23 314.457 262.085 314.571C261.941 314.684 261.847 314.85 261.824 315.032L259.776 330.401C259.619 331.517 259.162 332.569 258.455 333.446C257.872 334.144 257.438 334.954 257.181 335.827C256.925 336.699 256.85 337.615 256.962 338.518V364.625C256.962 364.625 256.829 368.106 259.503 368.106C262.703 368.508 265.941 368.508 269.141 368.106C269.141 368.106 271.281 367.7 271.281 364.488V338.782C271.444 337.885 271.411 336.964 271.183 336.081C270.955 335.199 270.537 334.376 269.96 333.671C269.276 332.791 268.834 331.747 268.678 330.644L266.551 314.953C266.526 314.777 266.436 314.616 266.298 314.504C266.159 314.392 265.984 314.337 265.806 314.349Z" fill="black"/>
<path d="M265.819 338.985H262.572C259.884 338.985 257.705 341.165 257.705 343.854V356.072C257.705 358.761 259.884 360.941 262.572 360.941H265.819C268.507 360.941 270.686 358.761 270.686 356.072V343.854C270.686 341.165 268.507 338.985 265.819 338.985Z" fill="#FFD948"/>
<path d="M309.444 247.938C308.502 248.456 307.521 248.898 306.51 249.26C306.335 249.312 306.187 249.431 306.097 249.59C306.008 249.75 305.983 249.938 306.03 250.115L310.056 265.096C310.344 266.183 310.332 267.328 310.021 268.409C309.749 269.278 309.66 270.193 309.759 271.098C309.857 272.002 310.141 272.877 310.593 273.666L320.645 297.76C320.645 297.76 321.86 301.02 324.332 299.989C327.442 299.126 330.432 297.873 333.229 296.261C333.229 296.261 335.048 295.063 333.815 292.102L323.917 268.379C323.723 267.488 323.337 266.65 322.787 265.923C322.238 265.196 321.537 264.596 320.733 264.166C319.764 263.618 318.955 262.827 318.385 261.871L310.382 248.211C310.291 248.053 310.143 247.936 309.968 247.886C309.793 247.835 309.605 247.853 309.444 247.938Z" fill="#3F3D56"/>
<path d="M318.947 270.673L315.951 271.923C313.47 272.959 312.298 275.81 313.333 278.292L318.037 289.568C319.072 292.05 321.923 293.222 324.403 292.186L327.399 290.936C329.88 289.9 331.052 287.049 330.017 284.567L325.313 273.291C324.278 270.809 321.427 269.637 318.947 270.673Z" fill="#FFD948"/>
<path d="M185.834 340.342C181.099 342.294 179.227 348.365 180.337 353.362C181.447 358.359 184.79 362.523 188.05 366.484L197.185 377.632C199.709 380.716 202.471 383.964 206.32 385.039C211.95 386.612 217.579 383.025 222.446 379.782C236.974 370.097 252.504 362.008 268.766 355.653C270.356 355.037 271.986 354.411 273.294 353.309C276.007 351.027 276.769 346.819 275.258 343.616C273.748 340.412 270.228 338.328 266.682 338.302C263.137 338.275 259.688 340.152 257.556 342.99C256.538 344.343 255.794 345.889 254.812 347.264C252.328 350.718 248.451 352.855 244.659 354.785C235.515 359.453 226.101 363.572 216.469 367.123C214.707 367.766 212.72 368.379 211.06 367.528C210.042 367.004 209.355 366.013 208.739 365.043C205.929 360.618 203.693 355.854 202.087 350.864C200.885 347.118 199.912 343.038 197.022 340.377C192.926 336.605 185.508 337.508 182.438 342.139C182.438 342.139 178.839 347.405 181.042 349.608C183.244 351.811 185.834 340.342 185.834 340.342Z" fill="#FBBEBE"/>
<path d="M432.867 322.109C433.51 323.823 433.528 325.7 433.435 327.528C433.321 329.758 432.761 332.375 430.691 333.226C429.343 333.768 427.678 333.358 426.48 334.177C425.027 335.164 425.097 337.288 425.322 339.024C425.943 343.796 426.643 348.744 429.242 352.781C430.638 354.944 432.528 356.746 434.444 358.469C438.263 361.915 442.452 365.281 447.469 366.431C448.286 366.662 449.146 366.698 449.979 366.537C450.801 366.283 451.548 365.829 452.151 365.215C455.058 362.545 456.556 358.733 458.494 355.279C459.864 352.807 461.498 350.432 462.269 347.709C462.903 345.33 462.861 342.82 462.147 340.464C461.432 338.107 460.074 335.997 458.225 334.371C457.366 333.635 456.415 333.019 455.582 332.256C453.406 330.282 452.138 327.449 451.618 324.558C451.098 321.668 451.178 318.694 451.429 315.746C447.024 315.407 442.65 315.94 438.351 316.799C436.439 317.182 433.748 317.359 432.017 318.271C430.07 319.306 432.334 320.633 432.867 322.109Z" fill="#FBBEBE"/>
<path opacity="0.1" d="M432.867 322.109C433.51 323.823 433.528 325.7 433.435 327.528C433.321 329.758 432.761 332.375 430.691 333.226C429.343 333.768 427.678 333.358 426.48 334.177C425.027 335.164 425.097 337.288 425.322 339.024C425.943 343.796 426.643 348.744 429.242 352.781C430.638 354.944 432.528 356.746 434.444 358.469C438.263 361.915 442.452 365.281 447.469 366.431C448.286 366.662 449.146 366.698 449.979 366.537C450.801 366.283 451.548 365.829 452.151 365.215C455.058 362.545 456.556 358.733 458.494 355.279C459.864 352.807 461.498 350.432 462.269 347.709C462.903 345.33 462.861 342.82 462.147 340.464C461.432 338.107 460.074 335.997 458.225 334.371C457.366 333.635 456.415 333.019 455.582 332.256C453.406 330.282 452.138 327.449 451.618 324.558C451.098 321.668 451.178 318.694 451.429 315.746C447.024 315.407 442.65 315.94 438.351 316.799C436.439 317.182 433.748 317.359 432.017 318.271C430.07 319.306 432.334 320.633 432.867 322.109Z" fill="black"/>
<path d="M408.289 335.076C401.136 332.622 397.718 323.034 390.23 321.959C389.049 321.787 387.838 321.853 386.679 321.58C382.367 320.558 380.513 315.57 379.266 311.318C375.064 297.143 369.576 283.272 361.78 270.705C358.489 265.418 353.287 261.073 350.913 255.283C350.367 253.961 350.09 252.455 349.107 251.41C348.125 250.366 346.024 250.216 345.491 251.547C345.342 252.018 345.309 252.518 345.394 253.005L345.909 258.491L336.95 257.685C336.122 257.543 335.271 257.604 334.47 257.861C333.606 258.294 332.917 259.011 332.519 259.892C329.489 265.59 332.717 273.054 338.065 276.658C344.311 280.866 353.23 281.505 357.379 287.784C359.846 291.52 359.894 296.328 361.52 300.5C362.295 302.496 363.427 304.329 364.33 306.264C366.052 309.952 366.933 313.962 368.268 317.804C370.179 323.298 373.012 328.418 375.835 333.508C378.011 337.438 380.24 341.439 383.587 344.444C385.79 346.418 388.38 347.881 390.97 349.291C397.339 352.772 404.849 356.121 411.597 353.45C411.984 347.431 410.474 340.721 408.289 335.076Z" fill="#FBBEBE"/>
<path d="M430.009 524.757C429.467 530.507 425.978 535.715 425.163 541.25C419.79 540.408 414.5 539.324 409.381 538.09C408.751 537.941 408.126 537.786 407.496 537.65C410.394 529.719 407.871 520.836 408.637 512.389C408.712 511.578 408.818 510.767 408.958 509.965C415.596 507.7 421.591 504.678 428.551 505.559C428.687 506.969 428.828 508.383 428.965 509.793C429.244 512.611 429.52 515.425 429.793 518.236C430.072 520.398 430.144 522.581 430.009 524.757Z" fill="#FBBEBE"/>
<path d="M475.915 539.139C473.307 539.932 470.629 540.624 467.832 541.193C467.366 541.289 466.894 541.382 466.423 541.47C463.56 542.008 460.662 542.4 457.732 542.669C457.433 536.544 453.328 530.913 452.729 524.625C452.606 523.062 452.622 521.492 452.777 519.932C452.83 519.315 452.892 518.699 452.949 518.082L454.191 505.405C455.18 505.28 456.177 505.232 457.173 505.259C462.899 505.396 468.11 507.877 473.783 509.811C474.206 512.486 474.354 515.196 474.224 517.901C474.008 524.784 472.902 531.75 475.457 538.064C475.602 538.421 475.761 538.778 475.915 539.139Z" fill="#FBBEBE"/>
<path d="M401.563 442.492C402.334 448.502 399.264 454.257 397.934 460.166C397.053 464.074 396.934 468.097 396.815 472.107L396.119 496.125C396.049 498.527 395.987 500.972 396.718 503.277C398.189 507.894 402.722 511.014 407.439 512.124C412.157 513.235 417.09 512.671 421.895 512.036C424.252 511.723 426.71 511.358 428.661 509.996C431.343 508.124 432.515 504.788 433.528 501.677L436.387 492.895C439.677 500.307 438.285 508.41 440.259 516.275C440.385 517.002 440.688 517.688 441.14 518.271C441.972 519.196 443.342 519.342 444.588 519.43C453.222 520.038 461.974 520.642 470.466 518.989C472.801 518.549 475.236 517.835 476.848 516.081C478.725 514.041 479.051 511.04 479.029 508.269C478.91 498.747 475.47 489.56 474.703 480.069C474.373 476.002 474.536 471.913 474.391 467.833C474.276 464.764 473.99 461.704 473.532 458.668C473.386 457.277 473.005 455.921 472.404 454.658C471.083 452.19 468.339 450.851 465.74 449.811C445.549 441.607 423.34 441.686 401.563 442.492Z" fill="#F86D70"/>
<path d="M438.946 324.259C449.406 324.259 457.886 315.776 457.886 305.312C457.886 294.848 449.406 286.365 438.946 286.365C428.486 286.365 420.006 294.848 420.006 305.312C420.006 315.776 428.486 324.259 438.946 324.259Z" fill="#FBBEBE"/>
<path d="M455.454 338.685C454.049 341.769 451.838 344.854 448.548 345.638C445.522 346.365 442.315 344.907 440.086 342.734C437.857 340.562 436.399 337.742 434.853 335.041C433.726 333.067 432.47 331.075 430.563 329.833C427.956 328.141 424.59 328.185 421.516 328.683C418.441 329.181 415.389 330.071 412.266 329.868C408.377 329.608 404.413 327.665 400.743 328.96C401.933 334.283 401.505 340.135 401.369 345.59C401.392 346.432 401.273 347.272 401.016 348.075C400.696 348.823 400.264 349.519 399.735 350.137L396.211 354.68C399.99 357.509 403.258 361.201 404.58 365.735C405.324 368.317 405.095 371.058 405.069 373.746C404.985 381.637 406.699 389.498 406.157 397.372C405.522 406.594 401.84 415.31 399.942 424.356C398.316 432.122 398.009 440.106 399.034 447.974C418.776 454.808 439.117 458.306 459.987 459.452C463.673 459.655 467.655 459.685 470.681 457.566C473.196 455.803 474.606 452.785 475.086 449.745C475.566 446.705 475.236 443.611 474.901 440.553C473.994 432.284 473.088 424.015 472.183 415.746C471.668 411.04 471.153 406.308 471.487 401.589C471.738 398.064 472.461 394.605 473.179 391.155L477.583 369.978C478.213 366.969 478.848 363.937 480.094 361.131C481.116 358.839 482.53 356.724 483.658 354.495C485.002 351.821 485.929 348.958 486.406 346.004C486.597 345.146 486.585 344.256 486.371 343.404C485.9 341.959 484.459 341.091 483.116 340.381C474.924 336.075 466.144 332.994 457.058 331.238C456.441 333.834 456.56 336.266 455.454 338.685Z" fill="#E3E8F4"/>
<path d="M453.627 325.995C455.83 321.774 459.948 318.813 462.34 314.689C463.662 312.351 464.401 309.728 464.494 307.044C464.588 304.359 464.033 301.691 462.877 299.267C462.036 297.548 460.895 295.971 460.234 294.173C459.499 292.129 459.428 289.877 458.578 287.877C457.411 285.136 454.883 283.162 452.13 282.025C449.377 280.888 446.403 280.479 443.439 280.082L433.432 278.734C431.982 278.54 430.48 278.346 429.071 278.734C427.661 279.121 426.349 280.271 426.234 281.734C426.098 283.466 427.617 285.079 427.265 286.779C427.137 287.379 426.785 287.987 426.987 288.568C427.168 288.957 427.48 289.269 427.868 289.45C430.243 290.772 433.079 290.891 435.652 291.754C438.224 292.618 440.805 294.786 440.545 297.482C440.404 298.932 439.47 300.439 440.105 301.739C440.713 302.942 442.307 303.162 443.58 303.536C447.698 304.731 450.588 309.199 449.989 313.451C449.804 314.772 449.328 316.037 449.231 317.363C448.91 322.008 449.641 323.334 453.433 326.035L453.627 325.995Z" fill="#3F3D56"/>
<path d="M479.355 346.079C479.375 346.958 479.214 347.833 478.883 348.648C477.509 351.578 473.302 351.393 470.514 353.054C467.043 355.125 466.277 359.747 465.96 363.774C465.599 368.335 465.352 372.961 466.286 377.434C467.22 381.906 469.466 386.268 473.219 388.89C477.786 392.067 483.997 392.177 489.212 390.243C494.427 388.308 498.784 384.567 502.563 380.478C506.148 376.601 509.359 372.278 511.284 367.357C511.623 366.475 511.923 365.541 511.65 364.66C511.24 363.338 509.8 362.739 508.628 362.016C505.893 360.364 504.069 357.482 503.122 354.437C502.175 351.393 502.017 348.154 501.986 344.959C501.951 341.642 501.942 338.015 499.828 335.455C497.713 332.895 494.049 332.177 490.71 332.203C487.979 332.203 480.42 332.463 478.557 334.847C477.029 336.83 479.465 343.241 479.355 346.079Z" fill="#BE6F72"/>
<path opacity="0.1" d="M479.355 346.079C479.375 346.958 479.214 347.833 478.883 348.648C477.509 351.578 473.302 351.393 470.514 353.054C467.043 355.125 466.277 359.747 465.96 363.774C465.599 368.335 465.352 372.961 466.286 377.434C467.22 381.906 469.466 386.268 473.219 388.89C477.786 392.067 483.997 392.177 489.212 390.243C494.427 388.308 498.784 384.567 502.563 380.478C506.148 376.601 509.359 372.278 511.284 367.357C511.623 366.475 511.923 365.541 511.65 364.66C511.24 363.338 509.8 362.739 508.628 362.016C505.893 360.364 504.069 357.482 503.122 354.437C502.175 351.393 502.017 348.154 501.986 344.959C501.951 341.642 501.942 338.015 499.828 335.455C497.713 332.895 494.049 332.177 490.71 332.203C487.979 332.203 480.42 332.463 478.557 334.847C477.029 336.83 479.465 343.241 479.355 346.079Z" fill="black"/>
<path d="M455.869 464.246C456.005 464.917 456.322 465.539 456.785 466.044C457.22 466.387 457.728 466.627 458.269 466.744C472.725 470.988 488.168 469.296 503.136 467.564C501.087 461.325 499.026 455.015 498.458 448.472C497.986 443.074 498.515 437.456 496.603 432.393C496.04 430.895 463.18 437.791 459.939 438.35C458.278 438.637 456.366 438.54 455.19 439.857C453.772 441.452 453.653 445.251 453.503 447.238C453.08 452.979 454.265 458.76 455.869 464.246Z" fill="#BE6F72"/>
<path d="M488.785 534.191C486.142 535.416 483.416 536.557 480.593 537.579C479.066 538.135 477.506 538.655 475.915 539.139C473.307 539.932 470.629 540.624 467.832 541.193C466.238 537.148 464.642 533.101 463.044 529.053C461.868 526.075 460.692 523.083 459.71 520.038C459.027 517.959 458.465 515.842 458.027 513.698C456.585 506.409 456.96 498.877 459.12 491.768C465.225 492.918 471.193 493.667 477.205 494.539C480.416 494.98 483.636 495.5 486.896 496.112C487.151 498.236 487.383 500.36 487.592 502.484C487.909 505.762 488.169 509.04 488.371 512.318C488.821 519.603 488.959 526.894 488.785 534.191Z" fill="#BE6F72"/>
<path opacity="0.1" d="M488.785 534.191C486.142 535.416 483.416 536.557 480.593 537.579C479.066 538.135 477.506 538.655 475.915 539.139C473.307 539.932 470.629 540.624 467.832 541.193C466.238 537.148 464.642 533.101 463.044 529.053C461.868 526.075 460.692 523.083 459.71 520.038C459.027 517.959 458.465 515.842 458.027 513.698C456.585 506.409 456.96 498.877 459.12 491.768C465.225 492.918 471.193 493.667 477.205 494.539C480.416 494.98 483.636 495.5 486.896 496.112C487.151 498.236 487.383 500.36 487.592 502.484C487.909 505.762 488.169 509.04 488.371 512.318C488.821 519.603 488.959 526.894 488.785 534.191Z" fill="black"/>
<path d="M522.657 515.099C522.692 517.637 521.97 520.228 521.3 522.717C521.252 522.893 521.208 523.065 521.164 523.241C519.571 522.745 518.197 521.715 517.274 520.324C516.798 519.57 516.445 518.745 516.23 517.879C514.237 519.236 512.225 520.58 510.196 521.911C503.558 526.273 496.541 530.604 488.785 534.191C486.142 535.416 483.415 536.557 480.592 537.579C480.005 535.523 479.447 533.454 478.918 531.371C478.341 529.227 477.888 527.051 477.562 524.854C476.916 519.865 477.416 514.794 479.024 510.027L479.222 509.454C479.971 507.334 480.937 505.298 482.107 503.378C483.204 501.615 485.376 501.911 487.591 502.497C488.595 502.757 489.613 503.07 490.538 503.263C496.295 504.471 502.272 503.224 508.157 503.554C510.961 503.694 513.709 504.394 516.239 505.612C519.071 507.035 521.353 509.212 522.247 512.221C522.374 512.655 522.471 513.096 522.538 513.543C522.612 514.058 522.652 514.578 522.657 515.099Z" fill="#BE6F72"/>
<path d="M416.689 312.168C407.593 303.356 397.255 295.887 386.68 288.903C383.928 287.177 381.28 285.289 378.751 283.25C376.108 281.047 373.805 278.461 370.999 276.478C368.193 274.495 364.722 273.133 361.353 273.785C357.983 274.438 354.988 277.663 355.481 281.038C355.922 284.008 358.591 286.044 361.058 287.749C365.727 290.979 370.418 294.217 375.496 296.751C377.26 297.551 378.972 298.463 380.619 299.483C383.781 301.615 386.085 304.77 388.477 307.736C397.504 318.953 408.562 328.37 421.072 335.495C421.221 335.583 426.432 324.334 426.212 322.876C425.727 319.522 419.085 314.495 416.689 312.168Z" fill="#BE6F72"/>
<path d="M494.485 454.561C487.464 455.001 480.729 457.372 473.862 458.883C466.995 460.395 459.534 460.981 453.16 458.002L457.036 484.479C457.252 485.951 457.477 487.458 457.155 488.908C456.86 490.291 456.094 491.596 456.16 493.01C456.261 495.248 458.362 496.821 460.34 497.857C466.085 500.891 472.522 502.375 479.016 502.162C478.536 504.1 477.937 506.017 477.452 507.956C480.69 511.433 485.984 511.666 490.605 512.768C494.128 513.6 497.432 515.046 500.885 516.063C505.061 517.296 509.397 517.901 513.751 517.857C516.689 517.826 519.803 517.416 522.085 515.583C524.891 513.323 525.763 509.481 526.371 505.929C526.71 503.946 527.023 501.937 526.811 499.937C526.582 497.637 525.692 495.46 524.812 493.327L518.777 478.676C517.68 476.033 516.575 473.349 515.253 470.798C510.937 462.545 503.775 453.984 494.485 454.561Z" fill="#3F3D56"/>
<path d="M499.859 363.078C500.38 361.707 501.343 360.549 502.595 359.785C503.847 359.022 505.317 358.697 506.774 358.861C508.536 359.108 510.108 360.073 511.619 361.016L520.032 366.268C521.426 367.098 522.764 368.019 524.036 369.026C529.837 373.838 532.075 381.747 532.713 389.26C533.352 396.773 532.713 404.413 534.206 411.802C530.656 414.746 526.718 417.235 523.168 420.174C521.309 421.712 519.429 423.259 518.019 425.237C516.9 426.793 516.103 428.573 514.936 430.084C513.025 432.473 510.251 434.014 507.214 434.376C509.139 435.495 510.218 437.667 510.738 439.831C511.258 441.994 511.399 444.237 511.976 446.4C512.769 449.339 514.412 452.023 514.953 455.019C515.332 457.086 515.165 459.205 515.301 461.302C515.989 472.155 524.503 481.642 523.952 492.499C519.933 491.038 516.131 489.038 512.65 486.555C511.082 485.431 509.566 484.215 508.082 483.003L496.863 473.904C491.406 469.498 485.896 464.995 481.557 459.461C478.835 455.988 476.615 452.146 473.884 448.683C471.153 445.22 467.792 442.073 463.621 440.619C463.009 441.54 461.921 442.179 461.309 443.1C461.2 443.245 461.114 443.406 461.053 443.576C460.979 443.987 461.029 444.41 461.198 444.792C461.69 446.574 461.986 448.405 462.079 450.252L462.357 453.565C462.46 454.443 462.46 455.331 462.357 456.209C461.938 459.042 459.313 461.241 456.481 461.681C456.071 461.77 455.646 461.756 455.243 461.642C454.455 461.377 454.019 460.545 453.781 459.751C452.667 455.988 454.376 452.018 454.512 448.101C454.531 447.107 454.497 446.113 454.411 445.123L454.147 441.214C451.587 440.681 450.116 437.932 449.438 435.407C447.606 428.59 445.76 421.536 446.821 414.556C447.103 412.688 447.597 410.793 447.262 408.925C446.821 406.427 445.024 404.4 444.077 402.047C440.994 394.376 447.544 386.048 446.936 377.813C446.681 374.354 444.487 371.349 443.166 368.141C442.482 366.271 441.595 364.482 440.523 362.805C439.175 360.879 437.356 359.337 435.589 357.786C430.135 352.998 424.961 347.899 420.094 342.514C417.594 342.255 415.249 341.18 413.421 339.456C412.258 338.354 411.302 336.9 411.271 335.301C411.24 333.701 412.421 332.023 414.02 331.939C414.953 331.891 415.826 332.353 416.737 332.556C419.592 333.182 422.463 331.08 423.736 328.44C425.009 325.801 425.009 322.765 424.987 319.839C426.382 319.592 427.817 319.708 429.154 320.176C430.491 320.645 431.685 321.45 432.621 322.514C434.59 324.655 435.871 327.326 437.422 329.784C438.053 330.877 438.863 331.855 439.818 332.679C441.937 334.362 444.989 334.68 446.839 336.645C447.777 337.649 448.297 338.98 449.156 340.055C451.57 343.082 455.988 343.453 459.287 345.444C462.586 347.436 464.881 351.075 468.537 352.256C469.858 352.697 471.298 352.754 472.607 353.243C475.628 354.367 477.474 357.579 477.892 360.774C478.311 363.968 477.597 367.198 476.875 370.344L475.179 377.707C474.805 379.337 474.518 381.298 475.721 382.461C476.289 382.931 476.956 383.267 477.672 383.444C480.755 384.448 484.191 385.435 487.089 384.012C488.459 383.334 489.534 382.188 490.516 381.016C494.815 375.949 497.674 369.313 499.859 363.078Z" fill="#FFD948"/>
<path d="M534.625 512.913C534.017 516.945 531.797 520.91 528.163 522.757C525.985 523.831 523.47 524.005 521.164 523.241C519.571 522.745 518.198 521.715 517.275 520.324C516.798 519.57 516.446 518.745 516.231 517.879C516.231 517.835 516.209 517.786 516.2 517.742C515.869 516.183 515.732 514.589 515.791 512.997C515.79 510.524 515.937 508.054 516.231 505.599C516.477 503.531 516.883 501.487 517.447 499.483C518.266 496.623 519.447 493.869 520.53 491.111C521.094 489.657 521.636 488.198 522.081 486.705C522.349 485.823 522.578 484.916 522.763 483.999L522.829 483.669C522.865 483.484 522.895 483.299 522.926 483.113C523.367 480.602 523.494 478.002 524.626 475.733C527.269 470.406 532.414 471.767 533.198 476.68C533.257 477.061 533.291 477.445 533.299 477.83C533.418 484.048 530.952 490.124 532.079 496.363C532.397 497.885 532.797 499.388 533.277 500.866C533.674 502.228 534.03 503.607 534.304 505.004C534.857 507.603 534.965 510.277 534.625 512.913Z" fill="#BE6F72"/>
<path d="M537.047 443.779C537.166 446.326 537.047 448.903 537.558 451.402C538.752 457.306 543.284 462.532 542.782 468.533C542.659 469.996 542.117 471.569 540.84 472.292C539.562 473.015 537.448 472.957 537.03 474.411C536.911 474.817 536.973 475.257 536.84 475.658C536.563 476.513 535.519 476.879 534.638 476.857C533.757 476.835 532.876 476.544 531.964 476.619C528.771 476.888 527.599 481.162 524.754 482.629C522.838 483.616 520.349 483.07 518.768 481.611C517.187 480.153 516.495 477.879 516.618 475.724C516.711 474.098 517.226 472.53 517.499 470.926C517.997 468.066 517.737 465.136 517.477 462.246C517.094 458.011 516.698 453.724 515.306 449.71C514.649 447.815 513.777 446.004 513.209 444.083C512.399 441.364 512.214 438.505 512.13 435.671C511.958 429.71 512.368 423.334 515.927 418.54C518.6 414.944 522.433 412.023 525.459 408.696C527.353 406.612 527.899 405.96 529.991 407.727C531.713 409.177 533.515 411.177 533.709 413.142C534.237 418.179 533.709 423.131 534.651 428.26C535.594 433.389 536.801 438.513 537.047 443.779Z" fill="#FFD948"/>
<path d="M491.361 346.731C503.768 346.731 513.825 336.67 513.825 324.259C513.825 311.848 503.768 301.787 491.361 301.787C478.955 301.787 468.897 311.848 468.897 324.259C468.897 336.67 478.955 346.731 491.361 346.731Z" fill="#BE6F72"/>
<path d="M511.932 367.247C512.426 366.555 513.011 365.81 513.848 365.665C514.48 365.617 515.113 365.75 515.672 366.048L521.587 368.52C523.186 365.879 524.128 362.893 524.336 359.813C524.459 357.923 524.309 356.006 524.671 354.147C525.208 351.388 526.842 348.917 527.221 346.132C527.521 343.885 526.979 341.624 526.653 339.381C525.649 332.455 526.728 325.387 526.151 318.412C525.574 311.437 522.777 303.964 516.557 300.76C514.795 299.879 512.897 299.35 511.065 298.654C506.981 297.099 503.321 294.609 499.286 292.926C495.252 291.243 490.512 290.472 486.601 292.406C482.689 294.341 480.412 299.782 482.954 303.334C483.791 304.501 485.015 305.33 486.187 306.171C488.57 307.877 491.001 309.983 491.552 312.864C492.538 318.051 487.147 322.118 485.627 327.189C485.066 329.17 485.016 331.26 485.482 333.265C486.138 336.271 487.742 339.108 487.684 342.184C487.64 345.555 485.623 348.608 485.244 351.961C485.108 353.191 485.191 354.438 485.037 355.662C484.766 357.278 484.288 358.853 483.614 360.346C480.091 369.159 476.518 378.064 471.281 385.986C476.888 386.082 482.432 384.786 487.416 382.215C486.699 385.611 485.327 388.835 483.377 391.706C487.858 391.187 492.169 389.682 496 387.299C495.071 390.63 493.724 393.829 491.992 396.821C492.142 396.566 494.912 395.94 495.423 395.649C496.474 395.052 497.318 394.15 497.846 393.063C499.344 390.384 500.277 387.154 501.665 384.369C504.631 378.4 508.065 372.675 511.932 367.247Z" fill="#3F3D56"/>
<path d="M341.567 232.393C340.5 232.5 339.427 232.526 338.356 232.468C338.173 232.448 337.99 232.5 337.846 232.614C337.702 232.728 337.608 232.894 337.585 233.076L335.537 248.445C335.379 249.561 334.923 250.613 334.215 251.49C333.632 252.188 333.199 252.998 332.942 253.87C332.685 254.743 332.61 255.659 332.722 256.561V282.668C332.722 282.668 332.59 286.149 335.264 286.149C338.464 286.552 341.701 286.552 344.901 286.149C344.901 286.149 347.042 285.744 347.042 282.532V256.826C347.205 255.929 347.172 255.007 346.943 254.125C346.715 253.242 346.298 252.42 345.721 251.714C345.037 250.834 344.595 249.791 344.439 248.687L342.311 232.997C342.287 232.82 342.197 232.66 342.058 232.547C341.92 232.435 341.744 232.38 341.567 232.393Z" fill="#3F3D56"/>
<path d="M341.58 257.028H338.334C335.646 257.028 333.467 259.208 333.467 261.897V274.116C333.467 276.805 335.646 278.985 338.334 278.985H341.58C344.268 278.985 346.448 276.805 346.448 274.116V261.897C346.448 259.208 344.268 257.028 341.58 257.028Z" fill="#FFD948"/>
<path d="M371.959 254.865C370.893 254.972 369.819 254.997 368.748 254.94C368.566 254.92 368.383 254.972 368.239 255.086C368.095 255.2 368.001 255.365 367.978 255.548L365.929 270.917C365.772 272.032 365.315 273.084 364.608 273.961C364.025 274.659 363.592 275.47 363.335 276.342C363.078 277.214 363.003 278.13 363.115 279.033V305.14C363.115 305.14 362.983 308.621 365.656 308.621C368.856 309.023 372.094 309.023 375.294 308.621C375.294 308.621 377.435 308.216 377.435 305.003V279.297C377.598 278.4 377.564 277.479 377.336 276.596C377.108 275.714 376.691 274.891 376.113 274.186C375.43 273.306 374.988 272.262 374.831 271.159L372.704 255.468C372.68 255.292 372.589 255.131 372.451 255.019C372.313 254.907 372.137 254.852 371.959 254.865Z" fill="#3F3D56"/>
<path d="M371.972 279.5H368.726C366.038 279.5 363.858 281.68 363.858 284.369V296.587C363.858 299.277 366.038 301.456 368.726 301.456H371.972C374.66 301.456 376.839 299.277 376.839 296.587V284.369C376.839 281.68 374.66 279.5 371.972 279.5Z" fill="#FFD948"/>
<g opacity="0.2">
<path opacity="0.2" d="M337.797 518.152C337.783 518.628 337.728 519.101 337.634 519.567C334.568 519.079 331.485 518.639 328.384 518.245C328.384 518.122 328.384 517.994 328.384 517.866C328.412 516.545 328.793 515.255 329.485 514.13C330.392 512.693 331.771 511.794 333.291 511.843C334.81 511.891 336.127 512.874 336.942 514.359C337.558 515.525 337.853 516.834 337.797 518.152Z" fill="#3F3D56"/>
<path opacity="0.2" d="M338.044 510.628C338.152 507.22 336.13 504.391 333.528 504.309C330.927 504.227 328.73 506.922 328.623 510.33C328.515 513.738 330.537 516.567 333.138 516.649C335.74 516.731 337.936 514.035 338.044 510.628Z" fill="#3F3D56"/>
<path opacity="0.2" d="M338.284 503.084C338.392 499.677 336.37 496.848 333.768 496.765C331.167 496.683 328.971 499.379 328.863 502.786C328.755 506.194 330.777 509.023 333.379 509.105C335.98 509.188 338.177 506.492 338.284 503.084Z" fill="#3F3D56"/>
<path opacity="0.2" d="M338.52 495.54C338.627 492.133 336.605 489.304 334.004 489.221C331.402 489.139 329.206 491.835 329.098 495.243C328.991 498.65 331.012 501.479 333.614 501.562C336.216 501.644 338.412 498.948 338.52 495.54Z" fill="#3F3D56"/>
<path opacity="0.2" d="M338.76 487.997C338.867 484.589 336.846 481.76 334.244 481.678C331.642 481.596 329.446 484.291 329.338 487.699C329.231 491.107 331.253 493.936 333.854 494.018C336.456 494.1 338.652 491.405 338.76 487.997Z" fill="#3F3D56"/>
<path opacity="0.2" d="M318.019 435.649C317.399 434.809 316.84 433.926 316.346 433.006L328.793 431.362L315.394 431.04C314.198 428.203 313.594 425.152 313.617 422.073C313.641 418.994 314.292 415.952 315.531 413.133L333.202 423.025L317.015 410.318C318.648 407.676 320.808 405.399 323.36 403.629C325.912 401.86 328.802 400.636 331.848 400.034C334.894 399.431 338.032 399.464 341.065 400.129C344.098 400.795 346.962 402.079 349.476 403.901C351.991 405.723 354.103 408.044 355.681 410.719C357.259 413.395 358.268 416.367 358.646 419.45C359.024 422.533 358.763 425.661 357.878 428.639C356.993 431.616 355.504 434.379 353.504 436.755C354.468 438.062 355.288 439.47 355.948 440.955L339.611 448.798L356.935 443.585C358.026 447.186 358.202 451.002 357.446 454.689C356.691 458.375 355.029 461.814 352.609 464.695C355.125 468.109 356.629 472.162 356.95 476.391C357.271 480.619 356.396 484.853 354.425 488.607C352.454 492.362 349.466 495.485 345.804 497.621C342.142 499.757 337.952 500.819 333.715 500.685C329.478 500.552 325.364 499.228 321.844 496.866C318.323 494.503 315.539 491.197 313.808 487.326C312.077 483.455 311.471 479.174 312.057 474.975C312.644 470.775 314.4 466.825 317.125 463.576C314.12 459.497 312.574 454.525 312.733 449.46C312.893 444.395 314.75 439.531 318.006 435.649H318.019Z" fill="#FFD948"/>
<path opacity="0.1" d="M357.895 450.886C357.741 455.954 355.878 460.821 352.609 464.695C355.125 468.109 356.629 472.162 356.95 476.39C357.271 480.619 356.396 484.852 354.425 488.607C352.454 492.361 349.466 495.485 345.804 497.621C342.142 499.757 337.952 500.819 333.715 500.685C329.478 500.552 325.364 499.228 321.844 496.865C318.323 494.503 315.539 491.197 313.808 487.326C312.077 483.455 311.471 479.174 312.057 474.974C312.644 470.775 314.4 466.825 317.125 463.576C314.231 459.641 357.974 448.353 357.895 450.886Z" fill="black"/>
</g>
</g>
<defs>
<clipPath id="clip0">
<rect width="500" height="314.114" fill="white" transform="translate(96 229)"/>
</clipPath>
</defs>
</svg>
