<svg width="461" height="339" viewBox="0 0 461 339" fill="none" xmlns="http://www.w3.org/2000/svg">
<g clip-path="url(#clip0)">
<path opacity="0.1" d="M263.91 338.097C292.277 338.097 315.273 333.185 315.273 327.126C315.273 321.066 292.277 316.154 263.91 316.154C235.542 316.154 212.546 321.066 212.546 327.126C212.546 333.185 235.542 338.097 263.91 338.097Z" fill="#FFD948"/>
<path opacity="0.1" d="M448.658 286.591C438.453 295.057 423.931 298.561 409.888 300.773L407.524 301.134C382.978 304.797 357.937 305.543 333.014 306.28C263.499 308.338 193.804 310.392 124.474 305.647C93.8135 303.552 62.3942 299.881 35.5221 287.333L34.8222 287.002C34.4744 286.839 34.1265 286.675 33.7787 286.503C29.0075 284.226 24.4371 281.55 20.1163 278.503C12.4428 273.03 6.10611 266.349 2.75757 258.424C-2.48945 245.994 0.284934 232.022 6.27793 219.868C12.2709 207.714 21.2814 196.768 29.0513 185.322C31.3312 181.97 33.4937 178.491 35.5053 174.925C48.0781 152.558 54.3141 126.675 41.1337 105.121C39.394 102.373 37.5154 99.7151 35.5053 97.1582C32.2909 92.9673 29.022 88.7764 26.8134 84.137C21.6628 73.3412 22.7692 61.2002 24.6467 49.6668C27.1612 34.3323 31.7922 17.8159 46.1796 8.23547C61.1285 -1.71374 82.3471 -1.21083 100.9 2.3682C129.746 7.89601 156.371 19.4671 183.247 29.9025C210.124 40.3378 238.295 49.8428 267.845 50.8654C293.938 51.7748 324.376 44.9981 341.702 27.3628C358.528 10.2429 390.148 8.94793 412.947 19.2869C434.702 29.1523 448.771 50.0314 447.731 70.8854C446.407 96.9109 424.711 117.752 407.541 139.91C404.687 143.593 401.954 147.319 399.461 151.108C391.322 163.484 385.568 178.349 391.171 191.709C394.314 199.19 400.311 204.898 407.541 209.881C423.739 221.041 446.097 228.552 456.155 244.175C464.818 257.653 461.608 275.842 448.658 286.591Z" fill="#FFD948"/>
<path d="M407.566 299.989C420.762 299.989 431.459 297.933 431.459 295.396C431.459 292.859 420.762 290.803 407.566 290.803C394.371 290.803 383.674 292.859 383.674 295.396C383.674 297.933 394.371 299.989 407.566 299.989Z" fill="#FFD948"/>
<path d="M407.168 297.085C408.704 297.085 409.95 295.455 409.95 293.443C409.95 291.432 408.704 289.801 407.168 289.801C405.631 289.801 404.385 291.432 404.385 293.443C404.385 295.455 405.631 297.085 407.168 297.085Z" fill="#3F3D56"/>
<path d="M407.168 292.634C408.704 292.634 409.95 291.004 409.95 288.992C409.95 286.981 408.704 285.351 407.168 285.351C405.631 285.351 404.385 286.981 404.385 288.992C404.385 291.004 405.631 292.634 407.168 292.634Z" fill="#3F3D56"/>
<path d="M407.168 288.179C408.704 288.179 409.95 286.549 409.95 284.537C409.95 282.526 408.704 280.896 407.168 280.896C405.631 280.896 404.385 282.526 404.385 284.537C404.385 286.549 405.631 288.179 407.168 288.179Z" fill="#3F3D56"/>
<path d="M407.168 283.729C408.704 283.729 409.95 282.098 409.95 280.087C409.95 278.075 408.704 276.445 407.168 276.445C405.631 276.445 404.385 278.075 404.385 280.087C404.385 282.098 405.631 283.729 407.168 283.729Z" fill="#3F3D56"/>
<path d="M407.168 279.278C408.704 279.278 409.95 277.647 409.95 275.636C409.95 273.625 408.704 271.994 407.168 271.994C405.631 271.994 404.385 273.625 404.385 275.636C404.385 277.647 405.631 279.278 407.168 279.278Z" fill="#3F3D56"/>
<path d="M407.168 274.827C408.704 274.827 409.95 273.196 409.95 271.185C409.95 269.174 408.704 267.543 407.168 267.543C405.631 267.543 404.385 269.174 404.385 271.185C404.385 273.196 405.631 274.827 407.168 274.827Z" fill="#3F3D56"/>
<path d="M407.168 270.377C408.704 270.377 409.95 268.746 409.95 266.735C409.95 264.723 408.704 263.093 407.168 263.093C405.631 263.093 404.385 264.723 404.385 266.735C404.385 268.746 405.631 270.377 407.168 270.377Z" fill="#3F3D56"/>
<path d="M417.583 236.275C417.963 235.792 418.309 235.282 418.618 234.75L411.309 233.551L419.213 233.61C419.973 231.96 420.389 230.172 420.433 228.356C420.476 226.539 420.148 224.733 419.468 223.049L408.861 228.56L418.643 221.372C417.729 219.784 416.497 218.401 415.025 217.311C413.552 216.22 411.871 215.445 410.085 215.033C408.3 214.621 406.448 214.582 404.647 214.919C402.846 215.255 401.133 215.959 399.616 216.987C398.099 218.014 396.81 219.344 395.83 220.893C394.85 222.441 394.2 224.175 393.921 225.986C393.641 227.797 393.738 229.646 394.205 231.418C394.672 233.19 395.5 234.846 396.636 236.284C396.043 237.036 395.533 237.851 395.115 238.714L404.603 243.647L394.486 240.252C393.775 242.352 393.599 244.597 393.975 246.782C394.35 248.967 395.265 251.024 396.636 252.766C395.091 254.732 394.13 257.094 393.863 259.58C393.596 262.066 394.034 264.578 395.127 266.827C396.219 269.076 397.923 270.973 400.043 272.3C402.163 273.626 404.613 274.33 407.114 274.33C409.614 274.33 412.065 273.626 414.184 272.3C416.304 270.973 418.008 269.076 419.101 266.827C420.194 264.578 420.632 262.066 420.365 259.58C420.098 257.094 419.136 254.732 417.591 252.766C419.44 250.418 420.445 247.516 420.445 244.527C420.445 241.538 419.44 238.636 417.591 236.288L417.583 236.275Z" fill="#FFD948"/>
<path opacity="0.1" d="M393.782 244.515C393.779 247.504 394.784 250.407 396.636 252.754C395.091 254.72 394.13 257.081 393.863 259.568C393.596 262.054 394.034 264.566 395.126 266.815C396.219 269.064 397.923 270.96 400.043 272.287C402.163 273.614 404.613 274.318 407.114 274.318C409.614 274.318 412.065 273.614 414.184 272.287C416.304 270.96 418.008 269.064 419.101 266.815C420.193 264.566 420.631 262.054 420.364 259.568C420.097 257.081 419.136 254.72 417.591 252.754C419.368 250.487 393.782 243.019 393.782 244.515Z" fill="black"/>
<path d="M56.464 282.429C56.464 284.772 47.3236 286.708 35.5094 286.985H34.8095C34.4617 286.821 34.1138 286.658 33.766 286.486C28.9997 284.213 24.4336 281.543 20.1162 278.502C22.987 278.167 26.2517 277.941 29.7553 277.865H30.2289C30.9916 277.865 31.7669 277.84 32.5506 277.84C33.0619 277.84 33.569 277.84 34.0677 277.84H34.5623C34.8808 277.84 35.1951 277.84 35.5052 277.84C47.3236 278.146 56.464 280.108 56.464 282.429Z" fill="#FFD948"/>
<path d="M32.1695 284.118C33.7064 284.118 34.9522 282.488 34.9522 280.476C34.9522 278.465 33.7064 276.834 32.1695 276.834C30.6326 276.834 29.3867 278.465 29.3867 280.476C29.3867 282.488 30.6326 284.118 32.1695 284.118Z" fill="#3F3D56"/>
<path d="M32.1695 279.668C33.7064 279.668 34.9522 278.037 34.9522 276.026C34.9522 274.014 33.7064 272.384 32.1695 272.384C30.6326 272.384 29.3867 274.014 29.3867 276.026C29.3867 278.037 30.6326 279.668 32.1695 279.668Z" fill="#3F3D56"/>
<path d="M32.1695 275.217C33.7064 275.217 34.9522 273.587 34.9522 271.576C34.9522 269.564 33.7064 267.934 32.1695 267.934C30.6326 267.934 29.3867 269.564 29.3867 271.576C29.3867 273.587 30.6326 275.217 32.1695 275.217Z" fill="#3F3D56"/>
<path d="M32.1695 270.766C33.7064 270.766 34.9522 269.136 34.9522 267.124C34.9522 265.113 33.7064 263.482 32.1695 263.482C30.6326 263.482 29.3867 265.113 29.3867 267.124C29.3867 269.136 30.6326 270.766 32.1695 270.766Z" fill="#3F3D56"/>
<path d="M32.1695 266.315C33.7064 266.315 34.9522 264.685 34.9522 262.673C34.9522 260.662 33.7064 259.031 32.1695 259.031C30.6326 259.031 29.3867 260.662 29.3867 262.673C29.3867 264.685 30.6326 266.315 32.1695 266.315Z" fill="#3F3D56"/>
<path d="M32.1695 261.865C33.7064 261.865 34.9522 260.234 34.9522 258.223C34.9522 256.212 33.7064 254.581 32.1695 254.581C30.6326 254.581 29.3867 256.212 29.3867 258.223C29.3867 260.234 30.6326 261.865 32.1695 261.865Z" fill="#3F3D56"/>
<path d="M32.1695 257.41C33.7064 257.41 34.9522 255.779 34.9522 253.768C34.9522 251.757 33.7064 250.126 32.1695 250.126C30.6326 250.126 29.3867 251.757 29.3867 253.768C29.3867 255.779 30.6326 257.41 32.1695 257.41Z" fill="#3F3D56"/>
<path d="M42.5845 223.308C42.9651 222.825 43.3124 222.317 43.6239 221.787L36.3107 220.596L44.219 220.655C44.9779 219.005 45.3917 217.218 45.4349 215.403C45.4782 213.587 45.15 211.782 44.4704 210.098L33.8674 215.601L43.649 208.409C42.7334 206.824 41.501 205.445 40.0289 204.357C38.5567 203.27 36.8762 202.497 35.0923 202.087C33.3083 201.677 31.4591 201.64 29.6598 201.976C27.8606 202.312 26.15 203.016 24.6346 204.043C23.1192 205.069 21.8315 206.397 20.8518 207.943C19.8721 209.489 19.2214 211.221 18.9403 213.029C18.6592 214.838 18.7537 216.685 19.2179 218.456C19.6821 220.226 20.506 221.882 21.6384 223.321C21.047 224.075 20.5371 224.89 20.1171 225.751L29.6053 230.655L19.4884 227.273C18.7802 229.373 18.6059 231.617 18.9812 233.801C19.3566 235.986 20.2697 238.043 21.6384 239.787C20.0929 241.753 19.1317 244.114 18.8647 246.6C18.5977 249.087 19.0357 251.598 20.1286 253.847C21.2215 256.097 22.9252 257.993 25.0449 259.32C27.1646 260.646 29.6149 261.35 32.1156 261.35C34.6164 261.35 37.0666 260.646 39.1864 259.32C41.3061 257.993 43.0098 256.097 44.1027 253.847C45.1956 251.598 45.6335 249.087 45.3666 246.6C45.0996 244.114 44.1384 241.753 42.5929 239.787C44.4419 237.438 45.4473 234.536 45.4473 231.547C45.4473 228.558 44.4419 225.656 42.5929 223.308H42.5845Z" fill="#FFD948"/>
<path opacity="0.1" d="M18.7881 231.548C18.7832 234.537 19.7873 237.44 21.6379 239.787C20.0924 241.753 19.1313 244.114 18.8643 246.601C18.5973 249.087 19.0353 251.599 20.1282 253.848C21.221 256.097 22.9247 257.994 25.0445 259.32C27.1642 260.647 29.6145 261.351 32.1152 261.351C34.6159 261.351 37.0662 260.647 39.1859 259.32C41.3057 257.994 43.0094 256.097 44.1022 253.848C45.1951 251.599 45.6331 249.087 45.3661 246.601C45.0991 244.114 44.138 241.753 42.5925 239.787C44.3694 237.52 18.7881 230.052 18.7881 231.548Z" fill="black"/>
<g opacity="0.2">
<path opacity="0.2" d="M128.174 232.718C128.174 233.112 128.132 233.497 128.091 233.874C124.838 232.567 121.637 231.18 118.485 229.713C116.808 229.492 115.249 228.731 114.043 227.546C113.125 227.085 112.211 226.607 111.302 226.125C111.507 225.692 111.739 225.272 111.997 224.868C113.758 222.077 116.44 220.329 119.394 220.426C122.349 220.522 124.905 222.429 126.49 225.312C127.704 227.586 128.285 230.143 128.174 232.718Z" fill="#3F3D56"/>
<path opacity="0.2" d="M128.661 218.083C128.6 220.65 127.858 223.156 126.511 225.342C124.746 228.125 122.068 229.872 119.114 229.776C118.908 229.776 118.695 229.751 118.506 229.734C116.829 229.513 115.27 228.752 114.064 227.567C113.244 226.792 112.554 225.891 112.019 224.898C110.834 222.618 110.254 220.072 110.335 217.503C110.415 214.935 111.154 212.43 112.48 210.229C114.244 207.438 116.922 205.691 119.877 205.787C122.831 205.883 125.388 207.79 126.972 210.674C128.186 212.948 128.769 215.507 128.661 218.083Z" fill="#3F3D56"/>
<path opacity="0.2" d="M129.106 203.418C129.315 196.795 125.384 191.296 120.324 191.136C115.265 190.976 110.994 196.216 110.784 202.839C110.575 209.463 114.507 214.962 119.566 215.122C124.626 215.281 128.897 210.042 129.106 203.418Z" fill="#3F3D56"/>
<path opacity="0.2" d="M129.568 188.761C129.777 182.138 125.846 176.639 120.786 176.479C115.727 176.319 111.455 181.559 111.246 188.182C111.037 194.806 114.969 200.304 120.028 200.464C125.088 200.624 129.359 195.385 129.568 188.761Z" fill="#3F3D56"/>
<path opacity="0.2" d="M130.03 174.104C130.239 167.481 126.307 161.982 121.248 161.822C116.189 161.662 111.917 166.902 111.708 173.525C111.499 180.148 115.431 185.647 120.49 185.807C125.549 185.967 129.821 180.727 130.03 174.104Z" fill="#3F3D56"/>
<path opacity="0.2" d="M89.7357 72.4319C88.5357 70.7984 87.4491 69.0844 86.4836 67.3022L110.674 64.1087L84.6563 63.4801C82.3316 57.9692 81.1556 52.042 81.2003 46.061C81.2449 40.0801 82.5094 34.1711 84.9162 28.6956L119.282 47.9109L87.787 23.2055C90.9737 18.0958 95.1776 13.6965 100.137 10.281C105.097 6.86557 110.706 4.50703 116.616 3.35207C122.527 2.19712 128.611 2.27047 134.492 3.56755C140.372 4.86463 145.923 7.3577 150.799 10.8917C155.675 14.4258 159.772 18.9251 162.834 24.1101C165.897 29.295 167.86 35.0547 168.602 41.0308C169.343 47.0068 168.847 53.0716 167.145 58.8479C165.442 64.6241 162.57 69.9884 158.706 74.607C160.573 77.148 162.162 79.8822 163.445 82.7625L131.691 98.009L165.356 87.8796C167.475 94.8686 167.818 102.275 166.354 109.43C164.891 116.585 161.667 123.262 156.975 128.858C161.863 135.491 164.786 143.365 165.41 151.58C166.034 159.796 164.333 168.021 160.502 175.316C156.671 182.61 150.865 188.679 143.747 192.829C136.629 196.979 128.487 199.042 120.252 198.782C112.017 198.522 104.021 195.95 97.1793 191.36C90.3371 186.77 84.9248 180.347 81.5612 172.826C78.1976 165.305 77.0185 156.988 78.1588 148.829C79.299 140.669 82.7126 132.994 88.0091 126.683C82.169 118.759 79.1624 109.101 79.4725 99.2615C79.7826 89.4223 83.3914 79.973 89.719 72.4319H89.7357Z" fill="#FFD948"/>
<path opacity="0.1" d="M167.238 102.028C166.942 111.867 163.333 121.318 156.996 128.85C161.882 135.483 164.803 143.356 165.425 151.57C166.047 159.784 164.346 168.008 160.515 175.301C156.685 182.594 150.879 188.662 143.763 192.811C136.647 196.96 128.506 199.024 120.273 198.765C112.039 198.506 104.044 195.936 97.2022 191.349C90.3602 186.761 84.9471 180.341 81.5816 172.822C78.2162 165.303 77.0343 156.989 78.1709 148.83C79.3075 140.671 82.7169 132.996 88.0093 126.683C82.3809 119.035 167.393 97.1039 167.238 102.028Z" fill="black"/>
</g>
<g opacity="0.2">
<path opacity="0.2" d="M334.511 201.376C334.511 201.657 334.482 201.93 334.452 202.215C332.13 201.295 329.852 200.309 327.617 199.256C326.423 199.097 325.313 198.556 324.453 197.714C323.803 197.383 323.149 197.043 322.504 196.704C322.65 196.396 322.815 196.098 322.998 195.811C324.256 193.824 326.158 192.584 328.262 192.651C330.366 192.718 332.185 194.076 333.312 196.129C334.171 197.741 334.585 199.552 334.511 201.376Z" fill="#3F3D56"/>
<path opacity="0.2" d="M334.854 190.946C334.812 192.774 334.284 194.557 333.324 196.113C332.067 198.091 330.164 199.336 328.061 199.269L327.642 199.24C326.448 199.081 325.338 198.54 324.477 197.698C323.896 197.143 323.405 196.501 323.023 195.795C322.183 194.174 321.771 192.364 321.828 190.539C321.886 188.713 322.41 186.933 323.35 185.368C324.607 183.381 326.514 182.137 328.614 182.204C330.714 182.271 332.541 183.629 333.664 185.682C334.522 187.3 334.933 189.117 334.854 190.946Z" fill="#3F3D56"/>
<path opacity="0.2" d="M335.191 180.527C335.34 175.814 332.543 171.902 328.943 171.788C325.343 171.674 322.304 175.402 322.155 180.115C322.006 184.827 324.804 188.74 328.404 188.853C332.003 188.967 335.042 185.239 335.191 180.527Z" fill="#3F3D56"/>
<path opacity="0.2" d="M335.516 170.098C335.665 165.386 332.868 161.473 329.268 161.359C325.668 161.246 322.629 164.974 322.481 169.686C322.332 174.399 325.129 178.311 328.729 178.425C332.328 178.538 335.367 174.811 335.516 170.098Z" fill="#3F3D56"/>
<path opacity="0.2" d="M335.846 159.668C335.995 154.956 333.198 151.044 329.598 150.93C325.998 150.816 322.96 154.544 322.811 159.256C322.662 163.969 325.459 167.881 329.059 167.995C332.658 168.109 335.697 164.381 335.846 159.668Z" fill="#3F3D56"/>
<path opacity="0.2" d="M307.157 87.3256C306.301 86.1644 305.528 84.9447 304.843 83.6753L322.059 81.4038L303.532 80.9554C301.876 77.0337 301.039 72.8156 301.07 68.559C301.1 64.3024 302 60.0969 303.712 56.1997L328.149 69.8579L305.769 52.2854C308.028 48.6303 311.016 45.4804 314.547 43.0325C318.078 40.5846 322.076 38.8913 326.292 38.0584C330.507 37.2256 334.848 37.2711 339.045 38.1921C343.242 39.1131 347.203 40.8898 350.682 43.4112C354.161 45.9326 357.083 49.1445 359.264 52.8461C361.446 56.5477 362.84 60.6595 363.361 64.9244C363.881 69.1894 363.516 73.5159 362.289 77.6334C361.062 81.751 358.999 85.5712 356.228 88.8553C357.559 90.6647 358.692 92.6121 359.606 94.6639L337.021 105.514L360.98 98.3058C362.491 103.278 362.737 108.549 361.696 113.641C360.656 118.733 358.361 123.485 355.021 127.466C358.498 132.186 360.577 137.789 361.021 143.635C361.464 149.48 360.253 155.333 357.527 160.523C354.801 165.713 350.669 170.031 345.604 172.983C340.54 175.936 334.747 177.404 328.887 177.219C323.028 177.035 317.338 175.205 312.47 171.939C307.601 168.674 303.749 164.104 301.355 158.753C298.961 153.402 298.121 147.485 298.932 141.678C299.742 135.872 302.17 130.411 305.937 125.92C301.786 120.28 299.65 113.41 299.871 106.412C300.092 99.413 302.658 92.6914 307.157 87.3256Z" fill="#FFD948"/>
<path opacity="0.1" d="M362.313 108.372C362.103 115.377 359.534 122.105 355.021 127.466C358.498 132.186 360.577 137.789 361.021 143.635C361.464 149.48 360.253 155.333 357.527 160.523C354.801 165.713 350.669 170.031 345.604 172.984C340.54 175.936 334.747 177.404 328.887 177.219C323.028 177.035 317.338 175.205 312.47 171.94C307.601 168.674 303.749 164.104 301.355 158.753C298.961 153.402 298.121 147.485 298.932 141.678C299.742 135.872 302.17 130.411 305.937 125.92C301.922 120.472 362.422 104.869 362.313 108.372Z" fill="black"/>
</g>
<g opacity="0.2">
<path opacity="0.2" d="M245.168 168.668C245.168 168.948 245.135 169.221 245.105 169.506C242.783 168.586 240.505 167.6 238.27 166.547C237.078 166.388 235.969 165.847 235.11 165.005C234.456 164.674 233.807 164.334 233.161 163.995C233.305 163.687 233.469 163.389 233.651 163.102C234.909 161.12 236.816 159.875 238.915 159.942C241.015 160.009 242.838 161.367 243.965 163.42C244.826 165.031 245.241 166.843 245.168 168.668Z" fill="#3F3D56"/>
<path opacity="0.2" d="M245.478 158.236C245.436 160.064 244.908 161.847 243.948 163.403C242.691 165.382 240.788 166.626 238.685 166.559C238.538 166.559 238.4 166.559 238.265 166.53C237.073 166.371 235.964 165.83 235.105 164.988C234.522 164.435 234.029 163.792 233.647 163.085C232.806 161.464 232.395 159.654 232.453 157.828C232.511 156.003 233.036 154.223 233.978 152.658C235.235 150.671 237.138 149.427 239.242 149.494C241.346 149.561 243.165 150.919 244.271 152.972C245.135 154.588 245.552 156.405 245.478 158.236Z" fill="#3F3D56"/>
<path opacity="0.2" d="M245.495 147.412C245.636 142.697 242.831 138.787 239.23 138.679C235.628 138.571 232.594 142.306 232.452 147.021C232.311 151.736 235.116 155.645 238.717 155.753C242.319 155.861 245.353 152.127 245.495 147.412Z" fill="#3F3D56"/>
<path opacity="0.2" d="M246.146 137.387C246.295 132.675 243.498 128.762 239.898 128.649C236.298 128.535 233.259 132.263 233.11 136.975C232.962 141.688 235.759 145.6 239.359 145.714C242.958 145.828 245.997 142.1 246.146 137.387Z" fill="#3F3D56"/>
<path opacity="0.2" d="M246.48 126.955C246.629 122.242 243.832 118.33 240.232 118.216C236.632 118.102 233.593 121.83 233.444 126.543C233.296 131.255 236.093 135.167 239.693 135.281C243.292 135.395 246.331 131.667 246.48 126.955Z" fill="#3F3D56"/>
<path opacity="0.2" d="M217.794 54.5993C216.94 53.4372 216.167 52.2175 215.48 50.949L232.697 48.6775L214.156 48.2291C212.5 44.3075 211.662 40.089 211.694 35.8322C211.726 31.5755 212.626 27.37 214.34 23.4734L238.786 37.1484L216.411 19.5759C218.676 15.9363 221.667 12.802 225.196 10.3681C228.725 7.93418 232.718 6.25277 236.925 5.42851C241.132 4.60425 245.464 4.65479 249.651 5.57698C253.838 6.49917 257.79 8.27327 261.261 10.7888C264.733 13.3044 267.649 16.5076 269.829 20.1991C272.01 23.8906 273.407 27.9912 273.933 32.2459C274.46 36.5006 274.106 40.8181 272.892 44.9298C271.678 49.0416 269.631 52.8594 266.878 56.1458C268.21 57.9551 269.344 59.9025 270.26 61.9544L247.683 72.8046L271.638 65.5962C273.149 70.569 273.395 75.8399 272.354 80.9316C271.314 86.0234 269.019 90.7752 265.679 94.7566C269.152 99.4781 271.227 105.081 271.666 110.926C272.105 116.771 270.891 122.621 268.162 127.809C265.434 132.996 261.301 137.311 256.236 140.261C251.171 143.211 245.379 144.676 239.52 144.49C233.662 144.303 227.974 142.473 223.108 139.207C218.241 135.941 214.391 131.371 211.998 126.021C209.605 120.67 208.765 114.754 209.575 108.949C210.385 103.144 212.812 97.6844 216.578 93.1934C212.424 87.5526 210.285 80.6797 210.506 73.6777C210.726 66.6757 213.293 59.9509 217.794 54.5825V54.5993Z" fill="#FFD948"/>
<path opacity="0.1" d="M272.95 75.6624C272.74 82.6668 270.17 89.395 265.657 94.7561C269.134 99.477 271.211 105.081 271.653 110.927C272.095 116.773 270.882 122.625 268.154 127.815C265.426 133.004 261.293 137.321 256.228 140.272C251.162 143.223 245.368 144.689 239.508 144.503C233.649 144.316 227.96 142.484 223.092 139.217C218.224 135.949 214.374 131.378 211.982 126.025C209.59 120.673 208.753 114.755 209.565 108.949C210.378 103.143 212.808 97.683 216.578 93.1929C212.559 87.7657 273.059 72.1588 272.95 75.6624Z" fill="black"/>
</g>
<path d="M407.524 209.885V301.134C382.978 304.796 357.937 305.542 333.014 306.28C263.499 308.338 193.804 310.391 124.474 305.647C93.8134 303.552 62.3942 299.88 35.5221 287.333V174.916C35.6227 97.3841 35.2036 174.916 35.5221 97.1495V69.2422C35.5221 67.675 36.1447 66.172 37.2529 65.0638C38.361 63.9556 39.8641 63.333 41.4313 63.333H401.615C403.182 63.333 404.685 63.9556 405.793 65.0638C406.901 66.172 407.524 67.675 407.524 69.2422V139.913C407.775 209.701 407.356 140.131 407.524 209.885Z" fill="#3F3D56"/>
<path opacity="0.3" d="M296.628 91.2568H146.417C145.209 91.2568 144.229 92.2363 144.229 93.4445V101.038C144.229 102.247 145.209 103.226 146.417 103.226H296.628C297.836 103.226 298.815 102.247 298.815 101.038V93.4445C298.815 92.2363 297.836 91.2568 296.628 91.2568Z" fill="#FFD948"/>
<path d="M288.309 97.7407H288.054L287.957 97.6611C288.277 97.2791 288.453 96.7973 288.456 96.2991C288.451 95.8903 288.325 95.4922 288.094 95.1549C287.863 94.8176 287.538 94.5562 287.159 94.4036C286.779 94.251 286.364 94.2141 285.963 94.2974C285.563 94.3808 285.197 94.5808 284.91 94.8721C284.623 95.1635 284.429 95.5332 284.352 95.9346C284.275 96.3361 284.319 96.7513 284.478 97.128C284.637 97.5047 284.903 97.8259 285.244 98.0513C285.585 98.2767 285.985 98.3961 286.394 98.3945C286.89 98.3927 287.371 98.2178 287.752 97.9L287.844 97.9796V98.2227L289.441 99.8236L289.919 99.3458L288.309 97.7407ZM286.394 97.7407C286.109 97.7416 285.83 97.6577 285.592 97.4998C285.354 97.3419 285.169 97.117 285.059 96.8537C284.949 96.5903 284.92 96.3003 284.975 96.0204C285.03 95.7404 285.167 95.4832 285.369 95.2811C285.57 95.0791 285.827 94.9414 286.107 94.8854C286.387 94.8294 286.677 94.8577 286.941 94.9667C287.204 95.0757 287.43 95.2605 287.588 95.4977C287.747 95.7348 287.831 96.0137 287.831 96.2991C287.833 96.4883 287.796 96.676 287.724 96.8511C287.653 97.0262 287.547 97.1854 287.413 97.3194C287.279 97.4535 287.121 97.5597 286.946 97.632C286.771 97.7043 286.583 97.7413 286.394 97.7407Z" fill="#444053"/>
<path opacity="0.7" d="M105.72 206.695H95.4861C94.3288 206.695 93.3906 207.633 93.3906 208.791V209.587C93.3906 210.744 94.3288 211.682 95.4861 211.682H105.72C106.878 211.682 107.816 210.744 107.816 209.587V208.791C107.816 207.633 106.878 206.695 105.72 206.695Z" fill="#3F3D56"/>
<path opacity="0.3" d="M113.733 219.164H95.4861C94.3288 219.164 93.3906 220.102 93.3906 221.26V222.056C93.3906 223.213 94.3288 224.151 95.4861 224.151H113.733C114.891 224.151 115.829 223.213 115.829 222.056V221.26C115.829 220.102 114.891 219.164 113.733 219.164Z" fill="#FFD948"/>
<path opacity="0.3" d="M136.176 212.932H95.4861C94.3288 212.932 93.3906 213.87 93.3906 215.027V215.823C93.3906 216.981 94.3288 217.919 95.4861 217.919H136.176C137.333 217.919 138.271 216.981 138.271 215.823V215.027C138.271 213.87 137.333 212.932 136.176 212.932Z" fill="#FFD948"/>
<path d="M68.9696 219.009C68.6533 219.005 68.3395 219.064 68.0461 219.183C67.7527 219.301 67.4855 219.475 67.2597 219.697C67.034 219.918 66.8541 220.182 66.7304 220.473C66.6067 220.764 66.5416 221.077 66.5389 221.393C66.529 221.817 66.354 222.221 66.051 222.517C65.748 222.814 65.3411 222.981 64.917 222.982C65.3042 223.472 65.796 223.869 66.3565 224.145C66.917 224.42 67.532 224.567 68.1566 224.574C68.5787 224.579 68.9976 224.5 69.3893 224.342C69.7809 224.185 70.1378 223.952 70.4394 223.656C70.741 223.361 70.9815 223.009 71.1471 222.621C71.3127 222.233 71.4001 221.815 71.4045 221.393C71.4012 221.077 71.3357 220.764 71.2115 220.473C71.0874 220.182 70.9071 219.918 70.681 219.697C70.4549 219.475 70.1874 219.3 69.8937 219.182C69.6001 219.064 69.2861 219.005 68.9696 219.009ZM80.0881 211.566L78.9985 210.497C78.8464 210.347 78.6417 210.264 78.4285 210.264C78.2153 210.264 78.0106 210.347 77.8585 210.497L70.5915 217.621L72.821 219.809L80.0797 212.685C80.1552 212.612 80.2154 212.526 80.2567 212.43C80.2981 212.334 80.3199 212.231 80.3206 212.127C80.3214 212.023 80.3012 211.919 80.2613 211.823C80.2214 211.726 80.1625 211.639 80.0881 211.566Z" fill="#FFD948"/>
<path opacity="0.7" d="M105.72 144.863H95.4861C94.3288 144.863 93.3906 145.801 93.3906 146.959V147.755C93.3906 148.912 94.3288 149.85 95.4861 149.85H105.72C106.878 149.85 107.816 148.912 107.816 147.755V146.959C107.816 145.801 106.878 144.863 105.72 144.863Z" fill="#3F3D56"/>
<path opacity="0.3" d="M113.733 157.331H95.4861C94.3288 157.331 93.3906 158.269 93.3906 159.427V160.223C93.3906 161.38 94.3288 162.318 95.4861 162.318H113.733C114.891 162.318 115.829 161.38 115.829 160.223V159.427C115.829 158.269 114.891 157.331 113.733 157.331Z" fill="#FFD948"/>
<path opacity="0.3" d="M136.176 151.095H95.4861C94.3288 151.095 93.3906 152.033 93.3906 153.19V153.986C93.3906 155.144 94.3288 156.082 95.4861 156.082H136.176C137.333 156.082 138.271 155.144 138.271 153.986V153.19C138.271 152.033 137.333 151.095 136.176 151.095Z" fill="#FFD948"/>
<path d="M80.1218 158.479L73.76 152.076C74.0756 151.252 74.1442 150.354 73.9574 149.492C73.7705 148.63 73.3364 147.842 72.708 147.223C72.0411 146.561 71.1881 146.119 70.2631 145.956C69.3381 145.793 68.3853 145.916 67.5323 146.309L70.5413 149.335L68.4459 151.43L65.3781 148.421C64.9702 149.275 64.8386 150.235 65.0016 151.167C65.1646 152.099 65.6141 152.957 66.2876 153.622C66.8988 154.253 67.6823 154.689 68.5403 154.877C69.3982 155.065 70.2925 154.996 71.1113 154.678L77.4605 161.086C77.5236 161.153 77.5996 161.206 77.6839 161.242C77.7682 161.279 77.8591 161.297 77.9509 161.297C78.0427 161.297 78.1335 161.279 78.2178 161.242C78.3021 161.206 78.3781 161.153 78.4412 161.086L80.0505 159.468C80.1285 159.415 80.1935 159.344 80.2406 159.262C80.2877 159.179 80.3156 159.088 80.3225 158.993C80.3293 158.899 80.3148 158.804 80.2801 158.715C80.2454 158.627 80.1912 158.548 80.1218 158.484V158.479Z" fill="#FFD948"/>
<path opacity="0.7" d="M225.899 206.695H215.665C214.507 206.695 213.569 207.633 213.569 208.791V209.587C213.569 210.744 214.507 211.682 215.665 211.682H225.899C227.056 211.682 227.994 210.744 227.994 209.587V208.791C227.994 207.633 227.056 206.695 225.899 206.695Z" fill="#3F3D56"/>
<path opacity="0.3" d="M233.912 219.164H215.665C214.507 219.164 213.569 220.102 213.569 221.26V222.056C213.569 223.213 214.507 224.151 215.665 224.151H233.912C235.069 224.151 236.007 223.213 236.007 222.056V221.26C236.007 220.102 235.069 219.164 233.912 219.164Z" fill="#FFD948"/>
<path opacity="0.3" d="M256.354 212.932H215.665C214.507 212.932 213.569 213.87 213.569 215.027V215.823C213.569 216.981 214.507 217.919 215.665 217.919H256.354C257.512 217.919 258.45 216.981 258.45 215.823V215.027C258.45 213.87 257.512 212.932 256.354 212.932Z" fill="#FFD948"/>
<path d="M192.548 220.442C191.916 220.801 191.202 220.99 190.475 220.99C189.749 220.99 189.034 220.801 188.403 220.442C186.781 220.941 185.788 222.575 185.419 224.021H195.527C195.163 222.575 194.174 220.941 192.548 220.442ZM190.477 212.743C189.757 212.743 189.053 212.957 188.454 213.357C187.855 213.758 187.388 214.327 187.112 214.992C186.837 215.658 186.765 216.391 186.906 217.097C187.047 217.804 187.394 218.453 187.904 218.962C188.413 219.471 189.063 219.817 189.769 219.957C190.476 220.098 191.209 220.025 191.874 219.749C192.539 219.472 193.108 219.005 193.508 218.405C193.907 217.806 194.12 217.101 194.119 216.381C194.118 215.416 193.734 214.49 193.051 213.808C192.368 213.126 191.443 212.743 190.477 212.743ZM190.477 219.155C189.931 219.145 189.399 218.975 188.947 218.667C188.495 218.359 188.143 217.925 187.933 217.42H193.021C192.812 217.925 192.46 218.359 192.008 218.667C191.556 218.975 191.024 219.145 190.477 219.155Z" fill="#FFD948"/>
<path d="M197.848 218.502C197.317 218.801 196.728 218.982 196.12 219.032C195.512 219.082 194.901 219 194.328 218.791C194.07 219.237 193.745 219.642 193.364 219.989C194.213 220.377 194.928 221.009 195.418 221.804H200.828C200.661 221.042 200.298 220.337 199.776 219.758C199.253 219.179 198.589 218.746 197.848 218.502ZM195.778 210.799C195.167 210.798 194.565 210.952 194.028 211.245C193.491 211.538 193.037 211.961 192.706 212.475C193.256 212.794 193.733 213.225 194.105 213.741C194.477 214.256 194.735 214.845 194.864 215.467H198.322C198.111 215.971 197.758 216.402 197.306 216.708C196.855 217.015 196.324 217.184 195.778 217.194C195.48 217.193 195.185 217.139 194.906 217.035C194.858 217.33 194.782 217.621 194.68 217.902C195.035 218.016 195.405 218.073 195.778 218.07C196.744 218.07 197.67 217.686 198.353 217.003C199.036 216.32 199.42 215.394 199.42 214.428C199.42 213.462 199.036 212.536 198.353 211.853C197.67 211.17 196.744 210.786 195.778 210.786V210.799Z" fill="#FFD948"/>
<path opacity="0.7" d="M105.72 253.072H95.4861C94.3288 253.072 93.3906 254.01 93.3906 255.168V255.964C93.3906 257.121 94.3288 258.059 95.4861 258.059H105.72C106.878 258.059 107.816 257.121 107.816 255.964V255.168C107.816 254.01 106.878 253.072 105.72 253.072Z" fill="#3F3D56"/>
<path opacity="0.3" d="M113.733 265.54H95.4861C94.3288 265.54 93.3906 266.478 93.3906 267.635V268.432C93.3906 269.589 94.3288 270.527 95.4861 270.527H113.733C114.891 270.527 115.829 269.589 115.829 268.432V267.635C115.829 266.478 114.891 265.54 113.733 265.54Z" fill="#FFD948"/>
<path opacity="0.3" d="M136.176 259.309H95.4861C94.3288 259.309 93.3906 260.247 93.3906 261.404V262.2C93.3906 263.358 94.3288 264.296 95.4861 264.296H136.176C137.333 264.296 138.271 263.358 138.271 262.2V261.404C138.271 260.247 137.333 259.309 136.176 259.309Z" fill="#FFD948"/>
<path d="M73.9989 254.649H69.8834C69.7029 254.646 69.5237 254.68 69.3561 254.747C69.1885 254.814 69.0357 254.913 68.9065 255.039C68.7773 255.165 68.6742 255.316 68.6031 255.482C68.5319 255.648 68.4942 255.826 68.492 256.006V256.3H68.2322C68.0517 256.298 67.8725 256.331 67.7049 256.398C67.5372 256.465 67.3845 256.564 67.2553 256.69C67.1261 256.817 67.023 256.967 66.9518 257.133C66.8807 257.299 66.843 257.477 66.8408 257.658V267.561C66.843 267.929 66.9903 268.282 67.2508 268.542C67.5112 268.803 67.8639 268.95 68.2322 268.952H75.3903C75.5706 268.95 75.7487 268.912 75.9144 268.841C76.0801 268.77 76.2301 268.667 76.3559 268.537C76.4817 268.408 76.5807 268.255 76.6473 268.088C76.7138 267.92 76.7467 267.741 76.7439 267.561V267.301H77.0415C77.2218 267.299 77.3999 267.261 77.5656 267.19C77.7313 267.119 77.8814 267.015 78.0071 266.886C78.1329 266.757 78.2319 266.604 78.2985 266.437C78.365 266.269 78.3979 266.09 78.3951 265.91V259.049L73.9989 254.649ZM73.9989 256.182L76.8654 259.049H73.9989V256.182ZM75.6501 267.561C75.6536 267.634 75.6283 267.705 75.5798 267.76C75.5313 267.815 75.4633 267.849 75.3903 267.854H68.2322C68.1561 267.85 68.0843 267.818 68.0308 267.763C67.9774 267.709 67.946 267.637 67.943 267.561V257.658C67.9484 257.585 67.9815 257.518 68.0354 257.47C68.0893 257.421 68.1598 257.395 68.2322 257.398H68.492V266.199C68.492 266.961 68.8525 267.313 69.611 267.313H75.6501V267.561ZM77.2971 265.91C77.3017 265.982 77.2775 266.054 77.2296 266.109C77.1817 266.164 77.1141 266.198 77.0415 266.203H69.8834C69.8073 266.199 69.7355 266.166 69.6821 266.112C69.6286 266.058 69.5973 265.986 69.5942 265.91V256.006C69.5996 255.934 69.6327 255.867 69.6866 255.818C69.7405 255.77 69.811 255.744 69.8834 255.747H72.8967V260.151H77.2971V265.91Z" fill="#FFD948"/>
<path opacity="0.7" d="M225.899 144.863H215.665C214.507 144.863 213.569 145.801 213.569 146.959V147.755C213.569 148.912 214.507 149.85 215.665 149.85H225.899C227.056 149.85 227.994 148.912 227.994 147.755V146.959C227.994 145.801 227.056 144.863 225.899 144.863Z" fill="#3F3D56"/>
<path opacity="0.3" d="M233.912 157.331H215.665C214.507 157.331 213.569 158.269 213.569 159.427V160.223C213.569 161.38 214.507 162.318 215.665 162.318H233.912C235.069 162.318 236.007 161.38 236.007 160.223V159.427C236.007 158.269 235.069 157.331 233.912 157.331Z" fill="#FFD948"/>
<path opacity="0.3" d="M256.354 151.095H215.665C214.507 151.095 213.569 152.033 213.569 153.19V153.986C213.569 155.144 214.507 156.082 215.665 156.082H256.354C257.512 156.082 258.45 155.144 258.45 153.986V153.19C258.45 152.033 257.512 151.095 256.354 151.095Z" fill="#FFD948"/>
<path d="M191.658 148.094H186.889C186.499 148.095 186.126 148.251 185.851 148.527C185.576 148.802 185.422 149.176 185.422 149.565V157.633C185.422 158.022 185.576 158.395 185.851 158.67C186.127 158.945 186.5 159.1 186.889 159.1H199.361C199.75 159.1 200.123 158.945 200.398 158.67C200.673 158.395 200.828 158.022 200.828 157.633V151.204C200.827 150.815 200.672 150.443 200.397 150.168C200.122 149.893 199.75 149.738 199.361 149.737H193.125L191.658 148.086V148.094Z" fill="#FFD948"/>
<path opacity="0.7" d="M344.581 206.695H334.346C333.189 206.695 332.251 207.633 332.251 208.791V209.587C332.251 210.744 333.189 211.682 334.346 211.682H344.581C345.738 211.682 346.676 210.744 346.676 209.587V208.791C346.676 207.633 345.738 206.695 344.581 206.695Z" fill="#3F3D56"/>
<path opacity="0.3" d="M352.594 219.164H334.346C333.189 219.164 332.251 220.102 332.251 221.26V222.056C332.251 223.213 333.189 224.151 334.346 224.151H352.594C353.751 224.151 354.689 223.213 354.689 222.056V221.26C354.689 220.102 353.751 219.164 352.594 219.164Z" fill="#FFD948"/>
<path opacity="0.3" d="M375.036 212.932H334.346C333.189 212.932 332.251 213.87 332.251 215.027V215.823C332.251 216.981 333.189 217.919 334.346 217.919H375.036C376.193 217.919 377.131 216.981 377.131 215.823V215.027C377.131 213.87 376.193 212.932 375.036 212.932Z" fill="#FFD948"/>
<path d="M319.737 213.434L316.9 213.3L316.732 211.452C316.723 211.358 316.695 211.267 316.65 211.184C316.605 211.101 316.544 211.028 316.471 210.969C316.398 210.91 316.313 210.866 316.223 210.839C316.132 210.813 316.038 210.804 315.944 210.815L305.773 211.653C305.679 211.657 305.588 211.68 305.503 211.721C305.419 211.761 305.343 211.818 305.281 211.887C305.219 211.957 305.172 212.039 305.141 212.128C305.111 212.216 305.1 212.31 305.106 212.403L305.831 220.513C305.853 220.7 305.949 220.871 306.096 220.988C306.244 221.105 306.432 221.158 306.619 221.137L307.135 221.099L307.055 222.675C307.052 222.779 307.069 222.882 307.106 222.979C307.143 223.076 307.198 223.165 307.27 223.24C307.341 223.315 307.427 223.375 307.521 223.417C307.616 223.459 307.718 223.482 307.822 223.484L319.175 224.02C319.383 224.034 319.588 223.965 319.745 223.829C319.902 223.692 319.998 223.499 320.013 223.291L320.491 214.239C320.495 214.137 320.478 214.035 320.442 213.939C320.405 213.843 320.351 213.755 320.281 213.68C320.211 213.606 320.127 213.545 320.033 213.503C319.94 213.461 319.839 213.437 319.737 213.434ZM307.533 213.619L307.29 218.254L306.686 219.092L306.133 212.969V212.931C306.144 212.849 306.182 212.772 306.241 212.714C306.3 212.655 306.377 212.618 306.46 212.609L315.437 211.875C315.52 211.867 315.603 211.89 315.67 211.94C315.738 211.989 315.784 212.062 315.802 212.143L315.89 213.2L308.346 212.839C308.241 212.837 308.137 212.855 308.04 212.893C307.942 212.931 307.853 212.988 307.778 213.06C307.702 213.133 307.642 213.219 307.6 213.315C307.558 213.411 307.535 213.514 307.533 213.619ZM319.016 221.766L316.082 218.342L314.796 219.524L312.419 216.745L308.199 221.238L308.56 214.394C308.58 214.3 308.633 214.217 308.711 214.16C308.788 214.103 308.883 214.076 308.979 214.084L318.995 214.57C319.087 214.572 319.176 214.609 319.242 214.674C319.308 214.738 319.347 214.826 319.351 214.918L319.016 221.766Z" fill="#FFD948"/>
<path d="M317.206 217.42C317.425 217.421 317.638 217.357 317.82 217.237C318.002 217.116 318.144 216.944 318.228 216.743C318.312 216.541 318.334 216.32 318.292 216.106C318.25 215.891 318.145 215.695 317.991 215.54C317.837 215.386 317.641 215.28 317.427 215.237C317.213 215.194 316.991 215.216 316.79 215.299C316.588 215.383 316.416 215.524 316.294 215.705C316.173 215.887 316.108 216.1 316.108 216.318C316.109 216.609 316.225 216.888 316.431 217.095C316.637 217.301 316.915 217.418 317.206 217.42Z" fill="#FFD948"/>
<path opacity="0.7" d="M345.578 144.863H335.344C334.186 144.863 333.248 145.801 333.248 146.959V147.755C333.248 148.912 334.186 149.85 335.344 149.85H345.578C346.735 149.85 347.673 148.912 347.673 147.755V146.959C347.673 145.801 346.735 144.863 345.578 144.863Z" fill="#3F3D56"/>
<path opacity="0.3" d="M353.591 157.331H335.344C334.186 157.331 333.248 158.269 333.248 159.427V160.223C333.248 161.38 334.186 162.318 335.344 162.318H353.591C354.748 162.318 355.686 161.38 355.686 160.223V159.427C355.686 158.269 354.748 157.331 353.591 157.331Z" fill="#FFD948"/>
<path opacity="0.3" d="M376.033 151.095H335.344C334.186 151.095 333.248 152.033 333.248 153.19V153.986C333.248 155.144 334.186 156.082 335.344 156.082H376.033C377.19 156.082 378.129 155.144 378.129 153.986V153.19C378.129 152.033 377.19 151.095 376.033 151.095Z" fill="#FFD948"/>
<path d="M319.582 151.66C320.797 151.66 321.782 150.675 321.782 149.46C321.782 148.245 320.797 147.26 319.582 147.26C318.367 147.26 317.382 148.245 317.382 149.46C317.382 150.675 318.367 151.66 319.582 151.66Z" fill="#FFD948"/>
<path d="M317.893 152.055L313.526 154.963L307.474 150.932V149.461L313.526 153.496L317.005 151.179C316.677 150.683 316.498 150.103 316.491 149.509C316.483 148.914 316.647 148.33 316.963 147.826H307.294C306.904 147.827 306.531 147.983 306.255 148.258C305.98 148.534 305.824 148.907 305.823 149.297V158.467C305.824 158.857 305.98 159.23 306.255 159.506C306.531 159.781 306.904 159.937 307.294 159.938H319.766C320.156 159.937 320.529 159.781 320.804 159.506C321.079 159.23 321.233 158.856 321.233 158.467V152.097C320.731 152.416 320.148 152.583 319.553 152.579C318.958 152.574 318.378 152.398 317.88 152.072L317.893 152.055Z" fill="#FFD948"/>
<path d="M213.586 314.75C219.623 314.75 224.516 313.81 224.516 312.65C224.516 311.491 219.623 310.551 213.586 310.551C207.55 310.551 202.656 311.491 202.656 312.65C202.656 313.81 207.55 314.75 213.586 314.75Z" fill="#FFD948"/>
<path d="M213.405 313.421C214.109 313.421 214.679 312.676 214.679 311.758C214.679 310.839 214.109 310.094 213.405 310.094C212.701 310.094 212.131 310.839 212.131 311.758C212.131 312.676 212.701 313.421 213.405 313.421Z" fill="#3F3D56"/>
<path d="M213.405 311.385C214.109 311.385 214.679 310.64 214.679 309.721C214.679 308.802 214.109 308.057 213.405 308.057C212.701 308.057 212.131 308.802 212.131 309.721C212.131 310.64 212.701 311.385 213.405 311.385Z" fill="#3F3D56"/>
<path d="M213.405 309.348C214.109 309.348 214.679 308.603 214.679 307.684C214.679 306.765 214.109 306.02 213.405 306.02C212.701 306.02 212.131 306.765 212.131 307.684C212.131 308.603 212.701 309.348 213.405 309.348Z" fill="#3F3D56"/>
<path d="M213.405 307.311C214.109 307.311 214.679 306.566 214.679 305.647C214.679 304.728 214.109 303.983 213.405 303.983C212.701 303.983 212.131 304.728 212.131 305.647C212.131 306.566 212.701 307.311 213.405 307.311Z" fill="#3F3D56"/>
<path d="M213.405 305.278C214.109 305.278 214.679 304.533 214.679 303.614C214.679 302.696 214.109 301.951 213.405 301.951C212.701 301.951 212.131 302.696 212.131 303.614C212.131 304.533 212.701 305.278 213.405 305.278Z" fill="#3F3D56"/>
<path d="M213.405 303.242C214.109 303.242 214.679 302.497 214.679 301.578C214.679 300.659 214.109 299.914 213.405 299.914C212.701 299.914 212.131 300.659 212.131 301.578C212.131 302.497 212.701 303.242 213.405 303.242Z" fill="#3F3D56"/>
<path d="M213.405 301.205C214.109 301.205 214.679 300.46 214.679 299.541C214.679 298.622 214.109 297.877 213.405 297.877C212.701 297.877 212.131 298.622 212.131 299.541C212.131 300.46 212.701 301.205 213.405 301.205Z" fill="#3F3D56"/>
<path d="M218.166 285.611C218.341 285.389 218.5 285.155 218.64 284.911L215.287 284.362L218.9 284.391C219.246 283.636 219.435 282.819 219.455 281.989C219.475 281.159 219.326 280.334 219.017 279.563L214.168 282.078L218.64 278.788C218.222 278.061 217.658 277.429 216.985 276.93C216.311 276.431 215.542 276.077 214.725 275.889C213.909 275.701 213.062 275.683 212.238 275.837C211.414 275.991 210.631 276.314 209.937 276.784C209.244 277.255 208.655 277.863 208.207 278.572C207.759 279.28 207.463 280.073 207.335 280.902C207.208 281.73 207.253 282.576 207.467 283.386C207.682 284.196 208.061 284.954 208.582 285.611C208.312 285.956 208.079 286.328 207.886 286.721L212.228 288.976L207.618 287.425C207.292 288.385 207.211 289.411 207.383 290.41C207.554 291.409 207.972 292.349 208.598 293.146C207.892 294.045 207.452 295.124 207.33 296.261C207.208 297.398 207.408 298.547 207.908 299.575C208.407 300.604 209.186 301.471 210.156 302.077C211.125 302.684 212.245 303.006 213.389 303.006C214.532 303.006 215.652 302.684 216.622 302.077C217.591 301.471 218.37 300.604 218.87 299.575C219.369 298.547 219.569 297.398 219.447 296.261C219.325 295.124 218.886 294.045 218.179 293.146C219.025 292.071 219.485 290.742 219.485 289.374C219.485 288.006 219.025 286.677 218.179 285.602L218.166 285.611Z" fill="#FFD948"/>
<path opacity="0.1" d="M207.282 289.378C207.278 290.747 207.738 292.076 208.586 293.15C207.879 294.049 207.439 295.128 207.317 296.265C207.195 297.402 207.395 298.551 207.895 299.579C208.395 300.608 209.174 301.475 210.143 302.082C211.112 302.688 212.232 303.01 213.376 303.01C214.519 303.01 215.64 302.688 216.609 302.082C217.578 301.475 218.357 300.608 218.857 299.579C219.357 298.551 219.557 297.402 219.435 296.265C219.312 295.128 218.873 294.049 218.166 293.15C218.983 292.111 207.282 288.695 207.282 289.378Z" fill="black"/>
<path d="M315.157 163.542C314.977 163.18 314.837 162.801 314.737 162.41C314.696 161.962 314.872 161.371 314.473 161.153C314.251 161.031 313.941 161.123 313.744 160.964C313.623 160.823 313.548 160.647 313.53 160.461C313.433 160.11 313.226 159.798 312.94 159.572C312.653 159.346 312.302 159.217 311.938 159.204C312.357 158.068 313.899 157.792 314.578 156.79C314.918 156.291 314.809 155.373 314.209 155.369C314.064 155.375 313.921 155.41 313.79 155.474L311.557 156.396C311.126 156.565 310.706 156.759 310.299 156.979C309.071 157.678 308.154 158.814 307.328 159.967C306.547 160.985 305.924 162.115 305.48 163.319C305.23 164.061 305.097 164.837 305.086 165.62C305.086 165.7 305.086 165.779 305.086 165.855C304.721 165.918 304.424 166.077 304.042 166.152L303.175 168.445C303.06 168.828 302.867 169.183 302.609 169.488C302.417 169.664 302.213 169.825 301.997 169.97C301.557 170.346 301.215 170.824 301.003 171.363C300.79 171.901 300.713 172.484 300.778 173.059C299.993 173.367 299.355 173.962 298.992 174.723C298.629 175.484 298.57 176.354 298.825 177.158C298.174 177.299 297.57 177.604 297.07 178.044C296.571 178.484 296.192 179.045 295.971 179.672C295.911 179.961 295.783 180.231 295.598 180.46C295.314 180.678 294.961 180.787 294.604 180.766C293.624 180.829 292.769 181.604 291.884 181.185C290.877 180.713 289.751 180.556 288.653 180.733C288.427 180.787 288.194 180.808 287.962 180.796C287.764 180.761 287.573 180.694 287.396 180.599C286.998 180.363 286.565 180.192 286.114 180.091C285.887 180.043 285.652 180.062 285.436 180.145C285.22 180.228 285.033 180.373 284.898 180.561C284.588 180.221 284.404 179.781 284.123 179.417C283.997 179.223 283.82 179.067 283.611 178.968C283.403 178.868 283.171 178.827 282.941 178.851C283.234 178.587 282.941 178.059 282.551 177.967C282.158 177.933 281.763 177.947 281.374 178.009C280.351 178.009 279.563 177.07 278.57 176.823C277.656 176.6 276.437 176.869 275.967 176.047C275.821 175.783 275.779 175.44 275.548 175.243C275.496 175.02 275.394 174.813 275.251 174.635C274.874 174.216 274.241 174.149 273.675 174.165C273.053 174.183 272.436 174.289 271.844 174.48C271.844 174.409 271.806 174.329 271.781 174.245C271.422 173.201 270.703 172.318 269.752 171.756C269.015 171.321 268.215 171.001 267.38 170.809C267.38 170.733 267.38 170.662 267.38 170.586C267.367 169.529 267.531 168.476 267.866 167.473C267.9 167.364 267.942 167.255 267.979 167.146C269.883 166.648 271.62 165.657 273.016 164.271C274.412 162.885 275.416 161.154 275.927 159.255C276.438 157.355 276.437 155.354 275.924 153.455C275.412 151.556 274.406 149.826 273.009 148.442C273.006 148.215 272.976 147.99 272.921 147.771C272.798 147.29 272.569 146.843 272.25 146.464C271.739 145.324 270.942 144.821 269.924 144.343C269.631 144.205 269.321 144.071 268.994 143.924C267.372 143.195 265.804 142.122 263.965 142.126C262.288 142.126 260.671 143.052 259.011 143.019H258.885H258.764H258.613C258.148 142.964 257.59 142.855 257.284 143.211C257.186 143.352 257.107 143.506 257.05 143.668C257.026 143.722 256.998 143.774 256.966 143.823C256.904 143.926 256.833 144.023 256.752 144.112C256.216 144.699 255.315 144.951 254.573 145.345C252.896 146.204 251.798 147.956 251.363 149.791C250.927 151.627 251.078 153.563 251.404 155.424C251.572 156.354 251.932 157.41 252.595 157.997C252.595 157.997 246.991 161.983 248.014 162.548C248.571 162.858 250.893 161.387 252.892 159.983C252.913 160.067 252.93 160.155 252.955 160.239C253.193 161.134 253.499 162.009 253.869 162.858C254.288 163.86 254.891 164.954 255.935 165.243C256.165 165.307 256.404 165.334 256.643 165.323H256.827C256.879 166.856 256.717 168.389 256.345 169.878C255.738 169.843 255.135 170.01 254.631 170.352C254.44 170.54 254.199 170.668 253.936 170.721C253.664 170.688 253.411 170.563 253.219 170.369C252.467 169.827 251.553 169.558 250.628 169.607C249.703 169.655 248.822 170.019 248.131 170.637C246.103 172.552 246.333 176.29 243.94 177.74C243.287 178.138 242.448 178.352 242.063 179.019C241.97 179.231 241.863 179.437 241.74 179.635C241.582 179.813 241.388 179.956 241.17 180.054C240.48 180.363 239.822 180.742 239.209 181.185C238.902 181.41 238.644 181.694 238.451 182.021C238.257 182.348 238.131 182.711 238.082 183.088C238.073 183.639 238.19 184.186 238.425 184.685C238.782 185.562 239.22 186.403 239.733 187.199C239.454 187.56 239.273 187.985 239.205 188.436C239.037 189.613 239.599 190.774 239.661 191.964C239.716 193.004 239.385 194.018 239.201 195.04C238.463 199.039 239.875 203.087 241.296 206.884C241.57 207.501 241.74 208.16 241.799 208.833C241.837 210.09 241.128 211.209 240.931 212.433C240.512 215.006 242.411 217.428 242.453 220.031C242.453 221.234 242.092 222.453 242.394 223.614C242.591 224.389 243.073 225.056 243.417 225.781C244.02 227.063 244.183 228.517 244.762 229.812C245.453 231.222 246.477 232.441 247.746 233.366C248.471 235.667 247.44 238.446 247.746 240.91C248.14 240.753 248.538 240.614 248.94 240.491C248.69 244.153 249.615 247.8 251.58 250.901C252.23 251.915 252.993 252.862 253.483 253.965C253.802 254.75 254.05 255.562 254.225 256.391C254.926 259.316 255.625 262.239 256.32 265.159C256.89 267.526 257.464 269.936 257.293 272.367C257.175 274.043 256.748 275.958 257.787 277.3C258.037 277.554 258.248 277.845 258.412 278.163C258.512 278.536 258.512 278.93 258.412 279.303C257.903 282.129 257.556 284.982 257.372 287.848C257.138 288.162 256.903 288.481 256.689 288.795C254.967 291.31 254.137 294.331 253.466 297.311C252.23 303.166 251.507 309.117 251.304 315.097C250.441 315.88 249.699 316.785 249.099 317.784C248.198 319.46 248.081 321.43 247.985 323.333C247.946 323.641 247.981 323.954 248.085 324.246C248.315 324.575 248.644 324.822 249.024 324.95L249.544 325.197C249.431 325.617 249.33 326.036 249.242 326.476C248.58 325.73 247.402 324.548 247.201 325.411C246.539 328.3 246.179 331.249 246.128 334.212C246.105 334.326 246.108 334.443 246.138 334.555C246.169 334.667 246.225 334.771 246.302 334.857C246.38 334.944 246.476 335.011 246.584 335.053C246.692 335.095 246.809 335.111 246.924 335.101C249.803 335.61 252.722 335.86 255.646 335.847C258.013 335.847 260.377 335.654 262.737 335.474L265.155 335.289C267.642 335.156 270.116 334.849 272.56 334.371C273.629 334.137 274.731 333.806 275.536 333.055C276.34 332.305 276.734 331.023 276.181 330.071C275.506 328.923 273.931 328.839 272.615 328.655C271.31 328.472 270.046 328.07 268.876 327.465C268.612 327.331 268.357 327.18 268.101 327.046C268.168 327.046 268.239 327.012 268.302 326.987C269.434 326.606 270.335 325.73 271.399 325.206C272.657 324.598 274.044 324.46 275.41 324.288C276.776 324.116 278.184 323.869 279.32 323.089C280.385 322.36 281.139 321.032 280.892 319.783C280.875 319.695 280.852 319.608 280.825 319.523C280.406 318.169 278.939 317.428 277.572 317.092C276.206 316.757 274.723 316.556 273.616 315.676L273.453 315.546C273.361 315.466 273.264 315.391 273.164 315.311C273.408 314.899 273.52 314.423 273.486 313.945C273.428 313.195 272.992 312.533 272.694 311.849C272.112 310.487 272.066 308.966 271.906 307.495C271.512 303.794 270.377 300.224 269.522 296.599C269.425 296.18 269.333 295.761 269.241 295.341C270.075 293.609 271.097 291.973 272.288 290.463C273.65 288.761 274.649 286.797 275.221 284.692C275.397 284.047 275.527 283.393 275.661 282.735C277.176 275.166 278.606 267.585 279.953 259.991C280.176 258.909 280.303 257.81 280.334 256.705C280.687 255.704 280.878 254.653 280.9 253.592C281.294 252.054 281.692 250.44 281.369 249.434C281.143 248.722 281.03 246.287 280.904 243.952C280.94 242.701 280.864 241.448 280.678 240.21C280.64 239.996 280.598 239.791 280.552 239.577C280.527 239.451 280.502 239.347 280.477 239.263C280.3 238.561 280.053 237.878 279.739 237.226C279.579 236.836 279.394 236.457 279.186 236.09C279.061 235.874 278.921 235.666 278.767 235.47C279.639 235.507 280.509 235.588 281.374 235.713C281.583 235.743 281.843 235.759 281.973 235.587C282.027 235.489 282.053 235.377 282.048 235.265C282.089 234.276 281.854 233.295 281.369 232.432C281.034 231.837 280.569 231.258 280.582 230.575C280.604 230.257 280.682 229.945 280.812 229.653L281.973 226.535C282.958 223.899 282.488 220.844 283 218.078C283.398 215.916 283.653 213.731 283.762 211.536C283.859 209.662 283.8 207.63 282.673 206.13C282.347 205.767 282.066 205.368 281.835 204.939C281.671 204.485 281.602 204.001 281.633 203.519C281.614 200.582 281.673 197.649 281.809 194.718C286.745 194.579 291.659 194.018 296.499 193.041C297.07 192.944 297.632 192.792 298.175 192.589C298.773 192.302 299.336 191.946 299.851 191.528C301.498 190.338 303.171 189.127 304.424 187.526C305.912 185.584 306.848 183.276 307.131 180.846C308.321 179.744 308.954 178.176 309.549 176.655C309.843 176.012 310.03 175.326 310.102 174.622C310.132 173.901 309.658 173.147 309.792 172.439C310.021 171.219 310.637 170.105 311.548 169.262C311.742 169.124 311.889 168.929 311.967 168.705C311.994 168.517 311.96 168.327 311.871 168.16L311.833 168.097C311.951 168.026 312.059 167.95 312.173 167.875C312.562 167.598 312.935 167.292 313.3 166.995C313.858 166.575 314.35 166.075 314.763 165.511C314.966 165.231 315.107 164.909 315.175 164.569C315.243 164.229 315.236 163.879 315.157 163.542ZM261.383 324.175C261.282 324.175 261.182 324.175 261.085 324.2C260.718 324.252 260.36 324.355 260.021 324.506L259.941 324.548C260.402 323.55 260.838 322.536 261.232 321.505C261.278 321.384 261.32 321.262 261.366 321.136L261.316 321.824C261.229 322.607 261.251 323.398 261.383 324.175Z" fill="url(#paint0_linear)"/>
<path d="M267.38 171.45C267.422 173.076 267.975 174.652 268.059 176.278C263.268 176.516 258.537 174.182 253.81 174.903C255.138 174.044 255.846 172.497 256.265 170.976C256.796 169.01 256.954 166.961 256.731 164.937C256.718 164.826 256.698 164.715 256.672 164.606C256.496 163.81 256.039 162.682 256.161 162.058C256.324 161.22 257.104 161.391 257.808 161.438C259.952 161.608 262.087 161.887 264.203 162.276C264.756 162.372 270.125 163.713 270.209 163.575C269.265 165.084 268.485 166.69 267.883 168.365C267.543 169.358 267.373 170.401 267.38 171.45Z" fill="#EE8E9E"/>
<path d="M314.758 166.421C314.347 166.983 313.854 167.481 313.295 167.897C312.931 168.194 312.558 168.5 312.168 168.772C311.473 169.31 310.644 169.648 309.771 169.749C308.631 169.824 306.204 169.154 305.496 168.177C305.193 167.686 305.047 167.115 305.077 166.539C305.089 165.76 305.222 164.988 305.471 164.25C305.915 163.046 306.538 161.916 307.319 160.898C308.157 159.749 309.063 158.622 310.291 157.926C310.698 157.707 311.117 157.513 311.548 157.344L313.782 156.43C313.912 156.365 314.055 156.328 314.201 156.321C314.8 156.321 314.909 157.243 314.57 157.738C313.891 158.735 312.361 158.995 311.929 160.139C312.291 160.151 312.64 160.276 312.927 160.498C313.213 160.721 313.421 161.028 313.522 161.376C313.539 161.56 313.614 161.735 313.736 161.874C313.932 162.029 314.243 161.941 314.465 162.063C314.863 162.272 314.687 162.863 314.729 163.32C314.828 163.708 314.969 164.085 315.148 164.443C315.231 164.781 315.24 165.134 315.172 165.476C315.105 165.817 314.964 166.14 314.758 166.421Z" fill="#EE8E9E"/>
<path d="M248.688 329.594C249.057 329.225 249.661 329.288 250.176 329.368C252.942 329.804 255.737 330.03 258.537 330.043C258.889 328.333 257.871 326.69 257.544 324.955C257.497 324.51 257.384 324.075 257.209 323.664C256.815 322.91 255.926 322.562 255.092 322.407C253.588 322.088 251.232 321.531 250.39 323.052C249.38 324.858 249.057 327.557 248.688 329.594Z" fill="#65617D"/>
<path d="M279.32 323.128C278.185 323.903 276.777 324.142 275.41 324.318C274.044 324.494 272.64 324.628 271.4 325.236C270.335 325.764 269.434 326.627 268.303 327.004C267.253 327.293 266.147 327.311 265.088 327.055C263.831 326.816 262.465 326.355 261.782 325.257C261.17 324.284 261.232 323.048 261.316 321.904C261.417 320.609 261.513 319.306 261.605 318.006C261.601 317.677 261.685 317.353 261.849 317.068C262.766 315.726 265 317.625 266.195 317.625C268.089 317.625 270.121 316.594 271.483 315.341C271.606 315.216 271.747 315.111 271.903 315.031C272.443 314.788 272.984 315.236 273.462 315.626L273.625 315.756C274.731 316.632 276.215 316.812 277.581 317.168C278.947 317.524 280.41 318.237 280.833 319.586C280.862 319.67 280.884 319.755 280.9 319.842C281.139 321.078 280.372 322.398 279.32 323.128Z" fill="#3F3D56"/>
<path d="M279.32 323.128C278.185 323.903 276.777 324.142 275.41 324.318C274.044 324.494 272.64 324.628 271.4 325.236C270.335 325.764 269.434 326.627 268.303 327.004C267.253 327.293 266.147 327.311 265.088 327.055C263.831 326.816 262.465 326.355 261.782 325.257C261.17 324.284 261.232 323.048 261.316 321.904C261.417 320.609 261.513 319.306 261.605 318.006C261.601 317.677 261.685 317.353 261.849 317.068C262.766 315.726 265 317.625 266.195 317.625C268.089 317.625 270.121 316.594 271.483 315.341C271.606 315.216 271.747 315.111 271.903 315.031C272.443 314.788 272.984 315.236 273.462 315.626L273.625 315.756C274.731 316.632 276.215 316.812 277.581 317.168C278.947 317.524 280.41 318.237 280.833 319.586C280.862 319.67 280.884 319.755 280.9 319.842C281.139 321.078 280.372 322.398 279.32 323.128Z" fill="#434175"/>
<path d="M279.32 323.564C278.185 324.339 276.777 324.582 275.41 324.758C274.044 324.934 272.64 325.064 271.4 325.672C270.335 326.2 269.434 327.063 268.303 327.44C267.253 327.729 266.147 327.747 265.088 327.49C263.736 327.207 262.549 326.405 261.782 325.257C261.17 324.284 261.232 323.048 261.316 321.904C261.417 320.609 261.513 319.306 261.605 318.006C261.601 317.677 261.685 317.353 261.849 317.068C262.766 315.726 265 317.625 266.195 317.625C268.089 317.625 270.121 316.594 271.483 315.341C271.606 315.216 271.747 315.111 271.903 315.031C272.443 314.788 272.984 315.236 273.462 315.626C273.148 316.599 272.701 317.525 272.133 318.375C271.674 319.095 271.059 319.703 270.334 320.154C269.608 320.606 268.791 320.888 267.942 320.982C267.104 321.045 266.228 320.877 265.428 321.095C264.627 321.313 263.848 322.151 264.137 322.947C264.426 323.744 265.419 323.89 266.232 323.937C267.384 324.069 268.551 323.986 269.673 323.693C270.344 323.471 270.96 323.103 271.609 322.83C274.384 321.682 277.896 322.323 280.184 320.378C280.402 320.181 280.636 320.002 280.884 319.842C281.491 321.095 280.372 322.855 279.32 323.564Z" fill="#E8EAF2"/>
<path opacity="0.05" d="M279.32 323.564C278.185 324.339 276.777 324.582 275.41 324.758C274.044 324.934 272.64 325.064 271.4 325.672C270.335 326.2 269.434 327.063 268.303 327.44C267.253 327.729 266.147 327.747 265.088 327.49C263.736 327.207 262.549 326.405 261.782 325.257C261.17 324.284 261.232 323.048 261.316 321.904C261.417 320.609 261.513 319.306 261.605 318.006C261.601 317.677 261.685 317.353 261.849 317.068C262.766 315.726 265 317.625 266.195 317.625C268.089 317.625 270.121 316.594 271.483 315.341C271.606 315.216 271.747 315.111 271.903 315.031C272.443 314.788 272.984 315.236 273.462 315.626C273.148 316.599 272.701 317.525 272.133 318.375C271.674 319.095 271.059 319.703 270.334 320.154C269.608 320.606 268.791 320.888 267.942 320.982C267.104 321.045 266.228 320.877 265.428 321.095C264.627 321.313 263.848 322.151 264.137 322.947C264.426 323.744 265.419 323.89 266.232 323.937C267.384 324.069 268.551 323.986 269.673 323.693C270.344 323.471 270.96 323.103 271.609 322.83C274.384 321.682 277.896 322.323 280.184 320.378C280.402 320.181 280.636 320.002 280.884 319.842C281.491 321.095 280.372 322.855 279.32 323.564Z" fill="black"/>
<path d="M249.208 238.647C248.33 242.983 249.169 247.49 251.546 251.22C252.196 252.226 252.959 253.173 253.449 254.267C253.768 255.049 254.016 255.858 254.191 256.685L256.286 265.402C256.856 267.757 257.43 270.154 257.258 272.573C257.141 274.249 256.714 276.147 257.753 277.48C258.003 277.733 258.214 278.023 258.377 278.339C258.478 278.71 258.478 279.1 258.377 279.471C257.313 285.803 256.521 292.421 258.444 298.544C260.192 304.097 260.293 310.249 261.776 315.873C261.896 316.587 262.214 317.254 262.694 317.797C263.092 318.129 263.568 318.354 264.077 318.45C266.265 318.974 268.574 318.362 270.611 317.419C272.044 316.753 273.586 315.588 273.465 314.016C273.406 313.266 272.97 312.608 272.673 311.921C272.09 310.567 272.044 309.059 271.885 307.592C271.491 303.912 270.355 300.358 269.5 296.762C268.645 293.167 268.058 289.399 268.783 285.77C270.268 278.264 272.641 270.963 275.853 264.019C275.994 263.65 276.216 263.318 276.503 263.047C276.825 262.863 277.132 262.654 277.421 262.422C277.643 262.078 277.786 261.688 277.84 261.282C278.158 260.134 279.097 259.283 279.738 258.277C281.344 255.729 280.836 252.465 280.778 249.455C280.719 246.522 281.138 243.588 280.66 240.688C280.183 237.788 278.548 234.846 275.761 233.957C274.382 233.509 272.89 233.614 271.449 233.756C263.809 234.511 256.383 235.898 249.208 238.647Z" fill="#696791"/>
<path opacity="0.1" d="M249.208 239.066C248.33 243.402 249.169 247.909 251.546 251.639C252.196 252.645 252.959 253.592 253.449 254.686C253.768 255.468 254.016 256.277 254.191 257.104L256.286 265.821C256.856 268.176 257.43 270.573 257.258 272.991C257.141 274.668 256.714 276.566 257.753 277.899C258.003 278.152 258.214 278.442 258.377 278.758C258.478 279.129 258.478 279.519 258.377 279.89C257.313 286.222 256.521 292.84 258.444 298.963C260.192 304.515 260.293 310.668 261.776 316.292C261.896 317.006 262.214 317.673 262.694 318.216C263.092 318.548 263.568 318.773 264.077 318.869C266.265 319.393 268.574 318.781 270.611 317.838C272.044 317.172 273.586 316.007 273.465 314.435C273.406 313.685 272.97 313.027 272.673 312.34C272.09 310.986 272.044 309.478 271.885 308.011C271.491 304.331 270.355 300.777 269.5 297.181C268.645 293.586 268.058 289.818 268.783 286.189C270.268 278.683 272.641 271.381 275.853 264.438C275.994 264.069 276.216 263.737 276.503 263.466C276.825 263.282 277.132 263.073 277.421 262.841C277.643 262.496 277.786 262.107 277.84 261.701C278.158 260.553 279.097 259.702 279.738 258.696C281.344 256.148 280.836 252.883 280.778 249.874C280.719 246.941 281.138 244.007 280.66 241.107C280.183 238.207 278.548 235.265 275.761 234.376C274.382 233.928 272.89 234.033 271.449 234.175C263.809 234.93 256.383 236.317 249.208 239.066Z" fill="black"/>
<path d="M280.338 256.999C280.316 258.136 280.188 259.268 279.957 260.381C278.608 267.925 277.171 275.468 275.649 283.012C275.515 283.666 275.385 284.32 275.209 284.961C274.635 287.056 273.636 289.01 272.275 290.702C265.926 298.619 265.377 310.115 261.932 319.662C261.697 320.307 261.467 320.957 261.219 321.594C260.596 323.21 259.887 324.793 259.095 326.334C259.008 326.556 258.863 326.751 258.676 326.899C258.462 327.009 258.223 327.057 257.984 327.038C254.884 327.053 251.821 326.356 249.032 325.001C248.635 324.852 248.299 324.573 248.081 324.209C247.976 323.918 247.941 323.606 247.98 323.299C248.077 321.409 248.194 319.448 249.095 317.784C249.695 316.789 250.437 315.888 251.3 315.11C251.5 309.16 252.224 303.239 253.462 297.416C254.133 294.449 254.962 291.453 256.685 288.946C257.942 287.094 259.778 285.267 259.551 283.033C259.455 282.052 259.044 280.833 259.841 280.259C260.189 280.003 260.704 279.969 260.943 279.609C261.037 279.439 261.09 279.25 261.098 279.056C261.261 277.524 261.165 275.975 260.813 274.475C260.523 273.494 260.295 272.496 260.13 271.487C260.053 270.981 260.079 270.464 260.208 269.968C260.337 269.472 260.566 269.008 260.88 268.604C260.922 266.563 260.88 264.446 260.909 262.41C260.99 261.249 260.893 260.083 260.62 258.952C260.469 258.42 260.23 257.909 260.113 257.364C259.694 255.407 260.75 253.06 259.484 251.496C258.956 250.851 258.143 250.528 257.452 250.063C256.095 249.08 255.112 247.666 254.661 246.052C254.21 244.448 253.943 242.797 253.864 241.132C253.825 240.78 253.825 240.424 253.864 240.072C253.885 239.888 253.933 239.709 254.007 239.54C254.401 238.656 255.457 238.312 256.4 238.086C262.386 236.651 268.521 235.933 274.676 235.948C276.956 234.398 278.235 234.955 279.203 236.594C279.734 237.598 280.165 238.652 280.489 239.741C280.908 241.074 280.959 248.542 281.386 249.87C281.931 251.61 280.317 255.172 280.338 256.999Z" fill="#696791"/>
<path d="M239.166 189.131C238.999 190.305 239.56 191.457 239.623 192.643C239.678 193.678 239.347 194.688 239.162 195.707C238.425 199.68 239.837 203.707 241.258 207.487C241.532 208.1 241.702 208.755 241.761 209.424C241.798 210.656 241.09 211.787 240.893 213.007C240.474 215.568 242.372 217.973 242.414 220.551C242.414 221.745 242.054 222.96 242.356 224.113C242.553 224.884 243.035 225.55 243.374 226.267C243.982 227.524 244.145 228.991 244.724 230.278C245.767 232.604 248.009 234.125 250.147 235.52C251.358 235.101 252.661 234.636 253.34 233.542C253.633 233.004 253.822 232.416 253.897 231.807C254.358 229.154 254.342 226.447 254.317 223.757C254.362 221.441 254.246 219.125 253.969 216.825C253.55 213.891 252.59 211.083 251.907 208.204C251.069 204.579 250.612 200.832 249.275 197.35C248.097 194.295 246.27 191.549 244.342 188.918C243.609 187.916 243.026 186.483 241.601 186.713C240.996 186.817 240.438 187.105 240.002 187.538C239.566 187.971 239.275 188.527 239.166 189.131Z" fill="#434175"/>
<path opacity="0.05" d="M239.166 188.293C238.999 189.467 239.56 190.619 239.623 191.805C239.678 192.841 239.347 193.851 239.162 194.869C238.425 198.842 239.837 202.869 241.258 206.65C241.532 207.263 241.702 207.917 241.761 208.586C241.798 209.818 241.09 210.949 240.893 212.169C240.474 214.73 242.372 217.135 242.414 219.713C242.414 220.907 242.054 222.122 242.356 223.275C242.553 224.046 243.035 224.712 243.374 225.429C243.982 226.686 244.145 228.153 244.724 229.44C245.767 231.766 248.009 233.287 250.147 234.683C251.358 234.263 252.661 233.798 253.34 232.704C253.633 232.166 253.822 231.578 253.897 230.969C254.358 228.317 254.342 225.609 254.317 222.919C254.362 220.603 254.246 218.287 253.969 215.987C253.55 213.053 252.59 210.245 251.907 207.366C251.069 203.741 250.612 199.994 249.275 196.512C248.097 193.457 246.27 190.712 244.342 188.08C243.609 187.078 243.026 185.645 241.601 185.875C240.996 185.979 240.438 186.267 240.002 186.7C239.566 187.133 239.275 187.689 239.166 188.293Z" fill="black"/>
<path opacity="0.1" d="M270.171 163.562C269.227 165.072 268.448 166.678 267.845 168.353C266.981 168.565 266.094 168.672 265.205 168.671C261.747 168.671 259.304 166.706 257.271 164.22C257.095 163.424 256.014 162.682 256.123 162.058C256.286 161.22 257.066 161.391 257.77 161.438C259.915 161.608 262.049 161.887 264.165 162.276C264.718 162.343 270.087 163.701 270.171 163.562Z" fill="black"/>
<path d="M265.205 168.37C271.318 168.37 276.273 163.414 276.273 157.302C276.273 151.189 271.318 146.233 265.205 146.233C259.092 146.233 254.137 151.189 254.137 157.302C254.137 163.414 259.092 168.37 265.205 168.37Z" fill="#EE8E9E"/>
<path opacity="0.1" d="M279.19 236.602C277.275 236.489 275.343 236.569 273.423 236.644C272.22 236.658 271.021 236.781 269.84 237.013C268.386 237.344 267.028 238.006 265.595 238.421C263.298 239.087 260.876 239.117 258.499 239.351C256.937 239.502 255.385 239.746 253.852 240.081C253.872 239.897 253.92 239.718 253.994 239.548C254.388 238.664 255.444 238.32 256.387 238.094C262.373 236.659 268.508 235.942 274.664 235.957C276.943 234.427 278.222 234.964 279.19 236.602Z" fill="black"/>
<path d="M271.646 175.423C271.164 175.981 270.515 176.597 269.802 176.416C269.543 176.328 269.299 176.197 269.081 176.031C267.824 175.193 266.24 175.017 264.739 174.774C261.714 174.318 258.725 173.646 255.796 172.762C254.944 172.454 254.052 172.273 253.147 172.226C251.274 172.226 249.61 173.483 248.437 174.941C247.263 176.4 246.425 178.114 245.273 179.593C244.434 180.649 243.471 181.58 242.704 182.674C240.767 185.435 240.348 189.04 240.851 192.375C241.354 195.711 242.683 198.859 244.007 201.964C244.709 203.778 245.57 205.525 246.58 207.186C246.136 209.701 246.371 212.634 247.578 214.897C247.967 215.639 248.449 216.36 248.579 217.19C248.638 217.749 248.616 218.314 248.512 218.866L247.946 222.873C247.775 224.092 247.603 225.312 247.381 226.527C246.962 228.744 246.425 231.137 247.452 233.157C248.68 235.563 247.389 238.643 247.712 241.325C251.175 239.987 254.804 239.126 258.499 238.765C260.875 238.53 263.298 238.501 265.594 237.834C267.028 237.415 268.386 236.757 269.84 236.422C271.021 236.191 272.22 236.069 273.423 236.057C276.076 235.953 278.745 235.844 281.386 236.233C281.595 236.267 281.855 236.284 281.985 236.112C282.039 236.016 282.067 235.907 282.065 235.797C282.105 234.814 281.87 233.839 281.386 232.981C281.05 232.39 280.585 231.812 280.598 231.133C280.62 230.816 280.698 230.505 280.828 230.215L281.989 227.114C282.974 224.495 282.505 221.452 283.016 218.703C283.415 216.553 283.669 214.378 283.779 212.194C283.875 210.329 283.816 208.309 282.689 206.817C282.364 206.457 282.083 206.058 281.851 205.631C281.688 205.179 281.619 204.699 281.65 204.219C281.625 200.486 281.727 196.754 281.956 193.021C280.975 191.257 279.948 189.454 278.968 187.69C277.823 185.637 276.667 183.541 276.206 181.236C275.9 179.715 275.908 178.143 275.69 176.605C275.667 176.213 275.532 175.837 275.301 175.52C275.087 175.333 274.836 175.195 274.564 175.114C274.292 175.034 274.005 175.014 273.725 175.054C273.017 175.07 272.316 175.194 271.646 175.423Z" fill="#434175"/>
<path opacity="0.1" d="M312.168 168.772C311.473 169.31 310.644 169.648 309.771 169.749C308.631 169.824 306.204 169.154 305.496 168.177C305.193 167.686 305.047 167.115 305.077 166.539C305.232 166.489 305.393 166.458 305.555 166.446C306.793 166.312 308.045 166.363 309.268 166.597C310.475 166.891 311.64 167.624 312.147 168.76L312.168 168.772Z" fill="black"/>
<path d="M275.343 192.71C276.018 193.548 276.717 194.412 277.673 194.911C278.775 195.48 280.07 195.493 281.306 195.468C286.407 195.355 291.488 194.794 296.49 193.792C297.061 193.693 297.622 193.543 298.167 193.343C298.764 193.057 299.326 192.702 299.843 192.287C301.49 191.105 303.162 189.898 304.415 188.301C305.903 186.374 306.839 184.078 307.122 181.659C308.313 180.565 308.946 179.002 309.541 177.497C309.835 176.859 310.022 176.176 310.094 175.477C310.123 174.761 309.65 174.01 309.784 173.306C310.012 172.091 310.628 170.982 311.54 170.146C311.734 170.009 311.88 169.814 311.959 169.589C311.985 169.403 311.951 169.214 311.862 169.048C311.351 167.913 310.186 167.183 308.979 166.886C307.755 166.649 306.501 166.598 305.262 166.735C304.849 166.813 304.443 166.923 304.046 167.062L303.179 169.338C303.064 169.719 302.871 170.073 302.613 170.377C302.421 170.553 302.217 170.714 302.001 170.859C301.561 171.232 301.22 171.707 301.007 172.242C300.795 172.778 300.717 173.358 300.782 173.931C300 174.235 299.362 174.825 299 175.581C298.637 176.338 298.576 177.204 298.829 178.004C298.178 178.145 297.574 178.45 297.074 178.89C296.574 179.33 296.196 179.891 295.975 180.519C295.914 180.806 295.786 181.074 295.602 181.303C295.321 181.519 294.975 181.631 294.621 181.621C293.64 181.68 292.785 182.459 291.901 182.04C290.893 181.57 289.768 181.413 288.67 181.588C288.444 181.642 288.211 181.663 287.978 181.65C287.78 181.616 287.589 181.549 287.413 181.454C287.014 181.221 286.581 181.051 286.13 180.951C285.904 180.902 285.668 180.921 285.453 181.004C285.237 181.088 285.05 181.232 284.915 181.42C284.605 181.081 284.42 180.645 284.14 180.28C284.014 180.086 283.837 179.931 283.628 179.831C283.42 179.731 283.188 179.691 282.958 179.714C283.251 179.454 282.958 178.931 282.568 178.834C282.175 178.804 281.78 178.818 281.39 178.876C280.368 178.876 279.58 177.942 278.587 177.698C277.673 177.476 276.453 177.745 275.984 176.927C275.821 176.638 275.787 176.244 275.506 176.089C275.314 175.994 275.095 175.969 274.886 176.018C274.238 176.103 273.607 176.294 273.021 176.584C272.061 180.355 272.564 184.228 273.293 188.025C273.563 189.737 274.269 191.35 275.343 192.71Z" fill="#434175"/>
<path opacity="0.1" d="M275.314 206.142L270.549 215.756C271.064 214.864 272.15 214.499 273.009 213.95C274.094 213.162 274.909 212.059 275.343 210.79C275.774 209.526 276.076 208.222 276.244 206.897C276.341 206.289 276.542 205.434 276.244 204.881C275.716 204.994 275.54 205.694 275.314 206.142Z" fill="black"/>
<path opacity="0.1" d="M261.601 214.311C260.524 215.375 259.208 216.159 258.026 217.102C255.26 219.306 253.291 222.324 251.367 225.287C250.823 226.061 250.366 226.893 250.005 227.768C250.231 227.96 250.566 227.768 250.793 227.562L254.535 224.277C254.997 223.903 255.419 223.481 255.793 223.019C256.442 222.143 256.731 221.054 257.322 220.136C257.965 219.257 258.731 218.477 259.598 217.818C260.457 217.081 264.405 213.741 263.445 212.441C262.737 212.777 262.167 213.741 261.601 214.311Z" fill="black"/>
<path d="M269.778 172.645C268.55 171.967 267.207 171.525 265.817 171.341C264.993 171.155 264.145 171.094 263.303 171.161C262.523 171.258 261.773 171.559 260.989 171.58C259.887 171.643 258.835 171.195 257.771 170.906C256.706 170.616 255.478 170.486 254.586 171.144C254.394 171.332 254.153 171.461 253.89 171.513C253.619 171.477 253.367 171.353 253.173 171.161C252.42 170.622 251.507 170.355 250.582 170.404C249.658 170.453 248.777 170.814 248.085 171.429C246.057 173.332 246.288 177.049 243.895 178.495C243.241 178.914 242.403 179.103 242.017 179.753C241.924 179.964 241.816 180.168 241.694 180.364C241.536 180.543 241.342 180.686 241.124 180.784C240.434 181.091 239.777 181.469 239.163 181.911C238.857 182.133 238.599 182.415 238.405 182.74C238.211 183.065 238.086 183.426 238.036 183.801C238.027 184.35 238.144 184.893 238.379 185.389C239.544 188.244 241.563 190.668 244.16 192.328C246.757 193.989 249.805 194.805 252.884 194.664C253.432 194.695 253.972 194.527 254.405 194.19C254.633 193.932 254.813 193.636 254.938 193.314C256.057 190.972 258.156 189.241 259.489 187.028C260.281 185.699 260.792 184.212 261.622 182.904C262.879 180.922 264.782 179.455 266.651 178.034C267.707 177.234 268.877 176.391 270.201 176.446C271.379 176.496 272.238 176.559 271.802 175.117C271.443 174.078 270.726 173.201 269.778 172.645Z" fill="#434175"/>
<path opacity="0.05" d="M269.778 172.645C268.55 171.967 267.207 171.525 265.817 171.341C264.993 171.155 264.145 171.094 263.303 171.161C262.523 171.258 261.773 171.559 260.989 171.58C259.887 171.643 258.835 171.195 257.771 170.906C256.706 170.616 255.478 170.486 254.586 171.144C254.394 171.332 254.153 171.461 253.89 171.513C253.619 171.477 253.367 171.353 253.173 171.161C252.42 170.622 251.507 170.355 250.582 170.404C249.658 170.453 248.777 170.814 248.085 171.429C246.057 173.332 246.288 177.049 243.895 178.495C243.241 178.914 242.403 179.103 242.017 179.753C241.924 179.964 241.816 180.168 241.694 180.364C241.536 180.543 241.342 180.686 241.124 180.784C240.434 181.091 239.777 181.469 239.163 181.911C238.857 182.133 238.599 182.415 238.405 182.74C238.211 183.065 238.086 183.426 238.036 183.801C238.027 184.35 238.144 184.893 238.379 185.389C239.544 188.244 241.563 190.668 244.16 192.328C246.757 193.989 249.805 194.805 252.884 194.664C253.432 194.695 253.972 194.527 254.405 194.19C254.633 193.932 254.813 193.636 254.938 193.314C256.057 190.972 258.156 189.241 259.489 187.028C260.281 185.699 260.792 184.212 261.622 182.904C262.879 180.922 264.782 179.455 266.651 178.034C267.707 177.234 268.877 176.391 270.201 176.446C271.379 176.496 272.238 176.559 271.802 175.117C271.443 174.078 270.726 173.201 269.778 172.645Z" fill="black"/>
<path d="M275.54 333.064C274.735 333.814 273.633 334.141 272.564 334.372C270.12 334.85 267.646 335.156 265.159 335.29L262.741 335.474C260.381 335.654 258.018 335.834 255.65 335.843C252.725 335.852 249.805 335.599 246.924 335.088C246.792 335.084 246.662 335.051 246.543 334.993C246.424 334.936 246.319 334.854 246.233 334.753C246.143 334.585 246.107 334.394 246.128 334.204C246.179 331.255 246.538 328.319 247.201 325.445C247.473 324.268 249.59 326.912 249.686 327.025C249.905 327.334 250.193 327.587 250.527 327.763C250.861 327.94 251.232 328.036 251.61 328.044C254.045 328.178 256.773 326.698 258.705 325.382C259.12 325.074 259.56 324.8 260.021 324.565C260.359 324.414 260.718 324.312 261.085 324.263C262.338 324.147 263.598 324.402 264.706 324.997C266.161 325.718 267.435 326.753 268.897 327.511C270.069 328.112 271.332 328.511 272.636 328.693C273.952 328.873 275.527 328.961 276.202 330.101C276.739 331.044 276.336 332.318 275.54 333.064Z" fill="#434175"/>
<path d="M275.54 333.5C274.735 334.25 273.633 334.577 272.565 334.808C270.12 335.285 267.646 335.592 265.159 335.725L262.741 335.91C260.382 336.09 258.018 336.27 255.65 336.279C252.725 336.29 249.804 336.037 246.925 335.524C246.793 335.52 246.663 335.488 246.544 335.431C246.425 335.374 246.319 335.293 246.233 335.193C246.006 334.891 245.823 334.558 245.692 334.204C245.743 331.27 246.531 328.316 247.201 325.445C247.474 324.267 249.59 326.912 249.686 327.025C249.905 327.334 250.193 327.586 250.527 327.763C250.861 327.94 251.232 328.036 251.61 328.043C254.045 328.177 256.773 326.698 258.705 325.382C259.12 325.074 259.561 324.8 260.021 324.565C260.36 324.414 260.718 324.312 261.086 324.263C260.771 326.015 258.261 328.131 256.962 328.777C254.338 330.08 251.22 329.426 248.295 329.581C248.08 329.577 247.868 329.627 247.679 329.728C247.331 329.963 247.31 330.462 247.318 330.881C247.344 331.576 247.432 332.398 248.039 332.75C248.342 332.896 248.676 332.967 249.012 332.955C256.225 333.27 263.451 333.017 270.624 332.197C271.831 332.117 273.018 331.852 274.145 331.413C274.881 331.069 275.568 330.626 276.186 330.097C277.108 330.818 276.336 332.754 275.54 333.5Z" fill="#E8EAF2"/>
<path d="M269.513 157.184C269.471 158.328 270.251 160.537 268.109 159.929C266.852 159.56 266.475 158.047 264.857 158.383C263.239 158.718 262.862 160.717 262.317 162.02C261.872 163.056 261.182 163.968 260.306 164.678C259.43 165.388 258.394 165.874 257.288 166.094C256.832 166.201 256.357 166.201 255.901 166.094C254.857 165.796 254.262 164.719 253.835 163.722C253.466 162.877 253.16 162.006 252.921 161.115C252.753 160.49 252.642 159.85 252.59 159.204C252.555 158.765 252.555 158.323 252.59 157.884C252.783 155.281 254.267 152.909 256.161 151.116C258.055 149.322 260.352 148.023 262.636 146.744C263.38 146.282 264.183 145.924 265.025 145.68C265.852 145.515 266.701 145.481 267.539 145.579C268.647 145.625 269.737 145.881 270.749 146.334C271.164 146.538 271.544 146.805 271.877 147.126C272.352 147.565 272.692 148.13 272.857 148.756C273.277 150.432 272.195 151.954 271.324 153.282C270.527 154.46 269.568 155.709 269.513 157.184Z" fill="#434175"/>
<path opacity="0.1" d="M305.517 181.747C305.06 180.595 303.141 177.405 303.694 176.299C304.273 177.116 304.763 177.993 305.157 178.914C305.517 179.815 305.232 181.014 305.517 181.747Z" fill="black"/>
<path opacity="0.1" d="M271.349 153.279C272.221 151.95 273.294 150.433 272.883 148.752C272.68 148.011 272.238 147.357 271.626 146.892C271.768 147.137 271.875 147.401 271.944 147.675C272.363 149.352 271.282 150.869 270.41 152.201C269.635 153.383 268.675 154.636 268.616 156.107C268.575 157.252 269.358 159.46 267.217 158.852C265.959 158.484 265.582 156.971 263.96 157.306C262.339 157.641 261.97 159.636 261.421 160.944C260.976 161.98 260.286 162.892 259.41 163.602C258.533 164.312 257.498 164.798 256.392 165.017C255.935 165.124 255.461 165.124 255.004 165.017C254.769 164.948 254.548 164.839 254.351 164.695C254.677 165.347 255.243 165.849 255.931 166.094C256.388 166.199 256.864 166.199 257.322 166.094C258.428 165.872 259.463 165.385 260.339 164.675C261.215 163.965 261.905 163.052 262.351 162.017C262.9 160.709 263.256 158.723 264.891 158.383C266.525 158.044 266.869 159.557 268.147 159.925C270.289 160.546 269.505 158.324 269.547 157.18C269.614 155.713 270.578 154.46 271.349 153.279Z" fill="black"/>
<path opacity="0.1" d="M271.822 151.002C271.624 151.329 271.406 151.642 271.169 151.941C270.717 152.512 270.21 153.037 269.656 153.509C269.325 153.794 268.985 154.058 268.633 154.309C267.976 154.772 267.286 155.185 266.567 155.545C264.44 156.535 262.226 157.328 259.954 157.913L255.537 159.2C254.992 159.619 253.999 160.348 252.905 161.115C252.736 160.49 252.625 159.85 252.574 159.204C252.538 158.765 252.538 158.323 252.574 157.884C252.766 155.281 254.25 152.909 256.144 151.116C258.039 149.322 260.335 148.023 262.619 146.744C263.363 146.282 264.167 145.924 265.008 145.68C265.836 145.515 266.684 145.481 267.523 145.579C268.631 145.625 269.72 145.881 270.733 146.334C271.147 146.538 271.527 146.805 271.86 147.126C272.11 147.493 272.301 147.898 272.426 148.324C272.703 149.226 272.317 150.189 271.822 151.002Z" fill="black"/>
<path d="M271.822 150.706C271.624 151.032 271.406 151.345 271.169 151.644C270.717 152.215 270.21 152.74 269.656 153.212C269.325 153.497 268.985 153.761 268.633 154.012C267.975 154.474 267.285 154.887 266.567 155.248C264.44 156.239 262.226 157.031 259.954 157.616L255.537 158.899C253.994 160.068 248.831 163.89 247.964 163.412C246.941 162.851 252.544 158.882 252.544 158.882L252.8 159.079C251.962 158.563 251.543 157.369 251.367 156.334C251.04 154.482 250.885 152.562 251.325 150.731C251.765 148.899 252.863 147.164 254.535 146.309C255.277 145.924 256.178 145.668 256.714 145.081C256.795 144.992 256.866 144.895 256.928 144.792C256.961 144.745 256.989 144.694 257.012 144.641C257.068 144.479 257.147 144.325 257.246 144.184C257.552 143.832 258.11 143.937 258.575 143.996H258.726C258.808 144 258.891 144 258.973 143.996C260.649 144.034 262.246 143.107 263.927 143.107C265.767 143.107 267.334 144.172 268.956 144.901C269.283 145.048 269.593 145.182 269.886 145.32C271.06 145.865 271.94 146.448 272.401 147.994C272.702 148.933 272.317 149.901 271.822 150.706Z" fill="#FFD948"/>
<path opacity="0.1" d="M258.973 144.02C259.065 144.176 259.098 144.361 259.066 144.539C259.034 144.718 258.938 144.879 258.797 144.993C258.593 145.138 258.352 145.224 258.101 145.24C257.92 145.264 257.739 145.278 257.556 145.282C257.311 145.301 257.065 145.259 256.84 145.16C256.796 145.137 256.754 145.11 256.714 145.081C256.794 144.991 256.866 144.894 256.928 144.791C256.97 144.825 257.011 144.817 257.175 144.791C257.479 144.777 257.78 144.726 258.072 144.641C258.193 144.608 258.307 144.552 258.407 144.477C258.557 144.35 258.667 144.183 258.726 143.995L258.973 144.02Z" fill="black"/>
<path opacity="0.1" d="M252.653 158.839C252.887 158.985 253.148 159.082 253.42 159.124C253.614 159.174 253.812 159.206 254.011 159.221C254.519 159.195 255.014 159.051 255.457 158.802" fill="black"/>
</g>
<defs>
<linearGradient id="paint0_linear" x1="276.63" y1="335.842" x2="276.63" y2="142.122" gradientUnits="userSpaceOnUse">
<stop stop-color="#808080" stop-opacity="0.25"/>
<stop offset="0.54" stop-color="#808080" stop-opacity="0.12"/>
<stop offset="1" stop-color="#808080" stop-opacity="0.1"/>
</linearGradient>
<clipPath id="clip0">
<rect width="461" height="338.097" fill="white"/>
</clipPath>
</defs>
</svg>
