<svg width="461" height="233" viewBox="0 0 461 233" fill="none" 
    xmlns="http://www.w3.org/2000/svg">
    <g clip-path="url(#clip0)">
        <path opacity="0.3" d="M103.123 199.143C151.178 199.143 190.135 160.186 190.135 112.131C190.135 64.0757 151.178 25.1191 103.123 25.1191C55.0678 25.1191 16.1113 64.0757 16.1113 112.131C16.1113 160.186 55.0678 199.143 103.123 199.143Z" stroke="#FF9800" stroke-width="4" stroke-miterlimit="10" stroke-dasharray="12 12"/>
        <path opacity="0.3" d="M332.605 181.931C380.66 181.931 419.616 142.974 419.616 94.919C419.616 46.8637 380.66 7.90723 332.605 7.90723C284.549 7.90723 245.593 46.8637 245.593 94.919C245.593 142.974 284.549 181.931 332.605 181.931Z" stroke="#FF9800" stroke-width="4" stroke-miterlimit="10" stroke-dasharray="12 12"/>
        <path d="M366.244 128.544C362.495 124.558 360.406 119.294 360.402 113.823C360.423 110.049 361.422 106.345 363.3 103.072C365.179 99.7985 367.873 97.0674 371.12 95.1445C369.667 93.0348 368.887 90.5347 368.883 87.9732C368.883 80.7588 374.935 74.9118 382.403 74.9118C385.287 74.8824 388.105 75.7804 390.44 77.4736C392.775 79.1667 394.505 81.5653 395.374 84.3158C397.217 81.4156 399.767 79.0312 402.784 77.3863C405.801 75.7414 409.187 74.8899 412.623 74.9118C423.748 74.9118 432.77 83.6274 432.77 94.3747C432.771 96.6702 432.353 98.9467 431.536 101.092C431.942 101.063 432.354 101.03 432.77 101.03C441.7 101.03 448.938 108.024 448.938 116.654C448.939 117.181 448.911 117.707 448.857 118.231C456 121.205 461.001 128.066 461.001 136.054C461.001 146.768 452.013 155.455 440.921 155.455C439.756 155.453 438.593 155.354 437.445 155.159C437.503 155.804 437.541 156.459 437.541 157.119C437.541 169.143 427.453 178.891 415.009 178.891C410.441 178.904 405.973 177.554 402.177 175.014C399.105 177.532 395.253 178.903 391.281 178.891C381.982 178.891 374.448 171.61 374.448 162.636C374.448 162.249 374.481 161.866 374.51 161.484H374.448C364.494 161.484 356.424 153.686 356.424 144.067C356.444 140.82 357.376 137.644 359.112 134.9C360.848 132.155 363.319 129.953 366.244 128.544Z" fill="url(#paint0_linear)"/>
        <path d="M368.065 128.471C364.48 124.655 362.482 119.618 362.476 114.382C362.497 110.769 363.452 107.223 365.25 104.09C367.048 100.956 369.627 98.342 372.736 96.5014C371.342 94.4778 370.595 92.0789 370.594 89.6218C370.594 82.7182 376.389 77.1198 383.536 77.1198C386.298 77.0923 388.996 77.9515 391.233 79.571C393.471 81.1906 395.13 83.4851 395.966 86.1174C397.729 83.3476 400.165 81.07 403.047 79.4973C405.929 77.9246 409.163 77.1083 412.446 77.1246C423.098 77.1246 431.727 85.4672 431.727 95.77C431.729 97.9674 431.328 100.147 430.546 102.2C430.938 102.172 431.33 102.143 431.727 102.143C440.275 102.143 447.203 108.836 447.203 117.097C447.202 117.602 447.175 118.106 447.122 118.608C453.958 121.477 458.744 128.022 458.744 135.666C458.744 145.921 450.138 154.235 439.525 154.235C438.403 154.235 437.284 154.141 436.178 153.953C436.236 154.57 436.269 155.196 436.269 155.827C436.269 167.335 426.612 176.662 414.703 176.662C410.331 176.674 406.055 175.382 402.421 172.952C399.492 175.357 395.821 176.671 392.032 176.672C383.134 176.672 375.92 169.701 375.92 161.105C375.92 160.732 375.949 160.369 375.978 160.001H375.92C366.392 160.001 358.666 152.538 358.666 143.33C358.686 140.222 359.577 137.182 361.239 134.555C362.9 131.929 365.265 129.821 368.065 128.471Z" fill="#009688"/>
        <path d="M407.664 106.676H401.358V222.483H407.664V106.676Z" fill="url(#paint1_linear)"/>
        <path d="M406.364 106.676H402.874V222.483H406.364V106.676Z" fill="#795548"/>
        <path d="M385.54 119.047L383.048 121.49L403.728 142.586L406.22 140.142L385.54 119.047Z" fill="#795548"/>
        <path d="M425.408 143.007L403.971 158.051L405.975 160.908L427.413 145.863L425.408 143.007Z" fill="#795548"/>
        <path d="M407.879 130.575C410.029 128.116 411.626 125.223 412.563 122.094C413.499 118.964 413.752 115.67 413.306 112.434C412.859 109.198 411.723 106.095 409.975 103.336C408.226 100.577 405.906 98.2249 403.17 96.4395C404.585 94.2502 405.336 91.698 405.331 89.0913C405.331 81.7192 399.489 75.7432 392.279 75.7432C389.43 75.7642 386.666 76.7138 384.406 78.448C382.145 80.1822 380.512 82.6064 379.754 85.3527C378.055 82.4393 375.626 80.0201 372.705 78.3346C369.784 76.6491 366.474 75.7558 363.102 75.7432C352.359 75.7432 343.648 84.6499 343.648 95.6363C343.646 97.9764 344.049 100.299 344.839 102.502C344.447 102.473 344.05 102.44 343.648 102.44C335.043 102.44 328.034 109.611 328.034 118.408C328.034 118.953 328.063 119.488 328.115 120.019C324.606 121.592 321.629 124.151 319.547 127.385C317.465 130.619 316.367 134.388 316.388 138.234C316.388 149.187 325.07 158.065 335.774 158.065C336.897 158.063 338.017 157.962 339.121 157.764C339.064 158.423 339.03 159.093 339.03 159.767C339.03 172.054 348.769 182.017 360.788 182.017C365.229 182.019 369.56 180.633 373.175 178.054C376.085 180.606 379.823 182.014 383.693 182.017C392.671 182.017 399.948 174.573 399.948 165.394C399.948 164.997 399.915 164.605 399.891 164.213H399.948C409.562 164.213 417.35 156.243 417.35 146.414C417.365 143.161 416.491 139.967 414.822 137.175C413.152 134.383 410.752 132.101 407.879 130.575Z" fill="url(#paint2_linear)"/>
        <path d="M405.365 130.47C407.381 128.162 408.879 125.447 409.757 122.51C410.634 119.574 410.872 116.483 410.452 113.446C410.033 110.41 408.967 107.499 407.327 104.91C405.686 102.321 403.509 100.114 400.943 98.4381C402.27 96.3826 402.974 93.9865 402.97 91.5393C402.97 84.6166 397.486 79.0087 390.716 79.0087C388.046 79.0327 385.456 79.9256 383.339 81.5525C381.221 83.1793 379.691 85.4515 378.979 88.0254C377.386 85.2898 375.104 83.0182 372.362 81.4358C369.62 79.8534 366.512 79.015 363.346 79.0039C353.263 79.0039 345.088 87.3656 345.088 97.678C345.086 99.8747 345.464 102.055 346.206 104.123C345.838 104.094 345.465 104.065 345.088 104.065C336.994 104.065 330.434 110.758 330.434 119.053C330.434 119.565 330.458 120.067 330.511 120.564C327.22 122.045 324.429 124.448 322.477 127.484C320.525 130.52 319.496 134.056 319.515 137.665C319.515 147.944 327.642 156.277 337.716 156.277C338.772 156.276 339.826 156.182 340.866 155.995C340.814 156.617 340.78 157.243 340.78 157.874C340.78 169.41 349.921 178.757 361.199 178.757C365.368 178.758 369.433 177.458 372.826 175.037C375.558 177.433 379.066 178.754 382.699 178.757C391.123 178.757 397.955 171.772 397.955 163.152C397.955 162.779 397.926 162.411 397.902 162.043H397.955C406.976 162.043 414.291 154.561 414.291 145.334C414.302 142.277 413.477 139.276 411.903 136.656C410.33 134.035 408.068 131.896 405.365 130.47Z" fill="#00897B"/>
        <path d="M373.152 106.633H368.409V224.615H373.152V106.633Z" fill="url(#paint3_linear)"/>
        <path d="M372.142 108.291H369.757V224.614H372.142V108.291Z" fill="#795548"/>
        <path d="M389.113 121.402L369.532 142.548L371.283 144.169L390.863 123.023L389.113 121.402Z" fill="#795548"/>
        <path d="M350.832 145.533L349.409 147.448L369.709 162.524L371.132 160.609L350.832 145.533Z" fill="#795548"/>
        <path d="M316.498 165.074C313.944 162.355 312.522 158.765 312.52 155.034C312.535 152.463 313.216 149.939 314.496 147.709C315.777 145.479 317.613 143.618 319.825 142.308C318.833 140.866 318.301 139.158 318.3 137.407C318.3 132.493 322.426 128.505 327.513 128.505C329.478 128.485 331.398 129.097 332.99 130.251C334.581 131.404 335.76 133.038 336.353 134.912C337.61 132.936 339.348 131.311 341.404 130.191C343.46 129.07 345.767 128.49 348.109 128.505C355.691 128.505 361.84 134.443 361.84 141.767C361.841 143.333 361.556 144.885 360.998 146.348C361.276 146.348 361.553 146.305 361.84 146.305C367.926 146.305 372.836 151.085 372.836 156.952C372.835 157.311 372.816 157.67 372.778 158.027C375.205 159.006 377.287 160.682 378.76 162.845C380.234 165.008 381.032 167.559 381.054 170.175C381.054 177.476 374.93 183.394 367.371 183.394C366.57 183.395 365.77 183.328 364.981 183.194C365.024 183.634 365.048 184.078 365.048 184.528C365.048 192.722 358.173 199.348 349.691 199.348C346.597 199.363 343.567 198.459 340.986 196.752C338.889 198.46 336.265 199.386 333.561 199.372C327.226 199.372 322.087 194.41 322.087 188.29C322.087 188.022 322.087 187.764 322.13 187.506H322.087C315.303 187.506 309.805 182.194 309.805 175.64C309.821 173.429 310.457 171.268 311.64 169.4C312.824 167.532 314.506 166.034 316.498 165.074Z" fill="url(#paint4_linear)"/>
        <path d="M317.736 165.026C315.287 162.428 313.92 158.996 313.911 155.426C313.926 152.964 314.578 150.548 315.803 148.413C317.029 146.279 318.787 144.498 320.906 143.244C319.956 141.865 319.448 140.229 319.448 138.554C319.448 133.85 323.397 130.035 328.263 130.035C330.145 130.015 331.983 130.6 333.507 131.705C335.031 132.809 336.159 134.374 336.726 136.169C337.928 134.277 339.591 132.722 341.558 131.649C343.526 130.576 345.734 130.021 347.975 130.035C355.232 130.035 361.118 135.719 361.118 142.733C361.119 144.231 360.847 145.717 360.314 147.117C360.582 147.117 360.845 147.078 361.118 147.078C366.941 147.078 371.664 151.639 371.664 157.266C371.664 157.61 371.647 157.953 371.612 158.294C373.934 159.231 375.927 160.836 377.337 162.906C378.748 164.975 379.512 167.417 379.534 169.921C379.534 176.911 373.667 182.576 366.434 182.576C365.675 182.576 364.917 182.512 364.168 182.385C364.206 182.806 364.23 183.231 364.23 183.662C364.23 191.502 357.651 197.861 349.534 197.861C346.555 197.868 343.643 196.988 341.167 195.332C339.164 196.974 336.653 197.868 334.063 197.861C328.001 197.861 323.067 193.113 323.067 187.252C323.067 186.999 323.067 186.75 323.105 186.501H323.067C316.574 186.501 311.311 181.415 311.311 175.142C311.328 173.024 311.939 170.952 313.075 169.164C314.211 167.376 315.826 165.942 317.736 165.026Z" fill="#009688"/>
        <path d="M344.725 150.172H340.427V229.09H344.725V150.172Z" fill="url(#paint5_linear)"/>
        <path d="M343.835 150.172H341.459V229.09H343.835V150.172Z" fill="#795548"/>
        <path d="M329.644 158.599L327.947 160.263L342.037 174.636L343.734 172.972L329.644 158.599Z" fill="#795548"/>
        <path d="M356.818 174.926L342.209 185.178L343.574 187.123L358.183 176.871L356.818 174.926Z" fill="#795548"/>
        <path d="M356.93 167.416C358.376 165.767 359.451 163.826 360.081 161.725C360.711 159.624 360.882 157.413 360.582 155.24C360.282 153.067 359.519 150.984 358.344 149.132C357.168 147.28 355.608 145.703 353.77 144.506C354.713 143.034 355.211 141.321 355.204 139.573C355.255 137.438 354.523 135.359 353.147 133.728C351.77 132.096 349.844 131.025 347.731 130.716C345.619 130.407 343.467 130.882 341.68 132.051C339.894 133.221 338.598 135.003 338.036 137.063C336.897 135.109 335.267 133.486 333.308 132.355C331.35 131.224 329.13 130.623 326.868 130.613C319.658 130.613 313.811 136.589 313.811 143.966C313.809 145.537 314.079 147.096 314.61 148.575C314.347 148.575 314.079 148.532 313.811 148.532C312.419 148.548 311.044 148.837 309.764 149.384C308.484 149.932 307.324 150.725 306.351 151.721C305.378 152.716 304.611 153.893 304.092 155.185C303.574 156.477 303.316 157.859 303.332 159.251C303.332 159.614 303.332 159.977 303.384 160.331C301.028 161.388 299.03 163.106 297.633 165.277C296.236 167.448 295.5 169.979 295.515 172.561C295.515 179.909 301.343 185.871 308.528 185.871C309.283 185.87 310.037 185.803 310.78 185.67C310.742 186.114 310.718 186.559 310.718 187.013C310.718 195.26 317.258 201.949 325.319 201.949C328.299 201.95 331.206 201.021 333.633 199.29C335.587 201.003 338.096 201.948 340.694 201.949C342.143 201.932 343.575 201.631 344.907 201.061C346.24 200.492 347.447 199.665 348.46 198.629C349.473 197.593 350.272 196.367 350.812 195.022C351.351 193.677 351.62 192.239 351.604 190.79C351.604 190.522 351.604 190.259 351.566 189.996H351.604C358.058 189.996 363.288 184.647 363.288 178.044C363.298 175.862 362.71 173.718 361.59 171.845C360.469 169.971 358.858 168.44 356.93 167.416Z" fill="url(#paint6_linear)"/>
        <path d="M355.243 167.349C356.598 165.799 357.605 163.977 358.196 162.004C358.786 160.031 358.946 157.955 358.664 155.915C358.383 153.875 357.667 151.92 356.564 150.181C355.462 148.442 353.999 146.96 352.274 145.835C353.165 144.457 353.638 142.849 353.636 141.207C353.685 139.204 352.998 137.252 351.706 135.72C350.413 134.188 348.605 133.182 346.622 132.892C344.639 132.602 342.618 133.048 340.941 134.146C339.265 135.243 338.048 136.917 337.52 138.85C336.45 137.015 334.918 135.491 333.078 134.429C331.237 133.367 329.151 132.805 327.026 132.798C320.256 132.798 314.773 138.411 314.773 145.333C314.771 146.808 315.025 148.272 315.523 149.66C315.275 149.66 315.045 149.622 314.773 149.622C312.138 149.652 309.623 150.726 307.78 152.608C305.936 154.49 304.914 157.027 304.938 159.662C304.938 160.006 304.938 160.345 304.986 160.675C302.776 161.666 300.901 163.278 299.589 165.315C298.278 167.352 297.587 169.727 297.6 172.149C297.6 179.048 303.069 184.642 309.815 184.642C310.524 184.64 311.231 184.576 311.928 184.45C311.89 184.866 311.871 185.287 311.871 185.712C311.871 193.453 318.009 199.73 325.577 199.73C328.376 199.732 331.106 198.859 333.385 197.234C335.217 198.843 337.572 199.73 340.011 199.73C342.757 199.698 345.378 198.578 347.298 196.615C349.219 194.651 350.281 192.006 350.251 189.26C350.251 189.011 350.251 188.782 350.213 188.519H350.251C351.708 188.503 353.147 188.2 354.487 187.627C355.826 187.055 357.04 186.224 358.058 185.183C359.077 184.141 359.88 182.909 360.422 181.557C360.965 180.205 361.235 178.76 361.219 177.303C361.223 175.257 360.669 173.249 359.615 171.495C358.562 169.741 357.05 168.307 355.243 167.349Z" fill="#00897B"/>
        <path d="M333.624 151.348H330.439V230.538H333.624V151.348Z" fill="url(#paint7_linear)"/>
        <path d="M332.944 152.462H331.343V230.538H332.944V152.462Z" fill="#795548"/>
        <path d="M344.331 161.256L331.188 175.449L332.364 176.537L345.506 162.345L344.331 161.256Z" fill="#795548"/>
        <path d="M318.636 177.458L317.681 178.744L331.306 188.863L332.261 187.578L318.636 177.458Z" fill="#795548"/>
        <path d="M328.571 112.508H193.75V232.508H328.571V112.508Z" fill="url(#paint8_linear)"/>
        <path d="M325.224 112.508H105.304V228.683H325.224V112.508Z" fill="white"/>
        <path d="M335.747 123.983H119.651V67.5684H327.858C329.95 67.5684 331.957 68.3995 333.436 69.8788C334.915 71.3582 335.747 73.3646 335.747 75.4568V123.983Z" fill="url(#paint9_linear)"/>
        <path d="M119.646 69.8008H325.998C328.09 69.8008 330.097 70.6319 331.576 72.1112C333.056 73.5906 333.887 75.5971 333.887 77.6892V122.529H119.646V69.8008Z" fill="#FFD948"/>
        <path opacity="0.7" d="M119.646 69.8008H325.998C328.09 69.8008 330.097 70.6319 331.576 72.1112C333.056 73.5906 333.887 75.5971 333.887 77.6892V122.529H119.646V69.8008Z" fill="white"/>
        <path d="M119.168 6.36816L44.5869 58.8908V103.147V232.503H193.75V103.147V58.8908L119.168 6.36816Z" fill="url(#paint10_linear)"/>
        <path d="M190.403 58.0063L119.646 6.36816L48.8896 58.0063V101.507H190.403V58.0063Z" fill="#FFD948"/>
        <path opacity="0.5" d="M190.403 58.0063L119.646 6.36816L48.8896 58.0063V101.507H190.403V58.0063Z" fill="white"/>
        <path d="M190.403 101.512H48.8896V228.683H190.403V101.512Z" fill="white"/>
        <path d="M199.487 83.8179L119.646 26.8061L38.8498 83.8179L33.5908 63.767L119.646 1.13281L205.702 63.767L199.487 83.8179Z" fill="url(#paint11_linear)"/>
        <path d="M198.754 80.8824L119.645 23.3064L40.5412 80.8824L37.1611 62.8538L119.645 2.8252L202.135 62.8538L198.754 80.8824Z" fill="#FFD948"/>
        <path opacity="0.2" d="M198.754 80.8824L119.645 23.3064L40.5412 80.8824L37.1611 62.8538L119.645 2.8252L202.135 62.8538L198.754 80.8824Z" fill="black"/>
        <path d="M159.806 129.241H79.4873V228.683H159.806V129.241Z" fill="#F2F2F2"/>
        <path d="M159.806 129.241H79.4873V146.452H159.806V129.241Z" fill="#FFD948"/>
        <path d="M159.806 211.472H79.4873V228.683H159.806V211.472Z" fill="#FFD948"/>
        <path d="M254.151 192.927C254.341 192.927 254.523 192.852 254.658 192.717C254.792 192.583 254.868 192.4 254.868 192.21C254.868 192.02 254.792 191.838 254.658 191.703C254.523 191.569 254.341 191.493 254.151 191.493C253.961 191.493 253.778 191.569 253.644 191.703C253.509 191.838 253.434 192.02 253.434 192.21C253.434 192.4 253.509 192.583 253.644 192.717C253.778 192.852 253.961 192.927 254.151 192.927Z" fill="#00FF00"/>
        <path d="M273.59 156.014H234.387V228.683H273.59V156.014Z" fill="#F2F2F2"/>
        <path d="M320.443 140.715H283.63V167.488H320.443V140.715Z" fill="#F2F2F2"/>
        <path opacity="0.2" d="M320.443 140.715H283.63V152.667H320.443V140.715Z" fill="#FFD948"/>
        <path d="M29.0193 179.326C26.8807 177.066 25.6839 174.076 25.6727 170.964C25.6871 168.821 26.2555 166.717 27.3228 164.859C28.39 163 29.9198 161.448 31.7635 160.355C30.9362 159.154 30.4927 157.731 30.4918 156.273C30.527 154.271 31.3555 152.365 32.7952 150.973C34.2349 149.582 36.168 148.819 38.1699 148.853C39.8115 148.834 41.4154 149.344 42.7447 150.308C44.074 151.271 45.0581 152.637 45.5515 154.202C46.5993 152.555 48.0482 151.201 49.7625 150.267C51.4767 149.333 53.4001 148.85 55.3523 148.862C61.6726 148.862 66.7977 153.815 66.7977 159.92C66.7989 161.227 66.5607 162.524 66.0949 163.745C66.3292 163.745 66.573 163.712 66.7977 163.712C71.8702 163.712 75.9818 167.684 75.9818 172.585C75.9812 172.883 75.9653 173.182 75.934 173.479C77.9569 174.294 79.6923 175.692 80.9204 177.495C82.1485 179.297 82.814 181.424 82.8327 183.605C82.8327 189.691 77.7268 194.625 71.4256 194.625C70.7639 194.624 70.1034 194.568 69.4511 194.457C69.4846 194.825 69.5037 195.194 69.5037 195.571C69.5037 202.403 63.7666 207.939 56.7053 207.939C54.1099 207.946 51.5714 207.179 49.4145 205.735C47.6692 207.167 45.4803 207.946 43.2233 207.939C37.9643 207.939 33.6615 203.804 33.6615 198.698C33.6615 198.478 33.6615 198.258 33.695 198.043H33.6615C28.0058 198.043 23.4209 193.611 23.4209 188.151C23.4331 186.303 23.9644 184.496 24.9543 182.936C25.9442 181.375 27.3527 180.124 29.0193 179.326Z" fill="url(#paint12_linear)"/>
        <path d="M30.0386 179.287C28.0024 177.119 26.8674 174.258 26.8641 171.284C26.8759 169.232 27.419 167.219 28.4403 165.439C29.4616 163.659 30.9264 162.175 32.692 161.129C31.9004 159.979 31.477 158.615 31.4776 157.219C31.4938 156.269 31.6968 155.333 32.0751 154.462C32.4535 153.591 32.9996 152.803 33.6824 152.143C34.3652 151.484 35.1713 150.965 36.0547 150.617C36.938 150.269 37.8813 150.098 38.8306 150.114C40.3984 150.099 41.9298 150.587 43.1993 151.507C44.4688 152.427 45.4093 153.73 45.8824 155.225C46.885 153.648 48.2717 152.352 49.9124 151.458C51.5531 150.564 53.394 150.102 55.2624 150.114C61.3102 150.114 66.2154 154.852 66.2154 160.699C66.2166 161.947 65.9898 163.185 65.5461 164.352C65.766 164.352 65.9907 164.318 66.2154 164.318C71.0728 164.318 75.0074 168.143 75.0074 172.814C75.0078 173.1 74.9935 173.385 74.9644 173.67C76.8999 174.452 78.5598 175.791 79.7343 177.516C80.9087 179.242 81.5447 181.278 81.562 183.365C81.562 189.193 76.6759 193.917 70.6425 193.917C70.0016 193.917 69.3618 193.862 68.7301 193.754C68.7636 194.103 68.7827 194.462 68.7827 194.82C68.7827 201.356 63.2991 206.658 56.5294 206.658C54.054 206.658 51.6345 205.922 49.578 204.545C47.9082 205.914 45.8139 206.659 43.6545 206.653C38.6011 206.653 34.5039 202.694 34.5039 197.808C34.5039 197.598 34.5039 197.388 34.5374 197.182H34.5039C29.092 197.182 24.7031 192.941 24.7031 187.711C24.7172 185.949 25.2245 184.226 26.1675 182.737C27.1104 181.248 28.4514 180.053 30.0386 179.287Z" fill="#009688"/>
        <path d="M52.5368 166.905H48.9512V232.695H52.5368V166.905Z" fill="url(#paint13_linear)"/>
        <path d="M51.7908 166.905H49.8115V232.695H51.7908V166.905Z" fill="#795548"/>
        <path d="M39.9613 173.929L38.5479 175.314L50.2951 187.298L51.7085 185.912L39.9613 173.929Z" fill="#795548"/>
        <path d="M62.6159 187.541L50.4375 196.088L51.5745 197.708L63.7529 189.162L62.6159 187.541Z" fill="#795548"/>
        <path d="M5.59352 179.326C3.45487 177.066 2.2581 174.076 2.24691 170.964C2.26133 168.821 2.82975 166.717 3.89698 164.859C4.96421 163 6.49398 161.448 8.33774 160.355C7.5104 159.154 7.06696 157.731 7.06603 156.273C7.10123 154.271 7.9297 152.365 9.36941 150.973C10.8091 149.582 12.7423 148.819 14.7441 148.853C16.3857 148.834 17.9897 149.344 19.319 150.308C20.6482 151.271 21.6323 152.637 22.1258 154.202C23.1735 152.555 24.6224 151.201 26.3367 150.267C28.051 149.333 29.9744 148.85 31.9265 148.862C38.2468 148.862 43.3719 153.815 43.3719 159.92C43.3732 161.227 43.135 162.524 42.6692 163.745C42.9034 163.745 43.1472 163.712 43.3719 163.712C48.4444 163.712 52.556 167.684 52.556 172.585C52.5555 172.883 52.5395 173.182 52.5082 173.479C54.5311 174.294 56.2665 175.692 57.4946 177.495C58.7227 179.297 59.3882 181.424 59.407 183.605C59.407 189.691 54.301 194.625 47.9998 194.625C47.3381 194.624 46.6777 194.568 46.0253 194.457C46.0588 194.825 46.0779 195.194 46.0779 195.571C46.0779 202.403 40.3409 207.939 33.2795 207.939C30.6841 207.946 28.1457 207.179 25.9887 205.735C24.2435 207.167 22.0545 207.946 19.7975 207.939C14.5385 207.939 10.2357 203.804 10.2357 198.698C10.2357 198.478 10.2357 198.258 10.2692 198.043H10.2357C4.57998 198.043 -0.00488281 193.611 -0.00488281 188.151C0.00728876 186.303 0.538627 184.496 1.52851 182.936C2.51839 181.375 3.92696 180.124 5.59352 179.326Z" fill="url(#paint14_linear)"/>
        <path d="M6.61182 179.287C4.5756 177.119 3.44062 174.258 3.43732 171.284C3.44918 169.232 3.9922 167.219 5.01351 165.439C6.03483 163.659 7.49961 162.175 9.26519 161.129C8.47367 159.979 8.0502 158.615 8.05086 157.219C8.06704 156.269 8.27008 155.333 8.64839 154.462C9.0267 153.591 9.57286 152.803 10.2557 152.143C10.9385 151.484 11.7446 150.965 12.6279 150.617C13.5112 150.269 14.4545 150.098 15.4038 150.114C16.9716 150.099 18.503 150.587 19.7725 151.507C21.042 152.427 21.9826 153.73 22.4556 155.225C23.4582 153.648 24.8449 152.352 26.4857 151.458C28.1264 150.564 29.9673 150.102 31.8357 150.114C37.8835 150.114 42.7886 154.852 42.7886 160.699C42.7899 161.947 42.563 163.185 42.1193 164.352C42.3392 164.352 42.5639 164.318 42.7886 164.318C47.646 164.318 51.5807 168.143 51.5807 172.814C51.5811 173.1 51.5667 173.385 51.5376 173.67C53.4731 174.452 55.1331 175.791 56.3075 177.516C57.4819 179.242 58.118 181.278 58.1352 183.365C58.1352 189.193 53.2492 193.917 47.2157 193.917C46.5748 193.917 45.9351 193.862 45.3034 193.754C45.3368 194.103 45.356 194.462 45.356 194.82C45.356 201.356 39.8723 206.658 33.1026 206.658C30.6272 206.658 28.2077 205.922 26.1512 204.545C24.4814 205.914 22.3871 206.659 20.2277 206.653C15.1744 206.653 11.0771 202.694 11.0771 197.808C11.0771 197.598 11.0771 197.388 11.1106 197.182H11.0771C5.6652 197.182 1.27637 192.941 1.27637 187.711C1.29048 185.949 1.79775 184.226 2.74071 182.737C3.68368 181.248 5.02466 180.053 6.61182 179.287Z" fill="#009688"/>
        <path d="M29.111 166.905H25.5254V232.695H29.111V166.905Z" fill="url(#paint15_linear)"/>
        <path d="M28.365 166.905H26.3857V232.695H28.365V166.905Z" fill="#795548"/>
        <path d="M16.5394 173.93L15.126 175.315L26.8732 187.299L28.2866 185.913L16.5394 173.93Z" fill="#795548"/>
        <path d="M39.1902 187.545L27.0117 196.092L28.1487 197.712L40.3271 189.165L39.1902 187.545Z" fill="#795548"/>
        <path d="M58.8862 179.847C60.0935 178.471 60.9908 176.851 61.5171 175.097C62.0434 173.344 62.1865 171.498 61.9367 169.684C61.6868 167.87 61.0499 166.131 60.0691 164.585C59.0882 163.039 57.7864 161.722 56.2519 160.724C57.0436 159.499 57.4637 158.071 57.4615 156.612C57.5054 154.832 56.896 153.098 55.7483 151.736C54.6007 150.375 52.9942 149.481 51.2323 149.223C49.4705 148.965 47.6752 149.362 46.1857 150.337C44.6961 151.313 43.6154 152.8 43.1476 154.518C42.1974 152.888 40.8378 151.534 39.2035 150.59C37.5691 149.647 35.7167 149.147 33.8297 149.14C32.3836 149.154 30.9546 149.453 29.6244 150.021C28.2942 150.588 27.089 151.413 26.0778 152.446C25.0666 153.48 24.2693 154.703 23.7315 156.046C23.1937 157.388 22.9259 158.823 22.9436 160.27C22.9436 161.573 23.1684 162.867 23.6082 164.094C23.3882 164.094 23.1683 164.061 22.9436 164.061C21.7789 164.073 20.628 164.315 19.5571 164.773C18.4863 165.231 17.5166 165.897 16.7039 166.731C15.8913 167.566 15.2516 168.552 14.8218 169.635C14.392 170.718 14.1804 171.875 14.1994 173.039C14.1994 173.345 14.1994 173.646 14.2424 173.943C12.2792 174.824 10.6141 176.256 9.44963 178.065C8.28516 179.875 7.67144 181.984 7.68309 184.136C7.65627 187.044 8.78265 189.844 10.8157 191.924C12.8487 194.003 15.6228 195.193 18.5309 195.232C19.1609 195.232 19.7896 195.176 20.4098 195.065C20.3763 195.433 20.3572 195.806 20.3572 196.183C20.3572 203.058 25.8074 208.614 32.5293 208.614C35.0144 208.613 37.4376 207.838 39.4615 206.395C41.0896 207.824 43.181 208.612 45.3468 208.614C47.7839 208.583 50.1094 207.587 51.8125 205.844C53.5156 204.1 54.4572 201.752 54.4304 199.315C54.4304 199.09 54.4304 198.875 54.3969 198.655H54.4304C57.0421 198.625 59.5349 197.559 61.361 195.692C63.1871 193.824 64.1971 191.308 64.169 188.697C64.1768 186.881 63.6889 185.097 62.758 183.537C61.8271 181.978 60.4884 180.702 58.8862 179.847Z" fill="url(#paint16_linear)"/>
        <path d="M57.4803 179.789C58.6096 178.498 59.4484 176.978 59.94 175.334C60.4316 173.69 60.5645 171.96 60.3297 170.26C60.0949 168.561 59.4979 166.931 58.5791 165.482C57.6603 164.033 56.441 162.798 55.0038 161.861C55.7459 160.711 56.1394 159.371 56.1368 158.003C56.1813 156.33 55.611 154.7 54.5339 153.419C53.4567 152.139 51.9475 151.299 50.292 151.056C48.6366 150.814 46.9498 151.188 45.5511 152.106C44.1524 153.024 43.139 154.423 42.7026 156.038C41.8105 154.507 40.5339 153.236 38.9993 152.35C37.4647 151.465 35.7254 150.996 33.9536 150.989C31.2172 151.027 28.6075 152.149 26.6967 154.108C24.786 156.067 23.7302 158.704 23.7608 161.44C23.7598 162.669 23.9717 163.889 24.3871 165.045C24.1815 165.045 23.9712 165.012 23.7608 165.012C21.5617 165.037 19.4626 165.934 17.925 167.507C16.3875 169.079 15.5374 171.198 15.5616 173.397C15.5616 173.684 15.5616 173.966 15.6046 174.243C13.7624 175.07 12.1998 176.413 11.1066 178.11C10.0134 179.808 9.43685 181.786 9.44688 183.805C9.41755 186.536 10.4737 189.167 12.3832 191.119C14.2927 193.072 16.8993 194.186 19.6301 194.218C20.2217 194.218 20.812 194.165 21.3943 194.06C21.3656 194.409 21.3465 194.758 21.3465 195.112C21.3465 201.566 26.462 206.796 32.7727 206.796C35.1053 206.798 37.3802 206.071 39.2795 204.717C40.8069 206.053 42.7671 206.79 44.7966 206.792C45.9305 206.779 47.0508 206.543 48.0936 206.098C49.1364 205.652 50.0812 205.006 50.8741 204.195C51.667 203.385 52.2925 202.426 52.7148 201.373C53.137 200.321 53.3479 199.196 53.3353 198.062C53.3353 197.851 53.3353 197.646 53.3066 197.44H53.3353C54.5495 197.427 55.7492 197.174 56.8657 196.696C57.9823 196.219 58.9938 195.526 59.8427 194.658C60.6915 193.79 61.361 192.762 61.8129 191.635C62.2647 190.508 62.4902 189.303 62.4763 188.089C62.4786 186.382 62.0145 184.706 61.134 183.243C60.2535 181.781 58.9901 180.586 57.4803 179.789Z" fill="#00897B"/>
        <path d="M39.4522 166.451H36.7988V232.47H39.4522V166.451Z" fill="url(#paint17_linear)"/>
        <path d="M38.8876 167.378H37.5537V232.469H38.8876V167.378Z" fill="#795548"/>
        <path d="M48.396 174.712L37.4395 186.544L38.4181 187.45L49.3747 175.618L48.396 174.712Z" fill="#795548"/>
        <path d="M26.9603 188.216L26.165 189.287L37.526 197.725L38.3213 196.654L26.9603 188.216Z" fill="#795548"/>
        <path d="M321.951 90.0593C318.352 86.2821 314.04 83.2695 309.27 81.1986C304.5 79.1277 299.367 78.0406 294.174 78.0011C288.981 77.9616 283.832 78.9707 279.032 80.9688C274.231 82.9669 269.875 85.9137 266.22 89.6357C251.483 104.624 251.234 129.026 265.647 144.319C271.979 151.047 280.466 155.296 289.605 156.315C298.744 157.335 307.946 155.058 315.581 149.888L343.727 179.412C343.899 179.593 344.105 179.738 344.333 179.839C344.561 179.94 344.806 179.995 345.055 180C345.304 180.005 345.552 179.96 345.783 179.869C346.015 179.777 346.227 179.64 346.406 179.466L353.417 172.665C353.597 172.491 353.741 172.283 353.841 172.053C353.941 171.823 353.995 171.576 354 171.325C354.005 171.074 353.96 170.824 353.87 170.59C353.779 170.356 353.643 170.143 353.471 169.962L325.325 140.438C330.722 132.98 333.342 123.842 332.725 114.629C332.108 105.416 328.293 96.7171 321.951 90.0593ZM313.184 137.534C309.215 141.386 304.202 143.964 298.781 144.942C293.359 145.92 287.771 145.255 282.725 143.029C277.678 140.804 273.399 137.118 270.428 132.439C267.458 127.76 265.929 122.298 266.036 116.742C266.143 111.187 267.88 105.788 271.028 101.229C274.176 96.6696 278.594 93.1544 283.722 91.1279C288.851 89.1015 294.459 88.6547 299.839 89.8441C305.219 91.0335 310.129 93.8057 313.947 97.81C316.483 100.469 318.474 103.606 319.808 107.041C321.142 110.476 321.792 114.143 321.721 117.832C321.65 121.52 320.86 125.159 319.395 128.539C317.93 131.92 315.82 134.976 313.184 137.534Z" fill="url(#paint18_linear)"/>
        <path d="M273.499 110C270.17 110 270.164 115 273.499 115C276.835 115 276.832 110 273.499 110Z" fill="url(#paint19_linear)"/>
        <path d="M295.476 94.0062C287.04 93.814 279.36 98.0741 275.28 104.515C273.948 106.612 277.73 108.465 279.055 106.379C282.435 101.055 288.858 97.6639 295.799 97.8511C303.079 98.0356 309.704 102.226 313.211 108.042C314.543 110.249 318.028 108.242 316.706 106.048C312.45 98.9814 304.192 94.2036 295.476 94.0062Z" fill="url(#paint20_linear)"/>
        <path d="M324.949 88.9411C321.35 85.201 317.039 82.2178 312.269 80.1672C307.498 78.1167 302.366 77.0402 297.173 77.0011C291.98 76.962 286.832 77.9611 282.031 79.9397C277.23 81.9182 272.874 84.8361 269.22 88.5217C254.483 103.363 254.234 127.526 268.647 142.669C274.978 149.33 283.465 153.538 292.604 154.548C301.743 155.557 310.945 153.302 318.58 148.183L346.724 177.418C346.897 177.597 347.103 177.741 347.331 177.841C347.559 177.941 347.804 177.995 348.053 178C348.302 178.005 348.549 177.96 348.781 177.87C349.013 177.779 349.225 177.644 349.404 177.471L356.417 170.734C356.597 170.562 356.741 170.357 356.841 170.129C356.941 169.901 356.995 169.656 357 169.407C357.005 169.158 356.96 168.911 356.87 168.68C356.779 168.448 356.643 168.237 356.471 168.058L328.326 138.823C333.722 131.438 336.341 122.39 335.723 113.268C335.105 104.146 331.291 95.5331 324.949 88.9411ZM316.183 135.95C312.213 139.765 307.201 142.317 301.779 143.286C296.358 144.255 290.771 143.595 285.724 141.392C280.677 139.188 276.398 135.539 273.428 130.906C270.457 126.273 268.929 120.863 269.036 115.363C269.142 109.862 270.88 104.516 274.028 100.001C277.176 95.4865 281.593 92.0058 286.721 89.9992C291.85 87.9926 297.458 87.5502 302.838 88.728C308.218 89.9057 313.128 92.6507 316.946 96.6158C319.481 99.2486 321.473 102.355 322.806 105.756C324.14 109.158 324.79 112.788 324.719 116.441C324.648 120.094 323.858 123.696 322.393 127.044C320.928 130.391 318.818 133.418 316.183 135.95Z" fill="#FFD948"/>
        <path d="M276.499 108C273.17 108 273.164 113 276.499 113C279.835 113 279.832 108 276.499 108Z" fill="#FFD948"/>
        <path d="M298.476 93.0062C290.04 92.814 282.36 97.0741 278.28 103.515C276.948 105.612 280.73 107.465 282.055 105.379C285.435 100.055 291.858 96.6639 298.799 96.8511C306.079 97.0356 312.704 101.226 316.211 107.042C317.543 109.249 321.028 107.242 319.706 105.048C315.45 97.9866 307.192 93.2062 298.476 93.0062Z" fill="#FFD948"/>
    </g>
    <defs>
        <linearGradient id="paint0_linear" x1="408.717" y1="178.877" x2="408.717" y2="74.8927" gradientUnits="userSpaceOnUse">
            <stop stop-color="#808080" stop-opacity="0.25"/>
            <stop offset="0.54" stop-color="#808080" stop-opacity="0.12"/>
            <stop offset="1" stop-color="#808080" stop-opacity="0.1"/>
        </linearGradient>
        <linearGradient id="paint1_linear" x1="5736.9" y1="53999.8" x2="5736.9" y2="25946.7" gradientUnits="userSpaceOnUse">
            <stop stop-color="#808080" stop-opacity="0.25"/>
            <stop offset="0.54" stop-color="#808080" stop-opacity="0.12"/>
            <stop offset="1" stop-color="#808080" stop-opacity="0.1"/>
        </linearGradient>
        <linearGradient id="paint2_linear" x1="92564.1" y1="67048.5" x2="92564.1" y2="43423.8" gradientUnits="userSpaceOnUse">
            <stop stop-color="#808080" stop-opacity="0.25"/>
            <stop offset="0.54" stop-color="#808080" stop-opacity="0.12"/>
            <stop offset="1" stop-color="#808080" stop-opacity="0.1"/>
        </linearGradient>
        <linearGradient id="paint3_linear" x1="4046.52" y1="55537.1" x2="4046.52" y2="26421.4" gradientUnits="userSpaceOnUse">
            <stop stop-color="#808080" stop-opacity="0.25"/>
            <stop offset="0.54" stop-color="#808080" stop-opacity="0.12"/>
            <stop offset="1" stop-color="#808080" stop-opacity="0.1"/>
        </linearGradient>
        <linearGradient id="paint4_linear" x1="62214.8" y1="47360.2" x2="62214.8" y2="36857" gradientUnits="userSpaceOnUse">
            <stop stop-color="#808080" stop-opacity="0.25"/>
            <stop offset="0.54" stop-color="#808080" stop-opacity="0.12"/>
            <stop offset="1" stop-color="#808080" stop-opacity="0.1"/>
        </linearGradient>
        <linearGradient id="paint5_linear" x1="3420.18" y1="37966" x2="3420.18" y2="24939" gradientUnits="userSpaceOnUse">
            <stop stop-color="#808080" stop-opacity="0.25"/>
            <stop offset="0.54" stop-color="#808080" stop-opacity="0.12"/>
            <stop offset="1" stop-color="#808080" stop-opacity="0.1"/>
        </linearGradient>
        <linearGradient id="paint6_linear" x1="56907.7" y1="48058.7" x2="56907.7" y2="37414.7" gradientUnits="userSpaceOnUse">
            <stop stop-color="#808080" stop-opacity="0.25"/>
            <stop offset="0.54" stop-color="#808080" stop-opacity="0.12"/>
            <stop offset="1" stop-color="#808080" stop-opacity="0.1"/>
        </linearGradient>
        <linearGradient id="paint7_linear" x1="2541.76" y1="38337.7" x2="2541.76" y2="25220.6" gradientUnits="userSpaceOnUse">
            <stop stop-color="#808080" stop-opacity="0.25"/>
            <stop offset="0.54" stop-color="#808080" stop-opacity="0.12"/>
            <stop offset="1" stop-color="#808080" stop-opacity="0.1"/>
        </linearGradient>
        <linearGradient id="paint8_linear" x1="73840.8" y1="58472" x2="73840.8" y2="28352.1" gradientUnits="userSpaceOnUse">
            <stop stop-color="#808080" stop-opacity="0.25"/>
            <stop offset="0.54" stop-color="#808080" stop-opacity="0.12"/>
            <stop offset="1" stop-color="#808080" stop-opacity="0.1"/>
        </linearGradient>
        <linearGradient id="paint9_linear" x1="134654" y1="28770.6" x2="134654" y2="22113.7" gradientUnits="userSpaceOnUse">
            <stop stop-color="#808080" stop-opacity="0.25"/>
            <stop offset="0.54" stop-color="#808080" stop-opacity="0.12"/>
            <stop offset="1" stop-color="#808080" stop-opacity="0.1"/>
        </linearGradient>
        <linearGradient id="paint10_linear" x1="37225" y1="109983" x2="37225" y2="3020.75" gradientUnits="userSpaceOnUse">
            <stop stop-color="#808080" stop-opacity="0.25"/>
            <stop offset="0.54" stop-color="#808080" stop-opacity="0.12"/>
            <stop offset="1" stop-color="#808080" stop-opacity="0.1"/>
        </linearGradient>
        <linearGradient id="paint11_linear" x1="43106.2" y1="14498.3" x2="43106.2" y2="197.097" gradientUnits="userSpaceOnUse">
            <stop stop-color="#808080" stop-opacity="0.25"/>
            <stop offset="0.54" stop-color="#808080" stop-opacity="0.12"/>
            <stop offset="1" stop-color="#808080" stop-opacity="0.1"/>
        </linearGradient>
        <linearGradient id="paint12_linear" x1="15317.8" y1="40586.2" x2="15317.8" y2="33285.3" gradientUnits="userSpaceOnUse">
            <stop stop-color="#808080" stop-opacity="0.25"/>
            <stop offset="0.54" stop-color="#808080" stop-opacity="0.12"/>
            <stop offset="1" stop-color="#808080" stop-opacity="0.1"/>
        </linearGradient>
        <linearGradient id="paint13_linear" x1="429.532" y1="32188" x2="429.532" y2="23134.7" gradientUnits="userSpaceOnUse">
            <stop stop-color="#808080" stop-opacity="0.25"/>
            <stop offset="0.54" stop-color="#808080" stop-opacity="0.12"/>
            <stop offset="1" stop-color="#808080" stop-opacity="0.1"/>
        </linearGradient>
        <linearGradient id="paint14_linear" x1="12383.2" y1="40586.2" x2="12383.2" y2="33285.3" gradientUnits="userSpaceOnUse">
            <stop stop-color="#808080" stop-opacity="0.25"/>
            <stop offset="0.54" stop-color="#808080" stop-opacity="0.12"/>
            <stop offset="1" stop-color="#808080" stop-opacity="0.1"/>
        </linearGradient>
        <linearGradient id="paint15_linear" x1="230.41" y1="32188" x2="230.41" y2="23134.7" gradientUnits="userSpaceOnUse">
            <stop stop-color="#808080" stop-opacity="0.25"/>
            <stop offset="0.54" stop-color="#808080" stop-opacity="0.12"/>
            <stop offset="1" stop-color="#808080" stop-opacity="0.1"/>
        </linearGradient>
        <linearGradient id="paint16_linear" x1="12518.4" y1="40939.4" x2="12518.4" y2="33541.4" gradientUnits="userSpaceOnUse">
            <stop stop-color="#808080" stop-opacity="0.25"/>
            <stop offset="0.54" stop-color="#808080" stop-opacity="0.12"/>
            <stop offset="1" stop-color="#808080" stop-opacity="0.1"/>
        </linearGradient>
        <linearGradient id="paint17_linear" x1="248.406" y1="32268.2" x2="248.406" y2="23151.6" gradientUnits="userSpaceOnUse">
            <stop stop-color="#808080" stop-opacity="0.25"/>
            <stop offset="0.54" stop-color="#808080" stop-opacity="0.12"/>
            <stop offset="1" stop-color="#808080" stop-opacity="0.1"/>
        </linearGradient>
        <linearGradient id="paint18_linear" x1="304.504" y1="180.008" x2="304.504" y2="78.0032" gradientUnits="userSpaceOnUse">
            <stop stop-color="#B3B3B3" stop-opacity="0.25"/>
            <stop offset="0.54" stop-color="#B3B3B3" stop-opacity="0.1"/>
            <stop offset="1" stop-color="#B3B3B3" stop-opacity="0.05"/>
        </linearGradient>
        <linearGradient id="paint19_linear" x1="273.499" y1="115.003" x2="273.499" y2="110" gradientUnits="userSpaceOnUse">
            <stop stop-opacity="0.12"/>
            <stop offset="0.55" stop-opacity="0.09"/>
            <stop offset="1" stop-opacity="0.02"/>
        </linearGradient>
        <linearGradient id="paint20_linear" x1="32032" y1="5719.6" x2="32032" y2="4842.4" gradientUnits="userSpaceOnUse">
            <stop stop-opacity="0.12"/>
            <stop offset="0.55" stop-opacity="0.09"/>
            <stop offset="1" stop-opacity="0.02"/>
        </linearGradient>
        <clipPath id="clip0">
            <rect width="461" height="232.694" fill="white"/>
        </clipPath>
    </defs>
</svg>
