<svg width="461" height="295" viewBox="0 0 461 295" fill="none" xmlns="http://www.w3.org/2000/svg">
<path opacity="0.5" d="M433.132 252.493C432.299 249.061 429.562 246.474 427.548 243.568C425.126 239.986 423.711 235.821 423.45 231.508C423.188 227.194 424.09 222.889 426.061 219.042C427.998 215.363 431.035 211.558 429.935 207.54C429.199 204.837 426.753 202.986 424.351 201.535C415.225 196.049 404.692 193.345 394.047 193.756C380.999 194.288 367.995 199.49 355.199 196.913C342.738 194.394 332.179 188.158 319.141 187.418C309.401 186.867 299.768 187.486 290.009 186.422C265.896 183.811 241.605 183.232 217.394 184.691C193.185 183.232 168.896 183.811 144.784 186.422C135.049 187.486 125.411 186.867 115.652 187.418C102.575 188.153 92.0412 194.399 79.5746 196.913C66.7739 199.495 53.7747 194.288 40.7269 193.756C30.0819 193.345 19.5486 196.049 10.4227 201.535C8.00109 202.986 5.57947 204.837 4.83845 207.54C3.74388 211.553 6.77575 215.358 8.71305 219.042C10.6854 222.889 11.5887 227.193 11.3289 231.506C11.0691 235.82 9.6557 239.985 7.23586 243.568C5.22107 246.469 2.48463 249.061 1.65159 252.493C-0.0241735 259.397 6.69826 265.479 13.2754 268.221C31.2196 275.71 53.0433 272.088 69.4571 282.517C76.814 287.197 83.2507 294.71 91.9685 294.99C97.8628 295.179 103.224 291.911 108.373 289.034C116.077 284.729 124.131 281.078 132.448 278.122C139.713 275.54 147.409 273.471 155.076 274.327C166.782 275.618 217.385 300.023 240.196 285.601C255.821 275.714 268.006 275.632 279.741 274.322C287.408 273.466 295.099 275.536 302.369 278.117C310.687 281.074 318.741 284.724 326.445 289.029C331.588 291.906 336.955 295.174 342.849 294.986C351.567 294.705 358.003 287.192 365.36 282.512C381.764 272.079 403.583 275.705 421.542 268.216C428.085 265.465 434.813 259.402 433.132 252.493Z" fill="#FFD948"/>
<path d="M430.758 252.353C429.935 248.968 427.228 246.396 425.237 243.524C422.847 239.979 421.452 235.86 421.197 231.594C420.941 227.329 421.835 223.073 423.784 219.269C425.721 215.628 428.705 211.867 427.62 207.897C426.889 205.224 424.472 203.391 422.099 201.96C413.074 196.533 402.657 193.858 392.129 194.263C379.226 194.786 366.367 199.935 353.707 197.382C341.376 194.897 330.944 188.718 318.027 187.988C308.394 187.446 298.848 188.056 289.219 187.021C265.371 184.439 241.348 183.866 217.404 185.31C193.459 183.866 169.436 184.439 145.588 187.021C135.959 188.075 126.413 187.461 116.78 187.988C103.868 188.713 93.4308 194.892 81.0999 197.382C68.4445 199.935 55.5808 194.786 42.6784 194.263C32.1504 193.858 21.7333 196.533 12.7084 201.96C10.3352 203.411 7.91839 205.224 7.18706 207.897C6.10217 211.867 9.12436 215.633 11.0229 219.269C12.9725 223.073 13.866 227.329 13.6105 231.594C13.355 235.86 11.9598 239.979 9.56994 243.524C7.57452 246.396 4.87198 248.954 4.04863 252.353C2.34865 259.179 8.99844 265.194 15.4932 267.882C33.2437 275.284 54.8253 271.701 71.0453 282.018C78.3102 286.645 84.6888 294.081 93.3243 294.357C99.1362 294.545 104.464 291.311 109.549 288.463C117.17 284.203 125.136 280.592 133.363 277.667C140.556 275.11 148.16 273.064 155.744 273.911C167.368 275.206 217.399 299.327 239.939 285.064C255.394 275.288 267.444 275.206 279.048 273.911C286.633 273.064 294.242 275.11 301.429 277.667C309.657 280.592 317.623 284.203 325.243 288.463C330.334 291.306 335.637 294.54 341.468 294.357C350.089 294.081 356.458 286.65 363.747 282.018C379.972 271.701 401.554 275.284 419.299 267.882C425.77 265.194 432.42 259.179 430.758 252.353Z" fill="#FFD948"/>
<path d="M36.2803 0V12.082V239.415H388.351V12.082V0H36.2803Z" fill="url(#paint0_linear)"/>
<path d="M384.622 10.8633H41.502V235.083H384.622V10.8633Z" fill="white"/>
<path d="M384.622 0.198242H41.502V16.6943H384.622V0.198242Z" fill="#EEEEEE"/>
<path d="M54.5591 12.1929C56.7712 12.1929 58.5644 10.4028 58.5644 8.1946C58.5644 5.98639 56.7712 4.19629 54.5591 4.19629C52.347 4.19629 50.5537 5.98639 50.5537 8.1946C50.5537 10.4028 52.347 12.1929 54.5591 12.1929Z" fill="#FF5252"/>
<path d="M65.5776 12.1929C67.7897 12.1929 69.583 10.4028 69.583 8.1946C69.583 5.98639 67.7897 4.19629 65.5776 4.19629C63.3655 4.19629 61.5723 5.98639 61.5723 8.1946C61.5723 10.4028 63.3655 12.1929 65.5776 12.1929Z" fill="#FFFF00"/>
<path d="M76.5962 12.1929C78.8083 12.1929 80.6015 10.4028 80.6015 8.1946C80.6015 5.98639 78.8083 4.19629 76.5962 4.19629C74.3841 4.19629 72.5908 5.98639 72.5908 8.1946C72.5908 10.4028 74.3841 12.1929 76.5962 12.1929Z" fill="#69F0AE"/>
<path opacity="0.5" d="M182.513 43.1162H54.6514V48.4344H182.513V43.1162Z" fill="#6C63FF"/>
<path opacity="0.5" d="M182.513 53.752H54.6514V59.0701H182.513V53.752Z" fill="#6C63FF"/>
<path opacity="0.5" d="M182.513 64.3887H54.6514V69.7069H182.513V64.3887Z" fill="#6C63FF"/>
<path opacity="0.5" d="M182.513 75.0254H98.7246V80.3436H182.513V75.0254Z" fill="#6C63FF"/>
<path opacity="0.5" d="M121.973 85.6611H54.6514V90.9793H121.973V85.6611Z" fill="#6C63FF"/>
<path opacity="0.5" d="M142.798 96.2979H90.9756V101.616H142.798V96.2979Z" fill="#6C63FF"/>
<path opacity="0.5" d="M350.09 80.3438H199.465V166.885H350.09V80.3438Z" fill="#6C63FF"/>
<path d="M368.01 88.5625H217.385V175.104H368.01V88.5625Z" fill="#EEEEEE"/>
<path opacity="0.5" d="M458.569 168.403C458.881 168.004 459.052 167.512 459.053 167.006C459.053 167.006 459.053 166.977 459.053 166.967C459.053 166.957 459.082 166.866 459.097 166.817V166.754C459.099 166.708 459.099 166.661 459.097 166.614C459.097 166.614 459.097 166.576 459.097 166.556C459.102 166.498 459.102 166.44 459.097 166.382C458.811 164.448 447.299 151.849 444.422 136.479C444.103 134.806 443.628 133.166 443.003 131.582C443.091 130.789 443.039 129.987 442.848 129.213C442.363 127.245 441.395 125.248 441.879 123.285C441.947 123.029 442.036 122.778 442.145 122.536C442.749 121.65 443.304 120.732 443.807 119.785C443.994 119.476 444.156 119.153 444.291 118.818C446.059 114.167 440.586 109.366 441.593 104.512C442.029 102.409 443.661 100.572 443.618 98.4302C443.564 95.979 441.307 94.0789 438.963 93.17C436.619 92.2611 434.038 92 431.737 90.9847C426.695 88.7559 423.935 83.3749 419.334 80.3822C413.488 76.5869 405.86 77.2638 398.851 78.2452C398.621 78.279 398.402 78.3691 398.214 78.5074C398.027 78.6457 397.876 78.8279 397.776 79.0381H397.708C397.655 79.1928 397.592 79.3427 397.524 79.4926C396.556 81.1412 394.924 82.3934 393.311 83.5489C391.344 84.9316 389.238 86.295 388.036 88.3449C387.857 88.6495 387.707 88.9396 387.576 89.22C384.961 93.8759 388.104 95.8871 391.935 97.0039C391.821 97.6699 391.762 98.3443 391.761 99.02C391.761 105.789 397.432 111.315 404.421 111.315C404.973 111.314 405.525 111.278 406.073 111.208L406.48 111.474H406.572C407.87 112.407 408.993 113.577 409.478 114.97L405.419 118.064C405.419 118.064 405.584 118.489 405.826 119.166L389.872 126.505C383.828 126.786 374.044 107.781 374.044 107.781C374.044 107.781 372.591 96.8831 367.424 94.925C365.864 94.3352 365.244 95.568 365.138 97.5793C362.827 99.9966 366.707 113.572 366.707 113.572L379.081 135.372C380.234 137.606 380.534 139.003 385.988 139.844C390.478 140.531 404.465 135.57 409.332 133.772L409.56 135.706C408.994 137.18 408.743 138.756 408.824 140.333C408.824 143.896 410.417 149.079 418.195 153.208C418.195 153.208 426.226 163.568 425.334 173.349C425.334 173.349 425.722 173.755 426.342 174.287C426.255 177.043 425.857 180.441 424.467 181.766C424.375 181.853 424.307 181.961 424.269 182.081C424.231 182.201 424.224 182.329 424.249 182.453C424.22 182.597 424.236 182.748 424.297 182.882C424.358 183.017 424.46 183.129 424.588 183.202L414.452 200.921C414.074 201.405 413.691 201.888 413.299 202.372C411.417 204.766 409.328 206.991 407.056 209.02C405.366 210.523 403.608 212.167 403.259 212.781C402.721 213.748 401.37 216.866 401.941 219.443C402.681 222.568 402.984 225.779 402.842 228.987L401.53 251.908C401.09 254.467 400.483 256.995 399.714 259.475H399.515C399.515 259.475 394.623 265.344 386.855 266.727C379.086 268.109 379.372 272.045 381.672 272.596C383.973 273.147 411.889 272.035 411.889 272.035C411.889 272.035 412.945 269.98 412.655 268.105C421.566 267.249 433.912 265.798 433.912 265.798C433.912 265.798 435.602 261.742 433.147 259.973C432.222 259.264 431.536 258.291 431.18 257.183C431.035 256.564 430.875 255.858 430.72 255.119C430.681 254.756 430.681 254.534 430.681 254.534H430.599C430.168 252.372 429.824 250.057 430.023 248.843C430.744 245.628 432.614 227.043 428.008 221.735C425.916 219.317 426.201 216.571 427.131 214.28C432.657 210.668 440.387 202.899 444.857 198.199C445.109 198.407 445.342 198.615 445.56 198.823L445.705 198.963C445.705 198.963 460.918 191.445 460.981 178.174C461.004 174.767 460.175 171.409 458.569 168.403ZM409.841 262.023C409.813 261.538 409.831 261.053 409.894 260.572L409.41 260.519C409.691 258.411 410.378 256.052 411.919 254.422C414.563 249.641 416.433 244.471 417.459 239.106L420.254 249.66C420.254 249.66 420.535 251.845 420.612 254.156H420.564C420.564 254.156 416.665 259.712 409.841 262.023Z" fill="url(#paint1_linear)"/>
<path d="M422.472 125.326C422.472 125.326 415.638 127.782 411.817 131.877C411.817 131.877 393.223 139.245 388.027 138.428C382.83 137.611 382.559 136.242 381.464 134.076L369.705 112.804C369.705 112.804 364.784 95.0603 369.705 96.97C374.625 98.8797 376.001 109.54 376.001 109.54C376.001 109.54 385.3 128.101 391.039 127.83L406.61 120.423C406.61 120.423 410.165 115.236 411.807 115.511C413.449 115.787 422.472 125.326 422.472 125.326Z" fill="#FDB797"/>
<g opacity="0.05">
<path opacity="0.05" d="M422.472 125.326C422.472 125.326 415.638 127.782 411.817 131.877C411.817 131.877 393.223 139.245 388.027 138.428C382.83 137.611 382.559 136.242 381.464 134.076L369.705 112.804C369.705 112.804 364.784 95.0603 369.705 96.97C374.625 98.8797 376.001 109.54 376.001 109.54C376.001 109.54 385.3 128.101 391.039 127.83L406.61 120.423C406.61 120.423 410.165 115.236 411.807 115.511C413.449 115.787 422.472 125.326 422.472 125.326Z" fill="black"/>
</g>
<path d="M411.246 115.264L405.792 119.538C405.792 119.538 408.519 126.66 407.836 129.155C407.153 131.649 418.743 125.238 418.743 125.238L413.972 114.554L411.246 115.264Z" fill="#F9CE43"/>
<g opacity="0.05">
<path opacity="0.05" d="M411.246 115.264L405.792 119.538C405.792 119.538 408.519 126.66 407.836 129.155C407.153 131.649 418.743 125.238 418.743 125.238L413.972 114.554L411.246 115.264Z" fill="black"/>
</g>
<path d="M401.83 110.507C401.83 110.507 413.996 114.467 408.393 121.424L425.891 112.964C425.891 112.964 418.51 113.51 413.861 102.327L401.83 110.507Z" fill="#FDB797"/>
<path d="M424.797 181.752L409.759 208.773L419.881 248.06C419.881 248.06 420.976 256.796 419.334 257.614H430.817C430.817 257.614 428.604 249.878 429.175 247.243C429.858 244.105 431.636 225.97 427.238 220.768C422.84 215.566 429.427 208.759 429.427 208.759L442.552 188.013L424.797 181.752Z" fill="#FDB797"/>
<g opacity="0.05">
<path opacity="0.05" d="M424.797 181.752L409.759 208.773L419.881 248.06C419.881 248.06 420.976 256.796 419.334 257.614H430.817C430.817 257.614 428.769 249.834 429.175 247.243C429.582 244.652 431.636 225.97 427.238 220.768C422.84 215.566 429.427 208.759 429.427 208.759L442.552 188.013L424.797 181.752Z" fill="black"/>
</g>
<path d="M420.172 252.469C420.172 252.469 416.007 258.594 408.742 260.538C401.477 262.481 402.068 266.272 404.291 266.639C406.514 267.007 432.866 263.821 432.866 263.821C432.866 263.821 434.469 259.861 432.139 258.13C429.81 256.399 429.795 252.812 429.795 252.812L420.172 252.469Z" fill="#0D134D"/>
<g opacity="0.1">
<path opacity="0.1" d="M425.62 170.83C425.62 170.83 426.269 179.707 423.9 182.037C423.817 182.114 423.754 182.21 423.716 182.317C423.677 182.423 423.664 182.537 423.678 182.649C423.693 182.762 423.733 182.869 423.797 182.963C423.861 183.056 423.946 183.133 424.046 183.188L431.088 186.935L437.384 174.925L425.62 170.83Z" fill="black"/>
</g>
<path d="M425.62 170.56C425.62 170.56 426.269 179.436 423.9 181.766C423.817 181.844 423.754 181.94 423.716 182.046C423.677 182.152 423.664 182.267 423.678 182.379C423.693 182.491 423.733 182.599 423.797 182.692C423.861 182.786 423.946 182.863 424.046 182.917L431.088 186.664L437.384 174.655L425.62 170.56Z" fill="#E23553"/>
<g opacity="0.1">
<path opacity="0.1" d="M425.62 171.043C425.62 171.043 426.269 179.92 423.9 182.25C423.817 182.327 423.754 182.423 423.716 182.529C423.677 182.636 423.664 182.75 423.678 182.862C423.693 182.975 423.733 183.082 423.797 183.175C423.861 183.269 423.946 183.346 424.046 183.4L431.088 187.147L437.384 175.138L425.62 171.043Z" fill="black"/>
</g>
<path d="M425.892 188.027C425.892 188.027 421.828 190.735 413.299 201.879C411.516 204.212 409.531 206.385 407.366 208.372C405.763 209.822 404.092 211.447 403.758 212.046C403.245 212.97 401.961 216.04 402.509 218.554C403.212 221.608 403.5 224.744 403.366 227.875L402.121 250.265C402.121 250.265 400.479 260.364 398.295 261.457L409.507 263.391C409.507 263.391 408.689 256.294 411.967 252.755C411.967 252.755 419.625 239.652 417.712 224.911C417.712 224.911 416.893 218.36 424.274 214.812C431.655 211.263 446.698 194.066 446.698 194.066L425.892 188.027Z" fill="#FDB797"/>
<path d="M400.188 257.633C400.188 257.633 395.538 263.367 388.157 264.73C380.776 266.094 381.047 269.918 383.237 270.464C385.426 271.01 411.947 269.918 411.947 269.918C411.947 269.918 413.885 266.098 411.676 264.184C409.468 262.269 410.034 258.725 410.034 258.725L400.188 257.633Z" fill="#0D134D"/>
<g opacity="0.1">
<path opacity="0.1" d="M432.73 173.561C432.73 173.561 429.393 184.749 425.165 188.007C425.086 188.066 425.025 188.145 424.988 188.235C424.951 188.325 424.939 188.424 424.953 188.521C424.968 188.617 425.008 188.708 425.07 188.784C425.132 188.859 425.213 188.917 425.305 188.95C428.802 190.222 440.038 194.505 443.942 198.402L444.078 198.537C444.078 198.537 467.456 186.663 454.878 166.464L432.73 173.561Z" fill="black"/>
</g>
<path d="M432.73 173.291C432.73 173.291 429.393 184.478 425.165 187.737C425.086 187.795 425.025 187.874 424.988 187.964C424.951 188.055 424.939 188.153 424.953 188.25C424.968 188.347 425.008 188.438 425.07 188.513C425.132 188.589 425.213 188.646 425.305 188.68C428.802 189.951 440.038 194.235 443.942 198.131L444.078 198.267C444.078 198.267 467.456 186.393 454.878 166.193L432.73 173.291Z" fill="#E23553"/>
<g opacity="0.1">
<path opacity="0.1" d="M413.531 117.817C411.794 118.984 409.894 119.889 407.894 120.505L409.773 137.2C409.773 137.2 405.38 147.014 417.943 153.87C417.943 153.87 425.571 163.989 424.724 173.542C424.724 173.542 428.816 177.922 431.553 176.835C434.289 175.747 431.824 177.381 432.371 177.11C432.919 176.839 434.008 179.3 442.489 177.134C450.969 174.968 457.019 169.259 456.733 167.344C456.447 165.429 445.559 153.12 442.862 138.099C440.164 123.077 424.06 112.393 424.06 112.393C424.06 112.393 423.528 112.687 422.607 113.079C419.459 114.413 416.424 115.997 413.531 117.817Z" fill="black"/>
</g>
<g opacity="0.1">
<path opacity="0.1" d="M424.951 188.109C424.941 188.227 424.971 188.344 425.035 188.443C425.098 188.542 425.194 188.617 425.305 188.656C428.317 189.753 437.074 193.084 441.936 196.478C437.728 193.084 428.772 189.56 424.951 188.109Z" fill="black"/>
<path opacity="0.1" d="M454.878 166.193L454.393 166.358C465.141 185.112 444.901 196.439 443.133 197.382C443.438 197.634 443.714 197.866 443.966 198.131L444.101 198.267C444.101 198.267 467.456 186.393 454.878 166.193Z" fill="black"/>
</g>
<path d="M442.572 176.564C434.096 178.749 433.001 176.293 432.454 176.564C431.907 176.834 434.391 175.2 431.635 176.293C428.88 177.385 424.802 173.015 424.802 173.015C424.84 172.531 424.86 172.082 424.86 171.613C424.889 162.485 417.944 153.362 417.944 153.362C405.351 146.54 409.739 136.711 409.739 136.711L409.226 132.234L407.816 120.022C409.815 119.402 411.711 118.493 413.444 117.324C416.333 115.499 419.363 113.908 422.506 112.566C423.431 112.17 423.959 111.875 423.959 111.875C423.959 111.875 440.092 122.511 442.848 137.533C445.603 152.554 456.52 164.83 456.791 166.739C457.062 168.649 451.047 174.378 442.572 176.564Z" fill="#F9CE43"/>
<g opacity="0.1">
<path opacity="0.1" d="M414.131 102.593L402.101 110.783C403.759 111.357 405.336 112.142 406.794 113.118C410.891 112.543 413.4 109.613 415.09 106.006C414.432 104.952 414.722 104.009 414.131 102.593Z" fill="black"/>
</g>
<path d="M404.837 112.968C411.482 112.968 416.868 107.591 416.868 100.959C416.868 94.326 411.482 88.9492 404.837 88.9492C398.193 88.9492 392.807 94.326 392.807 100.959C392.807 107.591 398.193 112.968 404.837 112.968Z" fill="#FDB797"/>
<g opacity="0.1">
<path opacity="0.1" d="M444.485 175.201C436.009 177.386 434.915 174.93 434.367 175.201C433.82 175.472 436.305 173.837 433.549 174.93C430.793 176.023 426.715 171.652 426.715 171.652C426.754 171.169 426.773 170.719 426.773 170.25C426.807 161.137 419.876 151.999 419.876 151.999C407.284 145.177 411.672 135.348 411.672 135.348L411.163 130.866L409.831 119.307C409.188 119.596 408.522 119.834 407.841 120.017L409.226 132.235L409.744 136.712C409.744 136.712 405.385 146.541 417.949 153.362C417.949 153.362 424.879 162.5 424.845 171.613C424.845 172.097 424.845 172.547 424.787 173.016C424.787 173.016 428.89 177.367 431.621 176.293C434.353 175.22 431.892 176.84 432.44 176.564C432.987 176.289 434.082 178.749 442.557 176.564C446.402 175.571 450.006 173.81 453.149 171.386C450.483 173.11 447.558 174.398 444.485 175.201Z" fill="black"/>
</g>
<path d="M421.789 127.705C421.789 127.705 414.955 130.161 411.134 134.256C411.134 134.256 392.541 141.624 387.344 140.807C382.147 139.99 381.876 138.621 380.781 136.455L369.022 115.183C369.022 115.183 364.101 97.4392 369.022 99.3489C373.943 101.259 375.318 111.919 375.318 111.919C375.318 111.919 384.617 130.48 390.356 130.209L405.932 122.792C405.932 122.792 409.487 117.605 411.129 117.88C412.771 118.156 421.789 127.705 421.789 127.705Z" fill="#FDB797"/>
<g opacity="0.1">
<path opacity="0.1" d="M412.557 117.711C412.557 117.711 406.886 117.193 405.244 124.291C403.602 131.388 417.837 135.754 417.837 135.754L425.494 125.117L412.557 117.711Z" fill="black"/>
</g>
<path d="M412.834 117.711C412.834 117.711 407.162 117.193 405.521 124.291C403.879 131.388 418.113 135.754 418.113 135.754L425.77 125.117L412.834 117.711Z" fill="#F9CE43"/>
<g opacity="0.1">
<path opacity="0.1" d="M410.519 118.973C409.661 119.404 408.762 119.751 407.836 120.007L407.884 120.418C408.788 119.983 409.667 119.501 410.519 118.973Z" fill="black"/>
<path opacity="0.1" d="M456.791 166.739C456.52 164.805 445.579 152.545 442.848 137.533C440.116 122.521 423.959 111.875 423.959 111.875C423.959 111.875 423.426 112.17 422.506 112.566C420.049 113.62 417.658 114.823 415.348 116.168C416.881 115.362 418.447 114.618 420.046 113.935C420.971 113.538 421.499 113.243 421.499 113.243C421.499 113.243 437.631 123.88 440.387 138.901C443.143 153.923 454.06 166.198 454.331 168.108C454.505 169.311 452.176 172.033 448.306 174.431C453.619 171.796 457 168.18 456.791 166.739Z" fill="black"/>
</g>
<path opacity="0.1" d="M416.084 117.822C416.084 117.822 423.155 121.318 424.487 128.038" stroke="black" stroke-miterlimit="10"/>
<g opacity="0.1">
<path opacity="0.1" d="M398.793 100.282C399.922 100.533 401.181 100.886 401.738 101.896C402.14 102.631 402.067 103.555 402.46 104.314C403.467 106.209 406.421 105.556 408.271 106.668C411.662 108.709 409.448 115.071 412.824 117.121C413.459 117.508 414.209 117.662 414.863 118.015C417.716 119.572 417.314 123.691 416.8 126.897C416.287 130.102 416.897 134.487 420.118 134.942C421.891 135.188 423.881 134.018 425.373 135C426.153 135.512 426.506 136.45 427.16 137.132C427.609 137.579 428.179 137.885 428.801 138.013C429.422 138.141 430.067 138.085 430.657 137.852C431.752 137.398 432.541 136.358 433.679 136.025C435.51 135.488 437.554 136.968 439.317 136.286C441.08 135.604 441.482 133.061 441.026 131.142C440.571 129.222 439.641 127.274 440.126 125.34C440.528 123.745 441.835 122.526 442.407 120.989C444.082 116.449 438.886 111.759 439.845 107.016C440.261 104.962 441.811 103.149 441.782 101.075C441.733 98.6572 439.588 96.8249 437.355 95.9353C435.122 95.0457 432.672 94.7943 430.487 93.8032C425.697 91.6275 423.077 86.3674 418.699 83.4472C416.738 82.1697 414.527 81.3226 412.214 80.9621C409.228 80.4824 406.174 80.6439 403.256 81.4359C400.338 82.228 397.623 83.6323 395.292 85.5551C394.86 85.9032 394.42 86.232 393.974 86.5511C392.105 87.9 390.1 89.2295 388.961 91.2311C384.806 98.4542 394.352 99.2809 398.793 100.282Z" fill="black"/>
</g>
<path d="M399.133 99.6004C400.261 99.8518 401.52 100.205 402.077 101.215C402.479 101.95 402.407 102.873 402.799 103.633C403.806 105.528 406.761 104.875 408.611 105.987C412.001 108.027 409.788 114.39 413.164 116.44C413.798 116.826 414.549 116.981 415.203 117.334C418.055 118.891 417.653 123.01 417.14 126.216C416.627 129.421 417.237 133.806 420.458 134.26C422.23 134.507 424.221 133.337 425.712 134.318C426.492 134.831 426.846 135.769 427.5 136.451C427.949 136.898 428.519 137.204 429.14 137.332C429.761 137.46 430.407 137.404 430.996 137.171C432.091 136.717 432.88 135.677 434.019 135.343C435.849 134.807 437.893 136.286 439.656 135.605C441.419 134.923 441.821 132.38 441.366 130.46C440.911 128.541 439.981 126.593 440.465 124.659C440.867 123.063 442.175 121.845 442.746 120.307C444.422 115.768 439.225 111.078 440.184 106.335C440.601 104.28 442.15 102.467 442.121 100.393C442.073 97.9759 439.927 96.1436 437.695 95.254C435.462 94.3644 433.011 94.113 430.827 93.1219C426.037 90.9462 423.417 85.6861 419.038 82.7659C417.26 81.6002 415.268 80.7953 413.178 80.3969C410.101 79.8076 406.931 79.9042 403.895 80.6798C400.859 81.4554 398.032 82.8908 395.617 84.8835C395.19 85.2268 394.75 85.5555 394.314 85.8504C392.444 87.1993 390.439 88.5289 389.301 90.5305C385.145 97.7729 394.696 98.6044 399.133 99.6004Z" fill="#255F85"/>
<path d="M301.657 175.104H217.385V159.251C237.973 149.644 269.653 144.248 301.657 175.104Z" fill="#255F85"/>
<g opacity="0.1">
<path opacity="0.1" d="M367.041 172.836V175.104H261.942V174.62C261.942 174.62 313.659 124.353 367.041 172.836Z" fill="black"/>
</g>
<path d="M368.01 172.836V175.104H262.911V174.62C262.911 174.62 314.627 124.353 368.01 172.836Z" fill="#255F85"/>
<path d="M234.82 111.769C239.1 111.769 242.57 108.306 242.57 104.033C242.57 99.7612 239.1 96.2979 234.82 96.2979C230.541 96.2979 227.071 99.7612 227.071 104.033C227.071 108.306 230.541 111.769 234.82 111.769Z" fill="#255F85"/>
<path d="M300.795 98.1831C299.909 98.1831 298.921 98.1831 298.248 98.2363C297.947 98.2528 297.65 98.3131 297.366 98.4152L292.809 100.049C296.489 100.141 300.33 100.112 304.103 100.083L325.258 99.9188C327.418 99.9188 329.685 99.8801 331.482 99.7544C332.688 99.6674 333.574 99.5417 334.688 99.445C338.694 99.0872 344.53 99.1549 349.746 99.1743C354.962 99.1936 361.258 99.0582 363.094 98.5361H351.896C350.69 98.5361 349.421 98.5361 348.356 98.478C347.111 98.4055 346.351 98.2702 345.256 98.1735C343.445 98.0188 340.946 97.9994 338.621 97.9898C325.859 97.9366 313.257 98.2363 300.795 98.1831Z" fill="#F4F4F4"/>
<path d="M313.329 107.553C313.135 107.553 312.922 107.553 312.777 107.553C312.71 107.557 312.645 107.57 312.583 107.592L311.614 107.945C312.413 107.945 313.242 107.945 314.06 107.945L318.642 107.911C319.126 107.911 319.61 107.911 319.988 107.877C320.25 107.877 320.443 107.829 320.681 107.809C321.548 107.732 322.812 107.747 323.945 107.751C324.916 107.784 325.888 107.737 326.851 107.611H324.429C324.168 107.611 323.892 107.611 323.664 107.611C323.437 107.611 323.228 107.568 322.991 107.544C322.599 107.51 322.056 107.505 321.538 107.505C318.777 107.505 316.046 107.568 313.329 107.553Z" fill="#F4F4F4"/>
<path d="M280.88 121.09C280.686 121.09 280.473 121.09 280.327 121.09C280.261 121.094 280.196 121.107 280.134 121.129L279.165 121.482C279.964 121.482 280.792 121.482 281.611 121.482L286.193 121.448C286.677 121.448 287.161 121.448 287.539 121.414C287.801 121.414 287.994 121.366 288.232 121.347C289.099 121.269 290.363 121.284 291.496 121.289C292.467 121.321 293.439 121.274 294.402 121.148H291.98C291.719 121.148 291.443 121.148 291.215 121.148C290.987 121.148 290.779 121.105 290.542 121.081C290.15 121.047 289.607 121.042 289.089 121.042C286.328 121.042 283.597 121.105 280.88 121.09Z" fill="#F4F4F4"/>
<path d="M262.674 170.815H259.032C259.032 170.815 257.893 131.055 262.674 118.784H263.584C263.584 118.784 260.397 163.771 262.674 170.815Z" fill="#255F85"/>
<path d="M260.17 116.739C260.17 116.739 257.211 124.919 258.576 128.555C258.576 128.555 260.625 121.056 263.013 119.92C265.4 118.784 267.904 128.555 267.904 128.555C267.904 128.555 269.27 122.42 266.766 117.435C266.766 117.435 271.774 120.162 274.278 125.388C274.278 125.388 274.733 122.004 268.815 114.935C268.815 114.935 274.051 116.299 277.465 119.48C277.465 119.48 278.603 116.98 271.547 112.89C271.547 112.89 272.457 109.936 277.92 111.3C277.92 111.3 277.92 107.432 269.27 108.118C269.27 108.118 269.27 105.619 274.961 106.073C274.961 106.073 274.961 102.892 268.36 104.028C268.36 104.028 269.726 101.983 270.636 101.529C269.497 101.424 268.36 101.748 267.449 102.438C267.449 102.438 267.677 98.3475 264.262 96.7568L263.807 102.438C263.807 102.438 259.981 97.9365 260.848 98.8019C261.075 99.0292 261.758 101.756 261.531 103.119C261.531 103.119 257.656 99.9381 252.881 103.347C252.881 103.347 258.799 103.801 259.71 105.846C259.71 105.846 254.702 104.937 253.564 105.619C253.564 105.619 257.438 106.982 257.206 107.891C257.206 107.891 250.377 107.891 249.457 110.391C249.457 110.391 256.513 111.3 256.968 111.981C256.968 111.981 248.774 117.889 248.318 119.48C248.318 119.48 256.741 114.481 258.107 114.481C259.472 114.481 251.96 121.733 252.416 123.57C252.435 123.556 258.601 116.284 260.17 116.739Z" fill="#255F85"/>
<path d="M307.595 169.326H310.375C310.375 169.326 311.247 138.95 307.595 129.575H306.897C306.897 129.575 309.338 163.936 307.595 169.326Z" fill="#255F85"/>
<path d="M309.508 128.014C309.508 128.014 311.77 134.265 310.724 137.041C310.724 137.041 309.16 131.311 307.334 130.446C305.508 129.581 303.595 137.041 303.595 137.041C303.595 137.041 302.554 132.356 304.467 128.536C302.019 129.983 300.029 132.089 298.727 134.614C298.727 134.614 298.379 132.008 302.902 126.627C302.902 126.627 298.902 127.666 296.296 130.098C296.296 130.098 295.424 128.188 300.82 125.065C300.82 125.065 300.122 122.807 295.952 123.851C295.952 123.851 295.952 120.902 302.558 121.434C302.558 121.434 302.558 119.524 298.199 119.872C298.199 119.872 298.199 117.455 303.241 118.311C303.241 118.311 302.2 116.749 301.503 116.401C302.368 116.325 303.232 116.573 303.924 117.097C303.924 117.097 303.75 113.974 306.346 112.746L306.694 117.097C306.694 117.097 309.6 113.66 308.956 114.322C308.54 115.369 308.361 116.495 308.433 117.619C308.433 117.619 311.388 115.202 315.039 117.794C315.039 117.794 310.516 118.142 309.823 119.703C309.823 119.703 313.649 119.007 314.516 119.529C314.516 119.529 311.562 120.569 311.736 121.265C311.736 121.265 316.952 121.265 317.65 123.175C317.65 123.175 312.259 123.871 311.911 124.388C311.911 124.388 318.173 128.904 318.517 130.117C318.517 130.117 312.085 126.298 311.039 126.298C309.993 126.298 315.732 131.853 315.398 133.24C315.422 133.221 310.729 127.676 309.508 128.014Z" fill="#255F85"/>
<path d="M340.882 163.389H342.606C342.606 163.389 343.144 144.577 340.882 138.771H340.451C340.451 138.771 341.957 160.067 340.882 163.389Z" fill="#6C63FF"/>
<path d="M342.069 137.804C342.069 137.804 343.469 141.672 342.825 143.393C342.825 143.393 341.856 139.845 340.723 139.308C339.589 138.771 338.408 143.393 338.408 143.393C338.408 143.393 337.763 140.492 338.945 138.123C337.429 139.018 336.197 140.322 335.39 141.885C335.39 141.885 335.177 140.27 337.977 136.939C336.474 137.356 335.079 138.09 333.884 139.09C333.884 139.09 333.346 137.906 336.683 135.972C336.683 135.972 336.252 134.575 333.666 135.218C333.666 135.218 333.666 133.39 337.759 133.714C337.759 133.714 337.759 132.53 335.066 132.747C335.066 132.747 335.066 131.244 338.19 131.78C337.901 131.327 337.538 130.927 337.114 130.596C337.653 130.546 338.19 130.7 338.621 131.026C338.621 131.026 338.514 129.092 340.127 128.338L340.34 131.026C340.34 131.026 342.151 128.899 341.74 129.305C341.482 129.953 341.371 130.649 341.415 131.345C342.014 130.91 342.739 130.684 343.48 130.703C344.22 130.723 344.933 130.986 345.508 131.451C345.508 131.451 342.708 131.664 342.277 132.636C342.277 132.636 344.646 132.206 345.183 132.53C345.183 132.53 343.353 133.173 343.459 133.603C343.459 133.603 346.69 133.603 347.121 134.787C347.121 134.787 343.784 135.218 343.566 135.542C343.566 135.542 347.44 138.336 347.658 139.09C347.658 139.09 343.672 136.726 343.028 136.726C342.384 136.726 345.934 140.168 345.721 141.024C345.731 141.029 342.82 137.587 342.069 137.804Z" fill="#255F85"/>
<path d="M277.92 142.117L277.557 140.183C277.556 140.041 277.527 139.9 277.47 139.77C277.414 139.639 277.331 139.522 277.228 139.424L275.547 138.602C275.423 138.457 275.322 138.294 275.247 138.119L275.276 138.075C275.368 137.96 275.434 137.827 275.469 137.683C275.473 137.646 275.473 137.609 275.469 137.572H275.494C275.649 137.593 275.806 137.555 275.934 137.465C276.062 137.376 276.152 137.241 276.186 137.089V137.045C276.156 137.176 276.085 137.293 275.983 137.381C275.881 137.468 275.754 137.52 275.62 137.529C275.853 137.372 276.045 137.161 276.178 136.913C276.31 136.665 276.38 136.388 276.38 136.107C276.38 136.107 276.38 136.059 276.38 136.035C276.454 135.989 276.518 135.929 276.567 135.857C276.616 135.786 276.65 135.704 276.666 135.619V135.575C276.645 135.656 276.608 135.733 276.558 135.799C276.507 135.865 276.443 135.921 276.37 135.962C276.359 135.797 276.323 135.634 276.264 135.479H276.307C276.473 135.479 276.632 135.413 276.749 135.296C276.866 135.179 276.932 135.02 276.932 134.855C276.932 134.855 276.932 134.826 276.932 134.812C276.921 134.968 276.851 135.115 276.736 135.223C276.621 135.331 276.47 135.391 276.312 135.392H276.235V135.363C276.42 135.307 276.586 135.2 276.713 135.053C276.84 134.907 276.923 134.727 276.951 134.536C276.951 134.536 276.951 134.507 276.951 134.492C276.943 134.614 276.899 134.73 276.826 134.826C276.834 134.671 276.784 134.519 276.686 134.399C276.587 134.278 276.448 134.199 276.294 134.176C276.14 134.153 275.984 134.188 275.854 134.274C275.725 134.361 275.633 134.492 275.595 134.642L275.484 134.579C275.519 134.455 275.592 134.344 275.692 134.263C275.793 134.181 275.916 134.133 276.046 134.125H276.002C275.871 134.124 275.743 134.164 275.636 134.239C275.53 134.315 275.449 134.422 275.406 134.546C275.032 134.372 274.607 134.339 274.211 134.453C273.814 134.566 273.471 134.819 273.246 135.164C273.116 135.261 272.946 135.401 272.951 135.522C272.895 135.578 272.845 135.64 272.801 135.706C272.616 136.11 272.549 136.557 272.607 136.997C272.634 137.216 272.607 137.437 272.53 137.644C272.452 137.85 272.326 138.034 272.161 138.181C272.234 138.211 272.311 138.227 272.389 138.227C272.467 138.227 272.545 138.211 272.617 138.181C272.761 138.121 272.896 138.041 273.019 137.944C273.133 137.875 273.231 137.781 273.304 137.669V137.645C273.385 137.698 273.471 137.744 273.561 137.78C273.595 138.07 273.605 138.404 273.474 138.515L273.498 138.462C273.186 138.696 272.798 138.807 272.408 138.771C272.174 138.784 271.946 138.858 271.748 138.985C271.551 139.112 271.389 139.288 271.28 139.496L270.752 141.696V141.735V141.774C270.76 141.803 270.776 141.83 270.798 141.851C270.82 141.873 270.848 141.888 270.878 141.894L271.043 141.938C271.068 142.314 271.03 142.691 270.931 143.055C270.821 143.596 270.758 144.146 270.742 144.699C270.781 144.974 270.849 146.41 270.883 147.092C270.824 147.325 270.777 147.56 270.742 147.798L269.963 152.468C269.963 152.468 269.381 156.205 269.41 157.337L269.309 157.989C269.309 157.989 267.725 159.971 268.19 160.252C268.655 160.532 269.372 160.653 270.055 159.599C270.147 159.351 270.296 159.127 270.491 158.946C270.568 158.88 270.628 158.795 270.666 158.7C270.704 158.605 270.719 158.502 270.708 158.4L270.66 157.917L270.742 157.946H270.791C270.791 157.946 271.571 155.388 271.483 153.594C271.483 153.594 272.936 148.46 274.026 147.653V147.619L274.128 147.57L274.36 152.545L274.123 158.028L274.07 158.357C274.07 158.357 272.486 160.339 272.951 160.619C273.416 160.9 274.133 161.021 274.816 159.967C274.908 159.718 275.057 159.495 275.251 159.314C275.329 159.247 275.389 159.162 275.427 159.067C275.465 158.972 275.48 158.869 275.469 158.768L275.397 158.042C275.668 157.119 276.365 154.46 276.08 152.918L276.564 149.64C277.048 149.093 276.985 147.706 276.985 147.706C277.368 146.908 277.47 143.78 277.47 143.78L277.567 142.233C277.639 142.227 277.712 142.227 277.784 142.233H277.833H277.862V142.204C277.876 142.192 277.887 142.177 277.896 142.16H277.925V142.122L277.92 142.117ZM276.564 145.259C276.52 145.153 276.472 145.047 276.419 144.94H276.38V144.902C276.379 144.889 276.379 144.876 276.38 144.863V144.824C276.403 144.772 276.422 144.719 276.438 144.665C276.501 144.565 276.533 144.449 276.53 144.331C276.587 144.637 276.599 144.95 276.564 145.259ZM276.419 143.935L276.322 142.9L276.351 142.818L276.482 144.133L276.419 143.935ZM271.827 144.075C271.794 144.113 271.769 144.158 271.754 144.206C271.739 144.254 271.734 144.305 271.74 144.355C271.74 144.355 271.74 144.355 271.74 144.389C271.741 144.494 271.755 144.598 271.784 144.699L271.634 145.346V144.109C271.733 143.978 271.821 143.839 271.895 143.693C271.91 143.824 271.887 143.957 271.827 144.075Z" fill="url(#paint2_linear)"/>
<path d="M272.805 136.088C272.627 136.476 272.562 136.907 272.617 137.331C272.642 137.541 272.616 137.755 272.541 137.954C272.466 138.152 272.344 138.33 272.186 138.472C272.255 138.501 272.33 138.516 272.406 138.516C272.482 138.516 272.556 138.501 272.626 138.472C272.765 138.413 272.895 138.337 273.014 138.244C273.125 138.177 273.219 138.087 273.29 137.978C273.357 137.811 273.379 137.63 273.353 137.451C273.353 137.135 273.381 136.82 273.435 136.509C273.464 136.315 273.648 135.788 273.435 135.687C273.222 135.585 272.898 135.943 272.805 136.088Z" fill="#72351C"/>
<path d="M269.604 156.64L269.454 157.606C269.454 157.606 267.929 159.54 268.379 159.787C268.829 160.034 269.517 160.174 270.176 159.158C270.264 158.92 270.407 158.704 270.592 158.53C270.667 158.465 270.725 158.384 270.761 158.292C270.797 158.2 270.811 158.101 270.801 158.003L270.651 156.528L269.604 156.64Z" fill="#333333"/>
<path d="M274.195 157.022L274.045 157.989C274.045 157.989 272.519 159.923 272.97 160.17C273.42 160.416 274.108 160.557 274.767 159.541C274.855 159.302 274.998 159.087 275.183 158.913C275.258 158.848 275.316 158.766 275.352 158.675C275.388 158.583 275.402 158.484 275.392 158.386L275.241 156.911L274.195 157.022Z" fill="#333333"/>
<path d="M271.818 145.462C271.818 145.462 271.101 145.98 270.85 147.778L270.099 152.279C270.099 152.279 269.464 156.36 269.581 157.143L270.85 157.578C270.85 157.578 271.6 155.112 271.518 153.396C271.518 153.396 273.044 147.971 274.114 147.594L274.342 152.386L274.099 157.776L275.184 157.994C275.184 157.994 276.284 154.561 275.935 152.743L276.502 148.876C276.502 148.876 277.151 146.811 276.25 145.008L271.818 145.462Z" fill="#4D8AF0"/>
<g opacity="0.1">
<path opacity="0.1" d="M274.002 147.667V147.585C272.931 147.967 271.406 153.387 271.406 153.387C271.38 154.79 271.16 156.182 270.752 157.525L270.888 157.573C270.888 157.573 271.638 155.108 271.556 153.391C271.551 153.396 272.946 148.465 274.002 147.667Z" fill="black"/>
<path opacity="0.1" d="M276.293 145.032H276.148C276.668 146.244 276.754 147.598 276.39 148.866L275.823 152.734C276.157 154.455 275.184 157.622 275.082 157.955L275.222 157.984C275.222 157.984 276.322 154.552 275.973 152.734L276.54 148.866C276.54 148.866 277.194 146.811 276.293 145.032Z" fill="black"/>
</g>
<path d="M270.845 141.938C270.844 141.975 270.856 142.011 270.879 142.04C270.902 142.069 270.934 142.089 270.971 142.097C271.325 142.186 271.656 142.351 271.939 142.581C272.472 142.996 271.373 141.749 271.373 141.749L271.005 141.831L270.854 141.967L270.845 141.938Z" fill="#F55F44"/>
<path opacity="0.1" d="M270.845 141.938C270.844 141.975 270.856 142.011 270.879 142.04C270.902 142.069 270.934 142.089 270.971 142.097C271.325 142.186 271.656 142.351 271.939 142.581C272.472 142.996 271.373 141.749 271.373 141.749L271.005 141.831L270.854 141.967L270.845 141.938Z" fill="black"/>
<path d="M276.085 143.04C276.533 142.723 277.051 142.519 277.596 142.446C277.633 142.446 277.669 142.431 277.695 142.405C277.722 142.378 277.736 142.343 277.736 142.305C277.736 142.305 276.468 141.808 276.085 143.04Z" fill="#F55F44"/>
<path opacity="0.1" d="M277.736 142.3C277.736 142.3 276.468 141.816 276.085 143.035C276.085 143.035 277.02 142.319 277.669 142.435" fill="black"/>
<path d="M274.612 138.123C275.525 138.123 276.264 137.385 276.264 136.475C276.264 135.564 275.525 134.826 274.612 134.826C273.7 134.826 272.961 135.564 272.961 136.475C272.961 137.385 273.7 138.123 274.612 138.123Z" fill="#72351C"/>
<path d="M273.474 137.63C273.474 137.63 273.707 138.597 273.474 138.795C273.242 138.993 272.772 139.361 273.125 139.646C273.479 139.931 274.743 140.415 275.165 140.178C275.586 139.941 276.065 140.013 275.949 139.53C275.833 139.046 274.913 139.148 274.898 136.745L273.474 137.63Z" fill="#FDB797"/>
<path opacity="0.1" d="M271.134 141.647C271.169 142.172 271.135 142.698 271.033 143.214C270.926 143.735 270.864 144.264 270.849 144.795C270.897 145.143 270.999 147.444 270.999 147.444C270.999 147.444 270.815 149.46 271.798 149.277C272.781 149.093 271.648 146.975 271.648 146.975L271.696 144.224C271.963 143.863 272.13 143.438 272.18 142.992C272.253 142.329 271.134 141.647 271.134 141.647Z" fill="black"/>
<path d="M271.12 141.647C271.154 142.172 271.12 142.698 271.018 143.214C270.911 143.735 270.849 144.264 270.834 144.795C270.882 145.143 270.984 147.444 270.984 147.444C270.984 147.444 270.8 149.46 271.783 149.277C272.766 149.093 271.633 146.975 271.633 146.975L271.682 144.224C271.948 143.863 272.115 143.438 272.166 142.992C272.234 142.329 271.12 141.647 271.12 141.647Z" fill="#FDB797"/>
<path opacity="0.1" d="M277.412 141.798L277.276 143.949C277.276 143.949 277.194 146.966 276.826 147.73C276.826 147.73 276.927 149.848 275.939 149.794C274.951 149.741 276.104 147.479 276.104 147.479C276.104 147.479 276.632 145.124 276.361 144.38L276.104 141.798H277.412Z" fill="black"/>
<path d="M277.426 141.798L277.291 143.949C277.291 143.949 277.208 146.966 276.84 147.73C276.84 147.73 276.942 149.848 275.954 149.794C274.966 149.741 276.119 147.479 276.119 147.479C276.119 147.479 276.646 145.124 276.375 144.38L276.119 141.798H277.426Z" fill="#FDB797"/>
<path opacity="0.1" d="M274.225 139.714C274.225 139.714 275.024 140.081 275.46 138.988L277.082 139.781C277.182 139.876 277.262 139.99 277.316 140.116C277.37 140.243 277.398 140.379 277.397 140.516L277.746 142.382C277.746 142.382 276.559 141.981 276.191 143.083L276.293 144.133C276.369 144.392 276.351 144.669 276.24 144.916C276.23 144.938 276.225 144.962 276.225 144.986C276.225 145.01 276.23 145.034 276.24 145.056C276.264 145.132 276.27 145.213 276.257 145.292C276.244 145.372 276.213 145.447 276.166 145.511C276.119 145.576 276.057 145.629 275.986 145.666C275.915 145.703 275.836 145.722 275.755 145.723C275.319 145.728 274.884 145.762 274.453 145.825C274.104 145.926 273.048 145.626 272.699 145.825C272.351 146.023 271.614 145.675 271.614 145.675L271.813 144.824C271.813 144.824 271.677 144.408 271.847 144.258C272.016 144.108 271.915 142.808 271.765 142.44C271.765 142.44 271.164 141.875 270.796 141.957L271.28 139.805C271.385 139.605 271.54 139.435 271.73 139.312C271.92 139.189 272.139 139.117 272.365 139.104C272.741 139.138 273.115 139.031 273.416 138.805C273.416 138.805 273.053 139.598 274.225 139.714Z" fill="black"/>
<path opacity="0.1" d="M274.307 139.675C274.525 139.733 275.106 139.796 275.455 138.921L277.078 139.714C277.177 139.809 277.257 139.923 277.311 140.049C277.365 140.175 277.393 140.311 277.392 140.449L277.741 142.315C277.741 142.315 276.555 141.914 276.186 143.016L276.288 144.065L276.356 144.273C276.385 144.362 276.393 144.457 276.378 144.549C276.364 144.641 276.328 144.729 276.274 144.805C276.251 144.831 276.235 144.863 276.229 144.897C276.223 144.931 276.227 144.966 276.24 144.998C276.264 145.075 276.27 145.156 276.257 145.235C276.244 145.314 276.213 145.389 276.166 145.454C276.119 145.519 276.057 145.572 275.986 145.608C275.915 145.645 275.836 145.665 275.755 145.666C275.319 145.671 274.884 145.705 274.453 145.767C274.104 145.869 273.048 145.569 272.699 145.767C272.351 145.965 271.614 145.617 271.614 145.617L271.813 144.766C271.813 144.766 271.677 144.351 271.847 144.201C272.016 144.051 271.915 142.75 271.765 142.383C271.765 142.383 271.164 141.817 270.796 141.899L271.28 139.748C271.385 139.547 271.54 139.377 271.73 139.254C271.92 139.131 272.139 139.06 272.365 139.047C272.741 139.08 273.115 138.974 273.416 138.747C273.416 138.747 273.024 139.463 274.055 139.617L274.307 139.675Z" fill="black"/>
<path d="M274.307 139.708C274.525 139.766 275.106 139.829 275.455 138.954L277.078 139.747C277.177 139.842 277.257 139.956 277.311 140.082C277.365 140.209 277.393 140.345 277.392 140.482L277.741 142.348C277.741 142.348 276.554 141.947 276.186 143.049L276.288 144.098C276.365 144.357 276.346 144.635 276.235 144.882C276.225 144.904 276.22 144.928 276.22 144.952C276.22 144.976 276.225 145 276.235 145.022C276.259 145.098 276.265 145.179 276.252 145.258C276.239 145.337 276.208 145.412 276.161 145.477C276.114 145.542 276.052 145.595 275.981 145.632C275.91 145.669 275.831 145.688 275.75 145.689C275.314 145.694 274.879 145.728 274.448 145.79C274.099 145.892 273.043 145.592 272.694 145.79C272.346 145.989 271.61 145.641 271.61 145.641L271.808 144.79C271.808 144.79 271.673 144.374 271.842 144.224C272.012 144.074 271.91 142.774 271.76 142.406C271.76 142.406 271.159 141.841 270.791 141.923L271.275 139.771C271.38 139.571 271.535 139.401 271.725 139.278C271.915 139.155 272.134 139.083 272.36 139.07C272.736 139.104 273.11 138.997 273.411 138.771C273.411 138.771 273.019 139.486 274.051 139.641L274.307 139.708Z" fill="#F55F44"/>
<path opacity="0.1" d="M274.922 136.832L273.503 137.717C273.539 137.876 273.566 138.038 273.585 138.2C273.747 138.265 273.92 138.297 274.094 138.297C274.441 138.273 274.767 138.125 275.014 137.881C274.95 137.535 274.919 137.184 274.922 136.832Z" fill="black"/>
<path d="M274.065 138.191C274.822 138.191 275.436 137.578 275.436 136.822C275.436 136.067 274.822 135.454 274.065 135.454C273.308 135.454 272.694 136.067 272.694 136.822C272.694 137.578 273.308 138.191 274.065 138.191Z" fill="#FDB797"/>
<path d="M276.085 135.773C276.417 135.773 276.686 135.505 276.686 135.174C276.686 134.843 276.417 134.574 276.085 134.574C275.753 134.574 275.484 134.843 275.484 135.174C275.484 135.505 275.753 135.773 276.085 135.773Z" fill="#72351C"/>
<path d="M276.201 135.807C276.049 135.807 275.903 135.75 275.791 135.647C275.68 135.544 275.612 135.402 275.601 135.251C275.601 135.251 275.601 135.28 275.601 135.294C275.601 135.453 275.664 135.606 275.777 135.718C275.889 135.831 276.042 135.894 276.201 135.894C276.36 135.894 276.513 135.831 276.626 135.718C276.738 135.606 276.802 135.453 276.802 135.294C276.802 135.294 276.802 135.265 276.802 135.251C276.791 135.402 276.723 135.544 276.611 135.647C276.5 135.75 276.353 135.807 276.201 135.807Z" fill="#72351C"/>
<path d="M275.857 136.377C275.708 136.349 275.575 136.265 275.485 136.143C275.395 136.021 275.355 135.87 275.372 135.72V135.758C275.343 135.915 275.378 136.076 275.468 136.207C275.559 136.338 275.697 136.428 275.854 136.457C276.011 136.486 276.173 136.451 276.304 136.361C276.435 136.271 276.525 136.132 276.554 135.976V135.932C276.517 136.082 276.424 136.211 276.294 136.294C276.165 136.377 276.008 136.407 275.857 136.377Z" fill="#72351C"/>
<path d="M275.392 137.828C275.243 137.8 275.11 137.717 275.02 137.595C274.93 137.473 274.89 137.321 274.907 137.171V137.21C274.879 137.366 274.913 137.527 275.003 137.658C275.094 137.79 275.233 137.879 275.389 137.908C275.546 137.937 275.708 137.903 275.839 137.812C275.97 137.722 276.06 137.584 276.089 137.427V137.384C276.052 137.533 275.959 137.662 275.829 137.745C275.7 137.828 275.543 137.858 275.392 137.828Z" fill="#72351C"/>
<path d="M276.201 135.489C276.048 135.489 275.901 135.431 275.79 135.327C275.678 135.223 275.61 135.08 275.601 134.928C275.601 134.928 275.601 134.957 275.601 134.971C275.601 135.13 275.664 135.283 275.777 135.395C275.889 135.508 276.042 135.571 276.201 135.571C276.36 135.571 276.513 135.508 276.626 135.395C276.738 135.283 276.802 135.13 276.802 134.971C276.802 134.971 276.802 134.942 276.802 134.928C276.792 135.08 276.724 135.223 276.613 135.327C276.501 135.431 276.354 135.489 276.201 135.489Z" fill="#72351C"/>
<path d="M275.363 135.164C275.364 135.012 275.423 134.865 275.528 134.755C275.633 134.644 275.777 134.578 275.929 134.569H275.886C275.726 134.569 275.574 134.632 275.461 134.745C275.348 134.857 275.285 135.01 275.285 135.169C275.285 135.328 275.348 135.48 275.461 135.593C275.574 135.705 275.726 135.768 275.886 135.768H275.929C275.775 135.76 275.63 135.692 275.525 135.579C275.419 135.467 275.361 135.318 275.363 135.164Z" fill="#72351C"/>
<path opacity="0.1" d="M275.968 140.821C276.031 141.118 276.031 141.424 275.968 141.721C275.968 141.721 275.886 142.504 276.016 142.639" fill="black"/>
<path opacity="0.1" d="M271.909 141.005C271.973 141.301 271.973 141.608 271.909 141.904C271.909 141.904 271.827 142.687 271.958 142.823" fill="black"/>
<path opacity="0.1" d="M271.876 144.22C272.006 144.266 272.148 144.266 272.278 144.22C272.436 144.172 272.604 144.172 272.762 144.22" fill="black"/>
<path opacity="0.1" d="M272.079 143.04C272.551 143.062 273.022 142.988 273.464 142.822C273.464 142.822 275.169 143.238 275.653 142.938" fill="black"/>
<path d="M271.566 150.225H271.164C270.985 150.225 270.84 150.37 270.84 150.549C270.84 150.727 270.985 150.872 271.164 150.872H271.566C271.746 150.872 271.891 150.727 271.891 150.549C271.891 150.37 271.746 150.225 271.566 150.225Z" fill="#FDB797"/>
<path d="M270.845 150.398L271.407 150.374L271.891 150.451H271.721L270.845 150.398Z" fill="#F0E4E4"/>
<path d="M274.632 147.687H275.194L275.678 147.735H275.508L274.632 147.687Z" fill="#F0E4E4"/>
<path d="M274.632 147.802H275.194L275.678 147.85H275.508L274.632 147.802Z" fill="#F0E4E4"/>
<path d="M274.632 147.923H275.194L275.678 147.971H275.508L274.632 147.923Z" fill="#F0E4E4"/>
<path d="M274.632 148.039H275.194L275.678 148.087H275.508L274.632 148.039Z" fill="#F0E4E4"/>
<path d="M270.845 150.848H271.407L271.891 150.906H271.721L270.845 150.848Z" fill="#F0E4E4"/>
<path d="M270.845 150.79H271.407L271.891 150.848H271.721L270.845 150.79Z" fill="#F0E4E4"/>
<path d="M270.845 150.732H271.407L271.891 150.79H271.721L270.845 150.732Z" fill="#F0E4E4"/>
<path d="M270.845 150.674H271.407L271.891 150.732H271.721L270.845 150.674Z" fill="#F0E4E4"/>
<path d="M270.845 150.311L271.407 150.287L271.891 150.364H271.721L270.845 150.311Z" fill="#F0E4E4"/>
<path d="M270.845 150.21L271.407 150.186L271.891 150.263H271.721L270.845 150.21Z" fill="#F0E4E4"/>
<path opacity="0.1" d="M274.297 135.947C274.244 136.458 274.31 136.975 274.491 137.456C274.581 137.689 274.621 137.939 274.608 138.189C274.596 138.439 274.531 138.683 274.418 138.906C274.493 138.923 274.57 138.923 274.644 138.904C274.718 138.886 274.787 138.85 274.845 138.8C274.965 138.695 275.069 138.573 275.155 138.437C275.245 138.327 275.309 138.198 275.344 138.06C275.358 137.843 275.325 137.625 275.247 137.422C275.153 137.052 275.085 136.675 275.043 136.296C275.014 136.063 275.043 135.396 274.782 135.329C274.52 135.261 274.346 135.754 274.297 135.947Z" fill="black"/>
<path d="M274.332 135.933C274.278 136.444 274.344 136.96 274.525 137.441C274.615 137.675 274.655 137.924 274.643 138.174C274.63 138.424 274.565 138.668 274.453 138.892C274.527 138.909 274.604 138.908 274.679 138.89C274.753 138.871 274.821 138.835 274.879 138.785C274.999 138.68 275.104 138.558 275.189 138.423C275.279 138.312 275.343 138.184 275.378 138.046C275.392 137.828 275.359 137.611 275.281 137.407C275.187 137.037 275.119 136.661 275.077 136.281C275.048 136.049 275.077 135.382 274.816 135.314C274.554 135.246 274.38 135.735 274.332 135.933Z" fill="#72351C"/>
<path opacity="0.1" d="M273.74 136.291C273.857 136.412 273.881 136.591 273.978 136.726C274.064 136.818 274.169 136.89 274.287 136.937C274.404 136.984 274.53 137.004 274.656 136.997C274.725 136.993 274.793 137.008 274.854 137.04C274.961 137.108 274.966 137.263 275.034 137.369C275.07 137.408 275.114 137.439 275.162 137.46C275.211 137.481 275.264 137.492 275.317 137.492C275.37 137.492 275.423 137.481 275.471 137.46C275.52 137.439 275.564 137.408 275.6 137.369C275.74 137.202 275.817 136.992 275.818 136.774C275.842 136.535 275.842 136.293 275.818 136.054C275.812 135.78 275.703 135.517 275.513 135.319C275.354 135.201 275.17 135.122 274.976 135.087C274.71 134.993 274.424 134.972 274.147 135.024C274.013 135.069 273.886 135.132 273.77 135.213C273.605 135.319 273.443 135.427 273.285 135.537C273.106 135.662 272.767 135.914 273.096 136.049C273.305 136.146 273.566 136.102 273.74 136.291Z" fill="black"/>
<path d="M273.775 136.271C273.891 136.392 273.915 136.571 274.012 136.706C274.098 136.799 274.203 136.871 274.321 136.917C274.438 136.964 274.564 136.985 274.69 136.977C274.759 136.973 274.828 136.988 274.889 137.021C274.995 137.088 275 137.243 275.068 137.349C275.104 137.388 275.148 137.419 275.197 137.44C275.245 137.461 275.298 137.472 275.351 137.472C275.404 137.472 275.457 137.461 275.506 137.44C275.554 137.419 275.598 137.388 275.634 137.349C275.774 137.183 275.851 136.972 275.852 136.755C275.876 136.515 275.876 136.274 275.852 136.034C275.846 135.76 275.737 135.498 275.547 135.299C275.388 135.182 275.204 135.103 275.01 135.067C274.744 134.974 274.458 134.952 274.181 135.005C274.047 135.049 273.92 135.113 273.804 135.193C273.639 135.299 273.478 135.407 273.319 135.517C273.14 135.643 272.801 135.894 273.131 136.029C273.339 136.126 273.615 136.088 273.775 136.271Z" fill="#72351C"/>
<path d="M274.666 147.687H275.228L275.712 147.735H275.552L274.666 147.687Z" fill="#F0E4E4"/>
<path d="M274.666 147.802H275.228L275.712 147.85H275.552L274.666 147.802Z" fill="#F0E4E4"/>
<path d="M274.666 147.923H275.228L275.712 147.971H275.552L274.666 147.923Z" fill="#F0E4E4"/>
<path d="M274.666 148.039H275.228L275.712 148.087H275.552L274.666 148.039Z" fill="#F0E4E4"/>
<path d="M274.423 154.455H274.985L275.469 154.503H275.299L274.423 154.455Z" fill="#F0E4E4"/>
<path d="M274.423 154.575H274.985L275.469 154.624H275.299L274.423 154.575Z" fill="#F0E4E4"/>
<path d="M274.423 154.691H274.985L275.469 154.74H275.299L274.423 154.691Z" fill="#F0E4E4"/>
<path d="M274.423 154.808H274.985L275.469 154.856H275.299L274.423 154.808Z" fill="#F0E4E4"/>
<defs>
<linearGradient id="paint0_linear" x1="154373" y1="118558" x2="154373" y2="0" gradientUnits="userSpaceOnUse">
<stop stop-color="#808080" stop-opacity="0.25"/>
<stop offset="0.54" stop-color="#808080" stop-opacity="0.12"/>
<stop offset="1" stop-color="#808080" stop-opacity="0.1"/>
</linearGradient>
<linearGradient id="paint1_linear" x1="94643.7" y1="138530" x2="94643.7" y2="59666.3" gradientUnits="userSpaceOnUse">
<stop stop-color="#808080" stop-opacity="0.25"/>
<stop offset="0.54" stop-color="#808080" stop-opacity="0.12"/>
<stop offset="1" stop-color="#808080" stop-opacity="0.1"/>
</linearGradient>
<linearGradient id="paint2_linear" x1="7022.33" y1="12880.7" x2="7022.33" y2="11403.7" gradientUnits="userSpaceOnUse">
<stop stop-color="#808080" stop-opacity="0.25"/>
<stop offset="0.54" stop-color="#808080" stop-opacity="0.12"/>
<stop offset="1" stop-color="#808080" stop-opacity="0.1"/>
</linearGradient>
</defs>
</svg>
